<svg xmlns="http://www.w3.org/2000/svg" viewBox="0 0 1366 9679"><defs><style>.cls-1{opacity:0.3;}.cls-2,.cls-3{fill:#2e3192;}.cls-3{opacity:0.5;}.cls-4{fill:#fef8c0;}.cls-5{fill:#ffe381;}.cls-6{fill:#f78d36;}.cls-7{fill:#50c6df;}</style></defs><title>pyramid goblin 02</title><g id="About_Page" data-name="About Page"><g id="grass_shadow" data-name="grass shadow"><g id="clump_3" data-name="clump 3"><g class="cls-1"><ellipse class="cls-2" cx="157.12" cy="1542.52" rx="7.22" ry="27.52" transform="translate(-884.41 393.93) rotate(-36.39)"/></g><g class="cls-1"><ellipse class="cls-2" cx="190.73" cy="1605.77" rx="8.87" ry="33.84" transform="translate(-1409.2 1371) rotate(-74.88)"/></g><ellipse class="cls-2" cx="214.64" cy="1660.21" rx="5.85" ry="22.31" transform="translate(-1448.18 1466.84) rotate(-76)"/><g class="cls-1"><ellipse class="cls-2" cx="177.13" cy="1515.82" rx="8.87" ry="33.84" transform="translate(-682.64 254.92) rotate(-27.62)"/></g><ellipse class="cls-2" cx="209.99" cy="1641.44" rx="8.87" ry="33.84" transform="translate(-1368.01 1143.1) rotate(-65.18)"/><g class="cls-1"><ellipse class="cls-2" cx="322.6" cy="1528.6" rx="33.84" ry="8.87" transform="translate(-1014.53 720.65) rotate(-46.94)"/></g><ellipse class="cls-2" cx="293.29" cy="1648.02" rx="33.84" ry="8.87" transform="translate(-877.25 451.43) rotate(-34.28)"/></g><g id="clump_2" data-name="clump 2"><ellipse class="cls-2" cx="252.92" cy="1503.44" rx="33.48" ry="8.42" transform="translate(-1271.64 1502.83) rotate(-80.43)"/><ellipse class="cls-2" cx="267.45" cy="1509.14" rx="25.83" ry="6.49" transform="translate(-1215.03 1120.19) rotate(-65.25)"/><ellipse class="cls-2" cx="289.51" cy="1499.94" rx="33.48" ry="8.42" transform="translate(-1033.85 736.81) rotate(-49.1)"/><ellipse class="cls-2" cx="303.94" cy="1533.7" rx="33.48" ry="8.42" transform="translate(-1092.92 831.27) rotate(-52.09)"/><ellipse class="cls-2" cx="316.39" cy="1553.9" rx="25.83" ry="6.49" transform="translate(-1004.34 676.2) rotate(-44.89)"/><ellipse class="cls-2" cx="340.28" cy="1552.96" rx="33.48" ry="8.42" transform="translate(-704.81 354.94) rotate(-28.74)"/></g><g id="clump_1" data-name="clump 1"><ellipse class="cls-2" cx="128.99" cy="1570.23" rx="8.42" ry="33.48" transform="translate(-1361.5 1059.65) rotate(-66.39)"/><ellipse class="cls-2" cx="138.04" cy="1557.52" rx="6.49" ry="25.83" transform="translate(-1162.53 689.52) rotate(-51.22)"/><ellipse class="cls-2" cx="134.48" cy="1533.88" rx="8.42" ry="33.48" transform="matrix(0.82, -0.57, 0.57, 0.82, -856.96, 355.77)"/><ellipse class="cls-2" cx="170.72" cy="1528.07" rx="8.42" ry="33.48" transform="translate(-905.76 430.2) rotate(-38.06)"/><ellipse class="cls-2" cx="193.34" cy="1520.89" rx="6.49" ry="25.83" transform="translate(-752.59 314.36) rotate(-30.85)"/><ellipse class="cls-2" cx="198.22" cy="1497.49" rx="8.42" ry="33.48" transform="translate(-373.7 99.39) rotate(-14.71)"/></g><path class="cls-3" d="M354.78,1637.34c2.18,28.26-24.39,54.32-46.35,66.36-72.58,39.77-192.41-20.14-193.35-66.36-.69-34.12,63.24-70.35,119.85-70.71C286.29,1566.31,351.54,1595.39,354.78,1637.34Z"/></g><g id="pyramid_goblin" data-name="pyramid goblin"><path class="cls-4" d="M310.86,1576.22s6.93-37.63,6.32-49.16c-.37-7-10.68-22.26-24-22.26s-123.72,26.26-139.3,36.5-14.67,25.51-10.23,31.15c9.12,11.6,33.51,25.79,52.17,30.47,44.09,11.07,115.07-26.7,115.07-26.7"/><path class="cls-4" d="M322.27,1644.62c-11.13,0-12.72-12.88-24-8.46-15.45,6-6.09,18.33-13.32,31.63-3.93,7.22-23.91,18.62-38.31,11.1-23.29-12.17-50.29-58.75-59.63-109s23.59-69.42,23.59-69.42,9.89-7.84,2.83-33.62A73.71,73.71,0,0,1,211,1455l5.21,2.71.69-6.61a86.59,86.59,0,0,0,7.79,11.42c14.71,18.91,4.23,29.29,4.23,29.29,38.69-5.87,69.21,47.4,84.6,74,.85,1.49,1.66,2.88,2.41,4.19h0c1,1.65,1.85,3.14,2.66,4.45l1.17.34c16.94,5,15.94,8.09,32,45C355.86,1629.14,333.39,1644.62,322.27,1644.62Z"/><path class="cls-5" d="M272.58,1508.11s31.19,5.87,40.51,56.74c-9.13-16.11-22.88-40.73-40.51-56.74"/><path class="cls-5" d="M190.17,1584.11c-1.19-4.69-2.24-9.45-3.13-14.23-3.21-17.27-1.44-30.87,2.28-41.28,0,0-13.3,8.29-12.11,28.92.93,16.09,13.52,28.91,13.52,28.91"/><path class="cls-5" d="M319.8,1574.8a1.21,1.21,0,0,1-1.34.71c-27.43-4.61-59.1-.47-82.17,14.77a1.26,1.26,0,0,1-1.49-2c21.2-17.42,62.58-32.06,81.16-18.24h0c1,1.65,1.85,3.14,2.66,4.45Z"/><ellipse class="cls-5" cx="261.96" cy="1661.95" rx="21.05" ry="12.7" transform="translate(-493.11 158.43) rotate(-17.71)"/><path class="cls-5" d="M318.69,1574.49a43.49,43.49,0,0,1,13.07,5.7c9.8,6.41,12.78,22.84,20.11,39.66,4.05,9.32-18.42,24.79-29.54,24.79s-12.72-12.88-24-8.45a15.2,15.2,0,0,0-7.39,5.31,14.92,14.92,0,0,0-2.36,7.78c-.26,0-4.48-24.51,7.36-48.1A75.42,75.42,0,0,1,318.69,1574.49Z"/><path class="cls-2" d="M254.53,1536.85a12.26,12.26,0,0,0,4.7,2.51,5.42,5.42,0,0,0,6.49-3,12.37,12.37,0,0,0,1.21-5.19,6.92,6.92,0,0,1,2.32,6.09,7.59,7.59,0,0,1-1.29,3.49,7.43,7.43,0,0,1-3,2.53,7.47,7.47,0,0,1-7.35-.72A6.9,6.9,0,0,1,254.53,1536.85Z"/><path class="cls-2" d="M223.74,1545.66a12.23,12.23,0,0,0,4.71,2.51,5.39,5.39,0,0,0,6.49-3,12.37,12.37,0,0,0,1.21-5.19,6.93,6.93,0,0,1,2.32,6.1,7.71,7.71,0,0,1-1.29,3.48,7.5,7.5,0,0,1-3,2.53,7.49,7.49,0,0,1-7.36-.72A7,7,0,0,1,223.74,1545.66Z"/><polygon class="cls-4" points="164.19 1428.05 198.5 1426.68 219.97 1397.93 184.72 1399.34 164.19 1428.05"/><polyline class="cls-5" points="214.15 1453.94 198.5 1426.68 164.19 1428.05"/><polyline class="cls-6" points="219.97 1397.93 198.5 1426.68 214.15 1453.94"/></g><g id="log"><g id="log-2" data-name="log"><path class="cls-2" d="M589.65,1670.53c-41,7.39-84.5-1.62-124.81,7.47-19,4.29-36.68,22.07-55,25.28-9.62,1.68-20.31-5.81-30.07-4.76-10.22,1.09-23.13,10.45-32.4,15.07-20.59-8.24-31.56-39.06-35.84-58.81-4.69-21.6-2-52.19,12.14-71.21,32.71-2.1,59.24-15.79,92.12-16.84,26.12-.84,23.81-6.45,45.27-12.73,14.57-4.27,29.3-.3,43.94-4.24,21-5.65,26.47-22.87,52-13.56,15.85,5.79,18.13,16.5,25,29.44C600.09,1599.93,594.33,1632.79,589.65,1670.53Z"/><path class="cls-6" d="M347.34,1713.59c-42.43-13.95-58.2-99.45-23.7-130C358.4,1613.9,390.74,1681.54,347.34,1713.59Z"/><path class="cls-5" d="M349.25,1643.6c-1.46,14.88,3.29,28.77-6.59,41.46-14.82-10.8-30.93-34.91-26-55C323.63,1601.51,345,1620.72,349.25,1643.6Z"/></g><g id="whorls"><path class="cls-7" d="M355,1591.74c9.08,1.17,17.91,2.63,26.72,3.93q6.58,1,13.16,1.87c4.38.53,8.74,1.16,13.1,1.79s8.75,1.44,13.17,1.85a66,66,0,0,0,13.33.2,50.7,50.7,0,0,0,24.59-8.79c.92-.56,1.71-1.31,2.56-1.95l2.62-2.08c.92-.72,1.83-1.49,2.78-2.18l2.9-2a93.22,93.22,0,0,1,12.37-6.75,135.15,135.15,0,0,1,13.08-5.11A111.32,111.32,0,0,1,508.9,1569a128.5,128.5,0,0,1,13.76-1.89c4.61-.41,9.22-.59,13.82-.57a134.87,134.87,0,0,1,13.78.73,94.2,94.2,0,0,1,13.61,2.24l-.07,1c-18,2.39-35.64,4.93-52.74,8.86-4.27,1-8.52,2-12.74,3.09s-8.38,2.37-12.47,3.82-8.05,3.23-12,5c-1.95,1-3.91,1.88-5.83,2.92l-1.47.76-1.61.82c-1.08.52-2.1,1.14-3.22,1.55l-3.28,1.36-3.34,1.13c-1.09.42-2.23.69-3.34,1l-1.67.49c-.55.17-1.12.27-1.68.42-4.47,1.2-9,2-13.5,2.79s-9.07,1.48-13.67,2.1a102.45,102.45,0,0,1-13.89.93,81.42,81.42,0,0,1-13.78-1.32,130.75,130.75,0,0,1-26.51-7.47,84.88,84.88,0,0,1-12.4-6.11Z"/><path class="cls-7" d="M565.85,1554.75c-7.76,1.7-15.45,2.83-23.1,4-3.83.53-7.65,1.09-11.46,1.59s-7.61,1.07-11.42,1.48-7.65.69-11.49,1-7.72.58-11.53,1.2a59.94,59.94,0,0,0-21.62,7.58c-6.81,4.14-13.89,8.19-21.43,10.84-3.76,1.35-7.56,2.53-11.38,3.64s-7.67,2.07-11.56,2.84a154.21,154.21,0,0,1-23.56,2.57,125.42,125.42,0,0,1-23.75-1.22l-.07-1c7.62-2.36,15.2-4.2,22.76-6s15.07-3.39,22.59-4.85,15.1-2.62,22.53-4.38c3.72-.84,7.47-1.58,11.2-2.46a70.76,70.76,0,0,0,11-3.31c7.34-3.16,14.78-5.67,22.22-8.4s15-5.46,22.85-6.78a111.15,111.15,0,0,1,11.78-1.34c3.94-.29,7.89-.39,11.84-.38s7.89.22,11.83.59a88,88,0,0,1,11.78,1.8Z"/><path class="cls-7" d="M373.52,1627.88c4.63-1.16,9.28-2.12,13.92-3.09l7-1.37,7-1.22c2.33-.39,4.64-1,7-1.5a27.34,27.34,0,0,1,7-.6,44.08,44.08,0,0,1,7.15.89,30,30,0,0,1,7.28,2.44l.08,1a30.16,30.16,0,0,1-6.8,3.55,44.6,44.6,0,0,1-6.93,2,26.81,26.81,0,0,1-7,.5c-2.38-.13-4.76-.37-7.12-.38l-7.09-.11-7.11-.26c-4.74-.23-9.48-.45-14.23-.86Z"/><path class="cls-7" d="M489.94,1605.17a6.82,6.82,0,0,1,2.28-3.91,22.43,22.43,0,0,1,3.51-2.67c1.23-.78,2.5-1.5,3.79-2.17s2.6-1.33,3.93-1.93a75.43,75.43,0,0,1,16.7-5.53,85.11,85.11,0,0,1,8.8-1.26,51.08,51.08,0,0,1,9.18,0,24.39,24.39,0,0,1,4.88,1,11.53,11.53,0,0,1,5.21,3.19,8.29,8.29,0,0,1,1.79,3.34,11.17,11.17,0,0,1,.33,3.32,17.75,17.75,0,0,1-1.25,5.41,29.22,29.22,0,0,1-2.26,4.51,39.15,39.15,0,0,1-2.8,4,41.68,41.68,0,0,1-6.9,6.83,39.56,39.56,0,0,1-4.12,2.71,33,33,0,0,1-4.56,2.08,30.68,30.68,0,0,1-4.89,1.31,30.28,30.28,0,0,1-5,.44,28.57,28.57,0,0,1-9.68-1.64,33.11,33.11,0,0,1-8.39-4.48,39,39,0,0,1-6.79-6.26,21.91,21.91,0,0,1-2.61-3.73A7.79,7.79,0,0,1,489.94,1605.17Zm1,.09a5.12,5.12,0,0,0,.38,1.87,8.31,8.31,0,0,0,1,1.71,13.61,13.61,0,0,0,3,2.76,23.49,23.49,0,0,0,7.46,3.29,43,43,0,0,0,15.24,1,30.25,30.25,0,0,0,6.92-1.57,34.12,34.12,0,0,0,6.55-3.13,31.65,31.65,0,0,0,5.94-4.59,22.46,22.46,0,0,0,4.35-5.82,10.5,10.5,0,0,0,1-2.87,4.06,4.06,0,0,0,0-1,1,1,0,0,0-.13-.46,4.67,4.67,0,0,0-2-1.34,17.41,17.41,0,0,0-3.48-1,44.17,44.17,0,0,0-8-.71,80.29,80.29,0,0,0-8.32.4,118.23,118.23,0,0,0-16.72,2.59,34.53,34.53,0,0,0-7.94,3,15.31,15.31,0,0,0-3.41,2.43A5.5,5.5,0,0,0,490.93,1605.26Z"/></g><g id="mushrooms"><path class="cls-6" d="M516.88,1662.5c1.65,7.23,20.75,6.65,40.88,2.07s25.22-9.51,23.57-16.75-10.51-18.86-30.64-14.28S515.24,1655.27,516.88,1662.5Z"/><path class="cls-6" d="M558.3,1621.71c3.25,6.85,20.12,10.43,33.76,4s23.08-22.53,19.83-29.39-17.07,0-30.71,6.46S555.05,1614.85,558.3,1621.71Z"/><path class="cls-6" d="M490.17,1644.93c1.45,4.77,10.44,7.15,19.4,4.43s13.89-9.35,12.44-14.12-9.2-7.4-18.16-4.67S488.72,1640.17,490.17,1644.93Z"/><path class="cls-6" d="M466.94,1658.82c.43,2.82,5.34,4.91,10.63,4.09s8.62-4.17,8.18-7-4.6-4.94-9.89-4.13S466.51,1656,466.94,1658.82Z"/><path class="cls-6" d="M450,1651.25c.33,2.16,2.81,3.91,6.87,3.28s5.78-3,5.45-5.18-2.33-1.59-6.39-1S449.67,1649.09,450,1651.25Z"/></g><path class="cls-6" d="M340.28,1645.78c.35,1.43.75,2.85,1.15,4.33a23.94,23.94,0,0,1,.89,4.68,10,10,0,0,1-.94,5.07,10.66,10.66,0,0,1-.75,1.23,7.9,7.9,0,0,1-1.06,1.11,6.4,6.4,0,0,1-2.92,1.42,6.05,6.05,0,0,1-3.13-.29,8.66,8.66,0,0,1-1.3-.62,9.74,9.74,0,0,1-1.08-.8,18.51,18.51,0,0,1-3.1-3.71,54.53,54.53,0,0,1-4.46-8,22.93,22.93,0,0,1-1.45-4.52,17.07,17.07,0,0,1-.25-4.91,13.83,13.83,0,0,1,1.37-5.16,10.8,10.8,0,0,1,.78-1.29,10.19,10.19,0,0,1,1.09-1.2,7.49,7.49,0,0,1,3.08-1.67,7.13,7.13,0,0,1,3.47.06,9.84,9.84,0,0,1,1.5.54,10,10,0,0,1,1.27.77,10.59,10.59,0,0,1,3.25,4.1,25,25,0,0,1,1.5,4.53Zm-.51.13a12.88,12.88,0,0,0-1.87-3.9,14.85,14.85,0,0,0-3-3,15.52,15.52,0,0,0-3.13-1.87,3,3,0,0,0-2.14-.28,3.34,3.34,0,0,0-1.55,1.4,10.13,10.13,0,0,0-1.25,3.16,31,31,0,0,0-.45,8,16.66,16.66,0,0,0,.89,4.12,11.54,11.54,0,0,0,2.12,3.62,7.87,7.87,0,0,0,3.27,2.26,3.63,3.63,0,0,0,2.87-.07,5.26,5.26,0,0,0,1.76-1.79,19.94,19.94,0,0,0,1.69-3.25,15.14,15.14,0,0,0,1.11-4.09A11.81,11.81,0,0,0,339.77,1645.91Z"/></g></g></svg>