<svg xmlns="http://www.w3.org/2000/svg" viewBox="0 0 1162.6 501.09"><defs><style>.cls-1,.cls-2{fill:#2e3092;}.cls-2{opacity:0.5;}</style></defs><title>Asset 1</title><g id="Layer_2" data-name="Layer 2"><g id="bubbles"><circle class="cls-1" cx="133.23" cy="330.38" r="35.61"/><circle class="cls-2" cx="144.9" cy="125.3" r="49.2"/><circle class="cls-2" cx="70.42" cy="317.74" r="62.81"/><circle class="cls-2" cx="44.4" cy="467.37" r="33.72"/><circle class="cls-2" cx="180.94" cy="428.87" r="38.5"/><circle class="cls-2" cx="160.5" cy="284.84" r="52.38"/><circle class="cls-1" cx="173.14" cy="221.12" r="37.82"/><circle class="cls-1" cx="224.26" cy="258.21" r="18.48"/><circle class="cls-1" cx="368.77" cy="150.48" r="23.02"/><circle class="cls-1" cx="143" cy="114.68" r="22.3"/><circle class="cls-1" cx="198.18" cy="156.45" r="14.7"/><circle class="cls-1" cx="222.8" cy="68.04" r="22.29"/><circle class="cls-1" cx="337.18" cy="64.07" r="19.27"/><circle class="cls-1" cx="296.36" cy="43.97" r="19.27"/><circle class="cls-1" cx="351.31" cy="31.73" r="19.27"/><circle class="cls-1" cx="423.2" cy="192.91" r="14.7"/><circle class="cls-1" cx="483.4" cy="124.53" r="22.82"/><circle class="cls-1" cx="681.44" cy="102.32" r="20.36"/><circle class="cls-1" cx="719.23" cy="64.19" r="20.36"/><circle class="cls-1" cx="832.37" cy="112.72" r="18.13"/><circle class="cls-2" cx="831.37" cy="129.85" r="27.35"/><circle class="cls-2" cx="1105.88" cy="338.74" r="35.39"/><circle class="cls-1" cx="763.69" cy="78.15" r="50.55"/><circle class="cls-1" cx="533.88" cy="32.73" r="15.63"/><circle class="cls-1" cx="482.39" cy="39.76" r="35.87"/><circle class="cls-1" cx="344.75" cy="105.4" r="12.7"/><circle class="cls-1" cx="273.94" cy="43.06" r="12.7"/><circle class="cls-1" cx="137.63" cy="82.78" r="24.62"/><circle class="cls-1" cx="114.76" cy="408.85" r="18.48"/><circle class="cls-1" cx="85.05" cy="437.12" r="31.84"/><circle class="cls-2" cx="295.41" cy="263.5" r="23.76"/><circle class="cls-2" cx="255.47" cy="156.59" r="21.62"/><circle class="cls-2" cx="389.92" cy="89.37" r="26.65"/><circle class="cls-2" cx="545.12" cy="37.4" r="34.25"/><circle class="cls-2" cx="626.92" cy="73.88" r="27.35"/><circle class="cls-2" cx="388.88" cy="35.62" r="28.69"/><circle class="cls-2" cx="368.36" cy="173.5" r="21.62"/><circle class="cls-2" cx="283.61" cy="137.27" r="28.14"/><circle class="cls-2" cx="306.38" cy="53.15" r="32.45"/><circle class="cls-2" cx="85.93" cy="195.37" r="38.92"/><circle class="cls-2" cx="76.59" cy="107.4" r="62.59"/><path class="cls-1" d="M1162.6,419.46C959.46,55.31,435-97.92,0,144.05V0H1162.6Z"/></g></g></svg>