<?xml version="1.0" encoding="utf-8"?>
<!-- Generator: Adobe Illustrator 24.0.1, SVG Export Plug-In . SVG Version: 6.00 Build 0)  -->
<svg version="1.1" xmlns="http://www.w3.org/2000/svg" xmlns:xlink="http://www.w3.org/1999/xlink" x="0px" y="0px"
	 viewBox="0 0 1162.6 1230" style="enable-background:new 0 0 1162.6 1230;" xml:space="preserve">
<style type="text/css">
	.st0{fill:#2E3092;}
	.st1{opacity:0.5;fill:#2E3092;}
</style>
<g id="main">
</g>
<g id="bubbles">
	<g>
		<circle class="st0" cx="133.2" cy="330.4" r="35.6"/>
		<circle class="st1" cx="144.9" cy="125.3" r="49.2"/>
		<circle class="st1" cx="70.4" cy="317.7" r="62.8"/>
		<circle class="st1" cx="44.4" cy="467.4" r="33.7"/>
		<circle class="st1" cx="180.9" cy="428.9" r="38.5"/>
		<circle class="st1" cx="160.5" cy="284.8" r="52.4"/>
		<circle class="st0" cx="173.1" cy="221.1" r="37.8"/>
		<circle class="st0" cx="224.3" cy="258.2" r="18.5"/>
		<circle class="st0" cx="368.8" cy="150.5" r="23"/>
		<circle class="st0" cx="143" cy="114.7" r="22.3"/>
		<circle class="st0" cx="198.2" cy="156.4" r="14.7"/>
		<circle class="st0" cx="222.8" cy="68" r="22.3"/>
		<circle class="st0" cx="337.2" cy="64.1" r="19.3"/>
		<circle class="st0" cx="296.4" cy="44" r="19.3"/>
		<circle class="st0" cx="351.3" cy="31.7" r="19.3"/>
		<circle class="st0" cx="423.2" cy="192.9" r="14.7"/>
		<circle class="st0" cx="483.4" cy="124.5" r="22.8"/>
		<circle class="st0" cx="681.4" cy="102.3" r="20.4"/>
		<circle class="st0" cx="719.2" cy="64.2" r="20.4"/>
		<circle class="st0" cx="832.4" cy="112.7" r="18.1"/>
		<circle class="st1" cx="831.4" cy="129.8" r="27.4"/>
		<circle class="st1" cx="1105.9" cy="338.7" r="35.4"/>
		<circle class="st0" cx="763.7" cy="78.1" r="50.5"/>
		<circle class="st0" cx="533.9" cy="32.7" r="15.6"/>
		<circle class="st0" cx="482.4" cy="39.8" r="35.9"/>
		<circle class="st0" cx="344.7" cy="105.4" r="12.7"/>
		<circle class="st0" cx="273.9" cy="43.1" r="12.7"/>
		<circle class="st0" cx="137.6" cy="82.8" r="24.6"/>
		<circle class="st0" cx="114.8" cy="408.8" r="18.5"/>
		<circle class="st0" cx="85" cy="437.1" r="31.8"/>
		<circle class="st1" cx="295.4" cy="263.5" r="23.8"/>
		<circle class="st1" cx="255.5" cy="156.6" r="21.6"/>
		<circle class="st1" cx="389.9" cy="89.4" r="26.7"/>
		<circle class="st1" cx="545.1" cy="37.4" r="34.3"/>
		<circle class="st1" cx="626.9" cy="73.9" r="27.4"/>
		<circle class="st1" cx="388.9" cy="35.6" r="28.7"/>
		<circle class="st1" cx="368.4" cy="173.5" r="21.6"/>
		<circle class="st1" cx="283.6" cy="137.3" r="28.1"/>
		<circle class="st1" cx="306.4" cy="53.1" r="32.4"/>
		<circle class="st1" cx="85.9" cy="195.4" r="38.9"/>
		<circle class="st1" cx="76.6" cy="107.4" r="62.6"/>
	</g>
	<path class="st0" d="M1162.6,419.5C959.5,55.3,435-97.9,0,144V0h1162.6V419.5z"/>
</g>
</svg>
