<svg xmlns="http://www.w3.org/2000/svg" xmlns:xlink="http://www.w3.org/1999/xlink" viewBox="0 0 1157.97 605.7"><defs><style>.cls-1{opacity:0.5;isolation:isolate;fill:url(#linear-gradient);}</style><linearGradient id="linear-gradient" x1="-43.55" y1="5861.63" x2="1324.61" y2="5861.63" gradientTransform="matrix(0.85, 0, 0, -0.85, 36.86, 5263.95)" gradientUnits="userSpaceOnUse"><stop offset="0" stop-color="#50c6df"/><stop offset="0.01" stop-color="#50c4de"/><stop offset="0.25" stop-color="#4490c3"/><stop offset="0.48" stop-color="#3a67ae"/><stop offset="0.69" stop-color="#34499f"/><stop offset="0.87" stop-color="#2f3795"/><stop offset="1" stop-color="#2e3192"/></linearGradient></defs><title>Asset 1</title><g id="Layer_2" data-name="Layer 2"><g id="Layer_1-2" data-name="Layer 1"><g id="background_details" data-name="background details"><path class="cls-1" d="M1158,237.4c-84-9.94-226.44,8.52-268-3.84-45.88-13.65-126.18-70.49-172.15-83.8-18.62-5.38-45-7.68-73.44-9.24,7.17-7.26,11-13.77,9.11-16.16-2.6-3.24-14.7,2.18-27,12.09-1.25,1-2.44,2-3.58,3-8.52-.39-17.1-.77-25.6-1.2a83.57,83.57,0,0,0,11.3-17c7.28-14,10.16-27,6.52-28.88s-12.57,7.92-19.85,22c-4.77,9.2-7.67,17.91-8.06,23.37-6.17-.34-12.28-.72-18.25-1.16a85.8,85.8,0,0,0,5.55-18.75c2.92-15.54,2-28.78-2.1-29.53s-9.74,11.22-12.69,26.76a81.8,81.8,0,0,0-1.54,20.64c-9.26-.84-18.1-1.85-26.31-3.15a93.51,93.51,0,0,0-3.55-15.67c-4.73-15.09-11.76-26.33-15.72-25.09s-3.34,14.48,1.39,29.57c.91,2.94,1.93,5.73,3,8.32a125.26,125.26,0,0,1-12.46-3.52C456.05,109.55,378.75,34.6,330,18.79,253.34-6.11,12.92,72.11,0,0L1.83,605.7S463.1,583.88,568.5,555.77c54.31-14.49,168.31-101.35,223.18-89.12,147,32.75,302.16,4.43,310.2,0,15.81-8.74,36.39-28.25,56.09-52.28Z"/></g></g></g></svg>