<?xml version="1.0" encoding="utf-8"?>
<!-- Generator: Adobe Illustrator 24.0.1, SVG Export Plug-In . SVG Version: 6.00 Build 0)  -->
<svg version="1.1" id="Layer_1" xmlns="http://www.w3.org/2000/svg" xmlns:xlink="http://www.w3.org/1999/xlink" x="0px" y="0px"
	 viewBox="0 0 1162.6 1230" style="enable-background:new 0 0 1162.6 1230;" xml:space="preserve">
<style type="text/css">
	.st0{fill:#50C6DF;}
	.st1{opacity:0.5;fill:url(#SVGID_1_);enable-background:new    ;}
	.st2{opacity:0.5;fill:#2E3192;enable-background:new    ;}
	.st3{opacity:0.3;}
	.st4{fill:#2E3192;}
	.st5{fill:#FEF8C0;}
	.st6{fill:#FFE381;}
	.st7{fill:#F78D36;}
	.st8{fill:#2E3092;}
	.st9{opacity:0.5;fill:#2E3092;enable-background:new    ;}
	.st10{opacity:0.5;fill:#FEF8C0;}
</style>
<g id="main">
	<g id="Layer_2_1_">
		<g id="background">
			<rect x="1" y="0.2" class="st0" width="1162.6" height="1179.2"/>
		</g>
	</g>
	<g id="Layer_2-2">
		<g id="Layer_1-2">
			<g id="background_details">
				
					<linearGradient id="SVGID_1_" gradientUnits="userSpaceOnUse" x1="257.8117" y1="3248.6941" x2="1646.0317" y2="3248.6941" gradientTransform="matrix(0.85 0 0 -0.85 -228.34 3628.9399)">
					<stop  offset="0" style="stop-color:#50C6DF"/>
					<stop  offset="1.000000e-02" style="stop-color:#50C4DE"/>
					<stop  offset="0.25" style="stop-color:#4490C3"/>
					<stop  offset="0.48" style="stop-color:#3A67AE"/>
					<stop  offset="0.69" style="stop-color:#34499F"/>
					<stop  offset="0.87" style="stop-color:#2F3795"/>
					<stop  offset="1" style="stop-color:#2E3192"/>
				</linearGradient>
				<path class="st1" d="M1165.8,802.1c-85.2-9.9-229.8,8.5-271.9-3.8c-46.6-13.7-128-70.5-174.7-83.8c-18.9-5.4-45.7-7.7-74.5-9.2
					c7.3-7.3,11.2-13.8,9.2-16.2c-2.6-3.2-14.9,2.2-27.4,12.1c-1.3,1-2.5,2-3.6,3l-26-1.2c4.5-5.2,8.4-10.9,11.5-17
					c7.4-14,10.3-27,6.6-28.9s-12.8,7.9-20.1,22c-4.8,9.2-7.8,17.9-8.2,23.4c-6.3-0.3-12.5-0.7-18.5-1.2c2.6-6,4.5-12.3,5.6-18.8
					c3-15.5,2-28.8-2.1-29.5s-9.9,11.2-12.9,26.8c-1.4,6.8-1.9,13.7-1.6,20.6c-9.4-0.8-18.4-1.8-26.7-3.1
					c-0.7-5.3-1.9-10.6-3.6-15.7c-4.8-15.1-11.9-26.3-16-25.1s-3.4,14.5,1.4,29.6c0.9,2.9,2,5.7,3,8.3c-4.3-1-8.5-2.1-12.6-3.5
					c-49.2-16.6-127.7-91.6-177.1-107.4C247.8,558.6,3.9,636.8-9.2,564.7l1.9,605.7c0,0,468-21.8,575-49.9
					c55.1-14.5,170.8-101.4,226.5-89.1c149.2,32.8,306.6,4.4,314.7,0c16-8.7,36.9-28.3,56.9-52.3V802.1z"/>
			</g>
		</g>
	</g>
	<g id="Layer_2-3">
		<g id="Layer_1-2-2">
			<g id="background_details-2">
				<path class="st2" d="M867.4,829.6c-46.6-13.6-220-57.6-266.6-70.8c-52.3-14.9-59.1-21.4-110.5-38.9
					c-49.3-16.7-141.6-89.3-191-105.1c-63.8-20.4-239.1,28.4-307.6,7v586.8c78.8-5.4,453.9-31.8,549.5-56.9
					c55.1-14.5,153.6-77.7,209.5-89.1c78.9-16.1,261.2,38.4,331.8,0c23.2-12.6,56.4-47.6,82.4-86.3V837.7
					C1086.8,819.1,914.1,843.3,867.4,829.6z"/>
			</g>
		</g>
	</g>
	<g id="Layer_2-4">
		<g id="Layer_1-2-3">
			<g id="About_Page">
				<g id="grass_shadow">
					<g id="clump_3">
						<g class="st3">
							
								<ellipse transform="matrix(0.805 -0.5933 0.5933 0.805 -393.1171 225.1356)" class="st4" cx="145.9" cy="710.6" rx="6.1" ry="23.3"/>
						</g>
						<g class="st3">
							
								<ellipse transform="matrix(0.2608 -0.9654 0.9654 0.2608 -608.7643 733.0512)" class="st4" cx="174.3" cy="764.1" rx="7.5" ry="28.6"/>
						</g>
						
							<ellipse transform="matrix(0.2419 -0.9703 0.9703 0.2419 -638.7249 802.8621)" class="st4" cx="194.4" cy="810.2" rx="4.9" ry="18.9"/>
						<g class="st3">
							
								<ellipse transform="matrix(0.886 -0.4636 0.4636 0.886 -300.4321 153.7703)" class="st4" cx="162.6" cy="688" rx="7.5" ry="28.6"/>
						</g>
						
							<ellipse transform="matrix(0.4198 -0.9076 0.9076 0.4198 -610.5416 633.8284)" class="st4" cx="190.5" cy="794.4" rx="7.5" ry="28.6"/>
						<g class="st3">
							
								<ellipse transform="matrix(0.6816 -0.7317 0.7317 0.6816 -420.3889 431.0807)" class="st4" cx="285.2" cy="698.6" rx="28.6" ry="7.5"/>
						</g>
						
							<ellipse transform="matrix(0.8263 -0.5632 0.5632 0.8263 -405.1679 285.9574)" class="st4" cx="261" cy="799.9" rx="28.6" ry="7.5"/>
					</g>
					<g id="clump_2">
						
							<ellipse transform="matrix(0.1663 -0.9861 0.9861 0.1663 -478.9877 788.5139)" class="st4" cx="226.8" cy="677.5" rx="28.3" ry="7.1"/>
						
							<ellipse transform="matrix(0.4187 -0.9081 0.9081 0.4187 -480.6931 613.8242)" class="st4" cx="239.1" cy="682.4" rx="21.9" ry="5.5"/>
						
							<ellipse transform="matrix(0.6547 -0.7559 0.7559 0.6547 -420.9915 427.7124)" class="st4" cx="257.7" cy="674.7" rx="28.3" ry="7.1"/>
						
							<ellipse transform="matrix(0.6144 -0.789 0.789 0.6144 -450.7328 484.1277)" class="st4" cx="270" cy="703.2" rx="28.3" ry="7.1"/>
						
							<ellipse transform="matrix(0.7085 -0.7057 0.7057 0.7085 -426.4336 408.0069)" class="st4" cx="280.6" cy="720.2" rx="21.9" ry="5.5"/>
						
							<ellipse transform="matrix(0.8768 -0.4808 0.4808 0.8768 -308.9018 233.2247)" class="st4" cx="300.7" cy="719.5" rx="28.3" ry="7.1"/>
					</g>
					<g id="clump_1">
						
							<ellipse transform="matrix(0.4005 -0.9163 0.9163 0.4005 -599.6257 551.7755)" class="st4" cx="121.9" cy="734.1" rx="7.1" ry="28.3"/>
						
							<ellipse transform="matrix(0.6263 -0.7796 0.7796 0.6263 -515.3639 371.3227)" class="st4" cx="129.6" cy="723.2" rx="5.5" ry="21.9"/>
						
							<ellipse transform="matrix(0.8211 -0.5707 0.5707 0.8211 -381.2755 195.1323)" class="st4" cx="120.7" cy="705.9" rx="7.1" ry="28.3"/>
						
							<ellipse transform="matrix(0.7874 -0.6165 0.6165 0.7874 -397.1551 245.5228)" class="st4" cx="157.3" cy="698.5" rx="7.1" ry="28.3"/>
						
							<ellipse transform="matrix(0.8585 -0.5128 0.5128 0.8585 -330.0868 188.4202)" class="st4" cx="176.4" cy="692.4" rx="5.5" ry="21.9"/>
						
							<ellipse transform="matrix(0.9672 -0.2539 0.2539 0.9672 -164.818 67.8949)" class="st4" cx="180.6" cy="672.4" rx="7.1" ry="28.3"/>
					</g>
					<path class="st2" d="M313,790.9c1.8,23.9-20.6,46-39.2,56.2c-61.4,33.7-162.9-17-163.6-56.2c-0.6-28.9,53.5-59.5,101.4-59.8
						C255,730.8,310.3,755.4,313,790.9z"/>
				</g>
				<g id="pyramid_goblin">
					<path class="st5" d="M275.8,739.2c0,0,5.9-31.8,5.4-41.6c-0.3-5.9-9-18.8-20.3-18.8S156.2,701,143,709.6s-12.4,21.6-8.7,26.4
						c7.7,9.8,28.4,21.8,44.2,25.8C215.8,771.2,275.9,739.2,275.8,739.2"/>
					<path class="st5" d="M285.5,797.1c-9.4,0-10.8-10.9-20.3-7.2c-13.1,5.1-5.2,15.5-11.3,26.8c-3.3,6.1-20.2,15.8-32.4,9.4
						c-19.7-10.3-42.6-49.7-50.5-92.3s20-58.8,20-58.8s8.4-6.6,2.4-28.5c-0.9-3.3-1.7-6.6-2.1-10l4.4,2.3l0.6-5.6
						c1.9,3.4,4.1,6.7,6.6,9.7c12.4,16,3.6,24.8,3.6,24.8c32.8-5,58.6,40.1,71.6,62.6c0.7,1.3,1.4,2.4,2,3.5l0,0
						c0.8,1.4,1.6,2.7,2.3,3.8l1,0.3c14.3,4.2,13.5,6.9,27.1,38.1C313.9,784,294.9,797.1,285.5,797.1z"/>
					<path class="st6" d="M243.4,681.5c0,0,26.4,5,34.3,48C270,715.9,258.4,695.1,243.4,681.5"/>
					<path class="st6" d="M173.7,745.9c-1-4-1.9-8-2.7-12c-2.7-14.6-1.2-26.1,1.9-34.9c0,0-11.3,7-10.3,24.5
						C163.4,737.1,174,748,174,748"/>
					<path class="st6" d="M283.4,738c-0.2,0.4-0.6,0.7-1.1,0.6c-23.2-3.9-50-0.4-69.5,12.5c-0.5,0.3-1.1,0.1-1.4-0.3c0,0,0,0,0-0.1
						c-0.2-0.4-0.1-0.9,0.2-1.3c17.9-14.8,53-27.1,68.7-15.4l0,0c0.9,1.4,1.6,2.7,2.3,3.8L283.4,738z"/>
					
						<ellipse transform="matrix(0.9526 -0.3042 0.3042 0.9526 -235.7768 109.7944)" class="st6" cx="234.5" cy="811.6" rx="17.8" ry="10.8"/>
					<path class="st6" d="M282.5,737.7c3.9,1,7.7,2.6,11.1,4.8c8.3,5.4,10.8,19.3,17,33.6c3.4,7.9-15.6,21-25,21
						s-10.8-10.9-20.3-7.2c-2.5,0.8-4.7,2.4-6.3,4.5c-1.3,2-2,4.3-2,6.6c-0.2,0-3.8-20.7,6.2-40.7
						C267.7,751.3,274.3,743.6,282.5,737.7z"/>
					<path class="st4" d="M228.2,705.9c1.2,1,2.5,1.7,4,2.1c2.2,0.7,4.6-0.4,5.5-2.5c0.7-1.4,1-2.9,1-4.4c1.5,1.3,2.2,3.2,2,5.2
						c-0.1,1.1-0.5,2.1-1.1,3c-0.6,0.9-1.5,1.7-2.5,2.1c-2,0.9-4.4,0.7-6.2-0.6C229.2,709.7,228.2,707.9,228.2,705.9z"/>
					<path class="st4" d="M202.1,713.3c1.2,1,2.5,1.7,4,2.1c2.2,0.7,4.6-0.4,5.5-2.5c0.6-1.4,1-2.9,1-4.4c1.5,1.3,2.2,3.2,2,5.2
						c-0.1,1-0.5,2.1-1.1,2.9c-1.9,2.8-5.7,3.5-8.5,1.7c0,0-0.1,0-0.1-0.1l-0.1-0.1C203.1,717.1,202.1,715.3,202.1,713.3z"/>
					<polygon class="st5" points="151.7,613.8 180.7,612.6 198.9,588.3 169.1,589.5 					"/>
					<polyline class="st6" points="194,635.7 180.7,612.6 151.7,613.8 					"/>
					<polyline class="st7" points="198.9,588.3 180.7,612.6 194,635.7 					"/>
				</g>
				<g id="log">
					<g id="log-2">
						<path class="st4" d="M511.8,819c-34.7,6.3-71.5-1.4-105.6,6.3c-16.1,3.6-31,18.7-46.5,21.4c-8.1,1.4-17.2-4.9-25.4-4
							c-8.6,0.9-19.6,8.8-27.4,12.8c-17.4-7-26.7-33-30.3-49.8c-4-18.3-1.7-44.2,10.3-60.3c27.7-1.8,50.1-13.4,78-14.3
							c22.1-0.7,20.2-5.5,38.3-10.8c12.3-3.6,24.8-0.3,37.2-3.6c17.8-4.8,22.4-19.3,44-11.5c13.4,4.9,15.3,14,21.2,24.9
							C520.6,759.3,515.8,787.1,511.8,819z"/>
						<path class="st7" d="M306.8,855.5c-35.9-11.8-49.3-84.2-20.1-110C316.1,771.1,343.4,828.3,306.8,855.5z"/>
						<path class="st6" d="M308.3,796.2c-1.2,12.6,2.8,24.4-5.6,35.1c-12.5-9.1-26.2-29.5-22-46.5
							C286.6,760.6,304.8,776.9,308.3,796.2z"/>
					</g>
					<g id="whorls">
						<path class="st0" d="M313.2,752.3c7.7,1,15.2,2.2,22.6,3.3c3.7,0.6,7.4,1.1,11.1,1.6l11.1,1.5c3.7,0.5,7.4,1.2,11.1,1.6
							c3.8,0.4,7.5,0.5,11.3,0.2c7.5-0.6,14.6-3.2,20.8-7.4c0.8-0.5,1.5-1.1,2.2-1.7l2.2-1.8c0.8-0.7,1.6-1.3,2.4-1.8l2.5-1.7
							c3.3-2.2,6.8-4.1,10.5-5.7c3.6-1.6,7.3-3.1,11.1-4.3c7.5-2.5,15.2-4,23-4.6c3.9-0.3,7.8-0.5,11.7-0.5c3.9,0,7.8,0.2,11.7,0.6
							c3.9,0.4,7.7,1,11.5,1.9l-0.1,0.8c-15.2,2-30.2,4.2-44.6,7.5c-3.6,0.8-7.2,1.7-10.8,2.6s-7.1,2-10.5,3.2s-6.8,2.7-10.2,4.2
							c-1.6,0.8-3.3,1.6-4.9,2.5l-1.2,0.6l-1.4,0.7c-0.9,0.4-1.8,1-2.7,1.3l-2.8,1.2l-2.8,1c-0.9,0.3-1.9,0.6-2.8,0.8l-1.4,0.4
							c-0.5,0.1-0.9,0.2-1.4,0.4c-3.8,1-7.6,1.7-11.4,2.4s-7.7,1.3-11.6,1.8c-3.9,0.5-7.9,0.8-11.8,0.8c-3.9,0-7.8-0.4-11.7-1.1
							c-7.7-1.3-15.2-3.4-22.4-6.4c-3.6-1.4-7.1-3.2-10.5-5.2L313.2,752.3z"/>
						<path class="st0" d="M491.7,721c-6.6,1.4-13.1,2.4-19.5,3.4c-3.2,0.4-6.5,0.9-9.7,1.3s-6.4,0.9-9.7,1.3s-6.5,0.6-9.7,0.9
							s-6.5,0.5-9.8,1c-6.5,0.9-12.7,3.1-18.3,6.4c-5.7,3.6-11.8,6.7-18.1,9.2c-3.2,1.1-6.4,2.1-9.6,3.1c-3.2,1-6.5,1.8-9.8,2.4
							c-6.6,1.2-13.2,2-19.9,2.2c-6.7,0.3-13.4,0-20.1-1l-0.1-0.8c6.5-2,12.9-3.6,19.3-5.1s12.8-2.9,19.1-4.1s12.8-2.2,19.1-3.7
							c3.1-0.7,6.3-1.3,9.5-2.1c3.2-0.7,6.3-1.6,9.3-2.8c6.2-2.7,12.5-4.8,18.8-7.1s12.7-4.6,19.3-5.7c3.3-0.6,6.6-0.9,10-1.1
							c3.3-0.3,6.7-0.3,10-0.3s6.7,0.2,10,0.5c3.4,0.3,6.7,0.8,10,1.5L491.7,721z"/>
						<path class="st0" d="M328.9,782.9c3.9-1,7.9-1.8,11.8-2.6l5.9-1.2l5.9-1c2-0.3,3.9-0.9,5.9-1.3c1.9-0.4,3.9-0.6,5.9-0.5
							c2,0.1,4,0.3,6,0.8c2.2,0.4,4.2,1.1,6.2,2.1l0.1,0.8c-1.8,1.2-3.8,2.2-5.8,3c-1.9,0.7-3.9,1.3-5.9,1.7
							c-1.9,0.4-3.9,0.5-5.9,0.4c-2-0.1-4-0.3-6-0.3l-6-0.1l-6-0.2c-4-0.2-8-0.4-12-0.7L328.9,782.9z"/>
						<path class="st0" d="M427.4,763.7c0.2-1.3,0.9-2.5,1.9-3.3c0.9-0.8,1.9-1.6,3-2.3c1-0.7,2.1-1.3,3.2-1.8
							c1.1-0.5,2.2-1.1,3.3-1.6c4.5-2.1,9.2-3.7,14.1-4.7c2.5-0.5,4.9-0.8,7.5-1.1c2.6-0.2,5.2-0.2,7.8,0c1.4,0.1,2.8,0.4,4.1,0.8
							c1.7,0.5,3.2,1.4,4.4,2.7c0.7,0.8,1.2,1.8,1.5,2.8c0.2,0.9,0.3,1.9,0.3,2.8c-0.1,1.6-0.5,3.1-1.1,4.6
							c-0.5,1.3-1.2,2.6-1.9,3.8c-0.7,1.2-1.5,2.3-2.4,3.4c-1.7,2.2-3.6,4.1-5.8,5.8c-1.1,0.8-2.3,1.6-3.5,2.3
							c-1.2,0.7-2.5,1.3-3.9,1.8c-1.3,0.5-2.7,0.9-4.1,1.1c-1.4,0.2-2.8,0.4-4.2,0.4c-2.8,0-5.6-0.5-8.2-1.4
							c-2.5-0.9-4.9-2.2-7.1-3.8c-2.1-1.6-4.1-3.3-5.8-5.3c-0.8-1-1.6-2.1-2.2-3.2C427.6,766.3,427.3,765,427.4,763.7z M428.3,763.8
							c0,0.5,0.1,1.1,0.3,1.6c0.2,0.5,0.5,1,0.9,1.5c0.7,0.9,1.6,1.7,2.5,2.3c1.9,1.3,4.1,2.2,6.3,2.8c4.2,1,8.6,1.3,12.9,0.8
							c2-0.2,4-0.7,5.9-1.3c1.9-0.7,3.8-1.6,5.5-2.7c1.8-1.1,3.5-2.4,5-3.9c1.5-1.4,2.7-3.1,3.7-4.9c0.4-0.7,0.7-1.6,0.8-2.4v-0.8
							c0-0.1,0-0.3-0.1-0.4c-0.5-0.5-1-0.9-1.7-1.1c-0.9-0.4-1.9-0.7-2.9-0.9c-2.2-0.4-4.5-0.6-6.8-0.6c-2.3,0-4.7,0.1-7,0.3
							c-4.8,0.4-9.5,1.1-14.2,2.2c-2.3,0.6-4.6,1.4-6.7,2.5c-1.1,0.5-2.1,1.2-2.9,2.1C428.9,761.6,428.4,762.7,428.3,763.8
							L428.3,763.8z"/>
					</g>
					<g id="mushrooms">
						<path class="st7" d="M450.2,812.2c1.4,6.1,17.6,5.6,34.6,1.8s21.3-8,19.9-14.2s-8.9-16-25.9-12.1S448.8,806.1,450.2,812.2z"/>
						<path class="st7" d="M485.3,777.7c2.8,5.8,17,8.8,28.6,3.4s19.5-19.1,16.8-24.9s-14.5,0-26,5.5S482.5,771.9,485.3,777.7z"/>
						<path class="st7" d="M427.6,797.3c1.2,4,8.8,6,16.4,3.8s11.8-7.9,10.5-12s-7.8-6.3-15.4-4S426.4,793.3,427.6,797.3z"/>
						<path class="st7" d="M407.9,809.1c0.4,2.4,4.5,4.2,9,3.5s7.3-3.5,6.9-5.9s-3.9-4.2-8.4-3.5S407.6,806.7,407.9,809.1z"/>
						<path class="st7" d="M393.6,802.7c0.3,1.8,2.4,3.3,5.8,2.8s4.9-2.5,4.6-4.4s-2-1.3-5.4-0.8S393.3,800.9,393.6,802.7z"/>
					</g>
					<path class="st7" d="M300.8,798.1c0.3,1.2,0.6,2.4,1,3.7c0.4,1.3,0.6,2.6,0.8,4c0.4,2.3-0.5,4.7-2.3,6.2
						c-0.7,0.6-1.6,1-2.5,1.2c-0.9,0.2-1.8,0.1-2.6-0.2c-0.7-0.3-1.4-0.7-2-1.2c-1-0.9-1.9-2-2.6-3.1c-1.4-2.2-2.7-4.4-3.8-6.8
						c-0.5-1.2-1-2.5-1.2-3.8c-0.3-1.4-0.3-2.8-0.2-4.2c0.1-1.5,0.5-3,1.2-4.4c0.2-0.4,0.4-0.8,0.7-1.1c0.3-0.4,0.6-0.7,0.9-1
						c0.7-0.7,1.6-1.2,2.6-1.4c1-0.2,1.9-0.2,2.9,0c0.4,0.1,0.9,0.3,1.3,0.5c1.7,0.9,3.1,2.3,3.8,4.1c0.5,1.2,1,2.5,1.3,3.8
						L300.8,798.1z M300.3,798.2c-0.3-1.2-0.9-2.3-1.6-3.3c-0.7-1-1.5-1.8-2.5-2.5c-0.8-0.6-1.7-1.2-2.6-1.6
						c-0.5-0.3-1.2-0.4-1.8-0.2c-0.6,0.2-1,0.7-1.3,1.2c-0.5,0.8-0.9,1.7-1.1,2.7c-0.4,2.2-0.5,4.5-0.4,6.8c0.1,1.2,0.4,2.4,0.8,3.5
						c0.4,1.1,1,2.2,1.8,3.1c0.7,0.9,1.7,1.5,2.8,1.9c0.8,0.3,1.7,0.3,2.4-0.1c0.6-0.4,1.1-0.9,1.5-1.5c0.6-0.9,1-1.8,1.4-2.8
						c0.5-1.1,0.8-2.3,0.9-3.5C300.7,800.7,300.6,799.4,300.3,798.2L300.3,798.2z"/>
				</g>
			</g>
		</g>
	</g>
</g>
<g>
	
		<ellipse transform="matrix(0.1404 -0.9901 0.9901 0.1404 -211.3865 416.0668)" class="st8" cx="133.9" cy="329.8" rx="35.7" ry="35.7"/>
	<circle class="st9" cx="144.9" cy="125.3" r="49.2"/>
	<circle class="st9" cx="70.4" cy="317.7" r="62.8"/>
	
		<ellipse transform="matrix(0.9939 -0.1104 0.1104 0.9939 -51.3433 7.7616)" class="st9" cx="44.4" cy="467.4" rx="33.7" ry="33.7"/>
	<circle class="st9" cx="180.9" cy="428.9" r="38.5"/>
	<circle class="st9" cx="160.5" cy="284.8" r="52.4"/>
	<circle class="st8" cx="173.1" cy="221.1" r="37.8"/>
	<circle class="st8" cx="224.3" cy="258.2" r="18.5"/>
	<circle class="st8" cx="368.8" cy="150.5" r="23"/>
	<circle class="st8" cx="143" cy="114.7" r="22.3"/>
	<circle class="st8" cx="198.2" cy="156.4" r="14.7"/>
	<circle class="st8" cx="222.8" cy="68" r="22.3"/>
	<circle class="st8" cx="337.2" cy="64.1" r="19.3"/>
	<circle class="st8" cx="296.4" cy="44" r="19.3"/>
	<circle class="st8" cx="351.3" cy="31.7" r="19.3"/>
	<circle class="st8" cx="423.2" cy="192.9" r="14.7"/>
	<circle class="st8" cx="483.4" cy="124.5" r="22.8"/>
	<circle class="st8" cx="681.4" cy="102.3" r="20.4"/>
	<circle class="st8" cx="719.2" cy="64.2" r="20.4"/>
	<circle class="st8" cx="832.4" cy="112.7" r="18.1"/>
	<circle class="st9" cx="831.4" cy="129.8" r="27.4"/>
	<circle class="st9" cx="1105.9" cy="338.7" r="35.4"/>
	<circle class="st8" cx="763.7" cy="78.1" r="50.5"/>
	<circle class="st8" cx="533.9" cy="32.7" r="15.6"/>
	<circle class="st8" cx="482.4" cy="39.8" r="35.9"/>
	<circle class="st8" cx="344.7" cy="105.4" r="12.7"/>
	<circle class="st8" cx="273.9" cy="43.1" r="12.7"/>
	<circle class="st8" cx="137.6" cy="82.8" r="24.6"/>
	<circle class="st8" cx="114.8" cy="408.8" r="18.5"/>
	
		<ellipse transform="matrix(6.657063e-02 -0.9978 0.9978 6.657063e-02 -356.8143 492.8375)" class="st8" cx="85" cy="437.1" rx="31.8" ry="31.8"/>
	<circle class="st9" cx="295.4" cy="263.5" r="23.8"/>
	<circle class="st9" cx="255.5" cy="156.6" r="21.6"/>
	<circle class="st9" cx="389.9" cy="89.4" r="26.7"/>
	<circle class="st9" cx="545.1" cy="37.4" r="34.3"/>
	<circle class="st9" cx="626.9" cy="73.9" r="27.4"/>
	<circle class="st9" cx="388.9" cy="35.6" r="28.7"/>
	<circle class="st9" cx="368.4" cy="173.5" r="21.6"/>
	<circle class="st9" cx="283.6" cy="137.3" r="28.1"/>
	<circle class="st9" cx="306.4" cy="53.1" r="32.4"/>
	<circle class="st9" cx="85.9" cy="195.4" r="38.9"/>
	<circle class="st9" cx="76.6" cy="107.4" r="62.6"/>
	<path class="st8" d="M1162.6,419.5C959.5,55.3,435-97.9,0,144V0h1162.6V419.5z"/>
</g>
<circle class="st10" cx="47.5" cy="1156.9" r="39.1"/>
<circle class="st10" cx="1075.5" cy="1151" r="71.7"/>
<circle class="st5" cx="143.8" cy="1149" r="23.3"/>
</svg>
