<svg xmlns="http://www.w3.org/2000/svg" viewBox="0 0 435.41 269.8"><defs><style>.cls-1{opacity:0.3;}.cls-2,.cls-3{fill:#2e3192;}.cls-3{opacity:0.5;isolation:isolate;}.cls-4{fill:#fef8c0;}.cls-5{fill:#ffe381;}.cls-6{fill:#f78d36;}.cls-7{fill:#50c6df;}</style></defs><title>Asset 1</title><g id="Layer_2" data-name="Layer 2"><g id="Layer_1-2" data-name="Layer 1"><g id="About_Page" data-name="About Page"><g id="grass_shadow" data-name="grass shadow"><g id="clump_3" data-name="clump 3"><g class="cls-1"><ellipse class="cls-2" cx="50.04" cy="122.31" rx="6.11" ry="23.29" transform="translate(-62.8 53.54) rotate(-36.39)"/></g><g class="cls-1"><ellipse class="cls-2" cx="78.41" cy="175.87" rx="7.51" ry="28.64" transform="translate(-111.82 205.69) rotate(-74.88)"/></g><ellipse class="cls-2" cx="98.65" cy="221.99" rx="4.95" ry="18.88" transform="translate(-140.61 264) rotate(-76)"/><g class="cls-1"><ellipse class="cls-2" cx="66.83" cy="99.83" rx="7.51" ry="28.64" transform="translate(-38.67 42.36) rotate(-27.62)"/></g><ellipse class="cls-2" cx="94.68" cy="206.18" rx="7.51" ry="28.64" transform="translate(-132.19 205.57) rotate(-65.18)"/><g class="cls-1"><ellipse class="cls-2" cx="190.01" cy="110.61" rx="28.64" ry="7.51" transform="matrix(0.68, -0.73, 0.73, 0.68, -20.54, 173.92)"/></g><ellipse class="cls-2" cx="165.24" cy="211.64" rx="28.64" ry="7.51" transform="translate(-90.5 129.83) rotate(-34.28)"/></g><g id="clump_2" data-name="clump 2"><ellipse class="cls-2" cx="131.05" cy="89.25" rx="28.34" ry="7.13" transform="translate(21.26 203.64) rotate(-80.43)"/><ellipse class="cls-2" cx="143.35" cy="94.11" rx="21.86" ry="5.49" transform="translate(-2.13 184.89) rotate(-65.25)"/><ellipse class="cls-2" cx="161.95" cy="86.44" rx="28.34" ry="7.13" transform="translate(-9.42 152.26) rotate(-49.1)"/><ellipse class="cls-2" cx="174.18" cy="115" rx="28.34" ry="7.13" transform="translate(-23.58 181.76) rotate(-52.09)"/><ellipse class="cls-2" cx="184.83" cy="131.91" rx="21.86" ry="5.49" transform="translate(-39.21 168.9) rotate(-44.89)"/><ellipse class="cls-2" cx="204.98" cy="131.22" rx="28.34" ry="7.13" transform="translate(-37.85 114.72) rotate(-28.74)"/></g><g id="clump_1" data-name="clump 1"><ellipse class="cls-2" cx="26.12" cy="145.93" rx="7.13" ry="28.34" transform="translate(-118.05 111.42) rotate(-66.39)"/><ellipse class="cls-2" cx="33.87" cy="135" rx="5.49" ry="21.86" transform="translate(-92.58 76.85) rotate(-51.22)"/><ellipse class="cls-2" cx="25" cy="117.62" rx="7.12" ry="28.3" transform="translate(-62.66 35.31) rotate(-34.8)"/><ellipse class="cls-2" cx="61.45" cy="110.17" rx="7.13" ry="28.34" transform="translate(-54.85 61.31) rotate(-38.06)"/><ellipse class="cls-2" cx="80.58" cy="104.09" rx="5.49" ry="21.86" transform="translate(-41.98 56.05) rotate(-30.85)"/><ellipse class="cls-2" cx="84.8" cy="84.24" rx="7.13" ry="28.34" transform="translate(-18.61 24.29) rotate(-14.71)"/></g><path class="cls-3" d="M217.26,202.63c1.84,23.92-20.65,46-39.23,56.16-61.43,33.66-162.85-17-163.65-56.16-.58-28.88,53.53-59.54,101.44-59.85C159.29,142.51,214.51,167.12,217.26,202.63Z"/></g><g id="pyramid_goblin" data-name="pyramid goblin"><path class="cls-4" d="M180.08,150.9s5.87-31.85,5.35-41.61c-.31-5.92-9-18.84-20.31-18.84S60.41,112.68,47.22,121.34s-12.41,21.59-8.66,26.37c7.72,9.82,28.36,21.83,44.16,25.79,37.31,9.37,97.39-22.6,97.39-22.6"/><path class="cls-4" d="M189.74,208.79c-9.42,0-10.76-10.9-20.31-7.16-13.08,5.08-5.16,15.51-11.28,26.77-3.32,6.11-20.23,15.76-32.42,9.4C106,227.5,83.17,188.07,75.26,145.54s20-58.75,20-58.75,8.37-6.64,2.39-28.46a62.17,62.17,0,0,1-2.05-10L100,50.6l.58-5.6a73.91,73.91,0,0,0,6.59,9.67c12.45,16,3.58,24.79,3.58,24.79,32.75-5,58.58,40.11,71.61,62.63.71,1.26,1.4,2.44,2,3.54h0c.84,1.4,1.56,2.66,2.25,3.77l1,.29c14.33,4.23,13.49,6.85,27.08,38.09C218.17,195.69,199.15,208.79,189.74,208.79Z"/><path class="cls-5" d="M147.69,93.25s26.39,5,34.28,48c-7.73-13.64-19.36-34.48-34.28-48"/><path class="cls-5" d="M77.94,157.58c-1-4-1.9-8-2.65-12.05-2.72-14.61-1.22-26.12,1.93-34.94,0,0-11.26,7-10.25,24.48.78,13.62,11.44,24.47,11.44,24.47"/><path class="cls-5" d="M187.65,149.7a1,1,0,0,1-1.13.6c-23.22-3.9-50-.4-69.55,12.5a1.07,1.07,0,0,1-1.45-.43,1.06,1.06,0,0,1,.19-1.26c17.94-14.75,53-27.14,68.69-15.44h0c.85,1.39,1.57,2.66,2.25,3.76Z"/><ellipse class="cls-5" cx="138.73" cy="223.44" rx="17.82" ry="10.75" transform="translate(-61.4 52.79) rotate(-17.71)"/><path class="cls-5" d="M186.71,149.43a36.64,36.64,0,0,1,11.06,4.83c8.3,5.42,10.82,19.33,17,33.57,3.43,7.88-15.59,21-25,21s-10.76-10.9-20.31-7.15a12.85,12.85,0,0,0-6.26,4.49,12.62,12.62,0,0,0-2,6.58c-.22,0-3.79-20.74,6.23-40.71A64,64,0,0,1,186.71,149.43Z"/><path class="cls-2" d="M132.41,117.58a10.36,10.36,0,0,0,4,2.12,4.58,4.58,0,0,0,5.49-2.54,10.27,10.27,0,0,0,1-4.39,5.86,5.86,0,0,1,2,5.15,6.47,6.47,0,0,1-1.1,3,6.18,6.18,0,0,1-2.53,2.14,6.3,6.3,0,0,1-6.22-.61A5.85,5.85,0,0,1,132.41,117.58Z"/><path class="cls-2" d="M106.35,125a10.32,10.32,0,0,0,4,2.13,4.58,4.58,0,0,0,5.5-2.54,10.58,10.58,0,0,0,1-4.39,5.87,5.87,0,0,1,2,5.16,6.46,6.46,0,0,1-1.1,2.94,6.2,6.2,0,0,1-8.76,1.54A5.93,5.93,0,0,1,106.35,125Z"/><polygon class="cls-4" points="55.95 25.49 84.99 24.33 103.16 0 73.32 1.19 55.95 25.49"/><polyline class="cls-5" points="98.23 47.41 84.99 24.33 55.95 25.49"/><polyline class="cls-6" points="103.16 0 84.99 24.33 98.23 47.41"/></g><g id="log"><g id="log-2"><path class="cls-2" d="M416,230.72c-34.7,6.25-71.51-1.37-105.63,6.32-16.08,3.63-31.05,18.68-46.55,21.4-8.14,1.42-17.19-4.92-25.45-4-8.65.92-19.58,8.84-27.42,12.75-17.43-7-26.72-33.05-30.34-49.77-4-18.28-1.69-44.17,10.28-60.27,27.68-1.78,50.14-13.36,78-14.25,22.11-.71,20.16-5.46,38.32-10.78,12.33-3.61,24.8-.25,37.19-3.59,17.77-4.78,22.4-19.35,44-11.47,13.41,4.9,15.34,14,21.16,24.91C424.88,171,420,198.78,416,230.72Z"/><path class="cls-6" d="M211,267.16c-35.91-11.8-49.26-84.17-20.06-110C220.32,182.79,247.69,240,211,267.16Z"/><path class="cls-5" d="M212.58,207.93c-1.24,12.59,2.78,24.35-5.58,35.09-12.54-9.14-26.18-29.55-22-46.55C190.89,172.3,209,188.56,212.58,207.93Z"/></g><g id="whorls"><path class="cls-7" d="M217.44,164c7.69,1,15.16,2.23,22.62,3.33q5.56.85,11.14,1.58c3.7.45,7.39,1,11.08,1.52s7.41,1.22,11.15,1.56a55.24,55.24,0,0,0,11.28.17,42.81,42.81,0,0,0,20.81-7.44,24.79,24.79,0,0,0,2.17-1.65l2.22-1.76c.78-.61,1.55-1.26,2.35-1.84l2.46-1.69a78.65,78.65,0,0,1,10.47-5.72,114.28,114.28,0,0,1,11.07-4.32,93.77,93.77,0,0,1,11.44-3,108.89,108.89,0,0,1,11.64-1.6c3.91-.35,7.81-.5,11.7-.48a113.39,113.39,0,0,1,11.66.61,79.77,79.77,0,0,1,11.52,1.9l-.06.85c-15.23,2-30.16,4.17-44.63,7.5-3.62.84-7.21,1.69-10.79,2.61s-7.09,2-10.55,3.23-6.81,2.74-10.16,4.24c-1.65.84-3.31,1.59-4.93,2.47l-1.24.64-1.37.69c-.91.44-1.77,1-2.72,1.32L305,169.92l-2.83,1a28.5,28.5,0,0,1-2.82.85l-1.42.41c-.46.15-.94.23-1.42.36-3.78,1-7.62,1.69-11.42,2.36s-7.68,1.25-11.57,1.78a87.34,87.34,0,0,1-11.76.79,69.14,69.14,0,0,1-11.66-1.12A110.77,110.77,0,0,1,227.65,170a72,72,0,0,1-10.49-5.18Z"/><path class="cls-7" d="M395.9,132.73c-6.57,1.44-13.08,2.39-19.55,3.38-3.24.45-6.48.93-9.7,1.35s-6.44.9-9.67,1.25-6.47.59-9.72.85-6.54.49-9.76,1A50.84,50.84,0,0,0,319.2,147c-5.76,3.5-11.75,6.93-18.14,9.17-3.18,1.15-6.39,2.14-9.63,3.08s-6.49,1.76-9.78,2.41a130.91,130.91,0,0,1-19.94,2.17,105.57,105.57,0,0,1-20.1-1l-.06-.85c6.45-2,12.86-3.55,19.26-5.07s12.76-2.87,19.12-4.11,12.78-2.22,19.07-3.71c3.15-.71,6.32-1.33,9.48-2.08a60.45,60.45,0,0,0,9.31-2.8c6.21-2.67,12.51-4.8,18.8-7.11s12.7-4.62,19.34-5.74a95.63,95.63,0,0,1,10-1.13c3.34-.25,6.68-.33,10-.32s6.67.18,10,.5a74.78,74.78,0,0,1,10,1.52Z"/><path class="cls-7" d="M233.12,194.62c3.92-1,7.85-1.79,11.78-2.61l5.92-1.16,5.93-1c2-.34,3.93-.85,5.92-1.27a22.74,22.74,0,0,1,5.93-.51,37.33,37.33,0,0,1,6,.75,25.4,25.4,0,0,1,6.16,2.07l.07.84a25.9,25.9,0,0,1-5.76,3,38.14,38.14,0,0,1-5.86,1.69,22.69,22.69,0,0,1-5.93.42c-2-.11-4-.31-6-.32l-6-.09-6-.22c-4-.2-8-.38-12-.73Z"/><path class="cls-7" d="M331.65,175.4a5.79,5.79,0,0,1,1.93-3.31,19.72,19.72,0,0,1,3-2.26c1-.66,2.12-1.27,3.21-1.83s2.2-1.13,3.33-1.64a64.38,64.38,0,0,1,14.13-4.68,71.81,71.81,0,0,1,7.45-1.06,42,42,0,0,1,7.77,0,20.88,20.88,0,0,1,4.13.84,9.82,9.82,0,0,1,4.41,2.7,7.06,7.06,0,0,1,1.51,2.83,9.17,9.17,0,0,1,.28,2.81,14.76,14.76,0,0,1-1.06,4.58,23.8,23.8,0,0,1-1.91,3.81,33.18,33.18,0,0,1-2.37,3.39,34.72,34.72,0,0,1-5.84,5.78,32.25,32.25,0,0,1-3.49,2.29,26.68,26.68,0,0,1-3.85,1.76,25.07,25.07,0,0,1-4.14,1.11,26.21,26.21,0,0,1-4.24.38,24.3,24.3,0,0,1-8.19-1.39,28.36,28.36,0,0,1-7.1-3.79,33.63,33.63,0,0,1-5.75-5.3,18.61,18.61,0,0,1-2.2-3.16A6.55,6.55,0,0,1,331.65,175.4Zm.85.08a4.29,4.29,0,0,0,.32,1.58,7.06,7.06,0,0,0,.85,1.45,11.26,11.26,0,0,0,2.54,2.33,19.73,19.73,0,0,0,6.31,2.79,36.37,36.37,0,0,0,12.9.84,25.44,25.44,0,0,0,5.85-1.32,29.76,29.76,0,0,0,5.55-2.65,27.05,27.05,0,0,0,5-3.89,19.07,19.07,0,0,0,3.68-4.92,8.87,8.87,0,0,0,.84-2.43,3,3,0,0,0,0-.85.77.77,0,0,0-.11-.39,3.89,3.89,0,0,0-1.69-1.13,14.52,14.52,0,0,0-2.94-.85,37.57,37.57,0,0,0-6.78-.6,66.23,66.23,0,0,0-7,.34A99.56,99.56,0,0,0,343.66,168a29.51,29.51,0,0,0-6.72,2.54,12.72,12.72,0,0,0-2.88,2.06,4.6,4.6,0,0,0-1.57,2.91Z"/></g><g id="mushrooms"><path class="cls-6" d="M354.45,223.92c1.4,6.12,17.57,5.63,34.6,1.76S410.4,217.63,409,211.5s-8.89-16-25.93-12.09S353.06,217.8,354.45,223.92Z"/><path class="cls-6" d="M389.51,189.4c2.75,5.8,17,8.83,28.57,3.39s19.54-19.07,16.79-24.88-14.45,0-26,5.47S386.76,183.59,389.51,189.4Z"/><path class="cls-6" d="M331.85,209.05c1.22,4,8.83,6,16.42,3.75s11.75-7.91,10.52-12-7.78-6.26-15.37-3.95S330.62,205,331.85,209.05Z"/><path class="cls-6" d="M312.19,220.81c.36,2.39,4.51,4.15,9,3.46s7.3-3.53,6.93-5.92-3.9-4.19-8.38-3.5S311.82,218.42,312.19,220.81Z"/><path class="cls-6" d="M297.85,214.4c.28,1.83,2.38,3.31,5.81,2.78s4.89-2.54,4.62-4.39-2-1.34-5.41-.84S297.57,212.57,297.85,214.4Z"/></g><path class="cls-6" d="M205,209.77c.3,1.21.64,2.41,1,3.67a20.5,20.5,0,0,1,.75,4,7.64,7.64,0,0,1-1.43,5.33,6.67,6.67,0,0,1-.9.94,5.3,5.3,0,0,1-2.47,1.2,5.2,5.2,0,0,1-2.65-.24,6.12,6.12,0,0,1-2-1.21,15.55,15.55,0,0,1-2.63-3.14,46.6,46.6,0,0,1-3.77-6.77,19.79,19.79,0,0,1-1.23-3.82,14.52,14.52,0,0,1-.21-4.16,11.67,11.67,0,0,1,1.16-4.37,12.15,12.15,0,0,1,.66-1.09,8.82,8.82,0,0,1,.92-1,6.41,6.41,0,0,1,2.61-1.42,6.22,6.22,0,0,1,2.94.05,9.63,9.63,0,0,1,1.27.46,8.09,8.09,0,0,1,3.82,4.12,20.82,20.82,0,0,1,1.27,3.84Zm-.43.11a10.92,10.92,0,0,0-1.58-3.3,12.74,12.74,0,0,0-2.54-2.54,13.17,13.17,0,0,0-2.65-1.58,2.53,2.53,0,0,0-1.81-.24,2.85,2.85,0,0,0-1.31,1.19,8.57,8.57,0,0,0-1.06,2.67,26.05,26.05,0,0,0-.38,6.77,14.4,14.4,0,0,0,.75,3.49,9.84,9.84,0,0,0,1.8,3.06,6.58,6.58,0,0,0,2.76,1.92,3.11,3.11,0,0,0,2.43-.06,4.34,4.34,0,0,0,1.49-1.52,16.69,16.69,0,0,0,1.43-2.75,12.59,12.59,0,0,0,.94-3.46A9.77,9.77,0,0,0,204.55,209.88Z"/></g></g></g></g></svg>