<svg xmlns="http://www.w3.org/2000/svg" xmlns:xlink="http://www.w3.org/1999/xlink" viewBox="0 0 1366 9679"><defs><style>.cls-1{opacity:0.5;fill:url(#linear-gradient);}</style><linearGradient id="linear-gradient" x1="659.82" y1="9423" x2="659.82" y2="8727.73" gradientUnits="userSpaceOnUse"><stop offset="0" stop-color="#50c6df"/><stop offset="0.01" stop-color="#50c4de"/><stop offset="0.25" stop-color="#4490c3"/><stop offset="0.48" stop-color="#3a67ae"/><stop offset="0.69" stop-color="#34499f"/><stop offset="0.87" stop-color="#2f3795"/><stop offset="1" stop-color="#2e3192"/></linearGradient></defs><title>backlandscape</title><g id="background_details" data-name="background details"><path class="cls-1" d="M1324.17,9038.83c-30.08-63.54-211.62-15.06-279-35.1-54.21-16.12-149.07-83.28-203.4-99-22-6.36-53.12-9.08-86.77-10.93,8.48-8.57,13-16.26,10.77-19.1-3.07-3.81-17.36,2.59-31.93,14.3-1.46,1.17-2.87,2.36-4.23,3.55-10.06-.46-20.2-.91-30.24-1.41a98.94,98.94,0,0,0,13.35-20.08c8.6-16.59,12-31.87,7.7-34.12s-14.85,9.36-23.45,25.95c-5.63,10.87-9.06,21.17-9.53,27.62-7.29-.41-14.5-.85-21.56-1.37a100.71,100.71,0,0,0,6.56-22.16c3.45-18.36,2.34-34-2.48-34.89s-11.51,13.25-15,31.62a97.82,97.82,0,0,0-1.83,24.39c-10.93-1-21.38-2.19-31.08-3.72a111,111,0,0,0-4.2-18.52c-5.58-17.83-13.89-31.11-18.57-29.64s-3.94,17.1,1.64,34.94c1.09,3.47,2.28,6.77,3.53,9.83a152.53,152.53,0,0,1-14.73-4.16c-57.22-19.67-148.55-108.22-206.1-126.9C293,8720.51,9,8812.93-6.28,8727.73L-9,9423s549.87-25.16,674.37-58.37c64.17-17.12,198.88-119.74,263.7-105.3,173.7,38.7,247,5.24,256.5,0C1242.56,9227.84,1352,9097.68,1324.17,9038.83Z"/></g></svg>