<svg xmlns="http://www.w3.org/2000/svg" xmlns:xlink="http://www.w3.org/1999/xlink" viewBox="0 0 1366 9679"><defs><style>.cls-1{fill:url(#linear-gradient);}</style><linearGradient id="linear-gradient" x1="875.18" y1="9549.2" x2="875.18" y2="9010.45" gradientUnits="userSpaceOnUse"><stop offset="0" stop-color="#50c6df" stop-opacity="0.5"/><stop offset="0.44" stop-color="#50c6df" stop-opacity="0.51"/><stop offset="0.6" stop-color="#50c6df" stop-opacity="0.54"/><stop offset="0.71" stop-color="#50c6df" stop-opacity="0.59"/><stop offset="0.8" stop-color="#50c6df" stop-opacity="0.67"/><stop offset="0.88" stop-color="#50c6df" stop-opacity="0.77"/><stop offset="0.95" stop-color="#50c6df" stop-opacity="0.89"/><stop offset="1" stop-color="#50c6df"/></linearGradient></defs><title>forelandscape</title><g id="background_details" data-name="background details"><path class="cls-1" d="M1347.23,9549.2c70.2-414.9-193.49-503.71-311.9-486.62-2.48.35-4.95.76-7.43,1.16,3.62-5.57,5.11-10,3.5-11.53s-6.41.21-12.26,4.38c9.13-22.62,12.33-42,7.09-44.27-4.93-2.11-15.67,11.65-25.3,31.77,4-17,3.83-30.87-.58-32.08-4.87-1.33-13.12,13.3-18.43,32.68-.91,3.34-1.67,6.6-2.29,9.72-1.27-9.49-3.79-16-6.61-16-2.56,0-4.71,5.5-5.83,13.63a59.36,59.36,0,0,0-10.4-.68c-.3,0-.61,0-.91,0-3.19-15.75-8.44-27.09-12.73-26.48s-6.21,13.07-4.87,29.21a100.6,100.6,0,0,0-17.68,6.71,134.11,134.11,0,0,0-.51-14.94c-1.77-20-7.28-35.88-12.31-35.43s-7.68,17-5.91,37c.31,3.45.73,6.77,1.23,9.91-4.49-8.45-9.13-13.72-11.76-12.7-3.64,1.4-2,14.26,3.57,28.72.35.9.7,1.78,1.07,2.65-.83-1.19-1.67-2.39-2.55-3.59-10-13.62-20.78-23.31-26.36-24.26-1.78-1.29-3.29-1.79-4.35-1.26-3.71,1.87-.69,15.35,6.76,30.11,1.28,2.55,2.61,5,3.95,7.2-6-5.1-11.16-7.71-12.85-6.13-2.35,2.18,2.78,11.52,11.46,20.86.27.3.55.57.82.86-1.34,1.65-2.66,3.32-4,5l-.21.28c-1.86-1.79-3.86-3.6-6-5.4-12.69-10.6-25.13-16.61-27.79-13.42s5.45,14.37,18.14,25c2.56,2.14,5.11,4.08,7.57,5.81-1.2,2-2.36,3.92-3.45,5.89C854,9118.4,846.51,9112,837,9106.13c-14.07-8.68-27.25-12.84-29.43-9.31s7.46,13.44,21.53,22.12c2.42,1.49,4.82,2.84,7.14,4-7.79-1.19-13.55-.72-14.17,1.51-.85,3.09,8.37,8.34,20.62,11.75l-.83.55h-.44c-16.53-.09-29.94,3.2-30,7.35,0,2.42,4.52,4.59,11.54,6-35.34,26.32-195.77,231.66-431.57,268.56Z"/></g></svg>