<svg xmlns="http://www.w3.org/2000/svg" xmlns:xlink="http://www.w3.org/1999/xlink" viewBox="0 0 1132.12 588.45"><defs><style>.cls-1{opacity:0.5;isolation:isolate;fill:url(#linear-gradient);}</style><linearGradient id="linear-gradient" x1="624.22" y1="-8060.25" x2="624.22" y2="-7364.98" gradientTransform="matrix(0.85, 0, 0, -0.85, 37.75, -6233.49)" gradientUnits="userSpaceOnUse"><stop offset="0" stop-color="#50c6df"/><stop offset="0.01" stop-color="#50c4de"/><stop offset="0.25" stop-color="#4490c3"/><stop offset="0.48" stop-color="#3a67ae"/><stop offset="0.69" stop-color="#34499f"/><stop offset="0.87" stop-color="#2f3795"/><stop offset="1" stop-color="#2e3192"/></linearGradient></defs><title>Asset 1</title><g id="Layer_2" data-name="Layer 2"><g id="Layer_1-2" data-name="Layer 1"><g id="background_details" data-name="background details"><path class="cls-1" d="M1128.35,263.3c-25.46-53.77-179.11-12.74-236.13-29.7C846.33,220,766.05,163.11,720.06,149.81c-18.62-5.39-44.95-7.69-73.43-9.25,7.17-7.26,11-13.77,9.11-16.17-2.6-3.22-14.69,2.19-27,12.1-1.24,1-2.43,2-3.58,3-8.52-.39-17.1-.77-25.6-1.19a83.92,83.92,0,0,0,11.3-17c7.28-14,10.16-27,6.52-28.88s-12.57,7.92-19.85,22c-4.76,9.2-7.67,17.91-8.07,23.37-6.17-.35-12.27-.72-18.24-1.16a85.8,85.8,0,0,0,5.55-18.75c2.92-15.54,2-28.78-2.1-29.53s-9.74,11.21-12.7,26.76a83.11,83.11,0,0,0-1.54,20.64c-9.25-.84-18.1-1.85-26.31-3.15a93.51,93.51,0,0,0-3.55-15.67c-4.73-15.09-11.76-26.33-15.72-25.09s-3.34,14.48,1.39,29.58c.92,2.93,1.93,5.73,3,8.32a128.07,128.07,0,0,1-12.46-3.53C458.31,109.55,381,34.6,332.3,18.79,255.6-6.11,15.23,72.11,2.3,0L0,588.45s465.39-21.29,570.77-49.4C625.08,524.56,739.09,437.71,794,449.93c147,32.75,209.06,4.43,217.1,0C1059.28,423.28,1151.91,313.11,1128.35,263.3Z"/></g></g></g></svg>