<?xml version="1.0" encoding="utf-8"?>
<!-- Generator: Adobe Illustrator 24.0.1, SVG Export Plug-In . SVG Version: 6.00 Build 0)  -->
<svg version="1.1" id="Layer_1" xmlns="http://www.w3.org/2000/svg" xmlns:xlink="http://www.w3.org/1999/xlink" x="0px" y="0px"
	 viewBox="0 0 1162.6 1158" style="enable-background:new 0 0 1162.6 1158;" xml:space="preserve">
<style type="text/css">
	.st0{fill:#50C6DF;}
	.st1{opacity:0.5;fill:url(#SVGID_1_);enable-background:new    ;}
	.st2{fill:url(#SVGID_2_);}
	.st3{clip-path:url(#SVGID_4_);}
	.st4{clip-path:url(#SVGID_6_);}
	.st5{fill:#F78D36;}
	.st6{fill:#FFE381;}
	.st7{fill:url(#SVGID_7_);}
</style>
<title>Asset 1</title>
<g id="Layer_2_1_">
	<g id="background">
		<rect class="st0" width="1162.6" height="1158"/>
	</g>
</g>
<g id="Layer_2_2_">
	<g id="Layer_1-2">
		<g id="background_details">
			
				<linearGradient id="SVGID_1_" gradientUnits="userSpaceOnUse" x1="701.522" y1="10526.002" x2="701.522" y2="9830.7324" gradientTransform="matrix(0.85 0 0 0.85 -28.55 -8040.8901)">
				<stop  offset="0" style="stop-color:#50C6DF"/>
				<stop  offset="1.000000e-02" style="stop-color:#50C4DE"/>
				<stop  offset="0.25" style="stop-color:#4490C3"/>
				<stop  offset="0.48" style="stop-color:#3A67AE"/>
				<stop  offset="0.69" style="stop-color:#34499F"/>
				<stop  offset="0.87" style="stop-color:#2F3795"/>
				<stop  offset="1" style="stop-color:#2E3192"/>
			</linearGradient>
			<path class="st1" d="M1130,551.8c-25.5-53.8-179.1-12.7-236.1-29.7c-45.9-13.6-126.2-70.5-172.2-83.8c-18.6-5.4-45-7.7-73.4-9.3
				c7.2-7.3,11-13.8,9.1-16.2c-2.6-3.2-14.7,2.2-27,12.1c-1.2,1-2.4,2-3.6,3c-8.5-0.4-17.1-0.8-25.6-1.2c4.4-5.2,8.2-10.9,11.3-17
				c7.3-14,10.2-27,6.5-28.9s-12.6,7.9-19.8,22c-4.8,9.2-7.7,17.9-8.1,23.4c-6.2-0.4-12.3-0.7-18.2-1.2c2.6-6,4.4-12.3,5.5-18.8
				c2.9-15.5,2-28.8-2.1-29.5s-9.7,11.2-12.7,26.8c-1.4,6.8-1.9,13.7-1.5,20.6c-9.3-0.8-18.1-1.9-26.3-3.1
				c-0.7-5.3-1.9-10.6-3.5-15.7c-4.7-15.1-11.8-26.3-15.7-25.1c-4,1.2-3.3,14.5,1.4,29.6c0.9,2.9,1.9,5.7,3,8.3
				c-4.2-1-8.4-2.1-12.5-3.5C460,398,382.7,323.1,334,307.3c-76.7-24.9-317.1,53.3-330-18.8L1.7,876.9c0,0,465.4-21.3,570.8-49.4
				c54.3-14.5,168.3-101.3,223.2-89.1c147,32.8,209.1,4.4,217.1,0C1061,711.8,1153.6,601.6,1130,551.8z"/>
		</g>
	</g>
</g>
<g id="Layer_2_3_">
	<g id="Layer_1-2_1_">
		<g id="background_details_1_">
			
				<linearGradient id="SVGID_2_" gradientUnits="userSpaceOnUse" x1="947.0275" y1="11155.3262" x2="947.0275" y2="10616.5459" gradientTransform="matrix(0.85 0 0 0.85 -80.62 -8482.6504)">
				<stop  offset="0" style="stop-color:#50C6DF;stop-opacity:0.5"/>
				<stop  offset="0.44" style="stop-color:#50C6DF;stop-opacity:0.51"/>
				<stop  offset="0.6" style="stop-color:#50C6DF;stop-opacity:0.54"/>
				<stop  offset="0.71" style="stop-color:#50C6DF;stop-opacity:0.59"/>
				<stop  offset="0.8" style="stop-color:#50C6DF;stop-opacity:0.67"/>
				<stop  offset="0.88" style="stop-color:#50C6DF;stop-opacity:0.77"/>
				<stop  offset="0.95" style="stop-color:#50C6DF;stop-opacity:0.89"/>
				<stop  offset="1" style="stop-color:#50C6DF"/>
			</linearGradient>
			<path class="st2" d="M1123.9,968.8c59.4-351.2-163.8-426.3-264-411.9c-2.1,0.3-4.2,0.6-6.3,1c3.1-4.7,4.3-8.5,3-9.8
				c-1.3-1.3-5.4,0.2-10.4,3.7c7.7-19.2,10.4-35.5,6-37.5c-4.2-1.8-13.3,9.9-21.4,26.9c3.4-14.4,3.2-26.1-0.5-27.1
				c-4.2-1.2-11.1,11.2-15.6,27.6c-0.8,2.8-1.4,5.6-1.9,8.2c-1.1-8-3.2-13.5-5.6-13.5c-2.2,0-4,4.6-4.9,11.5
				c-2.9-0.5-5.9-0.6-8.8-0.6h-0.8c-2.7-13.3-7.1-22.9-10.8-22.4s-5.3,11.1-4.1,24.8c-5.2,1.4-10.2,3.3-15,5.7
				c0.1-4.2,0-8.5-0.4-12.7c-1.5-16.9-6.2-30.4-10.4-30s-6.5,14.4-5,31.3c0.3,2.9,0.6,5.7,1,8.4c-3.8-7.1-7.7-11.6-10-10.8
				c-3.1,1.2-1.7,12.1,3,24.3c0.3,0.8,0.6,1.5,0.9,2.2c-0.7-1-1.4-2-2.2-3c-8.4-11.5-17.5-19.8-22.3-20.6c-1.5-1.1-2.8-1.5-3.7-1.1
				c-3.1,1.6-0.6,13,5.7,25.5c1.1,2.2,2.2,4.2,3.3,6.1c-5.1-4.3-9.4-6.5-10.9-5.2c-2,1.8,2.3,9.8,9.7,17.7c0.2,0.3,0.5,0.5,0.7,0.7
				c-1.1,1.4-2.3,2.8-3.4,4.2l-0.2,0.2c-1.6-1.5-3.3-3-5.1-4.6c-10.7-9-21.3-14.1-23.5-11.4c-2.3,2.7,4.7,12.2,15.3,21.2
				c2.2,1.8,4.3,3.5,6.4,4.9c-1,1.7-2,3.3-2.9,5c-2.6-3.9-9-9.3-17-14.2c-11.9-7.3-23.1-10.9-24.9-7.9c-1.9,3,6.3,11.4,18.2,18.7
				c2,1.3,4.1,2.4,6,3.4c-6.6-1-11.5-0.6-12,1.3c-0.7,2.6,7.1,7.1,17.5,10l-0.7,0.5h-0.4c-14-0.1-25.3,2.7-25.4,6.2
				c0,2,3.8,3.9,9.8,5.1c-29.9,22.3-165.7,196-365.3,227.3L1123.9,968.8z"/>
		</g>
	</g>
</g>
<g id="Layer_2_4_">
	<g id="Layer_1-2_2_">
		<g id="Contact">
			<g>
				<defs>
					
						<rect id="SVGID_3_" x="691.2" y="491.3" transform="matrix(0.9362 -0.3514 0.3514 0.9362 -189.1287 361.6183)" width="421.3" height="421.3"/>
				</defs>
				<clipPath id="SVGID_4_">
					<use xlink:href="#SVGID_3_"  style="overflow:visible;"/>
				</clipPath>
				<g class="st3">
					<g>
						<defs>
							
								<rect id="SVGID_5_" x="691.2" y="491.3" transform="matrix(0.9362 -0.3514 0.3514 0.9362 -189.1287 361.6183)" width="421.3" height="421.3"/>
						</defs>
						<clipPath id="SVGID_6_">
							<use xlink:href="#SVGID_5_"  style="overflow:visible;"/>
						</clipPath>
						<g class="st4">
							<path class="st5" d="M755.9,733c0.1,0.4,0.2,0.7,0.4,1l3.6,9.7l13-14.5l12.1-4.7l23.9,9.9l-1.8,7.6l-1.2,5.2l-35.5,13.3
								c-1.1,0.4-1.6,1.5-1.4,2.6l0,0c0,0.2,0.1,0.3,0.2,0.5l3.5,9.4l12.7-5.2c11.1,1.5,24.7,1.5,35.7-4.5c5-7.8,8.4-16.6,10.2-25.7
								c49.9-28,103.7-48.2,159.7-59.9c1.4,0.6,2.8,1.2,4.2,1.7c1.5,0.4,2.9,0.9,4.3,1.5c3.5,1.6,6.8,4.7,10.7,4.9
								c3.8,0.1,7.2-2.7,11-4.2s8.3-1.5,11-4.1s3.3-7.2,4.8-10.7c1.6-3.5,4.8-6.8,4.9-10.7l0,0c-0.2-0.3-0.3-0.7-0.4-1
								c-0.6-1.7-1-3.4-1.4-5.1c-0.9-1.6-1.6-3.2-2.3-4.8l-0.2-0.5l1.7,2.7l-4-10.6v0.1c-0.4-1-0.9-1.8-1.6-2.6
								c-2.7-2.8-7.2-3.3-10.7-4.8c-3.5-1.6-6.8-4.8-10.7-4.9s-7.2,2.7-11,4.1s-8.3,1.5-11,4.1s-3.2,7.2-4.8,10.7
								c-1.2,2.7-3.3,5.2-4.3,8L823,710.8c-8.3-4-23.6-9.8-39.9-7.2c-10.1,8.1-19.1,17.5-26.8,27.8C756,731.8,755.8,732.4,755.9,733
								L755.9,733L755.9,733z M998.6,654.7c0.1-1.8-1.8-4.2-1-5.8s3.7-1.8,5.1-3.1s1.6-4.2,3.4-4.8c1.7-0.7,4,1.3,5.7,1.4
								s4.2-1.7,5.8-1c1.7,0.7,1.8,3.7,3.1,5.1s4.2,1.6,4.8,3.4s-1.3,4-1.4,5.7c0,0.1,0,0.3,0,0.4c0.2,1.8,1.7,3.9,1,5.4
								c-0.7,1.7-3.7,1.8-5.1,3.1c-1.4,1.3-1.6,4.2-3.4,4.8c-1.7,0.7-4-1.3-5.8-1.4s-4.2,1.8-5.8,1s-1.8-3.3-2.8-4.7
								c-0.1-0.1-0.2-0.2-0.3-0.3c-1.2-1.3-4.2-1.6-4.8-3.4S998.5,656.5,998.6,654.7"/>
							<path class="st6" d="M762.6,744.7l26.3-10.3l18.4,7.6l5.5,2.3l-3,12.8l-35.5,13.3c-1.1,0.4-1.7,1.7-1.3,2.8
								c0.2,0.7,0.8,1.2,1.5,1.3c10.8,3.1,33.8,7.8,50.5-1.3c5-7.8,8.4-16.6,10.2-25.7c49.9-28,103.7-48.2,159.7-59.9
								c1.4,0.6,2.8,1.2,4.2,1.7c1.5,0.4,2.9,0.9,4.3,1.5c3.5,1.6,6.8,4.7,10.7,4.9s7.2-2.7,11-4.2c3.8-1.4,8.3-1.5,11-4.1
								s3.3-7.2,4.8-10.7c1.6-3.5,4.8-6.8,4.9-10.7c0.1-3.4-2.2-6.6-3.7-10c-0.2-0.3-0.3-0.7-0.4-1c-0.6-1.7-1-3.4-1.4-5.1
								c-0.4-2.1-1.3-4.1-2.7-5.8l0,0c-2.7-2.8-7.2-3.2-10.7-4.8c-3.5-1.6-6.8-4.7-10.7-4.9s-7.2,2.7-11,4.1
								c-3.8,1.4-8.3,1.5-11,4.1s-3.3,7.2-4.8,10.7c-1.2,2.7-3.4,5.2-4.3,8l-158.2,59.4c-8.3-4-23.6-9.8-39.9-7.2
								c-6.6,5.3-12.8,11.2-18.4,17.5c-3.5,3.9-6.3,7.5-8.4,10.3c-0.7,1-0.5,2.4,0.4,3.1C761.1,744.9,761.9,745,762.6,744.7
								 M1002.3,664.7v-0.4c-0.2-1.8-1.7-3.9-1-5.4c0.8-1.7,3.7-1.8,5.1-3.1c1.4-1.3,1.6-4.2,3.4-4.8c1.8-0.7,4,1.3,5.7,1.4
								s4.2-1.7,5.8-1c1.7,0.7,1.8,3.3,2.8,4.7c0.1,0.1,0.2,0.2,0.3,0.3c1.2,1.3,4.2,1.7,4.8,3.4s-1.3,4-1.4,5.8
								c-0.1,1.8,1.8,4.2,1,5.8s-3.7,1.8-5.1,3.1c-1.4,1.3-1.7,4.2-3.4,4.8c-1.7,0.7-4-1.3-5.8-1.4c-1.8,0-4.2,1.7-5.8,1
								c-1.7-0.7-1.8-3.7-3.1-5.1s-4.2-1.6-4.8-3.4C1000.2,668.7,1002.2,666.4,1002.3,664.7"/>
							
								<rect x="979.9" y="671.2" transform="matrix(0.9627 -0.2706 0.2706 0.9627 -146.216 291.1334)" class="st5" width="5.7" height="9.3"/>
							
								<rect x="964.2" y="675.7" transform="matrix(0.9577 -0.2877 0.2877 0.9577 -154.8445 306.9881)" class="st5" width="5.7" height="9.3"/>
							
								<rect x="948.3" y="680.6" transform="matrix(0.9522 -0.3054 0.3054 0.9522 -163.8127 323.1752)" class="st5" width="5.7" height="9.3"/>
							
								<rect x="931.3" y="686.3" transform="matrix(0.9463 -0.3234 0.3234 0.9463 -173.2575 339.2463)" class="st5" width="5.7" height="9.3"/>
							
								<rect x="914.3" y="692.2" transform="matrix(0.9397 -0.342 0.342 0.9397 -183.034 355.7204)" class="st5" width="5.7" height="9.3"/>
							
								<rect x="896.8" y="698.9" transform="matrix(0.9326 -0.3608 0.3608 0.9326 -193.2305 371.9802)" class="st5" width="5.7" height="9.3"/>
							
								<rect x="880.5" y="705.3" transform="matrix(0.9253 -0.3791 0.3791 0.9253 -203.1919 387.9069)" class="st5" width="5.7" height="9.3"/>
							
								<rect x="866" y="711.1" transform="matrix(0.9171 -0.3987 0.3987 0.9171 -213.3167 405.7793)" class="st5" width="5.7" height="9.3"/>
							
								<rect x="848.3" y="719.2" transform="matrix(0.9105 -0.4134 0.4134 0.9105 -223.1062 416.6427)" class="st5" width="5.7" height="9.3"/>
							
								<rect x="831.8" y="725.1" transform="matrix(0.9023 -0.4311 0.4311 0.9023 -233.0629 431.1143)" class="st5" width="5.7" height="9.2"/>
						</g>
					</g>
				</g>
			</g>
			
				<linearGradient id="SVGID_7_" gradientUnits="userSpaceOnUse" x1="1052.3063" y1="11365.5059" x2="1052.3063" y2="10826.7256" gradientTransform="matrix(0.85 0 0 0.85 -82.61 -8495.7295)">
				<stop  offset="0" style="stop-color:#50C6DF;stop-opacity:0.5"/>
				<stop  offset="1" style="stop-color:#50C6DF"/>
			</linearGradient>
			<path class="st7" d="M1276.9,1134.1c59.4-351.2-163.8-426.3-264-411.9c-2.1,0.3-4.2,0.6-6.3,1c3.1-4.7,4.3-8.5,3-9.8
				c-1.3-1.3-5.4,0.2-10.4,3.7c7.7-19.1,10.4-35.5,6-37.5c-4.2-1.8-13.3,9.9-21.4,26.9c3.4-14.4,3.2-26.1-0.5-27.1
				c-4.1-1.1-11.1,11.3-15.6,27.7c-0.8,2.8-1.4,5.6-1.9,8.2c-1.1-8-3.2-13.6-5.6-13.5c-2.2,0-4,4.7-4.9,11.5
				c-2.9-0.4-5.9-0.6-8.8-0.6h-0.8c-2.7-13.3-7.1-22.9-10.8-22.4c-3.6,0.5-5.3,11.1-4.1,24.7c-5.2,1.4-10.2,3.3-15,5.7
				c0.1-4.2-0.1-8.4-0.4-12.6c-1.5-16.9-6.2-30.4-10.4-30s-6.5,14.4-5,31.3c0.3,2.9,0.6,5.7,1,8.4c-3.8-7.1-7.7-11.6-10-10.8
				c-3.1,1.2-1.7,12.1,3,24.3c0.3,0.8,0.6,1.5,0.9,2.2c-0.7-1-1.4-2-2.2-3c-8.5-11.5-17.6-19.7-22.3-20.5c-1.5-1.1-2.8-1.5-3.7-1.1
				c-3.1,1.6-0.6,13,5.7,25.5c1.1,2.2,2.2,4.2,3.4,6.1c-5.1-4.3-9.5-6.5-10.9-5.2c-2,1.8,2.4,9.8,9.7,17.6c0.2,0.3,0.5,0.5,0.7,0.7
				c-1.1,1.4-2.3,2.8-3.4,4.2l-0.2,0.2c-1.6-1.5-3.3-3-5.1-4.6c-10.8-9-21.3-14.1-23.5-11.4s4.6,12.2,15.4,21.2
				c2.2,1.8,4.3,3.5,6.4,4.9c-1,1.7-2,3.3-2.9,5c-2.7-3.9-9-9.3-17.1-14.3c-11.9-7.3-23.1-10.9-24.9-7.9c-1.9,3,6.3,11.4,18.2,18.7
				c2,1.3,4.1,2.4,6,3.4c-6.6-1-11.5-0.6-12,1.3c-0.7,2.6,7.1,7,17.5,9.9l-0.7,0.5h-0.4c-14-0.1-25.3,2.7-25.4,6.2
				c0,2,3.8,3.9,9.8,5.1c-29.8,22.3-296.6,137.5-496.2,168.7L1276.9,1134.1z"/>
		</g>
	</g>
</g>
</svg>
