<svg xmlns="http://www.w3.org/2000/svg" xmlns:xlink="http://www.w3.org/1999/xlink" viewBox="0 0 818.9 456.01"><defs><style>.cls-1{fill:url(#linear-gradient);}</style><linearGradient id="linear-gradient" x1="500.69" y1="-8425.71" x2="500.69" y2="-7886.93" gradientTransform="matrix(0.85, 0, 0, -0.85, -14.32, -6675.25)" gradientUnits="userSpaceOnUse"><stop offset="0" stop-color="#50c6df" stop-opacity="0.5"/><stop offset="0.44" stop-color="#50c6df" stop-opacity="0.51"/><stop offset="0.6" stop-color="#50c6df" stop-opacity="0.54"/><stop offset="0.71" stop-color="#50c6df" stop-opacity="0.59"/><stop offset="0.8" stop-color="#50c6df" stop-opacity="0.67"/><stop offset="0.88" stop-color="#50c6df" stop-opacity="0.77"/><stop offset="0.95" stop-color="#50c6df" stop-opacity="0.89"/><stop offset="1" stop-color="#50c6df"/></linearGradient></defs><title>Asset 1</title><g id="Layer_2" data-name="Layer 2"><g id="Layer_1-2" data-name="Layer 1"><g id="background_details" data-name="background details"><path class="cls-1" d="M809,456C868.41,104.85,645.23,29.68,545,44.15c-2.1.29-4.19.64-6.29,1,3.07-4.72,4.33-8.46,3-9.76s-5.42.18-10.37,3.71c7.73-19.15,10.43-35.55,6-37.47-4.17-1.79-13.26,9.86-21.41,26.89,3.38-14.39,3.24-26.13-.5-27.15C511.28.22,504.3,12.6,499.81,29c-.77,2.82-1.42,5.58-1.94,8.22-1.08-8-3.21-13.54-5.6-13.54-2.16,0-4,4.65-4.93,11.54a49.87,49.87,0,0,0-8.8-.58h-.77c-2.7-13.33-7.15-22.93-10.78-22.41S461.74,23.3,462.87,37a85.29,85.29,0,0,0-15,5.68A113.7,113.7,0,0,0,447.47,30C446,13.07,441.31-.37,437.06,0s-6.5,14.39-5,31.31c.27,2.92.62,5.73,1.05,8.39-3.81-7.15-7.73-11.61-10-10.75-3.08,1.19-1.69,12.07,3,24.31.3.76.6,1.51.91,2.24-.7-1-1.41-2-2.16-3C416.45,41,407.32,32.75,402.6,31.94c-1.51-1.09-2.78-1.51-3.68-1.06-3.14,1.58-.59,13,5.72,25.48,1.08,2.16,2.21,4.23,3.34,6.09-5.07-4.31-9.44-6.52-10.87-5.18-2,1.84,2.35,9.75,9.7,17.65.23.26.46.48.69.73-1.13,1.4-2.25,2.81-3.38,4.23l-.18.24c-1.58-1.52-3.27-3.05-5.08-4.57-10.74-9-21.27-14.06-23.52-11.36S380,76.35,390.69,85.35c2.17,1.81,4.33,3.45,6.41,4.92-1,1.69-2,3.31-2.92,5-2.64-3.86-9-9.28-17-14.24-11.91-7.35-23.06-10.87-24.91-7.88s6.32,11.37,18.22,18.72c2.05,1.26,4.08,2.4,6.05,3.38-6.6-1-11.47-.6-12,1.28-.72,2.62,7.09,7.06,17.46,9.95l-.71.46h-.37c-14-.07-25.34,2.71-25.39,6.22,0,2,3.83,3.89,9.77,5.08C335.36,140.5,199.57,314.29,0,345.52Z"/></g></g></g></svg>