<svg xmlns="http://www.w3.org/2000/svg" xmlns:xlink="http://www.w3.org/1999/xlink" viewBox="0 0 949.88 509.57"><defs><style>.cls-1{fill:none;}.cls-2{clip-path:url(#clip-path);}.cls-3{clip-path:url(#clip-path-2);}.cls-4{fill:#f78d36;}.cls-5{fill:#ffe381;}.cls-6{fill:url(#linear-gradient);}</style><clipPath id="clip-path" transform="translate(0 -193.76)"><rect class="cls-1" x="354.32" y="60.58" width="421.25" height="421.25" transform="translate(-59.27 215.79) rotate(-20.57)"/></clipPath><clipPath id="clip-path-2" transform="translate(0 -193.76)"><rect class="cls-1" x="354.32" y="60.58" width="421.25" height="421.25" transform="translate(-59.27 215.79) rotate(-20.57)"/></clipPath><linearGradient id="linear-gradient" x1="580.42" y1="-8504.46" x2="580.42" y2="-7965.68" gradientTransform="matrix(0.85, 0, 0, -0.85, -16.31, -6494.57)" gradientUnits="userSpaceOnUse"><stop offset="0" stop-color="#50c6df" stop-opacity="0.5"/><stop offset="1" stop-color="#50c6df"/></linearGradient></defs><title>Asset 1</title><g id="Layer_2" data-name="Layer 2"><g id="Layer_1-2" data-name="Layer 1"><g id="Contact"><g class="cls-2"><g class="cls-3"><path class="cls-4" d="M419,302.32a3.71,3.71,0,0,0,.39,1l3.63,9.68,13.05-14.53,12.1-4.73,23.87,9.93-1.8,7.62-1.23,5.19-35.48,13.31a2.15,2.15,0,0,0-1.35,2.58h0a2.48,2.48,0,0,0,.17.48l3.53,9.4,12.7-5.18c11.12,1.54,24.71,1.49,35.68-4.49a73.41,73.41,0,0,0,10.16-25.69A562.85,562.85,0,0,1,654.13,247a43.92,43.92,0,0,0,4.23,1.7,37.69,37.69,0,0,1,4.3,1.5c3.51,1.59,6.78,4.74,10.69,4.88,3.75.13,7.23-2.74,11-4.15s8.25-1.53,11-4.1,3.25-7.21,4.83-10.71,4.75-6.77,4.88-10.68h0c-.15-.34-.29-.68-.42-1a47.94,47.94,0,0,1-1.42-5.12,48.91,48.91,0,0,1-2.3-4.79l-.17-.49,1.69,2.68-4-10.63v.05a9,9,0,0,0-1.64-2.62c-2.67-2.84-7.2-3.25-10.7-4.83s-6.77-4.75-10.68-4.87-7.24,2.73-11,4.13-8.25,1.54-11,4.12-3.24,7.19-4.83,10.7c-1.22,2.66-3.34,5.21-4.33,8L486.14,280.06c-8.31-4-23.62-9.76-39.87-7.24a153.84,153.84,0,0,0-26.81,27.81,2.12,2.12,0,0,0-.42,1.65h0ZM661.65,224c.06-1.84-1.75-4.17-1-5.82s3.69-1.82,5.08-3.08,1.64-4.17,3.38-4.83,4,1.32,5.74,1.38,4.18-1.74,5.83-1,1.82,3.69,3.08,5.08,4.17,1.64,4.84,3.39-1.33,4-1.4,5.74a3.09,3.09,0,0,0,0,.43c.19,1.77,1.69,3.87,1,5.4-.74,1.69-3.69,1.82-5.08,3.09s-1.64,4.15-3.38,4.82-4-1.33-5.75-1.39-4.17,1.75-5.82,1-1.79-3.27-2.81-4.71c-.08-.12-.18-.23-.27-.34-1.22-1.3-4.17-1.64-4.83-3.39s1.32-4,1.39-5.74" transform="translate(0 -193.76)"/><path class="cls-5" d="M425.74,313.94,452,303.68l18.35,7.62,5.52,2.3-3,12.81-35.47,13.31a2.2,2.2,0,0,0-1.29,2.82,2.22,2.22,0,0,0,1.45,1.35c10.79,3.08,33.75,7.82,50.55-1.33a73.52,73.52,0,0,0,10.15-25.7,563,563,0,0,1,159.68-59.92,42.84,42.84,0,0,0,4.23,1.69,38.44,38.44,0,0,1,4.3,1.51c3.5,1.58,6.77,4.74,10.68,4.87s7.24-2.74,11-4.15,8.25-1.53,11-4.1,3.25-7.2,4.83-10.71,4.75-6.77,4.88-10.68c.12-3.38-2.24-6.6-3.73-10q-.23-.51-.42-1a48.72,48.72,0,0,1-1.41-5.13,13.14,13.14,0,0,0-2.67-5.84h0c-2.67-2.85-7.2-3.24-10.7-4.84s-6.77-4.74-10.68-4.87-7.24,2.73-11,4.15-8.25,1.53-11,4.1-3.25,7.2-4.84,10.7c-1.22,2.67-3.38,5.21-4.33,8L489.88,290c-8.31-4-23.62-9.76-39.87-7.24a143.87,143.87,0,0,0-18.4,17.53c-3.48,3.93-6.32,7.5-8.42,10.3a2.21,2.21,0,0,0,.43,3.09,2.19,2.19,0,0,0,2.11.3m239.63-80v-.42c-.19-1.77-1.7-3.88-1-5.4.75-1.7,3.69-1.82,5.07-3.08s1.64-4.17,3.39-4.83,4,1.32,5.74,1.38,4.17-1.74,5.83-1,1.78,3.26,2.81,4.71a2.16,2.16,0,0,0,.27.33c1.22,1.3,4.16,1.65,4.82,3.39s-1.32,4-1.38,5.75,1.75,4.17,1,5.82-3.69,1.83-5.07,3.09-1.65,4.15-3.39,4.82-4-1.33-5.75-1.38-4.17,1.74-5.82,1-1.82-3.69-3.08-5.07-4.16-1.65-4.82-3.39,1.32-4,1.38-5.75" transform="translate(0 -193.76)"/><rect class="cls-4" x="642.95" y="240.46" width="5.7" height="9.27" transform="translate(-42.23 -9.86) rotate(-15.7)"/><rect class="cls-4" x="627.33" y="244.98" width="5.7" height="9.27" transform="translate(-45.17 -1.91) rotate(-16.72)"/><rect class="cls-4" x="611.4" y="249.87" width="5.7" height="9.27" transform="translate(-48.38 5.96) rotate(-17.78)"/><rect class="cls-4" x="594.36" y="255.57" width="5.7" height="9.27" transform="translate(-52.06 13.37) rotate(-18.87)"/><rect class="cls-4" x="577.42" y="261.52" width="5.7" height="9.27" transform="translate(-56.03 20.75) rotate(-20)"/><rect class="cls-4" x="559.86" y="268.14" width="5.7" height="9.27" transform="translate(-60.51 27.64) rotate(-21.15)"/><rect class="cls-4" x="543.6" y="274.52" width="5.7" height="9.27" transform="translate(-65.04 34.26) rotate(-22.28)"/><rect class="cls-4" x="527.05" y="281.52" width="5.7" height="9.27" transform="matrix(0.92, -0.4, 0.4, 0.92, -70.04, 39.91)"/><rect class="cls-4" x="511.4" y="288.48" width="5.7" height="9.27" transform="translate(-75.17 45.06) rotate(-24.42)"/><rect class="cls-4" x="496.28" y="295.53" width="5.7" height="9.27" transform="matrix(0.9, -0.43, 0.43, 0.9, -80.54, 49.76)"/></g></g><path class="cls-6" d="M940,703.33C999.39,352.17,776.21,277,676,291.47c-2.09.29-4.23.64-6.28,1,3.06-4.71,4.32-8.46,3-9.76s-5.43.18-10.38,3.71c7.73-19.15,10.44-35.55,6-37.47-4.17-1.79-13.26,9.86-21.41,26.89,3.38-14.39,3.24-26.13-.49-27.15-4.12-1.13-11.11,11.25-15.6,27.66-.77,2.82-1.41,5.58-1.94,8.22-1.07-8-3.21-13.58-5.59-13.54-2.17,0-4,4.66-4.94,11.54a50.78,50.78,0,0,0-8.8-.58h-.77c-2.7-13.33-7.14-22.93-10.77-22.41s-5.26,11.06-4.13,24.72a85.29,85.29,0,0,0-15,5.68,113.43,113.43,0,0,0-.43-12.64c-1.5-16.93-6.16-30.37-10.42-30s-6.5,14.39-5,31.32c.26,2.92.62,5.72,1,8.38-3.8-7.15-7.73-11.61-10-10.75-3.09,1.19-1.7,12.07,3,24.31.29.76.59,1.51.9,2.24-.7-1-1.41-2-2.16-3-8.46-11.53-17.58-19.73-22.31-20.54-1.5-1.09-2.78-1.51-3.68-1.06-3.14,1.58-.58,13,5.72,25.48,1.09,2.16,2.21,4.19,3.39,6.1-5.08-4.32-9.45-6.53-10.88-5.19-2,1.84,2.36,9.75,9.7,17.65.23.26.47.49.7.73-1.14,1.4-2.25,2.81-3.39,4.23l-.18.24c-1.57-1.51-3.26-3.05-5.07-4.57-10.75-9-21.27-14.06-23.53-11.36s4.62,12.16,15.36,21.16c2.16,1.81,4.32,3.45,6.4,4.92-1,1.69-2,3.32-2.91,5-2.7-3.92-9-9.31-17.06-14.31-11.91-7.35-23.06-10.87-24.91-7.88s6.32,11.38,18.22,18.72c2.05,1.26,4.08,2.41,6.05,3.39-6.6-1-11.47-.61-12,1.28-.71,2.61,7.09,7.05,17.46,9.94l-.71.47h-.37c-14-.08-25.34,2.7-25.39,6.22,0,2,3.83,3.88,9.77,5.08C466.37,387.85,199.57,503,0,534.22Z" transform="translate(0 -193.76)"/></g></g></g></svg>