<svg xmlns="http://www.w3.org/2000/svg" xmlns:xlink="http://www.w3.org/1999/xlink" viewBox="0 0 1366 9679"><defs><style>.cls-1{fill:none;}.cls-2{clip-path:url(#clip-path);}.cls-3{fill:#f78d36;}.cls-4{fill:#ffe381;}.cls-5{fill:url(#linear-gradient);}</style><clipPath id="clip-path"><rect class="cls-1" x="825.54" y="8966.28" width="497.72" height="497.72" transform="translate(-3169.43 965.11) rotate(-20.57)"/></clipPath><linearGradient id="linear-gradient" x1="967.88" y1="9725.8" x2="967.88" y2="9187.05" gradientUnits="userSpaceOnUse"><stop offset="0" stop-color="#50c6df" stop-opacity="0.5"/><stop offset="1" stop-color="#50c6df"/></linearGradient></defs><title>wrenchinground</title><g id="Contact"><g class="cls-2"><g class="cls-2"><path class="cls-3" d="M901.83,9252a4.59,4.59,0,0,0,.46,1.2l4.29,11.44L922,9247.48l14.3-5.59,28.2,11.73-2.13,9-1.45,6.13L919,9284.48a2.55,2.55,0,0,0-1.6,3.05h0l0,0a3,3,0,0,0,.21.57l4.17,11.1,15-6.12c13.14,1.82,29.2,1.76,42.16-5.3a86.81,86.81,0,0,0,12-30.36,665,665,0,0,1,188.66-70.8,51.28,51.28,0,0,0,5,2,45.3,45.3,0,0,1,5.08,1.78c4.14,1.87,8,5.6,12.62,5.76,4.44.15,8.55-3.24,13-4.9s9.75-1.81,13-4.85,3.84-8.51,5.71-12.65,5.61-8,5.76-12.62v0c-.18-.4-.34-.8-.5-1.21a57.55,57.55,0,0,1-1.67-6.06,55.36,55.36,0,0,1-2.72-5.66l-.2-.57,2,3.16-4.72-12.56v.06a10.54,10.54,0,0,0-1.94-3.09c-3.15-3.36-8.5-3.84-12.64-5.71s-8-5.61-12.62-5.76c-4.45-.16-8.55,3.23-13,4.89s-9.75,1.82-13,4.86-3.83,8.5-5.71,12.64c-1.44,3.15-3.95,6.16-5.12,9.46L981.11,9225.7c-9.82-4.77-27.9-11.53-47.1-8.56A182,182,0,0,0,902.33,9250a2.54,2.54,0,0,0-.5,1.95h0Zm286.65-92.57c.07-2.18-2.07-4.93-1.18-6.88s4.36-2.15,6-3.64,1.94-4.92,4-5.7,4.68,1.56,6.78,1.63,4.94-2.06,6.89-1.17,2.15,4.36,3.64,6,4.92,1.94,5.71,4-1.57,4.69-1.65,6.79a4.26,4.26,0,0,0,0,.5c.22,2.09,2,4.58,1.16,6.38-.88,2-4.36,2.16-6,3.65s-1.94,4.91-4,5.7-4.68-1.57-6.79-1.64-4.93,2.06-6.88,1.18-2.11-3.86-3.32-5.57a4.31,4.31,0,0,0-.32-.4c-1.44-1.53-4.92-1.94-5.7-4s1.56-4.68,1.64-6.79"/><path class="cls-4" d="M909.75,9265.73l31-12.12,21.68,9,6.53,2.72-3.58,15.13-41.91,15.73a2.59,2.59,0,0,0,.19,4.92c12.75,3.64,39.87,9.24,59.72-1.57a86.81,86.81,0,0,0,12-30.36,665,665,0,0,1,188.66-70.8,48.82,48.82,0,0,0,5,2,45.3,45.3,0,0,1,5.08,1.78c4.13,1.87,8,5.6,12.62,5.76,4.44.15,8.55-3.24,13-4.9s9.75-1.81,13-4.85,3.84-8.51,5.71-12.65,5.61-8,5.76-12.62c.14-4-2.64-7.8-4.4-11.77-.18-.4-.34-.8-.5-1.21a57.55,57.55,0,0,1-1.67-6.06c-.67-2.6-1.45-5.07-3.15-6.9,0,0,0,0,0,0-3.15-3.36-8.51-3.83-12.64-5.71s-8-5.61-12.62-5.76c-4.45-.16-8.56,3.23-13,4.9s-9.75,1.81-13,4.85-3.84,8.5-5.71,12.64c-1.44,3.16-4,6.16-5.12,9.46l-186.87,70.13c-9.82-4.77-27.9-11.53-47.1-8.56a170.83,170.83,0,0,0-21.75,20.72c-4.11,4.64-7.46,8.86-9.94,12.17a2.6,2.6,0,0,0,3,4m283.12-94.57a4.21,4.21,0,0,0,0-.5c-.22-2.09-2-4.58-1.17-6.38.89-2,4.37-2.15,6-3.64s1.93-4.92,4-5.7,4.68,1.56,6.78,1.63,4.93-2.06,6.89-1.17,2.11,3.85,3.32,5.56a3.3,3.3,0,0,0,.32.4c1.44,1.53,4.92,1.94,5.7,4s-1.56,4.69-1.64,6.79,2.07,4.93,1.18,6.88-4.36,2.16-6,3.65-1.94,4.91-4,5.7-4.69-1.57-6.79-1.64-4.93,2.06-6.88,1.18-2.15-4.37-3.64-6-4.92-1.94-5.7-4,1.56-4.68,1.63-6.79"/><rect class="cls-3" x="1166.54" y="9178.84" width="6.73" height="10.95" transform="translate(-2441.79 659.3) rotate(-15.7)"/><rect class="cls-3" x="1147.91" y="9184.26" width="6.73" height="10.95" transform="translate(-2595.15 719.73) rotate(-16.72)"/><rect class="cls-3" x="1128.71" y="9190.22" width="6.73" height="10.95" transform="translate(-2753.55 784.73) rotate(-17.78)"/><rect class="cls-3" x="1109" y="9196.75" width="6.73" height="10.95" transform="translate(-2916.44 854.35) rotate(-18.87)"/><rect class="cls-3" x="1088.79" y="9203.88" width="6.73" height="10.95" transform="translate(-3083.75 928.84) rotate(-20)"/><rect class="cls-3" x="1068.28" y="9211.57" width="6.73" height="10.95" transform="translate(-3253.49 1007.57) rotate(-21.15)"/><rect class="cls-3" x="1048.39" y="9219.49" width="6.73" height="10.95" transform="translate(-3418.36 1087.14) rotate(-22.28)"/><rect class="cls-3" x="1029.26" y="9227.54" width="6.73" height="10.95" transform="translate(-3577.53 1166.95) rotate(-23.37)"/><rect class="cls-3" x="1010.9" y="9235.67" width="6.73" height="10.95" transform="translate(-3729.7 1246.01) rotate(-24.42)"/><rect class="cls-3" x="993.32" y="9243.85" width="6.73" height="10.95" transform="translate(-3876.77 1325.13) rotate(-25.44)"/></g></g><path class="cls-5" d="M1517.33,9725.8c70.2-414.9-193.49-503.71-311.9-486.62-2.48.35-5,.76-7.43,1.16,3.62-5.57,5.11-10,3.5-11.53s-6.41.21-12.26,4.38c9.13-22.62,12.33-42,7.09-44.27-4.93-2.11-15.67,11.65-25.3,31.77,4-17,3.83-30.87-.58-32.08-4.87-1.33-13.12,13.3-18.43,32.68-.91,3.34-1.67,6.6-2.29,9.72-1.27-9.49-3.79-16.05-6.61-16-2.56,0-4.71,5.5-5.83,13.63a59.36,59.36,0,0,0-10.4-.68c-.3,0-.61,0-.91,0-3.19-15.75-8.44-27.09-12.73-26.48s-6.21,13.07-4.87,29.21a100.6,100.6,0,0,0-17.68,6.71,134.11,134.11,0,0,0-.51-14.94c-1.77-20-7.28-35.88-12.31-35.43s-7.68,17-5.91,37c.31,3.45.73,6.77,1.23,9.91-4.49-8.45-9.13-13.72-11.76-12.7-3.64,1.4-2,14.26,3.57,28.72.35.9.7,1.78,1.07,2.65-.83-1.19-1.67-2.39-2.55-3.59-10-13.62-20.78-23.31-26.36-24.26-1.78-1.29-3.29-1.79-4.35-1.26-3.71,1.87-.69,15.35,6.76,30.11,1.28,2.55,2.61,4.95,4,7.2-6-5.1-11.16-7.71-12.85-6.13-2.35,2.18,2.78,11.52,11.46,20.86.27.3.55.57.82.86-1.34,1.65-2.66,3.32-4,5l-.21.28c-1.86-1.79-3.86-3.6-6-5.4-12.69-10.6-25.13-16.61-27.79-13.42s5.45,14.37,18.14,25c2.56,2.14,5.11,4.08,7.57,5.81-1.2,2-2.36,3.92-3.45,5.89-3.19-4.64-10.65-11-20.15-16.91-14.07-8.68-27.25-12.84-29.43-9.31s7.46,13.44,21.53,22.12c2.42,1.49,4.82,2.84,7.14,4-7.79-1.19-13.55-.72-14.17,1.51-.85,3.09,8.37,8.34,20.62,11.75l-.83.55h-.44c-16.53-.09-29.94,3.2-30,7.35,0,2.42,4.52,4.59,11.54,6C957.76,9353.06,642.53,9489.1,406.73,9526Z"/></g></svg>