<svg xmlns="http://www.w3.org/2000/svg" xmlns:xlink="http://www.w3.org/1999/xlink" viewBox="0 0 1366 9679"><defs><style>.cls-1{opacity:0.5;fill:url(#linear-gradient);}</style><linearGradient id="linear-gradient" x1="-2.12" y1="1728.15" x2="1366" y2="1728.15" gradientUnits="userSpaceOnUse"><stop offset="0" stop-color="#50c6df"/><stop offset="0.01" stop-color="#50c4de"/><stop offset="0.25" stop-color="#4490c3"/><stop offset="0.48" stop-color="#3a67ae"/><stop offset="0.69" stop-color="#34499f"/><stop offset="0.87" stop-color="#2f3795"/><stop offset="1" stop-color="#2e3192"/></linearGradient></defs><title>Back landscape 02</title><g id="background_details" data-name="background details"><path class="cls-1" d="M1366,1650.84c-99.23-11.74-267.54,10.07-316.67-4.54-54.21-16.12-149.08-83.28-203.4-99-22-6.36-53.13-9.08-86.77-10.92,8.48-8.58,13.05-16.27,10.77-19.1-3.07-3.82-17.37,2.58-31.93,14.29-1.47,1.17-2.88,2.36-4.23,3.55-10.06-.46-20.2-.91-30.25-1.41a98.52,98.52,0,0,0,13.36-20.08c8.6-16.59,12-31.87,7.7-34.12s-14.85,9.36-23.45,26c-5.64,10.87-9.06,21.17-9.53,27.62-7.29-.4-14.5-.85-21.56-1.37a101.81,101.81,0,0,0,6.56-22.16c3.45-18.36,2.34-34-2.48-34.89s-11.51,13.26-15,31.62c-1.76,9.38-2.33,18-1.82,24.39-10.94-1-21.38-2.19-31.08-3.72a111,111,0,0,0-4.2-18.52c-5.58-17.83-13.89-31.11-18.57-29.64s-3.94,17.1,1.64,34.94c1.08,3.47,2.28,6.77,3.52,9.83a152.31,152.31,0,0,1-14.72-4.16c-57.22-19.67-148.55-108.22-206.1-126.9-90.63-29.42-374.69,63-389.95-22.2L0,2086s545-25.79,669.53-59c64.17-17.12,198.87-119.74,263.7-105.3,173.7,38.7,357,5.24,366.5,0,18.68-10.32,43-33.37,66.27-61.77Z"/></g></svg>