<svg xmlns="http://www.w3.org/2000/svg" viewBox="0 0 1366 9679"><defs><style>.cls-1{font-size:21.6px;fill:#2e3192;font-family:TitlingGothicFBNormal-Light, TitlingGothicFB Normal;font-weight:300;}.cls-2{letter-spacing:-0.03em;}.cls-3{letter-spacing:-0.02em;}.cls-4{letter-spacing:-0.02em;}.cls-5{letter-spacing:-0.02em;}.cls-6{letter-spacing:-0.03em;}.cls-7{letter-spacing:-0.01em;}.cls-8{letter-spacing:0.01em;}.cls-9{letter-spacing:-0.01em;}.cls-10{letter-spacing:0em;}.cls-11{letter-spacing:-0.01em;}.cls-12{letter-spacing:-0.02em;}.cls-13{letter-spacing:0.03em;}.cls-14{letter-spacing:0.01em;}</style></defs><title>Body Text</title><g id="About_Page" data-name="About Page"><text class="cls-1" transform="translate(350.03 1294.66)"><tspan class="cls-2">L</tspan><tspan x="12.44" y="0">o</tspan><tspan class="cls-3" x="26.22" y="0">r</tspan><tspan x="35.49" y="0">em ipsum dolor sit amet, consectetuer adipiscing elit, sed </tspan><tspan x="0" y="25.92">diam nonum</tspan><tspan class="cls-4" x="131.2" y="25.92">m</tspan><tspan x="150.66" y="25.92">y nibh euismod tincidunt ut lao</tspan><tspan class="cls-5" x="475.39" y="25.92">r</tspan><tspan x="484.65" y="25.92">eet dolo</tspan><tspan class="cls-5" x="570.81" y="25.92">r</tspan><tspan x="580.08" y="25.92">e </tspan><tspan x="0" y="51.84">magna aliquam e</tspan><tspan class="cls-6" x="179.84" y="51.84">r</tspan><tspan x="188.96" y="51.84">at </tspan><tspan class="cls-7" x="215.98" y="51.84">v</tspan><tspan x="228.4" y="51.84">olutpa</tspan><tspan class="cls-8" x="295.2" y="51.84">t</tspan><tspan x="303.37" y="51.84">. Ut wisi enim ad minim </tspan><tspan class="cls-9" x="553.13" y="51.84">v</tspan><tspan x="565.55" y="51.84">eniam, </tspan><tspan x="0" y="77.76">quis no</tspan><tspan class="cls-10" x="77.67" y="77.76">s</tspan><tspan x="90.46" y="77.76">t</tspan><tspan class="cls-11" x="98.45" y="77.76">r</tspan><tspan x="108.04" y="77.76">ud </tspan><tspan class="cls-9" x="141" y="77.76">e</tspan><tspan class="cls-12" x="153.77" y="77.76">x</tspan><tspan x="165.43" y="77.76">e</tspan><tspan class="cls-5" x="178.5" y="77.76">r</tspan><tspan x="187.77" y="77.76">ci tation ullamcorper suscipit lobo</tspan><tspan class="cls-13" x="550.17" y="77.76">r</tspan><tspan x="560.6" y="77.76">tis nisl ut </tspan><tspan x="0" y="103.68">aliquip </tspan><tspan class="cls-9" x="74.54" y="103.68">e</tspan><tspan x="87.31" y="103.68">x ea commodo consequa</tspan><tspan class="cls-14" x="357.99" y="103.68">t</tspan><tspan x="366.16" y="103.68">. Duis autem </tspan><tspan class="cls-9" x="504.61" y="103.68">v</tspan><tspan x="517.03" y="103.68">el eum iriu</tspan><tspan class="cls-5" x="625.66" y="103.68">r</tspan><tspan x="634.92" y="103.68">e </tspan><tspan x="0" y="129.6">dolor in hend</tspan><tspan class="cls-5" x="139.19" y="129.6">r</tspan><tspan x="148.45" y="129.6">erit in vulputate </tspan><tspan class="cls-7" x="319.98" y="129.6">v</tspan><tspan x="332.4" y="129.6">elit esse mole</tspan><tspan class="cls-10" x="478.18" y="129.6">s</tspan><tspan x="490.96" y="129.6">tie consequat, </tspan></text></g></svg>