<?xml version="1.0" encoding="utf-8"?>
<!-- Generator: Adobe Illustrator 21.0.2, SVG Export Plug-In . SVG Version: 6.00 Build 0)  -->
<svg version="1.1" id="Layer_1" xmlns="http://www.w3.org/2000/svg" xmlns:xlink="http://www.w3.org/1999/xlink" x="0px" y="0px"
	 viewBox="0 0 792 612" style="enable-background:new 0 0 792 612;" xml:space="preserve">
<g>
	<g>
		<g>
			<g>
				<polygon points="188,330.8 188.1,330.8 141.5,311 141.5,320.1 				"/>
				<polygon points="141.5,283.9 141.5,294.8 188.2,330.8 188.2,330.8 188.2,330.8 				"/>
				<polygon points="188.1,330.8 188.2,330.8 141.5,297.9 141.5,308.4 				"/>
				<polygon points="188.2,330.7 188.2,330.5 175.9,272.7 166.3,272.7 				"/>
				<polygon points="188.2,330.8 188.2,330.8 148.8,272.7 141.5,272.7 141.5,279.9 				"/>
				<polygon points="187.9,330.8 141.5,322.4 141.5,330.8 				"/>
				<polygon points="188.2,272.7 178.7,272.7 188.2,330.5 				"/>
				<polygon points="188.2,330.8 188.2,330.7 163.2,272.7 152.5,272.7 				"/>
			</g>
			<g>
				<g>
					<path d="M212.1,314.9h-9.3l-2.2,16.1h-5.3l8.5-58.1h7.3l8.5,58.1h-5.3L212.1,314.9z M207.5,276.9h-0.2l-4,33.5h8.2L207.5,276.9
						z"/>
					<path d="M222.3,287.1h4.7v3h0.2c1.5-2.3,3.1-3.5,5.8-3.5c1.9,0,3.6,1,4.7,2.7c1.4-1.7,3-2.7,5.2-2.7c4.1,0,6,3.1,6,6.6V331h-5
						V295c0-2.4-0.6-3.8-2.5-3.8c-2,0-3.2,1.9-3.2,4V331h-5V295c0-2.4-0.6-3.8-2.5-3.8c-2,0-3.2,1.9-3.2,4V331h-5V287.1z"/>
					<path d="M264.7,316.9h5v6.2c0,6.7-4,8.5-8.3,8.5c-4.3,0-8.3-1.8-8.3-8.5v-27.9c0-6.7,4-8.5,8.3-8.5c4.3,0,8.3,1.8,8.3,8.5v15.2
						h-11.6v12.7c0,3.2,1.3,4.4,3.3,4.4c2,0,3.3-1.2,3.3-4.4V316.9z M264.7,295.1c0-3.2-1.3-4.4-3.3-4.4c-2,0-3.3,1.2-3.3,4.4v10.7
						h6.6V295.1z"/>
					<path d="M273.9,287.1h4.7v3.1h0.2c1.5-2.3,3.5-3.5,6.7-3.5v5c-4.8,0-6.5,1.9-6.5,6.4V331h-5V287.1z"/>
					<path d="M287.8,287.1h5V331h-5V287.1z M287.7,272.9h5.3v6.1h-5.3V272.9z"/>
					<path d="M307.6,294.3c0-2.7-0.7-3.6-2.3-3.6c-1.7,0-2.7,1.1-2.7,3.6v29.9c0,2.3,0.6,3.3,2.5,3.3c1.9,0,2.6-1.3,2.6-3.3v-7.1h5
						v7c0,4.8-2.7,7.4-7.5,7.4c-4,0-7.6-2-7.6-6.6v-29.8c0-6.7,4-8.5,8.3-8.5c4.4,0,6.8,2.3,6.8,7.1v7.3h-5V294.3z"/>
					<path d="M328.4,294.4c0-2.7-0.9-3.7-2.9-3.7c-2.8,0-3.2,1.7-3.2,4.3v4.1h-5v-5.2c0-4.5,3.8-7.2,8.4-7.2c4.8,0,7.7,2,7.7,7.6
						V331h-4.7v-2.3h-0.2c-1.4,1.7-2.8,2.8-5.8,2.8c-3.9,0-6-2.8-6-7.2v-11.9c0-5.5,3.7-8.5,11.6-8.5V294.4z M328.4,307.9
						c-2.6,0-6.6,1-6.6,4.8v10c0,3.1,0.5,4.8,3.1,4.8c2.2,0,3.5-1.6,3.5-4.5V307.9z"/>
					<path d="M337.6,287.1h4.7v3h0.2c1.1-1.9,3.2-3.5,5.8-3.5c4.1,0,6,3.1,6,6.6V331h-5v-35.8c0-2.3-0.9-4-3.1-4
						c-2.3,0-3.5,2.3-3.5,4V331h-5V287.1z"/>
				</g>
				<g>
					<path d="M376.9,280.9c0-2.3-0.6-3.9-3.1-3.9s-3.1,1.7-3.1,3.9v6.1c0,1.9,0.3,3.7,1.2,5.2l8.5,14.5c1.2,2,1.9,4.5,1.9,7.1v9.2
						c0,5.5-3.2,8.5-8.5,8.5c-5.9,0-8.7-2.7-8.7-8.5v-8h5.3v7.7c0,2.7,1,4.3,3.4,4.3c2.2,0,3.2-1.6,3.2-4.3v-8.1
						c0-2-0.4-3.5-1.5-5.6l-7.8-13.6c-1.5-2.5-2.3-4.4-2.3-7.4v-7c0-5.7,3-8.5,8.4-8.5c6,0,8.4,2.8,8.4,8.1v7.4h-5.3V280.9z"/>
					<path d="M386.3,287.1h4.7v2.7h0.2c0.8-2,2.5-3.2,5.3-3.2c3.2,0,6.4,1.9,6.4,8.5v29.5c0,3.9-2.3,6.8-5.7,6.8
						c-2.6,0-4.7-1.2-5.7-3.2h-0.2v11.4h-5V287.1z M397.9,295.4c0-3.1-0.9-4.7-2.9-4.7c-2,0-3.7,1.3-3.7,4.8v26.7
						c0,2.7,1.4,4.8,3.6,4.8c2,0,3-1.9,3-5.1V295.4z"/>
					<path d="M418.6,316.9h5v6.2c0,6.7-4,8.5-8.3,8.5c-4.3,0-8.3-1.8-8.3-8.5v-27.9c0-6.7,4-8.5,8.3-8.5c4.3,0,8.3,1.8,8.3,8.5v15.2
						H412v12.7c0,3.2,1.3,4.4,3.3,4.4c2,0,3.3-1.2,3.3-4.4V316.9z M418.6,295.1c0-3.2-1.3-4.4-3.3-4.4c-2,0-3.3,1.2-3.3,4.4v10.7
						h6.6V295.1z"/>
					<path d="M437.9,294.3c0-2.7-0.7-3.6-2.3-3.6c-1.7,0-2.7,1.1-2.7,3.6v29.9c0,2.3,0.6,3.3,2.5,3.3c1.9,0,2.6-1.3,2.6-3.3v-7.1h5
						v7c0,4.8-2.7,7.4-7.5,7.4c-4,0-7.6-2-7.6-6.6v-29.8c0-6.7,4-8.5,8.3-8.5c4.3,0,6.8,2.3,6.8,7.1v7.3h-5V294.3z"/>
					<path d="M447.6,287.1h5V331h-5V287.1z M447.4,272.9h5.3v6.1h-5.3V272.9z"/>
					<path d="M468.9,294.4c0-2.7-0.9-3.7-2.9-3.7c-2.8,0-3.2,1.7-3.2,4.3v4.1h-5v-5.2c0-4.5,3.8-7.2,8.4-7.2c4.8,0,7.7,2,7.7,7.6
						V331h-4.7v-2.3h-0.2c-1.4,1.7-2.8,2.8-5.8,2.8c-3.9,0-6-2.8-6-7.2v-11.9c0-5.5,3.7-8.5,11.6-8.5V294.4z M468.9,307.9
						c-2.6,0-6.6,1-6.6,4.8v10c0,3.1,0.5,4.8,3.1,4.8c2.2,0,3.5-1.6,3.5-4.5V307.9z"/>
					<path d="M478.7,272.9h5V331h-5V272.9z"/>
					<path d="M489.2,281.3l5-1.9v7.8h3.5v4h-3.5v33.3c0,2,1,2.5,2.5,2.5h1v4h-2.4c-4.2,0-6.1-2-6.1-5.4v-34.5h-2.5v-4h2.5V281.3z"/>
					<path d="M508.4,339.7h-5l1.8-8.7l-6.4-43.9h5l3.5,29.5h0.2l4.3-29.5h5L508.4,339.7z"/>
				</g>
				<g>
					<path d="M539.8,272.9h5.3V331h-5.3v-27.9h-8V331h-5.3v-58.1h5.3v25.7h8V272.9z"/>
					<path d="M562.1,316.9h5v6.2c0,6.7-4,8.5-8.3,8.5c-4.3,0-8.3-1.8-8.3-8.5v-27.9c0-6.7,4-8.5,8.3-8.5c4.3,0,8.3,1.8,8.3,8.5v15.2
						h-11.6v12.7c0,3.2,1.3,4.4,3.3,4.4c2,0,3.3-1.2,3.3-4.4V316.9z M562.1,295.1c0-3.2-1.3-4.4-3.3-4.4c-2,0-3.3,1.2-3.3,4.4v10.7
						h6.6V295.1z"/>
					<path d="M582.8,294.4c0-2.7-0.9-3.7-2.9-3.7c-2.8,0-3.2,1.7-3.2,4.3v4.1h-5v-5.2c0-4.5,3.8-7.2,8.4-7.2c4.8,0,7.7,2,7.7,7.6
						V331h-4.7v-2.3H583c-1.4,1.7-2.8,2.8-5.8,2.8c-3.9,0-6-2.8-6-7.2v-11.9c0-5.5,3.7-8.5,11.6-8.5V294.4z M582.8,307.9
						c-2.6,0-6.6,1-6.6,4.8v10c0,3.1,0.5,4.8,3.1,4.8c2.2,0,3.5-1.6,3.5-4.5V307.9z"/>
					<path d="M592.6,272.9h5V331h-5V272.9z"/>
					<path d="M603.1,281.3l5-1.9v7.8h3.5v4h-3.5v33.3c0,2,1,2.5,2.5,2.5h1v4h-2.4c-4.2,0-6.1-2-6.1-5.4v-34.5h-2.5v-4h2.5V281.3z"/>
					<path d="M614.1,272.9h5v17.2h0.2c1-1.9,3.1-3.5,5.6-3.5c3.9,0,5.8,3.1,5.8,6.6V331h-5v-35.8c0-2.3-0.9-4-3.1-4
						c-2.3,0-3.5,2.3-3.5,4V331h-5V272.9z"/>
				</g>
			</g>
		</g>
		<g>
			<path d="M640.3,320.5c2.9,0,5.2,2.4,5.2,5.3c0,3-2.3,5.3-5.2,5.3c-2.9,0-5.2-2.3-5.2-5.3C635,322.9,637.4,320.5,640.3,320.5
				L640.3,320.5z M640.3,321.4c-2.3,0-4.2,2-4.2,4.5c0,2.5,1.9,4.5,4.3,4.5c2.4,0,4.2-2,4.2-4.5
				C644.5,323.4,642.7,321.4,640.3,321.4L640.3,321.4z M639.3,328.9h-0.9V323c0.5-0.1,1-0.1,1.7-0.1c0.9,0,1.5,0.2,1.8,0.4
				c0.4,0.3,0.5,0.7,0.5,1.2c0,0.8-0.5,1.2-1.2,1.4v0c0.5,0.1,0.9,0.6,1,1.4c0.1,0.9,0.3,1.3,0.4,1.5h-1c-0.1-0.2-0.3-0.7-0.4-1.5
				c-0.1-0.8-0.5-1-1.3-1h-0.7V328.9z M639.3,325.6h0.7c0.8,0,1.4-0.3,1.4-1c0-0.5-0.4-1-1.4-1c-0.3,0-0.5,0-0.7,0V325.6z"/>
		</g>
	</g>
</g>
</svg>
