<?xml version="1.0" encoding="UTF-8" standalone="no"?>
<!-- Created with Inkscape (http://www.inkscape.org/) -->

<svg
   xmlns:dc="http://purl.org/dc/elements/1.1/"
   xmlns:cc="http://creativecommons.org/ns#"
   xmlns:rdf="http://www.w3.org/1999/02/22-rdf-syntax-ns#"
   xmlns:svg="http://www.w3.org/2000/svg"
   xmlns="http://www.w3.org/2000/svg"
   xmlns:xlink="http://www.w3.org/1999/xlink"
   xmlns:sodipodi="http://sodipodi.sourceforge.net/DTD/sodipodi-0.dtd"
   xmlns:inkscape="http://www.inkscape.org/namespaces/inkscape"
   width="210mm"
   height="297mm"
   viewBox="0 0 210 297"
   version="1.1"
   id="svg6107"
   inkscape:version="0.92.4 (5da689c313, 2019-01-14)"
   sodipodi:docname="background.svg">
  <defs
     id="defs6101">
    <clipPath
       id="clip-path-2">
      <rect
         class="cls-1"
         x="-2.9200001"
         y="6228.3999"
         width="1373.64"
         height="2152.8"
         id="rect7" />
    </clipPath>
    <linearGradient
       inkscape:collect="always"
       xlink:href="#linear-gradient"
       id="linearGradient5965"
       gradientUnits="userSpaceOnUse"
       x1="683.89001"
       y1="6384.1001"
       x2="683.89001"
       y2="8366.7998" />
    <linearGradient
       id="linear-gradient"
       x1="683.89001"
       y1="6384.1001"
       x2="683.89001"
       y2="8366.7998"
       gradientUnits="userSpaceOnUse">
      <stop
         offset="0"
         stop-color="#fef8c0"
         stop-opacity="0"
         id="stop10" />
      <stop
         offset="0.02"
         stop-color="#fef8c0"
         stop-opacity="0.05"
         id="stop12" />
      <stop
         offset="0.09"
         stop-color="#fef8c0"
         stop-opacity="0.27"
         id="stop14" />
      <stop
         offset="0.17"
         stop-color="#fef8c0"
         stop-opacity="0.47"
         id="stop16" />
      <stop
         offset="0.25"
         stop-color="#fef8c0"
         stop-opacity="0.63"
         id="stop18" />
      <stop
         offset="0.33"
         stop-color="#fef8c0"
         stop-opacity="0.76"
         id="stop20" />
      <stop
         offset="0.41"
         stop-color="#fef8c0"
         stop-opacity="0.87"
         id="stop22" />
      <stop
         offset="0.49"
         stop-color="#fef8c0"
         stop-opacity="0.94"
         id="stop24" />
      <stop
         offset="0.57"
         stop-color="#fef8c0"
         stop-opacity="0.99"
         id="stop26" />
      <stop
         offset="0.67"
         stop-color="#fef8c0"
         id="stop28" />
    </linearGradient>
    <linearGradient
       inkscape:collect="always"
       xlink:href="#linear-gradient-2"
       id="linearGradient5967"
       gradientUnits="userSpaceOnUse"
       x1="683.89001"
       y1="6384.1001"
       x2="683.89001"
       y2="8584.5996" />
    <linearGradient
       id="linear-gradient-2"
       x1="683.89001"
       y1="6384.1001"
       x2="683.89001"
       y2="8584.5996"
       gradientUnits="userSpaceOnUse">
      <stop
         offset="0"
         stop-color="#fef8c0"
         stop-opacity="0"
         id="stop31" />
      <stop
         offset="0"
         stop-color="#fef8c0"
         stop-opacity="0"
         id="stop33" />
      <stop
         offset="0.08"
         stop-color="#fef8c0"
         stop-opacity="0.23"
         id="stop35" />
      <stop
         offset="0.16"
         stop-color="#fef8c0"
         stop-opacity="0.44"
         id="stop37" />
      <stop
         offset="0.25"
         stop-color="#fef8c0"
         stop-opacity="0.61"
         id="stop39" />
      <stop
         offset="0.33"
         stop-color="#fef8c0"
         stop-opacity="0.75"
         id="stop41" />
      <stop
         offset="0.41"
         stop-color="#fef8c0"
         stop-opacity="0.86"
         id="stop43" />
      <stop
         offset="0.5"
         stop-color="#fef8c0"
         stop-opacity="0.94"
         id="stop45" />
      <stop
         offset="0.58"
         stop-color="#fef8c0"
         stop-opacity="0.98"
         id="stop47" />
      <stop
         offset="0.67"
         stop-color="#fef8c0"
         id="stop49" />
      <stop
         offset="1"
         stop-color="#f78d36"
         id="stop51" />
    </linearGradient>
    <linearGradient
       inkscape:collect="always"
       xlink:href="#linear-gradient-5"
       id="linearGradient5969"
       gradientTransform="matrix(-1,0,0,1,904.96,0)"
       x1="-454.82999"
       y1="7878.0498"
       x2="-454.17999"
       y2="7878.0498" />
    <linearGradient
       id="linear-gradient-5"
       x1="-2.1199999"
       y1="1727.9"
       x2="1442.79"
       y2="1727.9"
       gradientUnits="userSpaceOnUse">
      <stop
         offset="0"
         stop-color="#50c6df"
         id="stop80" />
      <stop
         offset="0.01"
         stop-color="#50c4de"
         id="stop82" />
      <stop
         offset="0.25"
         stop-color="#4490c3"
         id="stop84" />
      <stop
         offset="0.48"
         stop-color="#3a67ae"
         id="stop86" />
      <stop
         offset="0.69"
         stop-color="#34499f"
         id="stop88" />
      <stop
         offset="0.87"
         stop-color="#2f3795"
         id="stop90" />
      <stop
         offset="1"
         stop-color="#2e3192"
         id="stop92" />
    </linearGradient>
    <linearGradient
       id="linear-gradient-9"
       x1="-474.17999"
       y1="8246"
       x2="979.72998"
       y2="8246"
       gradientTransform="matrix(-1,0,0,1,904.96,0)"
       xlink:href="#linear-gradient-5" />
    <linearGradient
       inkscape:collect="always"
       xlink:href="#linear-gradient-14"
       id="linearGradient5971"
       gradientUnits="userSpaceOnUse"
       x1="964.72998"
       y1="8117.5498"
       x2="1126.86"
       y2="7955.4199" />
    <linearGradient
       id="linear-gradient-14"
       x1="964.72998"
       y1="8117.5498"
       x2="1126.86"
       y2="7955.4199"
       gradientUnits="userSpaceOnUse">
      <stop
         offset="0"
         stop-color="#ffe381"
         id="stop193" />
      <stop
         offset="0.05"
         stop-color="#ffe587"
         id="stop195" />
      <stop
         offset="0.26"
         stop-color="#ffeda0"
         id="stop197" />
      <stop
         offset="0.49"
         stop-color="#fef3b2"
         id="stop199" />
      <stop
         offset="0.72"
         stop-color="#fef7bd"
         id="stop201" />
      <stop
         offset="1"
         stop-color="#fef8c0"
         id="stop203" />
    </linearGradient>
    <linearGradient
       inkscape:collect="always"
       xlink:href="#linear-gradient-5"
       id="linearGradient5973"
       x1="271.70001"
       y1="7967.6099"
       x2="516.78003"
       y2="7967.6099" />
    <linearGradient
       inkscape:collect="always"
       xlink:href="#linear-gradient-5"
       id="linearGradient5975"
       x1="317.54001"
       y1="8044.3198"
       x2="470.94"
       y2="7890.9102" />
    <clipPath
       id="clip-path-3">
      <path
         inkscape:connector-curvature="0"
         class="cls-1"
         d="m 537.27,8378.71 c -65.62,0 -120.32,-2.44 -163.5,-7.31 -61.26,-6.9 -95.88,-18.13 -105.83,-34.31 a 19.39,19.39 0 0 1 -0.42,-20.37 c 10.08,-18 48,-27.77 78.46,-27.77 25.59,0 43.36,-11.58 52.82,-34.43 7.64,-18.42 -0.41,-44.06 -4.8,-70.34 -3.86,-23 -2.23,-73.41 -11.19,-82.37 l 26.62,18.39 c 0,18.9 -2.25,33.7 2.32,61 2.9,17.35 15.85,50.83 3.68,80.2 -12.34,29.8 -36.35,45.6 -69.43,45.6 -32.45,0 -58.42,10.81 -62.75,18.56 a 1.64,1.64 0 0 0 0,2.16 c 2.39,3.89 28,33 254.13,33 41.92,0 90.67,-1 147.5,-3.34 115,-4.75 205.05,-19.59 267.57,-44.09 49,-19.2 80.92,-44.18 94.9,-74.25 25,-53.84 -15.15,-98.12 -19.65,-118.82 l 16.2,-6.3 c 4.5,13.5 13.52,21.7 21.72,44.78 11,31 10.37,61.44 -2,87.93 -16,34.41 -51.21,62.47 -104.65,83.42 -64.39,25.23 -156.37,40.48 -273.4,45.31 q -81.44,3.36 -148.3,3.35 z"
         id="path208" />
    </clipPath>
    <radialGradient
       inkscape:collect="always"
       xlink:href="#radial-gradient"
       id="radialGradient5977"
       gradientUnits="userSpaceOnUse"
       cx="669.15002"
       cy="8240.2598"
       r="302.19" />
    <radialGradient
       id="radial-gradient"
       cx="669.15002"
       cy="8240.2598"
       r="302.19"
       gradientUnits="userSpaceOnUse">
      <stop
         offset="0"
         stop-color="#50c6df"
         stop-opacity="0.5"
         id="stop211" />
      <stop
         offset="0.37"
         stop-color="#3f79b7"
         stop-opacity="0.76"
         id="stop213" />
      <stop
         offset="0.74"
         stop-color="#32449c"
         stop-opacity="0.94"
         id="stop215" />
      <stop
         offset="1"
         stop-color="#2e3192"
         id="stop217" />
    </radialGradient>
    <clipPath
       id="clipPath6222">
      <rect
         class="cls-1"
         x="-2.9200001"
         y="6228.3999"
         width="1373.64"
         height="2152.8"
         id="rect6220" />
    </clipPath>
    <clipPath
       id="clipPath6340">
      <path
         inkscape:connector-curvature="0"
         class="cls-1"
         d="m 537.27,8378.71 c -65.62,0 -120.32,-2.44 -163.5,-7.31 -61.26,-6.9 -95.88,-18.13 -105.83,-34.31 a 19.39,19.39 0 0 1 -0.42,-20.37 c 10.08,-18 48,-27.77 78.46,-27.77 25.59,0 43.36,-11.58 52.82,-34.43 7.64,-18.42 -0.41,-44.06 -4.8,-70.34 -3.86,-23 -2.23,-73.41 -11.19,-82.37 l 26.62,18.39 c 0,18.9 -2.25,33.7 2.32,61 2.9,17.35 15.85,50.83 3.68,80.2 -12.34,29.8 -36.35,45.6 -69.43,45.6 -32.45,0 -58.42,10.81 -62.75,18.56 a 1.64,1.64 0 0 0 0,2.16 c 2.39,3.89 28,33 254.13,33 41.92,0 90.67,-1 147.5,-3.34 115,-4.75 205.05,-19.59 267.57,-44.09 49,-19.2 80.92,-44.18 94.9,-74.25 25,-53.84 -15.15,-98.12 -19.65,-118.82 l 16.2,-6.3 c 4.5,13.5 13.52,21.7 21.72,44.78 11,31 10.37,61.44 -2,87.93 -16,34.41 -51.21,62.47 -104.65,83.42 -64.39,25.23 -156.37,40.48 -273.4,45.31 q -81.44,3.36 -148.3,3.35 z"
         id="path6338" />
    </clipPath>
    <radialGradient
       inkscape:collect="always"
       xlink:href="#radial-gradient"
       id="radialGradient5985"
       gradientUnits="userSpaceOnUse"
       cx="669.15002"
       cy="8240.2598"
       r="302.19" />
    <radialGradient
       id="radialGradient6351"
       cx="669.15002"
       cy="8240.2598"
       r="302.19"
       gradientUnits="userSpaceOnUse">
      <stop
         offset="0"
         stop-color="#50c6df"
         stop-opacity="0.5"
         id="stop6343" />
      <stop
         offset="0.37"
         stop-color="#3f79b7"
         stop-opacity="0.76"
         id="stop6345" />
      <stop
         offset="0.74"
         stop-color="#32449c"
         stop-opacity="0.94"
         id="stop6347" />
      <stop
         offset="1"
         stop-color="#2e3192"
         id="stop6349" />
    </radialGradient>
    <linearGradient
       inkscape:collect="always"
       xlink:href="#linear-gradient"
       id="linearGradient6910"
       gradientUnits="userSpaceOnUse"
       x1="683.89001"
       y1="6384.1001"
       x2="683.89001"
       y2="8366.7998" />
    <linearGradient
       inkscape:collect="always"
       xlink:href="#linear-gradient-2"
       id="linearGradient6912"
       gradientUnits="userSpaceOnUse"
       x1="683.89001"
       y1="6384.1001"
       x2="683.89001"
       y2="8584.5996" />
    <linearGradient
       inkscape:collect="always"
       xlink:href="#linear-gradient-5"
       id="linearGradient6914"
       gradientTransform="matrix(-1,0,0,1,904.96,0)"
       x1="-454.82999"
       y1="7878.0498"
       x2="-454.17999"
       y2="7878.0498" />
    <linearGradient
       inkscape:collect="always"
       xlink:href="#linear-gradient-14"
       id="linearGradient6916"
       gradientUnits="userSpaceOnUse"
       x1="964.72998"
       y1="8117.5498"
       x2="1126.86"
       y2="7955.4199" />
    <linearGradient
       inkscape:collect="always"
       xlink:href="#linear-gradient-5"
       id="linearGradient6918"
       x1="271.70001"
       y1="7967.6099"
       x2="516.78003"
       y2="7967.6099" />
    <linearGradient
       inkscape:collect="always"
       xlink:href="#linear-gradient-5"
       id="linearGradient6920"
       x1="317.54001"
       y1="8044.3198"
       x2="470.94"
       y2="7890.9102" />
  </defs>
  <sodipodi:namedview
     id="base"
     pagecolor="#ffffff"
     bordercolor="#666666"
     borderopacity="1.0"
     inkscape:pageopacity="0.0"
     inkscape:pageshadow="2"
     inkscape:zoom="0.35"
     inkscape:cx="400"
     inkscape:cy="-11.428574"
     inkscape:document-units="mm"
     inkscape:current-layer="layer1"
     showgrid="false"
     inkscape:window-width="1920"
     inkscape:window-height="1017"
     inkscape:window-x="-8"
     inkscape:window-y="-8"
     inkscape:window-maximized="1" />
  <metadata
     id="metadata6104">
    <rdf:RDF>
      <cc:Work
         rdf:about="">
        <dc:format>image/svg+xml</dc:format>
        <dc:type
           rdf:resource="http://purl.org/dc/dcmitype/StillImage" />
        <dc:title />
      </cc:Work>
    </rdf:RDF>
  </metadata>
  <g
     inkscape:label="Layer 1"
     inkscape:groupmode="layer"
     id="layer1">
    <g
       id="g6099"
       transform="matrix(0.16451984,0,0,0.13336836,-454.23103,-828.32228)">
      <path
         style="opacity:0.5;fill:#50c6df"
         inkscape:connector-curvature="0"
         id="path243"
         d="m 4097.0744,7804.4177 c 0,97.93 -269.67,-0.54 -362.82,29.7 -57.55,18.68 -165.08,104.53 -222.3,124.2 -59.94,20.6 -67.81,28.28 -128.7,45.9 -54.32,15.72 -256.29,67.58 -310.5,83.7 -67.38,20 -325.91,15.56 -356,79.1 -27.86,58.85 158.61,145.01 215.61,176.5 82.12,45.38 283.42,-19 375.3,0 65,13.44 179.73,88.18 243.9,105.3 124.51,33.21 545.1,58.5 545.1,58.5"
         class="cls-2" />
      <path
         class="cls-2"
         d="m 4097.0744,7804.4177 c 0,97.93 -269.67,-0.54 -362.82,29.7 -57.55,18.68 -165.08,104.53 -222.3,124.2 -59.94,20.6 -67.81,28.28 -128.7,45.9 -54.32,15.72 -256.29,67.58 -310.5,83.7 -67.38,20 -325.91,15.56 -356,79.1 -27.86,58.85 158.61,145.01 215.61,176.5 82.12,45.38 283.42,-19 375.3,0 65,13.44 179.73,88.18 243.9,105.3 124.51,33.21 545.1,58.5 545.1,58.5"
         id="path5750"
         inkscape:connector-curvature="0"
         style="opacity:0.5;fill:#50c6df" />
      <g
         transform="translate(2718.7844,-181.25229)"
         id="g5963">
        <g
           class="cls-5"
           clip-path="url(#clip-path-2)"
           id="g241">
          <rect
             class="cls-6"
             x="-2.9200001"
             y="6384.1001"
             width="1373.64"
             height="1982.7"
             id="rect237"
             style="fill:url(#linearGradient6910)" />
          <rect
             class="cls-7"
             x="-2.9200001"
             y="6384.1001"
             width="1373.64"
             height="2200.5"
             id="rect239"
             style="fill:url(#linearGradient6912)" />
        </g>
        <path
           class="cls-15"
           d="m 1359.14,7881.8 0.65,-7.5 a 42.82,42.82 0 0 1 -0.65,7.5 z"
           id="path265"
           style="opacity:0.5;fill:url(#linearGradient6914)"
           inkscape:connector-curvature="0" />
        <path
           class="cls-16"
           d="M -70.31,8192.9 C -40.22,8129.36 199,8164 269,8158 c 244,-21 239,-97 328.86,-110.12 -8.48,-8.58 -13.05,-16.27 -10.77,-19.1 3.07,-3.82 17.37,2.58 31.93,14.29 1.47,1.17 2.88,2.36 4.23,3.55 10.06,-0.46 20.2,-0.91 30.25,-1.41 a 98.52,98.52 0 0 1 -13.36,-20.08 c -8.6,-16.59 -12,-31.87 -7.7,-34.12 4.3,-2.25 14.85,9.36 23.45,25.95 5.64,10.87 9.06,21.17 9.53,27.62 7.29,-0.4 14.5,-0.85 21.56,-1.37 a 101.81,101.81 0 0 1 -6.56,-22.16 c -3.45,-18.36 -2.34,-34 2.48,-34.89 4.82,-0.89 11.51,13.26 15,31.62 1.76,9.38 2.33,18 1.82,24.39 10.94,-1 21.38,-2.19 31.08,-3.72 a 111,111 0 0 1 4.2,-18.52 c 5.58,-17.83 13.89,-31.11 18.57,-29.64 4.68,1.47 3.94,17.1 -1.64,34.94 -1.08,3.47 -2.28,6.77 -3.52,9.83 a 152.31,152.31 0 0 0 14.72,-4.16 c 57.22,-19.67 148.55,-108.22 206.1,-126.9 90.63,-29.42 394.69,63 410,-22.2 l -3.55,728.4 c 0,0 -453.59,-26.29 -578.1,-59.5 C 572,8389 427,8414 344.59,8413.4 c -93.82,-0.68 -194.18,45.38 -276.3,0 -56.99,-31.49 -166.46,-161.65 -138.6,-220.5 z"
           id="path267"
           style="opacity:0.5;fill:url(#linear-gradient-9)"
           inkscape:connector-curvature="0" />
        <path
           class="cls-17"
           d="m 1389.49,7913.9 c 0,97.93 -297.45,-0.54 -390.6,29.7 -57.55,18.68 -165.08,104.53 -222.3,124.2 -59.94,20.6 -67.81,28.28 -128.7,45.9 -54.32,15.72 -442.89,83.3 -508.5,83.7 -70.3,0.43 -149.91,-28.44 -180,35.1 C -68.47,8291.35 41,8421.51 98,8453 c 82.12,45.38 382.42,-19 474.3,0 65,13.44 179.73,88.18 243.9,105.3 124.5,33.21 548.8,58.7 548.8,58.7"
           id="path269"
           inkscape:connector-curvature="0"
           style="opacity:0.75;fill:#2e3192" />
        <circle
           class="cls-25"
           cx="781.09998"
           cy="7562.04"
           r="23.629999"
           id="circle285"
           style="opacity:0.5;fill:#fef8c0" />
        <circle
           class="cls-25"
           cx="955.65002"
           cy="7339.8101"
           r="23.629999"
           id="circle287"
           style="opacity:0.5;fill:#fef8c0" />
        <circle
           class="cls-26"
           cx="694.38"
           cy="7532.96"
           r="24.370001"
           id="circle289"
           style="opacity:0.25;fill:#fef8c0" />
        <ellipse
           class="cls-24"
           cx="423.14542"
           cy="7600.3779"
           rx="58.709999"
           ry="58.34"
           transform="rotate(-6.08)"
           id="ellipse291"
           style="fill:#fef8c0" />
        <circle
           class="cls-25"
           cx="1191.8"
           cy="7405.04"
           r="32.130001"
           id="circle293"
           style="opacity:0.5;fill:#fef8c0" />
        <circle
           class="cls-24"
           cx="1114.0699"
           cy="7550.3501"
           r="47.27"
           id="circle295"
           style="fill:#fef8c0" />
        <circle
           class="cls-25"
           cx="983.95001"
           cy="7486.2202"
           r="66.470001"
           id="circle297"
           style="opacity:0.5;fill:#fef8c0" />
        <circle
           class="cls-25"
           cx="851.48999"
           cy="7633.6401"
           r="32.130001"
           id="circle299"
           style="opacity:0.5;fill:#fef8c0" />
        <circle
           class="cls-25"
           cx="1060.21"
           cy="7647.8101"
           r="44.68"
           id="circle301"
           style="opacity:0.5;fill:#fef8c0" />
        <path
           class="cls-25"
           d="m 1277.94,7778 c 2.68,25.14 -15.54,-11.7 -40.68,-9 -25.14,2.7 -47.7,43.86 -50.38,18.71 a 45.79,45.79 0 1 1 91.06,-9.69 z"
           id="path303"
           inkscape:connector-curvature="0"
           style="opacity:0.5;fill:#fef8c0" />
        <circle
           class="cls-24"
           cx="1197.99"
           cy="7658.3901"
           r="24.74"
           id="circle305"
           style="fill:#fef8c0" />
        <circle
           class="cls-27"
           cx="917.66998"
           cy="7498.48"
           r="31.76"
           id="circle307"
           style="opacity:0.75;fill:#fef8c0" />
        <circle
           class="cls-25"
           cx="1128.3199"
           cy="7394.7202"
           r="70.529999"
           id="circle309"
           style="opacity:0.5;fill:#fef8c0" />
        <circle
           class="cls-25"
           cx="832.78998"
           cy="7458.1299"
           r="32.130001"
           id="circle311"
           style="opacity:0.5;fill:#fef8c0" />
        <path
           class="cls-31"
           d="m 1057.21,8030.12 c -9.23,0 -26.67,21.34 -26.72,40.36 -0.05,19.02 9.65,40.76 48.87,44.55 13.26,1.28 72.91,27.38 115.06,-32 27.95,-39.38 23.25,-81.43 8,-112.6 -7.08,-14.46 -27,-40.54 -39.38,-56 -12,-15 -35.51,-25.8 -55.07,-32.54 -15.79,-5.45 -42.92,-4.28 -45.16,-18.88 -1.41,-9.14 -11.19,-17.07 -22.21,-18.8 0,0.49 0,1 0,1.51 a 30.94,30.94 0 0 1 -0.45,5.31 c 16.62,9 13.77,38.77 6.88,46.36 -13.24,14.58 -21.94,57.09 -14.47,77.95 a 143.34,143.34 0 0 0 24.65,54.78 z"
           id="path1018"
           style="fill:url(#linearGradient6916);stroke:#ffe381;stroke-width:2.70000005px;stroke-miterlimit:10"
           inkscape:connector-curvature="0" />
        <path
           class="cls-29"
           d="m 1122.43,8043 a 60.54,60.54 0 0 0 -10.75,2.45 52.27,52.27 0 0 0 -10,4.35 36.49,36.49 0 0 0 -14.63,15.1 41.06,41.06 0 0 0 -3.42,10.08 l -0.48,2.64 c -0.16,0.89 -0.2,1.79 -0.31,2.69 -0.23,1.79 -0.21,3.6 -0.3,5.41 a 113.21,113.21 0 0 0 2.31,21.89 q -0.92,-2.62 -1.77,-5.29 c -0.53,-1.78 -0.94,-3.6 -1.41,-5.41 -0.47,-1.81 -0.67,-3.68 -1,-5.52 -0.12,-0.93 -0.2,-1.87 -0.3,-2.8 -0.1,-0.93 -0.23,-1.87 -0.22,-2.82 a 46.65,46.65 0 0 1 0,-5.67 c 0.07,-0.94 0.08,-1.89 0.21,-2.84 l 0.4,-2.83 a 42.53,42.53 0 0 1 3.54,-10.92 35.52,35.52 0 0 1 6.87,-9.26 37.6,37.6 0 0 1 9.37,-6.56 45.29,45.29 0 0 1 10.69,-3.69 44.55,44.55 0 0 1 11.2,-1 z"
           id="path1020"
           inkscape:connector-curvature="0"
           style="fill:#ffe381" />
        <path
           class="cls-8"
           d="m 1378.29,7985.67 c -26.71,-1.12 -49.88,7.28 -67,24.27 0,0 -46.34,46.06 -117.11,46.36 -41,0.17 -86.82,-26.53 -114.37,-54.48 a 8.8002003,8.8002003 0 1 0 -12.54,12.35 c 14.19,14.4 62.11,47.48 109.81,53.83 87.31,11.62 144.09,-48.14 144.09,-48.14 34.49,-34.33 86.71,-14.55 87.23,-14.34 l 5.11,-13 a 118.54,118.54 0 0 0 -35.22,-6.85 z"
           id="path1022"
           inkscape:connector-curvature="0"
           style="fill:#2e3192" />
        <circle
           class="cls-8"
           cx="394.23999"
           cy="7967.6099"
           r="127.91"
           id="circle1024"
           style="fill:#2e3192" />
        <path
           class="cls-32"
           d="m 516.78,7967.61 a 122.54,122.54 0 1 1 -122.54,-122.54 122.69,122.69 0 0 1 122.54,122.54 m -6.31,0 a 116.23,116.23 0 1 0 -116.23,116.23 116.35,116.35 0 0 0 116.23,-116.23"
           id="path1026"
           style="fill:url(#linearGradient6918)"
           inkscape:connector-curvature="0" />
        <path
           class="cls-4"
           d="m 516.78,7967.61 a 122.63,122.63 0 0 1 -169.5,113.39 122.65,122.65 0 1 1 160.2,-160.28 122.25,122.25 0 0 1 9.3,46.89 122.3,122.3 0 1 0 -9.37,46.87 122.1,122.1 0 0 0 9.37,-46.87 z"
           id="path1028"
           inkscape:connector-curvature="0"
           style="fill:#50c6df" />
        <path
           class="cls-4"
           d="m 510.47,7967.61 a 116,116 0 1 0 -8.93,44.44 116,116 0 0 0 8.93,-44.44 116.17,116.17 0 1 1 -8.79,-44.49 116.15,116.15 0 0 1 8.79,44.49 z"
           id="path1030"
           inkscape:connector-curvature="0"
           style="fill:#50c6df" />
        <circle
           class="cls-33"
           cx="394.23999"
           cy="7967.6099"
           r="108.17"
           id="circle1032"
           style="fill:#2e3192;stroke:url(#linearGradient6920);stroke-width:0.60000002px;stroke-miterlimit:10" />
        <text
           class="cls-34"
           id="text1044"
           style="font-weight:700;font-size:26.53000069px;font-family:TitlingGothicFBNormal-Bold, 'TitlingGothicFB Normal';fill:#ffe381"
           x="329.26001"
           y="7945.9702">Become<tspan
   x="384.20001"
   y="7977.8101"
   id="tspan1034">a</tspan>
<tspan
   class="cls-35"
   x="333.17001"
   y="8009.6401"
   id="tspan1036"
   style="letter-spacing:-0.04em">P</tspan>
<tspan
   x="354.45001"
   y="8009.6401"
   id="tspan1038">a</tspan>
<tspan
   class="cls-36"
   x="373.95001"
   y="8009.6401"
   id="tspan1040"
   style="letter-spacing:0.02em">r</tspan>
<tspan
   x="389.20001"
   y="8009.6401"
   id="tspan1042">tner</tspan>
</text>
        <g
           class="cls-37"
           clip-path="url(#clip-path-3)"
           id="g1050">
          <path
             class="cls-38"
             d="m 537.27,8378.71 c -65.62,0 -120.32,-2.44 -163.5,-7.31 -61.26,-6.9 -95.88,-18.13 -105.83,-34.31 a 19.39,19.39 0 0 1 -0.42,-20.37 c 10.08,-18 48,-27.77 78.46,-27.77 25.59,0 43.36,-11.58 52.82,-34.43 7.64,-18.42 -0.41,-44.06 -4.8,-70.34 -3.86,-23 -2.23,-73.41 -11.19,-82.37 l 26.62,18.39 c 0,18.9 -2.25,33.7 2.32,61 2.9,17.35 15.85,50.83 3.68,80.2 -12.34,29.8 -36.35,45.6 -69.43,45.6 -32.45,0 -58.42,10.81 -62.75,18.56 a 1.64,1.64 0 0 0 0,2.16 c 2.39,3.89 28,33 254.13,33 41.92,0 90.67,-1 147.5,-3.34 115,-4.75 205.05,-19.59 267.57,-44.09 49,-19.2 80.92,-44.18 94.9,-74.25 25,-53.84 -15.15,-98.12 -19.65,-118.82 l 16.2,-6.3 c 4.5,13.5 13.52,21.7 21.72,44.78 11,31 10.37,61.44 -2,87.93 -16,34.41 -51.21,62.47 -104.65,83.42 -64.39,25.23 -156.37,40.48 -273.4,45.31 q -81.44,3.36 -148.3,3.35 z"
             id="path1046"
             style="fill:url(#radialGradient5977)"
             inkscape:connector-curvature="0" />
          <path
             class="cls-8"
             d="m 537.27,8388.61 c -65.62,0 -120.32,-2.44 -163.5,-7.31 -61.26,-6.9 -95.88,-18.13 -105.83,-34.31 a 19.39,19.39 0 0 1 -0.42,-20.37 c 10.08,-18 48,-27.77 78.46,-27.77 25.59,0 43.36,-11.58 52.82,-34.43 7.64,-18.42 -0.41,-44.06 -4.8,-70.34 -3.86,-23 -2.23,-73.41 -11.19,-82.37 l 26.62,18.39 c 0,18.9 -2.25,33.7 2.32,61 2.9,17.35 15.85,50.83 3.68,80.2 -12.34,29.79 -36.35,45.54 -69.45,45.54 -32.45,0 -58.42,10.81 -62.75,18.56 a 1.64,1.64 0 0 0 0,2.16 c 2.39,3.89 28,33 254.13,33 41.92,0 90.67,-1 147.5,-3.34 115,-4.75 205.05,-19.59 267.57,-44.09 49,-19.2 80.92,-44.18 94.9,-74.25 25,-53.84 -15.15,-98.12 -19.65,-118.82 l 16.2,-6.3 c 4.5,13.5 13.52,21.7 21.72,44.78 11,31 10.37,61.44 -2,87.93 -16,34.41 -51.21,62.47 -104.65,83.42 -64.39,25.23 -156.37,40.48 -273.4,45.31 q -81.42,3.42 -148.28,3.41 z"
             id="path1048"
             inkscape:connector-curvature="0"
             style="fill:#2e3192" />
        </g>
        <rect
           class="cls-8"
           x="368.92999"
           y="8091.3999"
           width="57.599998"
           height="23.4"
           rx="10.8"
           id="rect1052"
           style="fill:#2e3192" />
        <rect
           class="cls-8"
           x="382.42999"
           y="8107.6001"
           width="35.099998"
           height="12.6"
           rx="6.3000002"
           id="rect1054"
           style="fill:#2e3192" />
        <path
           class="cls-39"
           d="m 387.12,7864.44 c -2.95,0.23 -5.9,0.59 -8.82,1.07"
           id="path1056"
           inkscape:connector-curvature="0"
           style="opacity:0.5;fill:none;stroke:#50c6df;stroke-width:11.39999962px;stroke-linecap:round;stroke-miterlimit:10" />
        <path
           class="cls-40"
           d="M 482.56,8020 A 102.57,102.57 0 0 0 401.73,7864.38"
           id="path1058"
           inkscape:connector-curvature="0"
           style="opacity:0.75;fill:none;stroke:#50c6df;stroke-width:11.39999962px;stroke-linecap:round;stroke-miterlimit:10" />
        <circle
           class="cls-41"
           cx="363.45001"
           cy="7870.9102"
           r="5.6900001"
           id="circle1060"
           style="opacity:0.25;fill:#50c6df" />
        <path
           class="cls-29"
           d="m 1044.22,7948.51 c 0,0 18.13,54.54 -39.11,90.35 -16,13.64 -4.88,44.72 7.79,40.16 7.5,-2.7 54.85,-32.37 58.44,-68.33 1.26,-12.58 -27.12,-62.18 -27.12,-62.18 z"
           id="path1062"
           inkscape:connector-curvature="0"
           style="fill:#ffe381" />
        <ellipse
           class="cls-8"
           cx="-2316.0566"
           cy="7699.7988"
           rx="3.7"
           ry="8.4099998"
           transform="rotate(-24.45)"
           id="ellipse1064"
           style="fill:#2e3192" />
        <ellipse
           class="cls-8"
           cx="-2336.4866"
           cy="7693.2681"
           rx="3.7"
           ry="8.4099998"
           transform="rotate(-24.45)"
           id="ellipse1066"
           style="fill:#2e3192" />
        <polygon
           class="cls-29"
           points="1027.96,8012.93 998.64,7952.97 994.56,7964.87 956.61,7916.2 953.8,7928.54 921.17,7889.3 923.4,7925.71 956.52,7957.99 960.82,7938.55 999.22,7984.53 1001.87,7974.03 "
           id="polygon1068"
           style="fill:#ffe381" />
        <polygon
           class="cls-29"
           points="1064.42,7999.37 1059.56,7932.79 1069.08,7941.02 1077.36,7879.86 1086,7889.11 1094.44,7838.78 1110.84,7871.36 1098.48,7915.93 1084.98,7901.3 1074.95,7960.35 1067.38,7952.62 "
           id="polygon1070"
           style="fill:#ffe381" />
        <path
           class="cls-30"
           d="m 1073.59,8012.4 a 4.4,4.4 0 0 1 -3,-1.2 l -9.17,-8.63 a 4.4,4.4 0 0 1 6,-6.41 l 9.18,8.63 a 4.4,4.4 0 0 1 -3,7.61 z"
           id="path1072"
           inkscape:connector-curvature="0"
           style="fill:#f78d36" />
        <path
           class="cls-29"
           d="m 1138.77,7928 a 88.62,88.62 0 0 1 9.56,14 79.34,79.34 0 0 1 3.75,7.7 c 0.55,1.33 1,2.69 1.51,4.05 a 38.73,38.73 0 0 1 1.28,4.13 59.7,59.7 0 0 1 2.31,17.28 57.44,57.44 0 0 1 -3,17.33 c -3.75,11.2 -10.86,20.95 -19.41,28.59 a 82.25,82.25 0 0 1 -29.28,17.06 121.66,121.66 0 0 0 25.91,-20.53 c 7.5,-7.88 13.56,-17 16.95,-27.08 a 58.9,58.9 0 0 0 3,-15.56 64.31,64.31 0 0 0 -1.19,-16 l -0.38,-2 c -0.11,-0.67 -0.32,-1.32 -0.48,-2 -0.35,-1.31 -0.66,-2.64 -1,-3.95 -0.87,-2.59 -1.62,-5.24 -2.68,-7.79 -1.88,-5.23 -4.43,-10.15 -6.85,-15.23 z"
           id="path1074"
           inkscape:connector-curvature="0"
           style="fill:#ffe381" />
        <path
           class="cls-24"
           d="m 1109.55,7911.8 c 0,0 36,44.05 -9.44,80 -45.44,35.95 -4.94,50.8 5.4,46.3 20.51,-8.92 75.52,-46.3 33.26,-110.13"
           id="path1076"
           inkscape:connector-curvature="0"
           style="fill:#fef8c0" />
        <path
           class="cls-8"
           d="m 1035.22,8124.29 a 8.8,8.8 0 0 1 -8.45,-6.37 248.72,248.72 0 0 1 -6.18,-27 251.44,251.44 0 0 1 -2.51,-66.32 8.8,8.8 0 1 1 17.52,1.67 233.64,233.64 0 0 0 8.09,86.74 8.81,8.81 0 0 1 -6,10.89 8.57,8.57 0 0 1 -2.47,0.39 z"
           id="path1078"
           inkscape:connector-curvature="0"
           style="fill:#2e3192" />
        <path
           class="cls-30"
           d="m 1026.84,8029.88 h -0.39 a 4.4,4.4 0 0 1 -4,-4.78 l 1.12,-12.54 a 4.4023091,4.4023091 0 0 1 8.77,0.78 l -1.13,12.55 a 4.39,4.39 0 0 1 -4.37,3.99 z"
           id="path1080"
           inkscape:connector-curvature="0"
           style="fill:#f78d36" />
        <circle
           class="cls-30"
           cx="1006.1"
           cy="7845.7402"
           r="31.540001"
           id="circle1082"
           style="fill:#f78d36" />
        <path
           class="cls-29"
           d="m 982.67,7849.26 a 3.53,3.53 0 0 1 -3.52,-3.52 27,27 0 0 1 27,-27 3.53,3.53 0 0 1 0,7.05 19.93,19.93 0 0 0 -19.91,19.91 3.52,3.52 0 0 1 -3.57,3.56 z"
           id="path1084"
           inkscape:connector-curvature="0"
           style="fill:#ffe381" />
        <path
           class="cls-29"
           d="m 1120,7933.52 c 0,0 8.8,3.08 1.83,26.58 a 64.25,64.25 0 0 1 -21.76,31.71 84,84 0 0 0 -14.91,14.62 c 11.66,-20.1 36.31,-25.62 31.47,-55.31 -2.58,-16.12 3.37,-17.6 3.37,-17.6 z"
           id="path1086"
           inkscape:connector-curvature="0"
           style="fill:#ffe381" />
        <g
           id="g5748"
           clip-path="url(#clip-path-2)"
           class="cls-5">
          <rect
             style="fill:url(#linearGradient5965)"
             id="rect5744"
             height="1982.7"
             width="1373.64"
             y="6384.1001"
             x="-2.9200001"
             class="cls-6" />
          <rect
             style="fill:url(#linearGradient5967)"
             id="rect5746"
             height="2200.5"
             width="1373.64"
             y="6384.1001"
             x="-2.9200001"
             class="cls-7" />
        </g>
        <path
           inkscape:connector-curvature="0"
           style="opacity:0.5;fill:url(#linearGradient5969)"
           id="path5752"
           d="m 1359.14,7881.8 0.65,-7.5 a 42.82,42.82 0 0 1 -0.65,7.5 z"
           class="cls-15" />
        <path
           style="opacity:0.75;fill:#2e3192"
           inkscape:connector-curvature="0"
           id="path5754"
           d="m 1389.49,7913.9 c 0,97.93 -297.45,-0.54 -390.6,29.7 -57.55,18.68 -165.08,104.53 -222.3,124.2 -59.94,20.6 -67.81,28.28 -128.7,45.9 -54.32,15.72 -442.89,83.3 -508.5,83.7 -70.3,0.43 -149.91,-28.44 -180,35.1 C -68.47,8291.35 41,8421.51 98,8453 c 82.12,45.38 382.42,-19 474.3,0 65,13.44 179.73,88.18 243.9,105.3 124.5,33.21 548.8,58.7 548.8,58.7"
           class="cls-17" />
        <circle
           style="opacity:0.5;fill:#fef8c0"
           id="circle5756"
           r="23.629999"
           cy="7562.04"
           cx="781.09998"
           class="cls-25" />
        <circle
           style="opacity:0.5;fill:#fef8c0"
           id="circle5758"
           r="23.629999"
           cy="7339.8101"
           cx="955.65002"
           class="cls-25" />
        <circle
           style="opacity:0.25;fill:#fef8c0"
           id="circle5760"
           r="24.370001"
           cy="7532.96"
           cx="694.38"
           class="cls-26" />
        <ellipse
           style="fill:#fef8c0"
           id="ellipse5762"
           transform="rotate(-6.08)"
           ry="58.34"
           rx="58.709999"
           cy="7600.3779"
           cx="423.14542"
           class="cls-24" />
        <circle
           style="opacity:0.5;fill:#fef8c0"
           id="circle5764"
           r="32.130001"
           cy="7405.04"
           cx="1191.8"
           class="cls-25" />
        <circle
           style="fill:#fef8c0"
           id="circle5766"
           r="47.27"
           cy="7550.3501"
           cx="1114.0699"
           class="cls-24" />
        <circle
           style="opacity:0.5;fill:#fef8c0"
           id="circle5768"
           r="66.470001"
           cy="7486.2202"
           cx="983.95001"
           class="cls-25" />
        <circle
           style="opacity:0.5;fill:#fef8c0"
           id="circle5770"
           r="32.130001"
           cy="7633.6401"
           cx="851.48999"
           class="cls-25" />
        <circle
           style="opacity:0.5;fill:#fef8c0"
           id="circle5772"
           r="44.68"
           cy="7647.8101"
           cx="1060.21"
           class="cls-25" />
        <path
           style="opacity:0.5;fill:#fef8c0"
           inkscape:connector-curvature="0"
           id="path5774"
           d="m 1277.94,7778 c 2.68,25.14 -15.54,-11.7 -40.68,-9 -25.14,2.7 -47.7,43.86 -50.38,18.71 a 45.79,45.79 0 1 1 91.06,-9.69 z"
           class="cls-25" />
        <circle
           style="fill:#fef8c0"
           id="circle5776"
           r="24.74"
           cy="7658.3901"
           cx="1197.99"
           class="cls-24" />
        <circle
           style="opacity:0.75;fill:#fef8c0"
           id="circle5778"
           r="31.76"
           cy="7498.48"
           cx="917.66998"
           class="cls-27" />
        <circle
           style="opacity:0.5;fill:#fef8c0"
           id="circle5780"
           r="70.529999"
           cy="7394.7202"
           cx="1128.3199"
           class="cls-25" />
        <circle
           style="opacity:0.5;fill:#fef8c0"
           id="circle5782"
           r="32.130001"
           cy="7458.1299"
           cx="832.78998"
           class="cls-25" />
        <path
           inkscape:connector-curvature="0"
           style="fill:url(#linearGradient5971);stroke:#ffe381;stroke-width:2.70000005px;stroke-miterlimit:10"
           id="path5784"
           d="m 1057.21,8030.12 c -9.23,0 -26.67,21.34 -26.72,40.36 -0.05,19.02 9.65,40.76 48.87,44.55 13.26,1.28 72.91,27.38 115.06,-32 27.95,-39.38 23.25,-81.43 8,-112.6 -7.08,-14.46 -27,-40.54 -39.38,-56 -12,-15 -35.51,-25.8 -55.07,-32.54 -15.79,-5.45 -42.92,-4.28 -45.16,-18.88 -1.41,-9.14 -11.19,-17.07 -22.21,-18.8 0,0.49 0,1 0,1.51 a 30.94,30.94 0 0 1 -0.45,5.31 c 16.62,9 13.77,38.77 6.88,46.36 -13.24,14.58 -21.94,57.09 -14.47,77.95 a 143.34,143.34 0 0 0 24.65,54.78 z"
           class="cls-31" />
        <path
           style="fill:#ffe381"
           inkscape:connector-curvature="0"
           id="path5786"
           d="m 1122.43,8043 a 60.54,60.54 0 0 0 -10.75,2.45 52.27,52.27 0 0 0 -10,4.35 36.49,36.49 0 0 0 -14.63,15.1 41.06,41.06 0 0 0 -3.42,10.08 l -0.48,2.64 c -0.16,0.89 -0.2,1.79 -0.31,2.69 -0.23,1.79 -0.21,3.6 -0.3,5.41 a 113.21,113.21 0 0 0 2.31,21.89 q -0.92,-2.62 -1.77,-5.29 c -0.53,-1.78 -0.94,-3.6 -1.41,-5.41 -0.47,-1.81 -0.67,-3.68 -1,-5.52 -0.12,-0.93 -0.2,-1.87 -0.3,-2.8 -0.1,-0.93 -0.23,-1.87 -0.22,-2.82 a 46.65,46.65 0 0 1 0,-5.67 c 0.07,-0.94 0.08,-1.89 0.21,-2.84 l 0.4,-2.83 a 42.53,42.53 0 0 1 3.54,-10.92 35.52,35.52 0 0 1 6.87,-9.26 37.6,37.6 0 0 1 9.37,-6.56 45.29,45.29 0 0 1 10.69,-3.69 44.55,44.55 0 0 1 11.2,-1 z"
           class="cls-29" />
        <path
           style="fill:#2e3192"
           inkscape:connector-curvature="0"
           id="path5788"
           d="m 1378.29,7985.67 c -26.71,-1.12 -49.88,7.28 -67,24.27 0,0 -46.34,46.06 -117.11,46.36 -41,0.17 -86.82,-26.53 -114.37,-54.48 a 8.8002003,8.8002003 0 1 0 -12.54,12.35 c 14.19,14.4 62.11,47.48 109.81,53.83 87.31,11.62 144.09,-48.14 144.09,-48.14 34.49,-34.33 86.71,-14.55 87.23,-14.34 l 5.11,-13 a 118.54,118.54 0 0 0 -35.22,-6.85 z"
           class="cls-8" />
        <circle
           style="fill:#2e3192"
           id="circle5790"
           r="127.91"
           cy="7967.6099"
           cx="394.23999"
           class="cls-8" />
        <path
           inkscape:connector-curvature="0"
           style="fill:url(#linearGradient5973)"
           id="path5792"
           d="m 516.78,7967.61 a 122.54,122.54 0 1 1 -122.54,-122.54 122.69,122.69 0 0 1 122.54,122.54 m -6.31,0 a 116.23,116.23 0 1 0 -116.23,116.23 116.35,116.35 0 0 0 116.23,-116.23"
           class="cls-32" />
        <path
           style="fill:#50c6df"
           inkscape:connector-curvature="0"
           id="path5794"
           d="m 516.78,7967.61 a 122.63,122.63 0 0 1 -169.5,113.39 122.65,122.65 0 1 1 160.2,-160.28 122.25,122.25 0 0 1 9.3,46.89 122.3,122.3 0 1 0 -9.37,46.87 122.1,122.1 0 0 0 9.37,-46.87 z"
           class="cls-4" />
        <path
           style="fill:#50c6df"
           inkscape:connector-curvature="0"
           id="path5796"
           d="m 510.47,7967.61 a 116,116 0 1 0 -8.93,44.44 116,116 0 0 0 8.93,-44.44 116.17,116.17 0 1 1 -8.79,-44.49 116.15,116.15 0 0 1 8.79,44.49 z"
           class="cls-4" />
        <circle
           style="fill:#2e3192;stroke:url(#linearGradient5975);stroke-width:0.60000002px;stroke-miterlimit:10"
           id="circle5798"
           r="108.17"
           cy="7967.6099"
           cx="394.23999"
           class="cls-33" />
        <text
           y="7945.9702"
           x="329.26001"
           style="font-weight:700;font-size:26.53000069px;font-family:TitlingGothicFBNormal-Bold, 'TitlingGothicFB Normal';fill:#ffe381"
           id="text5810"
           class="cls-34">Become<tspan
   id="tspan5800"
   y="7977.8101"
   x="384.20001">a</tspan>
<tspan
   style="letter-spacing:-0.04em"
   id="tspan5802"
   y="8009.6401"
   x="333.17001"
   class="cls-35">P</tspan>
<tspan
   id="tspan5804"
   y="8009.6401"
   x="354.45001">a</tspan>
<tspan
   style="letter-spacing:0.02em"
   id="tspan5806"
   y="8009.6401"
   x="373.95001"
   class="cls-36">r</tspan>
<tspan
   id="tspan5808"
   y="8009.6401"
   x="389.20001">tner</tspan>
</text>
        <g
           id="g5816"
           clip-path="url(#clip-path-3)"
           class="cls-37">
          <path
             inkscape:connector-curvature="0"
             style="fill:url(#radialGradient5985)"
             id="path5812"
             d="m 537.27,8378.71 c -65.62,0 -120.32,-2.44 -163.5,-7.31 -61.26,-6.9 -95.88,-18.13 -105.83,-34.31 a 19.39,19.39 0 0 1 -0.42,-20.37 c 10.08,-18 48,-27.77 78.46,-27.77 25.59,0 43.36,-11.58 52.82,-34.43 7.64,-18.42 -0.41,-44.06 -4.8,-70.34 -3.86,-23 -2.23,-73.41 -11.19,-82.37 l 26.62,18.39 c 0,18.9 -2.25,33.7 2.32,61 2.9,17.35 15.85,50.83 3.68,80.2 -12.34,29.8 -36.35,45.6 -69.43,45.6 -32.45,0 -58.42,10.81 -62.75,18.56 a 1.64,1.64 0 0 0 0,2.16 c 2.39,3.89 28,33 254.13,33 41.92,0 90.67,-1 147.5,-3.34 115,-4.75 205.05,-19.59 267.57,-44.09 49,-19.2 80.92,-44.18 94.9,-74.25 25,-53.84 -15.15,-98.12 -19.65,-118.82 l 16.2,-6.3 c 4.5,13.5 13.52,21.7 21.72,44.78 11,31 10.37,61.44 -2,87.93 -16,34.41 -51.21,62.47 -104.65,83.42 -64.39,25.23 -156.37,40.48 -273.4,45.31 q -81.44,3.36 -148.3,3.35 z"
             class="cls-38" />
          <path
             style="fill:#2e3192"
             inkscape:connector-curvature="0"
             id="path5814"
             d="m 537.27,8388.61 c -65.62,0 -120.32,-2.44 -163.5,-7.31 -61.26,-6.9 -95.88,-18.13 -105.83,-34.31 a 19.39,19.39 0 0 1 -0.42,-20.37 c 10.08,-18 48,-27.77 78.46,-27.77 25.59,0 43.36,-11.58 52.82,-34.43 7.64,-18.42 -0.41,-44.06 -4.8,-70.34 -3.86,-23 -2.23,-73.41 -11.19,-82.37 l 26.62,18.39 c 0,18.9 -2.25,33.7 2.32,61 2.9,17.35 15.85,50.83 3.68,80.2 -12.34,29.79 -36.35,45.54 -69.45,45.54 -32.45,0 -58.42,10.81 -62.75,18.56 a 1.64,1.64 0 0 0 0,2.16 c 2.39,3.89 28,33 254.13,33 41.92,0 90.67,-1 147.5,-3.34 115,-4.75 205.05,-19.59 267.57,-44.09 49,-19.2 80.92,-44.18 94.9,-74.25 25,-53.84 -15.15,-98.12 -19.65,-118.82 l 16.2,-6.3 c 4.5,13.5 13.52,21.7 21.72,44.78 11,31 10.37,61.44 -2,87.93 -16,34.41 -51.21,62.47 -104.65,83.42 -64.39,25.23 -156.37,40.48 -273.4,45.31 q -81.42,3.42 -148.28,3.41 z"
             class="cls-8" />
        </g>
        <rect
           style="fill:#2e3192"
           id="rect5818"
           rx="10.8"
           height="23.4"
           width="57.599998"
           y="8091.3999"
           x="368.92999"
           class="cls-8" />
        <rect
           style="fill:#2e3192"
           id="rect5820"
           rx="6.3000002"
           height="12.6"
           width="35.099998"
           y="8107.6001"
           x="382.42999"
           class="cls-8" />
        <path
           style="opacity:0.5;fill:none;stroke:#50c6df;stroke-width:11.39999962px;stroke-linecap:round;stroke-miterlimit:10"
           inkscape:connector-curvature="0"
           id="path5822"
           d="m 387.12,7864.44 c -2.95,0.23 -5.9,0.59 -8.82,1.07"
           class="cls-39" />
        <path
           style="opacity:0.75;fill:none;stroke:#50c6df;stroke-width:11.39999962px;stroke-linecap:round;stroke-miterlimit:10"
           inkscape:connector-curvature="0"
           id="path5824"
           d="M 482.56,8020 A 102.57,102.57 0 0 0 401.73,7864.38"
           class="cls-40" />
        <circle
           style="opacity:0.25;fill:#50c6df"
           id="circle5826"
           r="5.6900001"
           cy="7870.9102"
           cx="363.45001"
           class="cls-41" />
        <path
           style="fill:#ffe381"
           inkscape:connector-curvature="0"
           id="path5828"
           d="m 1044.22,7948.51 c 0,0 18.13,54.54 -39.11,90.35 -16,13.64 -4.88,44.72 7.79,40.16 7.5,-2.7 54.85,-32.37 58.44,-68.33 1.26,-12.58 -27.12,-62.18 -27.12,-62.18 z"
           class="cls-29" />
        <ellipse
           style="fill:#2e3192"
           id="ellipse5830"
           transform="rotate(-24.45)"
           ry="8.4099998"
           rx="3.7"
           cy="7699.7988"
           cx="-2316.0566"
           class="cls-8" />
        <ellipse
           style="fill:#2e3192"
           id="ellipse5832"
           transform="rotate(-24.45)"
           ry="8.4099998"
           rx="3.7"
           cy="7693.2681"
           cx="-2336.4866"
           class="cls-8" />
        <polygon
           style="fill:#ffe381"
           id="polygon5834"
           points="1027.96,8012.93 998.64,7952.97 994.56,7964.87 956.61,7916.2 953.8,7928.54 921.17,7889.3 923.4,7925.71 956.52,7957.99 960.82,7938.55 999.22,7984.53 1001.87,7974.03 "
           class="cls-29" />
        <polygon
           style="fill:#ffe381"
           id="polygon5836"
           points="1064.42,7999.37 1059.56,7932.79 1069.08,7941.02 1077.36,7879.86 1086,7889.11 1094.44,7838.78 1110.84,7871.36 1098.48,7915.93 1084.98,7901.3 1074.95,7960.35 1067.38,7952.62 "
           class="cls-29" />
        <path
           style="fill:#f78d36"
           inkscape:connector-curvature="0"
           id="path5838"
           d="m 1073.59,8012.4 a 4.4,4.4 0 0 1 -3,-1.2 l -9.17,-8.63 a 4.4,4.4 0 0 1 6,-6.41 l 9.18,8.63 a 4.4,4.4 0 0 1 -3,7.61 z"
           class="cls-30" />
        <path
           style="fill:#ffe381"
           inkscape:connector-curvature="0"
           id="path5840"
           d="m 1138.77,7928 a 88.62,88.62 0 0 1 9.56,14 79.34,79.34 0 0 1 3.75,7.7 c 0.55,1.33 1,2.69 1.51,4.05 a 38.73,38.73 0 0 1 1.28,4.13 59.7,59.7 0 0 1 2.31,17.28 57.44,57.44 0 0 1 -3,17.33 c -3.75,11.2 -10.86,20.95 -19.41,28.59 a 82.25,82.25 0 0 1 -29.28,17.06 121.66,121.66 0 0 0 25.91,-20.53 c 7.5,-7.88 13.56,-17 16.95,-27.08 a 58.9,58.9 0 0 0 3,-15.56 64.31,64.31 0 0 0 -1.19,-16 l -0.38,-2 c -0.11,-0.67 -0.32,-1.32 -0.48,-2 -0.35,-1.31 -0.66,-2.64 -1,-3.95 -0.87,-2.59 -1.62,-5.24 -2.68,-7.79 -1.88,-5.23 -4.43,-10.15 -6.85,-15.23 z"
           class="cls-29" />
        <path
           style="fill:#fef8c0"
           inkscape:connector-curvature="0"
           id="path5842"
           d="m 1109.55,7911.8 c 0,0 36,44.05 -9.44,80 -45.44,35.95 -4.94,50.8 5.4,46.3 20.51,-8.92 75.52,-46.3 33.26,-110.13"
           class="cls-24" />
        <path
           style="fill:#2e3192"
           inkscape:connector-curvature="0"
           id="path5844"
           d="m 1035.22,8124.29 a 8.8,8.8 0 0 1 -8.45,-6.37 248.72,248.72 0 0 1 -6.18,-27 251.44,251.44 0 0 1 -2.51,-66.32 8.8,8.8 0 1 1 17.52,1.67 233.64,233.64 0 0 0 8.09,86.74 8.81,8.81 0 0 1 -6,10.89 8.57,8.57 0 0 1 -2.47,0.39 z"
           class="cls-8" />
        <path
           style="fill:#f78d36"
           inkscape:connector-curvature="0"
           id="path5846"
           d="m 1026.84,8029.88 h -0.39 a 4.4,4.4 0 0 1 -4,-4.78 l 1.12,-12.54 a 4.4023091,4.4023091 0 0 1 8.77,0.78 l -1.13,12.55 a 4.39,4.39 0 0 1 -4.37,3.99 z"
           class="cls-30" />
        <circle
           style="fill:#f78d36"
           id="circle5848"
           r="31.540001"
           cy="7845.7402"
           cx="1006.1"
           class="cls-30" />
        <path
           style="fill:#ffe381"
           inkscape:connector-curvature="0"
           id="path5850"
           d="m 982.67,7849.26 a 3.53,3.53 0 0 1 -3.52,-3.52 27,27 0 0 1 27,-27 3.53,3.53 0 0 1 0,7.05 19.93,19.93 0 0 0 -19.91,19.91 3.52,3.52 0 0 1 -3.57,3.56 z"
           class="cls-29" />
        <path
           style="fill:#ffe381"
           inkscape:connector-curvature="0"
           id="path5852"
           d="m 1120,7933.52 c 0,0 8.8,3.08 1.83,26.58 a 64.25,64.25 0 0 1 -21.76,31.71 84,84 0 0 0 -14.91,14.62 c 11.66,-20.1 36.31,-25.62 31.47,-55.31 -2.58,-16.12 3.37,-17.6 3.37,-17.6 z"
           class="cls-29" />
      </g>
    </g>
  </g>
</svg>
