<?xml version="1.0" encoding="UTF-8" standalone="no"?>
<svg
   xmlns:dc="http://purl.org/dc/elements/1.1/"
   xmlns:cc="http://creativecommons.org/ns#"
   xmlns:rdf="http://www.w3.org/1999/02/22-rdf-syntax-ns#"
   xmlns:svg="http://www.w3.org/2000/svg"
   xmlns="http://www.w3.org/2000/svg"
   viewBox="0 0 734.67999 97.053329"
   height="97.053329"
   width="734.67999"
   xml:space="preserve"
   id="svg2"
   version="1.1"><metadata
     id="metadata8"><rdf:RDF><cc:Work
         rdf:about=""><dc:format>image/svg+xml</dc:format><dc:type
           rdf:resource="http://purl.org/dc/dcmitype/StillImage" /></cc:Work></rdf:RDF></metadata><defs
     id="defs6" /><g
     transform="matrix(1.3333333,0,0,-1.3333333,0,97.053333)"
     id="g10"><g
       transform="scale(0.1)"
       id="g12"><path
         id="path14"
         style="fill:#b3212c;fill-opacity:1;fill-rule:nonzero;stroke:none"
         d="m 189.262,365.313 c 43.84,0 56.597,24.425 56.597,44.414 0,15.527 -9.398,42.691 -46.046,42.691 H 149.855 V 365.313 Z M 392.934,139.426 H 278.066 l -84.921,165.41 h -43.29 V 203.242 h 47.192 V 139.426 H 0 v 63.816 H 51.6406 V 452.418 H 0 v 63.863 h 234.766 c 73.281,0 113.207,-48.293 113.207,-105.445 0,-43.313 -21.075,-73.805 -64.91,-93.797 l 61.035,-113.797 h 48.836 v -63.816" /><path
         id="path16"
         style="fill:#b3212c;fill-opacity:1;fill-rule:nonzero;stroke:none"
         d="m 521.688,203.242 h 44.425 v 249.176 h -44.425 v 63.863 H 853.043 V 396.992 h -71.594 v 55.426 H 664.316 v -86.52 h 94.36 v -63.886 h -94.36 v -98.77 h 117.133 v 56.074 h 71.594 V 139.426 H 521.688 v 63.816" /><path
         id="path18"
         style="fill:#b3212c;fill-opacity:1;fill-rule:nonzero;stroke:none"
         d="m 1194.93,203.242 c 74.93,0 109.89,48.301 109.89,123.235 0,81.035 -39.94,125.941 -113.24,125.941 h -33.85 V 203.242 Z m -192.61,0 h 57.17 v 249.176 h -57.17 v 63.863 h 197.03 c 68.28,0 115.45,-12.761 153.74,-51.078 37.75,-37.726 53.84,-86.555 53.84,-138.172 0,-97.676 -60.48,-187.605 -180.35,-187.605 h -224.26 v 63.816" /><path
         id="path20"
         style="fill:#231f20;fill-opacity:1;fill-rule:nonzero;stroke:none"
         d="m 1779.88,452.418 h -44.43 v 63.863 h 186.51 v -63.863 h -43.27 L 1941.4,263.77 h 1.09 l 63.28,188.648 h -41.63 v 63.863 h 158.76 v -63.863 h -44.42 L 1969.13,136.66 h -76.03 l -113.22,315.758" /><path
         id="path22"
         style="fill:#231f20;fill-opacity:1;fill-rule:nonzero;stroke:none"
         d="m 2252.75,203.242 h 44.38 v 249.176 h -44.38 v 63.863 h 331.33 V 396.992 h -71.58 v 55.426 h -117.14 v -86.52 h 94.35 v -63.886 h -94.35 v -98.77 h 117.14 v 56.074 h 71.58 v -119.89 h -331.33 v 63.816" /><path
         id="path24"
         style="fill:#231f20;fill-opacity:1;fill-rule:nonzero;stroke:none"
         d="m 2726.71,203.242 h 50.49 v 249.176 h -50.49 v 63.863 h 157.66 l 138.18,-235.332 h 1.06 v 171.469 h -48.79 v 63.863 h 169.24 v -63.863 h -53.25 V 139.426 h -84.39 l -160.95,276.972 h -1.1 V 203.242 h 47.17 v -63.816 h -164.83 v 63.816" /><path
         id="path26"
         style="fill:#231f20;fill-opacity:1;fill-rule:nonzero;stroke:none"
         d="m 3624.74,364.766 h -65.51 v 87.652 h -56.6 V 203.242 h 56.6 v -63.816 h -211.46 v 63.816 h 56.59 v 249.176 h -56.59 v -87.652 h -65.49 v 151.515 h 342.46 V 364.766" /><path
         id="path28"
         style="fill:#231f20;fill-opacity:1;fill-rule:nonzero;stroke:none"
         d="m 3760.13,516.281 h 175.39 v -63.863 h -32.79 V 260.996 c 0,-37.207 11.15,-62.156 48.87,-62.156 31.68,0 52.22,16.062 52.22,58.797 v 194.781 h -31.14 v 63.863 h 145.42 v -63.863 h -47.13 V 241.582 C 4070.97,153.887 3994.35,135 3941.05,135 c -73.81,0 -136.52,28.262 -136.52,120.41 v 197.008 h -44.4 v 63.863" /><path
         id="path30"
         style="fill:#231f20;fill-opacity:1;fill-rule:nonzero;stroke:none"
         d="m 4441.12,365.313 c 43.84,0 56.58,24.425 56.58,44.414 0,15.527 -9.42,42.691 -46.05,42.691 h -49.94 V 365.313 Z M 4644.8,139.426 h -114.88 l -84.94,165.41 h -43.27 V 203.242 h 47.14 v -63.816 h -196.98 v 63.816 h 51.6 v 249.176 h -51.6 v 63.863 h 234.78 c 73.21,0 113.19,-48.293 113.19,-105.445 0,-43.313 -21.1,-73.805 -64.92,-93.797 l 61.05,-113.797 h 48.83 v -63.816" /><path
         id="path32"
         style="fill:#231f20;fill-opacity:1;fill-rule:nonzero;stroke:none"
         d="m 4773.57,203.242 h 44.41 v 249.176 h -44.41 v 63.863 H 5104.9 V 396.992 h -71.61 v 55.426 h -117.06 v -86.52 h 94.28 v -63.886 h -94.28 v -98.77 h 117.06 v 56.074 h 71.61 v -119.89 h -331.33 v 63.816" /><path
         id="path34"
         style="fill:#231f20;fill-opacity:1;fill-rule:nonzero;stroke:none"
         d="m 5260.31,267.664 h 63.81 c -1.13,-40.523 24.97,-68.316 57.72,-68.316 22.77,0 41.61,17.793 41.61,40.523 0,68.852 -167.03,59.406 -167.03,177.594 0,73.281 54.91,102.726 101.55,102.726 29.43,0 53.26,-11.664 68.82,-35.027 h 1.11 v 31.117 h 63.26 V 401.934 h -63.26 c -4.98,34.41 -25.53,55.527 -54.35,55.527 -21.66,0 -37.24,-12.781 -37.24,-30.547 0,-61.016 173.76,-47.133 173.76,-180.332 0,-89.941 -69.37,-112.148 -109.36,-112.148 -33.31,0 -58.8,12.246 -75.48,36.574 h -1.11 v -31.582 h -63.81 v 128.238" /><path
         id="path36"
         style="fill:#231f20;fill-opacity:1;fill-rule:nonzero;stroke:none"
         d="m 1577.65,0 h -21.85 v 727.855 h 21.85 V 0" /></g></g></svg>