<?xml version="1.0" encoding="utf-8"?>
<!-- Generator: Adobe Illustrator 20.1.0, SVG Export Plug-In . SVG Version: 6.00 Build 0)  -->
<svg version="1.2" baseProfile="tiny" id="Layer_1" xmlns="http://www.w3.org/2000/svg" xmlns:xlink="http://www.w3.org/1999/xlink"
	 x="0px" y="0px" viewBox="0 0 849.6 486" xml:space="preserve">
<g display="none">
	<rect x="103.8" y="276.4" display="inline" fill="#FFFFFF" width="32.6" height="42.8"/>
	
		<rect x="128.8" y="182.4" transform="matrix(0.6159 -0.7879 0.7879 0.6159 -97.5934 190.4129)" display="inline" fill="#FFFFFF" width="35.3" height="25.7"/>
	
		<rect x="205.9" y="125.7" transform="matrix(0.895 -0.4461 0.4461 0.895 -37.7648 112.9477)" display="inline" fill="#FFFFFF" width="30.2" height="22"/>
	<polygon display="inline" fill="#FFFFFF" points="305.9,112.2 305.6,133.1 331.4,133.6 331.7,112.6 	"/>
	
		<rect x="391.1" y="134.2" transform="matrix(0.4623 -0.8867 0.8867 0.4623 86.4297 432.6572)" display="inline" fill="#FFFFFF" width="17.7" height="21.8"/>
	
		<rect x="439.9" y="184.8" transform="matrix(0.8352 -0.55 0.55 0.8352 -33.1059 278.2474)" display="inline" fill="#FFFFFF" width="15.6" height="19.2"/>
	<path display="inline" fill="#FFFFFF" d="M212.1,265.3c8.8,0,16.3,2.6,22.5,7.7c6.5,5.5,9.7,12.6,9.7,21.2s-3.2,15.6-9.7,21.1
		c-6.2,5.2-13.6,7.8-22.3,7.8h-0.1h-0.1H212c-8.6,0-16-2.6-22.2-7.8c-6.5-5.5-9.8-12.5-9.8-21.1h12.8c0,4.9,2,8.8,6.1,11.9
		c3.7,2.8,8.1,4.1,13.1,4.1s9.4-1.4,13.1-4.2c4.1-3,6.1-7,6.1-11.9s-2-8.9-6.1-12c-3.7-2.8-8.1-4.1-13.2-4.1h-3.2
		c-7.3,0-13.5-2.4-18.4-7.3s-7.4-11-7.4-18.3s2.5-13.5,7.4-18.4s11-7.4,18.4-7.4h6.4c7.3,0,13.4,2.5,18.3,7.4
		c4.9,4.9,7.4,11,7.4,18.4H228c0-3.7-1.2-6.8-3.7-9.2c-2.5-2.5-5.5-3.7-9.2-3.7h-6.4c-3.7,0-6.8,1.2-9.2,3.7
		c-2.5,2.5-3.7,5.5-3.7,9.2s1.2,6.8,3.7,9.2s5.5,3.7,9.2,3.7L212.1,265.3L212.1,265.3z"/>
	<path display="inline" fill="#FFFFFF" d="M305.3,267.6c6.1,6.2,9.2,13.8,9.2,22.9s-3.1,16.7-9.3,22.9c-6.2,6.2-13.8,9.3-22.9,9.3
		s-16.7-3.1-22.9-9.3c-6.2-6.2-9.3-13.8-9.3-22.9s3.1-16.8,9.3-22.9c6.2-6.2,13.8-9.3,22.9-9.3C291.5,258.3,299.2,261.4,305.3,267.6
		 M268.5,276.7c-3.7,3.7-5.5,8.3-5.5,13.8s1.8,10.1,5.5,13.8c3.7,3.7,8.3,5.5,13.8,5.5s10.1-1.8,13.8-5.5c3.7-3.7,5.5-8.3,5.5-13.8
		s-1.8-10.1-5.5-13.8c-3.7-3.7-8.3-5.5-13.8-5.5S272.2,273.1,268.5,276.7"/>
	<path display="inline" fill="#FFFFFF" d="M338.4,243.2c-2.5,2.5-3.7,5.5-3.7,9.2v16.1h22.5v12.8h-22.5v41.8h-12.8v-70.7
		c0-7.3,2.5-13.4,7.4-18.4c4.9-4.9,11-7.4,18.3-7.4s13.4,2.5,18.3,7.4s7.4,11,7.4,18.4h-12.9c0-3.7-1.2-6.8-3.7-9.2
		c-2.4-2.5-5.5-3.7-9.2-3.7C344,239.5,340.9,240.7,338.4,243.2"/>
	<polygon display="inline" fill="#FFFFFF" points="377.9,226.7 377.9,323.1 390.8,323.1 390.8,268.5 410.1,268.5 410.1,255.6 
		390.8,255.6 390.8,226.7 	"/>
	<path display="inline" fill="#FFFFFF" d="M471.6,226.7v67.6h-0.2c-0.8,8.4-4.2,15.3-10.3,20.7c-6,5.4-13.3,8.2-21.7,8.2
		c-9.1,0-16.8-3.1-22.9-9.2c-6.2-6.1-9.3-13.8-9.3-22.9s3.1-16.8,9.3-22.9c6.2-6.2,13.8-9.3,22.9-9.3c7.1,0,13.6,2.2,19.3,6.5v-38.6
		h12.9V226.7z M425.6,277.2c-3.7,3.7-5.5,8.3-5.5,13.8s1.8,10.1,5.5,13.8c3.7,3.7,8.3,5.5,13.8,5.5s10.1-1.8,13.8-5.5
		c3.7-3.7,5.5-8.3,5.5-13.8s-1.8-10.1-5.5-13.8c-3.7-3.7-8.3-5.5-13.8-5.5S429.3,273.5,425.6,277.2"/>
	<path display="inline" fill="#FFFFFF" d="M532.9,267.6c6.1,6.2,9.2,13.8,9.2,22.9s-3.1,16.7-9.3,22.9c-6.2,6.2-13.8,9.3-22.9,9.3
		s-16.7-3.1-22.9-9.3c-6.2-6.2-9.3-13.8-9.3-22.9s3.1-16.8,9.2-22.9c6.2-6.2,13.8-9.3,22.9-9.3C519.2,258.3,526.8,261.4,532.9,267.6
		 M496.2,276.7c-3.7,3.7-5.5,8.3-5.5,13.8s1.8,10.1,5.5,13.8c3.7,3.7,8.3,5.5,13.8,5.5s10.1-1.8,13.8-5.5s5.5-8.3,5.5-13.8
		s-1.8-10.1-5.5-13.8c-3.7-3.7-8.3-5.5-13.8-5.5S499.9,273.1,496.2,276.7"/>
	<path display="inline" fill="#FFFFFF" d="M594.5,303.2l9.1,9.1c-6.4,7.2-14.4,10.8-24,10.8c-9.1,0-16.8-3.1-22.9-9.2
		c-6.2-6.1-9.3-13.8-9.3-22.9s3.1-16.8,9.3-22.9c6.2-6.2,13.8-9.2,22.9-9.2c9.9,0,18.1,3.8,24.6,11.5l-9.2,9.1
		c-3.9-5.2-9-7.7-15.4-7.7c-5.5,0-10.1,1.8-13.8,5.5s-5.5,8.3-5.5,13.8s1.8,10.1,5.5,13.8c3.7,3.7,8.3,5.5,13.8,5.5
		C585.7,310.3,590.7,307.9,594.5,303.2"/>
	<path display="inline" fill="#FFFFFF" d="M656.6,289c6.9,3.7,10.3,8.6,10.3,14.8c0,6.2-3.4,11.2-10.3,14.8
		c-5.6,3-11.8,4.5-18.6,4.5s-13-1.5-18.6-4.5c-6.9-3.7-10.3-8.6-10.3-14.8h12.8c0,2.3,2.2,4,6.7,5.2c3,0.8,6.1,1.2,9.4,1.2
		c8.6,0,12.8-2.1,12.8-6.4c0-4.2-4.3-6.4-12.8-6.4c-6.8,0-13-1.5-18.6-4.5c-6.9-3.7-10.3-8.7-10.3-14.9c0-6.2,3.4-11.2,10.3-14.8
		c5.7-3,11.9-4.5,18.6-4.5c6.8,0,13,1.5,18.6,4.5c6.9,3.6,10.3,8.6,10.3,14.8H654c0-2.2-2.3-4-6.8-5.2c-3-0.8-6.1-1.2-9.3-1.2
		c-8.6,0-12.9,2.1-12.9,6.4s4.3,6.4,12.9,6.4C644.7,284.5,650.9,286,656.6,289"/>
</g>
<rect x="141.2" y="301.1" fill="#591D6D" width="32.6" height="42.8"/>
<rect x="166.2" y="207.2" transform="matrix(0.6159 -0.7879 0.7879 0.6159 -102.7754 229.3702)" fill="#591D6D" width="35.3" height="25.7"/>
<rect x="243.3" y="150.5" transform="matrix(0.895 -0.4461 0.4461 0.895 -44.8936 132.2051)" fill="#591D6D" width="30.2" height="22"/>
<polygon fill="#591D6D" points="343.3,136.9 343,157.9 368.8,158.3 369.1,137.3 "/>
<rect x="428.5" y="158.9" transform="matrix(0.4623 -0.8867 0.8867 0.4623 84.599 479.1516)" fill="#591D6D" width="17.7" height="21.8"/>
<rect x="477.3" y="209.5" transform="matrix(0.8352 -0.55 0.55 0.8352 -40.5623 302.9023)" fill="#591D6D" width="15.6" height="19.2"/>
<path fill="#591D6D" d="M249.5,290c8.8,0,16.3,2.6,22.5,7.7c6.5,5.5,9.7,12.6,9.7,21.2s-3.2,15.6-9.7,21.1
	c-6.2,5.2-13.6,7.8-22.3,7.8h-0.1h-0.1h-0.1c-8.6,0-16-2.6-22.2-7.8c-6.5-5.5-9.8-12.5-9.8-21.1h12.8c0,4.9,2,8.8,6.1,11.9
	c3.7,2.8,8.1,4.1,13.1,4.1s9.4-1.4,13.1-4.2c4.1-3,6.1-7,6.1-11.9s-2-8.9-6.1-12c-3.7-2.8-8.1-4.1-13.2-4.1h-3.2
	c-7.3,0-13.5-2.4-18.4-7.3s-7.4-11-7.4-18.3s2.5-13.5,7.4-18.4s11-7.4,18.4-7.4h6.4c7.3,0,13.4,2.5,18.3,7.4s7.4,11,7.4,18.4h-12.8
	c0-3.7-1.2-6.8-3.7-9.2c-2.5-2.5-5.5-3.7-9.2-3.7h-6.4c-3.7,0-6.8,1.2-9.2,3.7c-2.5,2.5-3.7,5.5-3.7,9.2s1.2,6.8,3.7,9.2
	c2.5,2.4,5.5,3.7,9.2,3.7L249.5,290L249.5,290z"/>
<path fill="#591D6D" d="M342.7,292.3c6.1,6.2,9.2,13.8,9.2,22.9s-3.1,16.7-9.3,22.9c-6.2,6.2-13.8,9.3-22.9,9.3s-16.7-3.1-22.9-9.3
	c-6.2-6.2-9.3-13.8-9.3-22.9s3.1-16.8,9.3-22.9c6.2-6.2,13.8-9.3,22.9-9.3C328.9,283.1,336.5,286.1,342.7,292.3 M305.9,301.5
	c-3.7,3.7-5.5,8.3-5.5,13.8s1.8,10.1,5.5,13.8c3.7,3.7,8.3,5.5,13.8,5.5s10.1-1.8,13.8-5.5c3.7-3.7,5.5-8.3,5.5-13.8
	s-1.8-10.1-5.5-13.8c-3.7-3.7-8.3-5.5-13.8-5.5C314.2,296,309.6,297.8,305.9,301.5"/>
<path fill="#591D6D" d="M375.8,267.9c-2.5,2.5-3.7,5.5-3.7,9.2v16.1h22.5V306h-22.5v41.8h-12.8v-70.7c0-7.3,2.5-13.4,7.4-18.4
	c4.9-4.9,11-7.4,18.3-7.4s13.4,2.5,18.3,7.4s7.4,11,7.4,18.4h-12.9c0-3.7-1.2-6.8-3.7-9.2c-2.4-2.5-5.5-3.7-9.2-3.7
	C381.4,264.3,378.3,265.5,375.8,267.9"/>
<polygon fill="#591D6D" points="415.3,251.4 415.3,347.9 428.2,347.9 428.2,293.2 447.5,293.2 447.5,280.3 428.2,280.3 428.2,251.4 
	"/>
<path fill="#591D6D" d="M508.9,251.4V319h-0.2c-0.8,8.4-4.2,15.3-10.3,20.7c-6,5.4-13.3,8.2-21.7,8.2c-9.1,0-16.8-3.1-22.9-9.2
	c-6.2-6.1-9.3-13.8-9.3-22.9s3.1-16.8,9.3-22.9c6.2-6.2,13.8-9.3,22.9-9.3c7.1,0,13.6,2.2,19.3,6.5v-38.6h12.9V251.4z M463,302
	c-3.7,3.7-5.5,8.3-5.5,13.8s1.8,10.1,5.5,13.8c3.7,3.7,8.3,5.5,13.8,5.5s10.1-1.8,13.8-5.5c3.7-3.7,5.5-8.3,5.5-13.8
	s-1.8-10.1-5.5-13.8c-3.7-3.7-8.3-5.5-13.8-5.5C471.3,296.4,466.7,298.3,463,302"/>
<path fill="#591D6D" d="M570.3,292.3c6.1,6.2,9.2,13.8,9.2,22.9s-3.1,16.7-9.3,22.9c-6.2,6.2-13.8,9.3-22.9,9.3
	c-9.1,0-16.7-3.1-22.9-9.3c-6.2-6.2-9.3-13.8-9.3-22.9s3.1-16.8,9.2-22.9c6.2-6.2,13.8-9.3,22.9-9.3
	C556.6,283.1,564.2,286.1,570.3,292.3 M533.6,301.5c-3.7,3.7-5.5,8.3-5.5,13.8s1.8,10.1,5.5,13.8c3.7,3.7,8.3,5.5,13.8,5.5
	s10.1-1.8,13.8-5.5s5.5-8.3,5.5-13.8s-1.8-10.1-5.5-13.8c-3.7-3.7-8.3-5.5-13.8-5.5C541.9,296,537.3,297.8,533.6,301.5"/>
<path fill="#591D6D" d="M631.9,328l9.1,9.1c-6.4,7.2-14.4,10.8-24,10.8c-9.1,0-16.8-3.1-22.9-9.2c-6.2-6.1-9.3-13.8-9.3-22.9
	s3.1-16.8,9.3-22.9c6.2-6.2,13.8-9.2,22.9-9.2c9.9,0,18.1,3.8,24.6,11.5l-9.2,9.1c-3.9-5.2-9-7.7-15.4-7.7c-5.5,0-10.1,1.8-13.8,5.5
	s-5.5,8.3-5.5,13.8s1.8,10.1,5.5,13.8c3.7,3.7,8.3,5.5,13.8,5.5C623.1,335,628.1,332.7,631.9,328"/>
<path fill="#591D6D" d="M694,313.7c6.9,3.7,10.3,8.6,10.3,14.8c0,6.2-3.4,11.2-10.3,14.8c-5.6,3-11.8,4.5-18.6,4.5s-13-1.5-18.6-4.5
	c-6.9-3.7-10.3-8.6-10.3-14.8h12.8c0,2.3,2.2,4,6.7,5.2c3,0.8,6.1,1.2,9.4,1.2c8.6,0,12.8-2.1,12.8-6.4c0-4.2-4.3-6.4-12.8-6.4
	c-6.8,0-13-1.5-18.6-4.5c-6.9-3.7-10.3-8.7-10.3-14.9c0-6.2,3.4-11.2,10.3-14.8c5.7-3,11.9-4.5,18.6-4.5c6.8,0,13,1.5,18.6,4.5
	c6.9,3.6,10.3,8.6,10.3,14.8h-12.8c0-2.2-2.3-4-6.8-5.2c-3-0.8-6.1-1.2-9.3-1.2c-8.6,0-12.9,2.1-12.9,6.4s4.3,6.4,12.9,6.4
	C682.1,309.2,688.3,310.7,694,313.7"/>
</svg>
