<?xml version="1.0" encoding="UTF-8" standalone="no"?>
<svg
   xmlns:dc="http://purl.org/dc/elements/1.1/"
   xmlns:cc="http://creativecommons.org/ns#"
   xmlns:rdf="http://www.w3.org/1999/02/22-rdf-syntax-ns#"
   xmlns:svg="http://www.w3.org/2000/svg"
   xmlns="http://www.w3.org/2000/svg"
   viewBox="0 0 347.78668 136.67999"
   height="136.67999"
   width="347.78668"
   xml:space="preserve"
   id="svg2"
   version="1.1"><metadata
     id="metadata8"><rdf:RDF><cc:Work
         rdf:about=""><dc:format>image/svg+xml</dc:format><dc:type
           rdf:resource="http://purl.org/dc/dcmitype/StillImage" /></cc:Work></rdf:RDF></metadata><defs
     id="defs6" /><g
     transform="matrix(1.3333333,0,0,-1.3333333,0,136.68)"
     id="g10"><g
       transform="scale(0.1)"
       id="g12"><path
         id="path14"
         style="fill:#004655;fill-opacity:1;fill-rule:nonzero;stroke:none"
         d="M 394.977,1019.46 C 261.469,956.25 171.672,818.605 173.441,671.496 172.855,522.031 265.602,380.246 399.711,320.578 l 59.394,-22.394 c 0,0 -18.632,-1.825 -23.359,-1.239 C 310.5,297.531 194.711,362.531 129.133,473.586 64.7422,572.832 63.5586,729.395 125,830.414 181.125,933.801 289.234,993.461 394.977,1019.46" /><path
         id="path16"
         style="fill:#004655;fill-opacity:1;fill-rule:nonzero;stroke:none"
         d="M 770.656,966.387 C 629.145,1008.78 470.297,966.602 373.164,856.125 272.699,745.461 246.715,578.02 306.426,443.945 l 29.144,-56.386 c 0,0 -15.058,11.113 -18.183,14.707 -92.664,84.269 -135.203,210.039 -109.598,336.464 18.582,116.829 122.484,233.958 235.746,267.89 110.891,39.26 231.149,11.22 327.121,-40.233" /><path
         id="path18"
         style="fill:#004655;fill-opacity:1;fill-rule:nonzero;stroke:none"
         d="M 763.023,62.4141 C 621.246,-22.0703 402.066,-20.8789 262.055,66.543 65.332,181.164 -32.7383,396.191 9.80078,620.098 22.207,679.172 44.0625,734.707 75.375,786.105 26.3398,648.457 59.4258,492.492 160.445,389.113 257.922,283.945 410.93,247.316 546.801,286.309 c 23.633,8.867 48.445,15.949 70.898,28.957 L 763.023,62.4141" /><path
         id="path20"
         style="fill:#004655;fill-opacity:1;fill-rule:nonzero;stroke:none"
         d="m 925.559,591.738 -0.594,-63.789 h -11.219 l -2.961,33.067 c -20.082,18.898 -47.258,25.996 -76.203,20.097 -18.906,-4.14 -34.859,-22.449 -40.172,-40.769 -7.676,-23.625 -4.73,-52.571 8.266,-72.656 40.758,-45.489 108.707,-36.633 141.195,-93.352 19.5,-33.672 14.18,-85.652 -8.867,-115.789 -49.031,-55.527 -127.012,-56.711 -196.719,-42.539 1.188,27.773 0.598,49.051 0.598,76.211 h 12.402 c 4.723,-15.352 -1.777,-35.43 12.406,-46.66 25.989,-23.633 64.981,-28.371 96.879,-15.371 23.039,10.058 41.356,33.679 44.309,59.07 3.551,27.773 -2.359,53.781 -22.453,73.273 -45.488,37.801 -124.649,36.024 -140.598,105.157 -8.269,38.386 1.777,76.796 30.129,103.964 40.168,36.043 103.387,31.914 153.602,20.086" /><path
         id="path22"
         style="fill:#004655;fill-opacity:1;fill-rule:nonzero;stroke:none"
         d="m 1320.65,591.738 183.73,-252.84 38.41,-47.265 c 3.55,92.156 3.55,191.406 -5.91,284.148 -10.03,1.77 -22.46,1.77 -33.69,2.969 -2.95,2.949 -1.17,8.262 -1.76,12.395 l 106.33,0.593 1.2,-12.402 -34.87,-2.949 c -15.96,-116.375 -17.72,-239.852 -14.76,-360.379 h -30.72 L 1445.9,335.352 1297.02,537.98 c -1.77,-97.46 -1.77,-204.992 5.31,-304.238 10.65,-2.363 23.06,-3.554 35.45,-4.14 l 0.6,-12.414 -106.35,0.605 v 11.23 l 34.27,2.356 c 14.77,109.285 15.96,228.633 13,342.039 l -3.55,3.555 c -15.36,0 -28.35,3.547 -42.54,0 -46.67,-62.618 -80.33,-130.567 -111.65,-199.676 l 4.13,-144.746 36.64,-2.949 c 2.36,-2.95 0.6,-8.282 1.19,-12.414 h -134.7 v 11.835 c 12.41,1.758 25.4,2.356 38.99,2.356 4.14,44.91 7.09,92.168 5.9,138.828 -30.72,69.715 -63.8,138.816 -102.202,205.574 -10.043,1.77 -20.672,1.77 -31.313,2.969 -2.941,2.949 -1.172,7.668 -1.172,11.816 l 126.427,0.579 c 1.18,-3.536 0.59,-7.676 1.18,-11.231 -10.05,-3.527 -23.04,-2.363 -33.09,-3.527 21.27,-59.668 51.4,-118.164 81.53,-174.871 30.72,55.535 59.07,114.011 80.34,174.265 -8.87,2.969 -20.08,2.375 -29.54,3.555 v 12.402 c 50.21,-2.957 103.98,0 154.78,0" /><path
         id="path24"
         style="fill:#004655;fill-opacity:1;fill-rule:nonzero;stroke:none"
         d="m 1832.84,402.695 c 28.37,-36.621 54.37,-74.441 85.08,-110.476 l 1.18,1.777 c 2.95,90.977 1.77,191.406 -7.09,281.785 -10.05,1.77 -23.62,1.77 -33.67,2.969 l -1.18,11.816 107.52,0.579 v -11.809 l -34.86,-2.949 C 1933.86,458.832 1932.1,339.492 1935.05,216.008 h -30.71 L 1796.82,369.621 1672.75,537.98 c -2.95,-90.968 -1.18,-204.992 5.32,-304.824 11.23,-2.968 25.42,-2.375 36.04,-4.133 v -13.015 c -33.09,2.363 -70.91,2.363 -105.15,0 l -1.2,13.015 34.27,2.356 c 14.78,109.285 15.96,226.844 13.01,342.039 l -3.57,3.555 -33.65,1.777 v 12.988 l 79.74,-0.593 135.28,-188.45" /><path
         id="path26"
         style="fill:#004655;fill-opacity:1;fill-rule:nonzero;stroke:none"
         d="m 2229.26,590.566 -1.18,-63.222 -9.46,-0.586 c -2.95,10.644 0,27.765 -12.99,34.258 -36.65,13.586 -78.58,17.14 -121.13,14.765 -4.7,-53.152 -2.95,-110.457 -4.13,-162.449 30.73,-1.191 63.23,-2.363 89.82,9.441 5.3,9.477 4.7,21.282 5.88,33.106 h 11.23 l -1.77,-105.176 h -11.21 c -0.6,12.414 -0.6,24.817 -5.34,34.856 -25.98,13.582 -57.29,12.402 -88,14.191 -2.95,-53.176 -1.18,-111.066 1.18,-166.594 46.66,-0.605 95.1,-0.605 135.28,15.946 9.45,10.031 6.5,25.402 8.27,38.976 l 11.83,0.606 -0.6,-72.676 -254.03,1.18 v 11.835 l 41.34,2.356 4.15,68.516 0.58,222.734 -2.95,51.394 -35.43,4.727 c -2.97,3.539 0,8.262 0,12.395 86.25,-4.133 154.76,-1.172 238.66,-0.579" /><path
         id="path28"
         style="fill:#004655;fill-opacity:1;fill-rule:nonzero;stroke:none"
         d="m 2404.12,590.566 0.6,-11.816 -35.46,-3.555 0.58,-5.3 c 23.66,-43.731 48.47,-86.856 74.46,-129.375 31.9,41.921 59.67,87.429 86.25,132.898 -9.46,2.969 -19.5,3.555 -29.53,4.133 -1.19,3.562 -0.6,8.281 -0.6,12.422 33.07,-1.192 64.99,-1.77 98.08,0.593 1.17,-3.554 0,-8.277 0.58,-11.816 l -25.99,-3.555 c -45.49,-47.246 -86.86,-96.882 -119.94,-148.863 37.82,-66.75 72.66,-134.113 120.53,-196.73 l 31.9,-1.184 v -12.41 l -133.52,-0.586 v 12.996 c 10.04,1.184 19.51,0.605 28.96,0.605 -13.01,36.036 -34.29,71.465 -52.01,106.329 -9.44,15.351 -18.88,31.32 -27.75,46.671 -28.95,-33.664 -53.76,-72.082 -77.99,-109.296 l -24.81,-40.754 c 10.06,-3.555 25.42,-2.371 38.39,-3.555 v -12.996 h -114.59 v 12.996 l 30.71,1.184 c 54.36,51.992 97.48,109.89 138.83,168.953 -33.08,59.668 -67.35,118.75 -108.11,174.863 -11.23,7.102 -41.37,-6.492 -34.85,17.148 43.71,-2.957 91.56,-2.957 135.28,0" /><path
         id="path30"
         style="fill:#004655;fill-opacity:1;fill-rule:nonzero;stroke:none"
         d="m 922.672,71.9336 -3.731,-5.5352 c -6.769,-2.3828 -12.843,-4.0156 -18.222,-4.914 -5.383,-0.8867 -12.106,-1.336 -20.16,-1.336 -11.473,0 -21.614,1.2188 -30.426,3.6602 -6.926,1.9531 -12.793,4.5508 -17.61,7.8047 -4.812,3.25 -8.519,6.7656 -11.117,10.5742 -3.949,5.6836 -5.922,11.8945 -5.922,18.6135 0,11.496 5.825,20.871 17.485,28.137 11.656,7.265 28.117,10.898 49.375,10.898 7.301,0 13.859,-0.363 19.672,-1.094 5.816,-0.734 12.566,-2.004 20.25,-3.84 l 0.406,-0.722 c -0.836,-1.727 -1.484,-3.887 -1.953,-6.465 -0.781,-4.043 -1.281,-7.813 -1.485,-11.317 h -6.875 c -0.089,3.993 -0.293,7.188 -0.625,9.559 -3.613,2.543 -7.671,4.457 -12.171,5.723 -4.504,1.269 -10.262,1.906 -17.266,1.906 -12.672,0 -22.809,-2.715 -30.41,-8.137 -7.606,-5.429 -11.403,-13.008 -11.403,-22.715 0,-5.859 1.286,-10.9762 3.852,-15.3512 2.57,-4.3633 5.992,-7.9883 10.266,-10.8594 4.269,-2.8789 8.574,-4.9687 12.898,-6.2695 5.895,-1.7383 13.031,-2.6055 21.422,-2.6055 5.516,0 10.738,0.418 15.66,1.2579 4.922,0.832 10.273,2.2656 16.063,4.3164 l 2.027,-1.2891" /><path
         id="path32"
         style="fill:#004655;fill-opacity:1;fill-rule:nonzero;stroke:none"
         d="m 993.168,77.7539 c 4.988,-5.7812 11.862,-10.1562 20.612,-13.1328 8.76,-2.9805 19.24,-4.4727 31.44,-4.4727 11.27,0 21.3,1.2188 30.08,3.6602 6.4,1.8359 12.1,4.4531 17.12,7.8437 5.01,3.3868 8.82,7.254 11.43,11.5899 3.52,5.8516 5.28,12.2266 5.28,19.1018 0,4.015 -0.61,7.695 -1.83,11.054 -1.22,3.36 -3.02,6.446 -5.41,9.239 -2.38,2.793 -5.86,5.527 -10.44,8.215 -4.58,2.683 -9.86,4.726 -15.82,6.14 -8.03,1.895 -16.97,2.844 -26.84,2.844 -9.92,0 -19.08,-0.977 -27.48,-2.93 -6.56,-1.515 -12.63,-4.015 -18.21,-7.48 -5.596,-3.469 -9.893,-7.688 -12.901,-12.649 -3.008,-4.961 -4.511,-10.769 -4.511,-17.4411 0,-8.6132 2.492,-15.8203 7.48,-21.582 z m 21.312,41.0351 c 2.52,4.883 6.56,8.566 12.13,11.055 5.56,2.492 12.31,3.742 20.23,3.742 6.95,0 12.53,-0.793 16.73,-2.356 4.21,-1.582 7.86,-3.835 10.95,-6.785 3.1,-2.961 5.47,-6.543 7.13,-10.773 1.65,-4.219 2.48,-8.875 2.48,-13.965 0,-7.4218 -1.53,-13.7304 -4.6,-18.9257 -3.07,-5.2032 -7.3,-8.9063 -12.7,-11.0938 -5.4,-2.1953 -11.52,-3.2891 -18.36,-3.2891 -7.38,0 -13.79,1.1407 -19.22,3.4454 -5.43,2.3046 -9.87,6.2304 -13.35,11.7773 -3.47,5.5586 -5.21,12.5586 -5.21,21.0159 0,5.898 1.26,11.289 3.79,16.152" /><path
         id="path34"
         style="fill:#004655;fill-opacity:1;fill-rule:nonzero;stroke:none"
         d="m 1172.48,133.898 v 4.688 c 1.24,0 5.55,-0.078 12.95,-0.234 3.61,-0.051 8.74,-0.079 15.38,-0.079 5.66,0 10.52,0.106 14.58,0.313 6.69,0.203 12.22,0.312 16.59,0.312 8.47,0 14.82,-0.421 19.03,-1.242 4.21,-0.82 7.79,-2.558 10.76,-5.195 2.97,-2.645 4.46,-5.84 4.46,-9.57 0,-4.512 -2.03,-8.602 -6.07,-12.266 -4.05,-3.652 -10.28,-6.562 -18.69,-8.699 1.36,-1.613 2.9,-3.2541 4.63,-4.9533 1.74,-1.6797 2.75,-2.6954 3.05,-3.0469 0.3,-0.3516 0.61,-0.711 0.94,-1.0938 l 12.6,-12.539 c 3.35,-3.3789 5.17,-5.1641 5.44,-5.3789 4.06,-3.5938 6.56,-5.7344 7.48,-6.3985 0.92,-0.664 1.81,-1.1211 2.68,-1.3672 0.87,-0.2421 2.57,-0.3906 5.12,-0.4375 v -4.6875 c -8.35,0.2032 -14.4,0.3125 -18.14,0.3125 -4.33,0 -8.64,-0.1093 -12.93,-0.3125 -0.27,0.75 -0.92,1.7774 -1.94,3.0743 L 1233,84.2695 c -4.98,5.4961 -9.21,9.8438 -12.67,13.0274 -1.74,1.5625 -3.42,2.7421 -5.04,3.5621 l 0.89,1.789 c 6.45,-0.168 11.32,0.282 14.6,1.336 3.28,1.055 6.05,2.911 8.31,5.559 2.25,2.645 3.39,5.652 3.39,9.004 0,3.289 -1.19,6.055 -3.56,8.269 -2.38,2.219 -5.32,3.789 -8.82,4.707 -2.26,0.54 -6.31,0.813 -12.13,0.813 -2.59,0 -5.15,-0.168 -7.68,-0.488 -0.16,-1.309 -0.31,-4.266 -0.47,-8.887 -0.31,-10.266 -0.47,-17.129 -0.47,-20.586 0,-5.4023 0.03,-11.1641 0.1,-17.2656 0.1,-7.5117 0.16,-11.75 0.21,-12.7266 0.16,-2.0508 0.46,-3.4062 0.9,-4.0508 0.21,-0.2734 0.57,-0.5273 1.06,-0.7734 0.48,-0.2422 1.27,-0.4297 2.35,-0.5664 1.09,-0.1367 4.23,-0.2344 9.44,-0.2813 v -4.6875 c -9.27,0.2032 -18.57,0.3125 -27.87,0.3125 -8.3,0 -15.99,-0.1093 -23.06,-0.3125 v 4.6875 c 6.25,0.1055 9.95,0.3008 11.1,0.5743 0.65,0.0976 1.13,0.2734 1.43,0.5273 0.31,0.2344 0.54,0.7617 0.71,1.582 0.38,1.4063 0.65,3.5547 0.82,6.4375 l 0.31,15.9649 V 112.07 l -0.31,11.563 c -0.11,4.562 -0.43,7.305 -0.96,8.222 -0.28,0.395 -0.68,0.684 -1.21,0.899 -1.29,0.43 -5.25,0.82 -11.89,1.144" /><path
         id="path36"
         style="fill:#004655;fill-opacity:1;fill-rule:nonzero;stroke:none"
         d="m 1341.12,133.898 v 4.688 l 24.11,-0.313 36.44,0.313 c 7.12,0 12.73,-0.5 16.87,-1.477 4.13,-0.976 7.67,-2.773 10.63,-5.371 2.96,-2.617 4.44,-5.996 4.44,-10.117 0,-4.141 -1.42,-7.969 -4.27,-11.504 -2.86,-3.535 -7.3,-6.445 -13.35,-8.73 -6.06,-2.2854 -12.53,-3.4261 -19.43,-3.4261 -1.74,0 -3.43,0.0664 -5.09,0.2032 -1.66,0.1289 -3.3,0.3047 -4.93,0.5195 -0.53,1.0234 -1.51,2.3164 -2.93,3.8674 l 1.72,1.219 c 1.2,-0.27 2.33,-0.469 3.39,-0.606 1.07,-0.137 2.03,-0.203 2.91,-0.203 5.28,0 9.65,1.269 13.09,3.816 3.42,2.551 5.14,6.231 5.14,11.055 0,5.039 -1.81,8.832 -5.44,11.348 -3.63,2.519 -8.69,3.781 -15.18,3.781 -3.08,0 -6.52,-0.313 -10.31,-0.938 -0.12,-2.273 -0.19,-5.617 -0.21,-10.011 l -0.11,-10.645 V 90.625 c 0,-5.0977 0.11,-10.3906 0.32,-15.8594 0.16,-3.1445 0.46,-5.1562 0.9,-6.0234 0.22,-0.3828 0.59,-0.7031 1.11,-0.9766 0.52,-0.2734 1.46,-0.4609 2.84,-0.5664 l 11.08,-0.4883 v -4.6875 c -13.98,0.2032 -24.5,0.3125 -31.54,0.3125 -7.75,0 -15.16,-0.1093 -22.2,-0.3125 v 4.6875 c 6.02,0.0469 9.82,0.3516 11.4,0.8868 0.49,0.1757 0.87,0.4414 1.14,0.8203 0.37,0.5468 0.68,1.875 0.89,3.9961 0.63,5.8593 0.94,12.3515 0.94,19.4609 v 19.375 l -0.31,10.273 c -0.11,4.395 -0.23,7.149 -0.37,8.262 -0.13,1.113 -0.4,1.887 -0.78,2.324 -0.21,0.313 -0.58,0.586 -1.1,0.813 -0.52,0.215 -1.47,0.398 -2.82,0.578 l -8.99,0.398" /><path
         id="path38"
         style="fill:#004655;fill-opacity:1;fill-rule:nonzero;stroke:none"
         d="m 1503.7,77.7539 c 4.98,-5.7812 11.86,-10.1562 20.61,-13.1328 8.76,-2.9805 19.23,-4.4727 31.43,-4.4727 11.27,0 21.3,1.2188 30.09,3.6602 6.4,1.8359 12.1,4.4531 17.11,7.8437 5.02,3.3868 8.83,7.254 11.44,11.5899 3.51,5.8516 5.28,12.2266 5.28,19.1018 0,4.015 -0.62,7.695 -1.84,11.054 -1.22,3.36 -3.02,6.446 -5.4,9.239 -2.39,2.793 -5.87,5.527 -10.45,8.215 -4.58,2.683 -9.85,4.726 -15.82,6.14 -8.02,1.895 -16.97,2.844 -26.83,2.844 -9.93,0 -19.09,-0.977 -27.48,-2.93 -6.57,-1.515 -12.64,-4.015 -18.22,-7.48 -5.58,-3.469 -9.88,-7.688 -12.89,-12.649 -3.01,-4.961 -4.51,-10.769 -4.51,-17.4411 0,-8.6132 2.49,-15.8203 7.48,-21.582 z m 21.3,41.0351 c 2.53,4.883 6.57,8.566 12.14,11.055 5.56,2.492 12.3,3.742 20.22,3.742 6.96,0 12.53,-0.793 16.74,-2.356 4.2,-1.582 7.85,-3.835 10.95,-6.785 3.09,-2.961 5.47,-6.543 7.12,-10.773 1.66,-4.219 2.49,-8.875 2.49,-13.965 0,-7.4218 -1.53,-13.7304 -4.6,-18.9257 -3.07,-5.2032 -7.31,-8.9063 -12.71,-11.0938 -5.4,-2.1953 -11.52,-3.2891 -18.36,-3.2891 -7.38,0 -13.78,1.1407 -19.21,3.4454 -5.43,2.3046 -9.88,6.2304 -13.35,11.7773 -3.48,5.5586 -5.21,12.5586 -5.21,21.0159 0,5.898 1.26,11.289 3.78,16.152" /><path
         id="path40"
         style="fill:#004655;fill-opacity:1;fill-rule:nonzero;stroke:none"
         d="m 1683.01,133.898 v 4.688 c 1.23,0 5.54,-0.078 12.95,-0.234 3.61,-0.051 8.74,-0.079 15.38,-0.079 5.66,0 10.52,0.106 14.58,0.313 6.68,0.203 12.21,0.312 16.59,0.312 8.47,0 14.81,-0.421 19.02,-1.242 4.21,-0.82 7.81,-2.558 10.77,-5.195 2.97,-2.645 4.46,-5.84 4.46,-9.57 0,-4.512 -2.03,-8.602 -6.08,-12.266 -4.04,-3.652 -10.27,-6.562 -18.68,-8.699 1.36,-1.613 2.9,-3.2541 4.63,-4.9533 1.73,-1.6797 2.75,-2.6954 3.05,-3.0469 0.3,-0.3516 0.61,-0.711 0.94,-1.0938 l 12.59,-12.539 c 3.36,-3.3789 5.17,-5.1641 5.44,-5.3789 4.07,-3.5938 6.57,-5.7344 7.48,-6.3985 0.92,-0.664 1.82,-1.1211 2.69,-1.3672 0.87,-0.2421 2.57,-0.3906 5.13,-0.4375 v -4.6875 c -8.36,0.2032 -14.41,0.3125 -18.15,0.3125 -4.34,0 -8.65,-0.1093 -12.93,-0.3125 -0.27,0.75 -0.92,1.7774 -1.95,3.0743 l -17.38,19.1718 c -5,5.4961 -9.22,9.8438 -12.68,13.0274 -1.74,1.5625 -3.42,2.7421 -5.04,3.5621 l 0.88,1.789 c 6.45,-0.168 11.33,0.282 14.61,1.336 3.28,1.055 6.04,2.911 8.3,5.559 2.27,2.645 3.4,5.652 3.4,9.004 0,3.289 -1.19,6.055 -3.57,8.269 -2.37,2.219 -5.31,3.789 -8.81,4.707 -2.27,0.54 -6.31,0.813 -12.13,0.813 -2.59,0 -5.16,-0.168 -7.68,-0.488 -0.16,-1.309 -0.31,-4.266 -0.47,-8.887 -0.31,-10.266 -0.47,-17.129 -0.47,-20.586 0,-5.4023 0.03,-11.1641 0.1,-17.2656 0.1,-7.5117 0.16,-11.75 0.22,-12.7266 0.15,-2.0508 0.44,-3.4062 0.88,-4.0508 0.22,-0.2734 0.58,-0.5273 1.07,-0.7734 0.49,-0.2422 1.27,-0.4297 2.35,-0.5664 1.09,-0.1367 4.23,-0.2344 9.44,-0.2813 v -4.6875 c -9.27,0.2032 -18.57,0.3125 -27.88,0.3125 -8.3,0 -15.98,-0.1093 -23.05,-0.3125 v 4.6875 c 6.25,0.1055 9.94,0.3008 11.09,0.5743 0.67,0.0976 1.13,0.2734 1.45,0.5273 0.29,0.2344 0.52,0.7617 0.7,1.582 0.37,1.4063 0.64,3.5547 0.82,6.4375 l 0.31,15.9649 V 112.07 l -0.31,11.563 c -0.12,4.562 -0.43,7.305 -0.97,8.222 -0.27,0.395 -0.67,0.684 -1.2,0.899 -1.29,0.43 -5.25,0.82 -11.89,1.144" /><path
         id="path42"
         style="fill:#004655;fill-opacity:1;fill-rule:nonzero;stroke:none"
         d="m 1869.08,62.3359 18.78,-0.3125 v 4.6875 c -6.45,0.1563 -10.33,0.4766 -11.63,0.9571 -0.87,0.3711 -1.3,0.9843 -1.3,1.8359 0,1.2188 1.36,4.3047 4.06,9.2578 l 3.58,6.3867 h 42.13 l 6.89,-11.7304 c 1.25,-2.0782 1.88,-3.5742 1.88,-4.4727 0,-0.6914 -0.42,-1.1914 -1.26,-1.4844 -0.84,-0.2929 -4.54,-0.5468 -11.11,-0.75 v -4.6875 l 28.56,0.3125 22.61,-0.3125 v 4.6875 c -1.58,0.1055 -2.77,0.2149 -3.58,0.3204 -2.56,0.1093 -4.14,0.2265 -4.76,0.3632 -0.63,0.1368 -1.19,0.3516 -1.67,0.6524 -0.49,0.2929 -1.01,0.7617 -1.55,1.4062 l -3.26,5.0196 -5.05,7.4414 -36.38,56.6719 h -11.57 L 1897.28,126.289 1876,91.2891 c -4.03,-6.6289 -6.74,-11.0743 -8.16,-13.3399 -3.09,-4.7461 -4.96,-7.5 -5.58,-8.2422 -0.63,-0.7617 -1.24,-1.3086 -1.84,-1.6601 -0.6,-0.3516 -1.32,-0.6055 -2.16,-0.7696 -0.84,-0.1679 -3.46,-0.3515 -7.87,-0.5664 v -4.6875 z m 34.12,57.1171 17.25,-27.7421 c -4.92,-0.207 -10.5,-0.3125 -16.72,-0.3125 -6.44,0 -12.21,0.1055 -17.29,0.3125 l 16.76,27.7421" /><path
         id="path44"
         style="fill:#004655;fill-opacity:1;fill-rule:nonzero;stroke:none"
         d="m 2039.89,62.0234 v 4.6875 c 6.65,0.1055 10.61,0.3789 11.86,0.8086 1.25,0.4297 2.09,1.1641 2.54,2.1875 0.6,1.5625 0.81,6.2696 0.6,14.1016 v 32.6754 c 0,8.86 -0.1,13.829 -0.31,14.914 h -11.45 c -5.78,0 -10.84,-0.136 -15.22,-0.398 -1.77,-0.121 -2.78,-0.258 -3.05,-0.414 -0.37,-0.215 -0.69,-0.859 -0.95,-1.941 -0.7,-2.54 -1.1,-5.372 -1.2,-8.497 h -7.19 c -0.23,7.508 -0.36,11.719 -0.42,12.645 -0.17,1.633 -0.45,3.371 -0.83,5.215 l 0.73,0.578 c 2.54,-0.129 5.25,-0.195 8.13,-0.227 4.65,-0.058 13.62,-0.086 26.9,-0.086 h 32.84 c 13.65,0 22.78,0.028 27.39,0.086 2.49,0.032 5.02,0.098 7.57,0.227 l 0.81,-0.578 c -0.51,-2.227 -0.81,-4.176 -0.92,-5.867 -0.05,-0.274 -0.16,-4.27 -0.33,-11.993 h -7.18 c -0.11,2.801 -0.46,5.497 -1.05,8.094 -0.32,1.289 -0.67,2.071 -1.04,2.344 -0.33,0.156 -1.19,0.273 -2.57,0.332 -4.39,0.312 -9.66,0.48 -15.81,0.48 h -11.49 c -0.15,-1.3 -0.23,-6.269 -0.23,-14.914 V 83.8086 c 0,-7.832 0.31,-12.5391 0.94,-14.1016 0.38,-0.9765 1.19,-1.6875 2.43,-2.1484 1.25,-0.457 5.12,-0.7422 11.63,-0.8477 v -4.6875 c -10.51,0.2032 -19.37,0.3125 -26.56,0.3125 -7.7,0 -16.55,-0.1093 -26.57,-0.3125" /><path
         id="path46"
         style="fill:#004655;fill-opacity:1;fill-rule:nonzero;stroke:none"
         d="m 2231.22,138.586 v -4.688 c -5.63,-0.109 -8.98,-0.246 -10.05,-0.41 -1.06,-0.168 -1.81,-0.363 -2.25,-0.574 -0.45,-0.219 -0.77,-0.512 -0.93,-0.902 -0.39,-0.653 -0.67,-1.856 -0.83,-3.594 -0.06,-0.938 -0.11,-2.734 -0.14,-5.41 -0.12,-9.004 -0.17,-13.844 -0.17,-14.559 V 86.3477 l 0.31,-10.0586 c 0,-3.8282 0.26,-6.2774 0.81,-7.3633 0.21,-0.5469 0.58,-0.957 1.1,-1.2305 0.52,-0.2734 1.34,-0.4961 2.46,-0.664 1.12,-0.1563 4.35,-0.2735 9.69,-0.3204 v -4.6875 c -8.88,0.2032 -18.36,0.3125 -28.43,0.3125 -8.77,0 -16.59,-0.1093 -23.44,-0.3125 v 4.6875 c 5.87,0.1055 9.25,0.2227 10.16,0.3204 1.18,0.1679 1.98,0.371 2.41,0.6171 0.42,0.2422 0.7,0.5352 0.8,0.8672 0.17,0.4883 0.41,2.2266 0.69,5.2344 0.2,4.3555 0.31,8.418 0.31,12.1875 v 23.0005 c 0,7.253 -0.11,11.941 -0.31,14.07 -0.28,4.648 -0.61,7.558 -0.99,8.762 -0.16,0.437 -0.42,0.789 -0.77,1.062 -0.36,0.273 -1.02,0.488 -1.96,0.656 -0.96,0.164 -4.41,0.301 -10.34,0.41 v 4.688 c 6.85,-0.207 14.72,-0.313 23.6,-0.313 9.97,0 19.39,0.106 28.27,0.313" /><path
         id="path48"
         style="fill:#004655;fill-opacity:1;fill-rule:nonzero;stroke:none"
         d="m 2302.52,77.7539 c 4.98,-5.7812 11.86,-10.1562 20.61,-13.1328 8.75,-2.9805 19.23,-4.4727 31.43,-4.4727 11.27,0 21.3,1.2188 30.09,3.6602 6.39,1.8359 12.1,4.4531 17.11,7.8437 5.02,3.3868 8.83,7.254 11.43,11.5899 3.52,5.8516 5.29,12.2266 5.29,19.1018 0,4.015 -0.62,7.695 -1.84,11.054 -1.22,3.36 -3.02,6.446 -5.4,9.239 -2.39,2.793 -5.87,5.527 -10.45,8.215 -4.58,2.683 -9.85,4.726 -15.82,6.14 -8.03,1.895 -16.97,2.844 -26.84,2.844 -9.92,0 -19.08,-0.977 -27.48,-2.93 -6.56,-1.515 -12.63,-4.015 -18.21,-7.48 -5.58,-3.469 -9.88,-7.688 -12.89,-12.649 -3.01,-4.961 -4.51,-10.769 -4.51,-17.4411 0,-8.6132 2.49,-15.8203 7.48,-21.582 z m 21.3,41.0351 c 2.53,4.883 6.57,8.566 12.14,11.055 5.55,2.492 12.3,3.742 20.22,3.742 6.95,0 12.53,-0.793 16.74,-2.356 4.2,-1.582 7.85,-3.835 10.95,-6.785 3.09,-2.961 5.47,-6.543 7.12,-10.773 1.66,-4.219 2.49,-8.875 2.49,-13.965 0,-7.4218 -1.54,-13.7304 -4.6,-18.9257 -3.07,-5.2032 -7.31,-8.9063 -12.71,-11.0938 -5.4,-2.1953 -11.52,-3.2891 -18.36,-3.2891 -7.38,0 -13.79,1.1407 -19.22,3.4454 -5.43,2.3046 -9.87,6.2304 -13.35,11.7773 -3.47,5.5586 -5.2,12.5586 -5.2,21.0159 0,5.898 1.26,11.289 3.78,16.152" /><path
         id="path50"
         style="fill:#004655;fill-opacity:1;fill-rule:nonzero;stroke:none"
         d="m 2481.19,66.7109 c 6.37,0.2149 10.01,0.3985 10.93,0.5743 0.6,0.1562 1.09,0.4023 1.49,0.7226 0.41,0.3242 0.75,0.9961 1.02,2.0313 0.35,1.3593 0.75,4.6875 1.22,10.0117 0.22,3.0351 0.34,6.9609 0.34,11.7969 v 17.5663 l -0.31,15.938 c -0.06,2.656 -0.22,4.375 -0.49,5.168 -0.27,0.789 -0.66,1.367 -1.18,1.746 -0.52,0.382 -1.38,0.683 -2.57,0.898 -1.2,0.215 -4.69,0.461 -10.45,0.734 v 4.688 c 6.9,-0.207 11.97,-0.313 15.24,-0.313 l 11.81,0.157 7.49,0.156 c 11.19,-9.836 24.76,-21.164 40.69,-33.984 11.46,-9.2387 20.96,-16.4653 28.52,-21.6801 l 0.31,12.625 c 0,19.6481 -0.32,31.1831 -0.97,34.6091 -0.22,1.348 -0.71,2.246 -1.47,2.676 -1.25,0.656 -5.48,1.008 -12.68,1.066 v 4.688 c 6.61,-0.207 12.65,-0.313 18.12,-0.313 5.21,0 11.92,0.106 20.13,0.313 v -4.688 c -6.69,-0.109 -10.66,-0.441 -11.92,-0.984 -0.44,-0.16 -0.75,-0.434 -0.9,-0.824 -0.83,-1.856 -1.29,-6.055 -1.4,-12.598 -0.11,-6.551 -0.16,-11.387 -0.16,-14.492 0,-24.3945 0.32,-39.1797 0.94,-44.3555 l -1.03,-0.4961 c -4.49,0.625 -9.05,1.25 -13.69,1.875 -17.54,13.1446 -42.44,32.918 -74.65,59.3166 V 94.0625 c 0,-5.6445 0.2,-11.5312 0.62,-17.6641 0.22,-4.2304 0.54,-6.8086 0.98,-7.7343 0.21,-0.4414 0.57,-0.793 1.09,-1.0664 0.52,-0.2735 1.43,-0.4493 2.73,-0.5664 3.52,-0.2735 6.1,-0.4102 7.73,-0.4102 0.32,0 0.86,0.0312 1.62,0.0898 v -4.375 c -10.31,0 -16.17,0 -17.59,0 -5.3,0 -12.49,-0.1093 -21.56,-0.3125 v 4.6875" /><path
         id="path52"
         style="fill:#004655;fill-opacity:1;fill-rule:nonzero;stroke:none"
         d="M 1025.5,633.145 C 965.074,767.941 829.309,860.559 682.199,861.848 532.785,865.5 389.102,775.723 326.676,642.883 L 303.07,583.957 c 0,0 -1.453,18.652 -0.773,23.387 3.195,125.207 70.547,239.621 182.957,302.89 C 585.82,972.559 742.359,970.5 842.082,906.965 944.281,848.723 1001.7,739.387 1025.5,633.145" /></g></g></svg>