<?xml version="1.0" encoding="UTF-8" standalone="no"?>
<svg
   xmlns:dc="http://purl.org/dc/elements/1.1/"
   xmlns:cc="http://creativecommons.org/ns#"
   xmlns:rdf="http://www.w3.org/1999/02/22-rdf-syntax-ns#"
   xmlns:svg="http://www.w3.org/2000/svg"
   xmlns="http://www.w3.org/2000/svg"
   viewBox="0 0 589.33331 193.33333"
   height="193.33333"
   width="589.33331"
   xml:space="preserve"
   id="svg2"
   version="1.1"><metadata
     id="metadata8"><rdf:RDF><cc:Work
         rdf:about=""><dc:format>image/svg+xml</dc:format><dc:type
           rdf:resource="http://purl.org/dc/dcmitype/StillImage" /></cc:Work></rdf:RDF></metadata><defs
     id="defs6"><clipPath
       id="clipPath18"
       clipPathUnits="userSpaceOnUse"><path
         id="path16"
         d="M 0,145 H 442 V 0 H 0 Z" /></clipPath></defs><g
     transform="matrix(1.3333333,0,0,-1.3333333,0,193.33333)"
     id="g10"><g
       id="g12"><g
         clip-path="url(#clipPath18)"
         id="g14"><g
           transform="translate(308.5312,47.3818)"
           id="g20"><path
             id="path22"
             style="fill:#ffffff;fill-opacity:1;fill-rule:evenodd;stroke:none"
             d="m 0,0 c 0,-0.58 -0.001,-1.011 0,-1.441 0.009,-4.16 -0.034,-8.321 0.04,-12.479 0.077,-4.341 2.44,-7.202 6.631,-8.274 3.45,-0.882 6.568,-0.207 9.405,1.9 0.32,0.239 0.645,0.473 1.199,0.88 v -3.066 h 12.051 c -1.548,0.695 -1.989,2.007 -2.131,3.496 -0.052,0.556 -0.084,1.116 -0.085,1.674 -0.005,6.92 -0.002,13.84 -0.006,20.76 0,0.459 -0.045,0.918 -0.075,1.453 C 22.94,4.731 19.005,4.567 15.07,4.402 c 1.88,-0.886 2.126,-2.495 2.148,-4.126 0.053,-3.919 0.049,-7.839 -0.007,-11.758 -0.013,-0.943 -0.199,-1.921 -0.511,-2.811 -0.458,-1.313 -1.472,-2.058 -2.895,-2.162 -2.338,-0.17 -3.778,1.269 -3.789,3.881 -0.025,5.36 -0.008,10.72 -0.009,16.08 v 1.356 c -0.509,0.026 -0.9,0.062 -1.289,0.062 -8.84,0.003 -17.68,0.008 -26.52,-0.001 -3.124,-0.003 -6.141,-0.502 -8.841,-2.2 -5.086,-3.199 -5.872,-9.648 -1.614,-13.874 1.215,-1.205 2.732,-2.106 4.061,-3.11 -0.79,-0.231 -1.716,-0.469 -2.619,-0.773 -0.908,-0.304 -1.329,-0.948 -1.241,-1.935 0.289,-3.256 2.511,-5.424 5.788,-5.595 0.758,-0.039 1.527,0.056 2.278,-0.024 1.854,-0.196 3.757,-0.259 5.536,-0.751 1.622,-0.45 2.442,-1.84 2.496,-3.586 0.058,-1.846 -0.738,-3.187 -2.431,-3.894 -2.216,-0.926 -4.501,-1.08 -6.79,-0.246 -1.368,0.499 -2.531,1.3 -2.884,2.804 -0.349,1.476 0.306,2.587 1.802,3.381 -2.76,0.402 -5.265,0.545 -7.636,-0.631 -3.461,-1.715 -3.878,-5.716 -0.747,-7.95 1.279,-0.913 2.769,-1.619 4.262,-2.123 4.146,-1.4 8.443,-1.181 12.713,-0.811 3.017,0.262 5.925,1.009 8.438,2.808 4.983,3.57 4.632,10.818 -0.722,13.793 -1.263,0.701 -2.745,1.229 -4.172,1.366 -2.776,0.268 -5.586,0.186 -8.38,0.283 -0.952,0.033 -2.179,0.01 -2.258,1.253 -0.083,1.309 1.176,1.124 2.045,1.243 3.306,0.453 6.546,1.152 9.475,2.83 4.512,2.585 5.582,7.723 2.527,11.913 -0.176,0.24 -0.343,0.489 -0.579,0.827 0.342,0.037 0.533,0.076 0.725,0.076 C -4.453,0.001 -2.335,0 0,0" /></g><g
           transform="translate(218.2285,45.0718)"
           id="g24"><path
             id="path26"
             style="fill:#ffffff;fill-opacity:1;fill-rule:evenodd;stroke:none"
             d="M 0,0 C 2.1,0.567 4.073,1.2 6.091,1.616 7.795,1.968 9.539,1.905 11.057,0.857 12.498,-0.139 12.539,-1.77 11.055,-2.682 10.159,-3.231 9.087,-3.527 8.061,-3.82 5.417,-4.574 2.671,-5.047 0.123,-6.037 c -2.734,-1.063 -4.27,-3.307 -4.385,-6.324 -0.115,-3.021 1.868,-5.553 5.219,-6.873 2.992,-1.178 6.118,-1.026 9.233,-0.995 0.21,0.002 0.527,0.116 0.61,0.274 0.649,1.244 1.255,2.511 1.825,3.672 -1.362,0.184 -2.646,0.151 -3.776,0.552 -2.558,0.905 -3.112,3.957 -1.092,5.699 1.333,1.149 3.014,1.469 4.811,1.82 0,-1.324 -10e-4,-2.478 0,-3.632 0.006,-4.515 2.271,-7.316 6.679,-8.172 0.897,-0.174 1.828,-0.219 2.744,-0.222 5.88,-0.019 11.759,-0.01 17.639,-0.01 h 1.273 c -1.849,1.011 -2.211,2.658 -2.221,4.439 -0.028,4.08 -0.012,8.159 -0.004,12.239 0.001,0.397 0.045,0.799 0.113,1.191 0.397,2.291 1.994,3.611 4.154,3.452 1.996,-0.147 2.938,-1.365 2.946,-3.891 0.013,-4.44 0.004,-8.879 0.004,-13.319 v -4.024 h 12.132 c -1.81,1.161 -2.294,2.029 -2.37,4.125 -0.014,0.4 -0.01,0.8 -0.01,1.2 -10e-4,4.44 0.041,8.879 -0.016,13.318 -0.06,4.589 -2.629,7.595 -7.091,8.51 C 45.322,7.651 42.44,6.92 39.816,5.01 39.51,4.787 39.203,4.562 38.738,4.222 38.689,5.305 38.649,6.195 38.604,7.208 34.547,7.042 30.588,6.881 26.63,6.72 c 2.013,-0.905 2.141,-2.665 2.153,-4.393 0.039,-5.8 0.016,-11.599 0.011,-17.398 0,-0.344 -0.055,-0.687 -0.081,-1.003 -4.095,-0.752 -6.375,1.13 -6.395,5.16 -0.011,2.68 -0.03,5.359 -0.069,8.039 C 22.174,2.22 19.923,5.169 15.015,6.534 10.901,7.676 6.777,7.386 2.676,6.445 2.357,6.372 1.964,6.029 1.857,5.725 1.203,3.843 0.62,1.937 0,0" /></g><g
           transform="translate(369.9346,51.7949)"
           id="g28"><path
             id="path30"
             style="fill:#ffffff;fill-opacity:1;fill-rule:evenodd;stroke:none"
             d="m 0,0 c 1.587,-0.727 1.965,-2.081 2.13,-3.563 0.039,-0.357 0.034,-0.719 0.033,-1.079 -0.005,-5.68 -0.011,-11.36 -0.022,-17.04 -10e-4,-0.382 -0.045,-0.764 -0.068,-1.117 -4.281,-0.759 -6.481,1.077 -6.515,5.276 -0.024,2.879 -0.02,5.761 -0.165,8.635 -0.189,3.709 -1.688,6.637 -5.346,8.084 -4.696,1.858 -9.476,1.576 -14.275,0.504 -0.26,-0.058 -0.588,-0.332 -0.672,-0.578 -0.661,-1.951 -1.27,-3.919 -1.884,-5.851 2.057,0.561 4.028,1.186 6.04,1.617 1.621,0.346 3.279,0.287 4.775,-0.597 1.719,-1.017 1.791,-2.811 0.087,-3.809 -0.843,-0.492 -1.836,-0.766 -2.793,-1.017 -2.238,-0.587 -4.541,-0.963 -6.737,-1.673 -3.694,-1.197 -5.686,-3.866 -5.637,-7.187 0.046,-3.046 2.164,-5.506 5.739,-6.749 2.83,-0.983 5.754,-0.828 8.668,-0.809 0.241,0.002 0.601,0.145 0.7,0.332 0.64,1.211 1.224,2.454 1.79,3.609 -1.369,0.185 -2.623,0.212 -3.787,0.549 -1.33,0.385 -2.07,1.457 -2.26,2.84 -0.183,1.329 0.355,2.467 1.455,3.072 1.362,0.747 2.885,1.203 4.569,1.877 0,-1.871 -0.056,-3.346 0.012,-4.815 0.147,-3.177 1.641,-5.518 4.657,-6.624 1.361,-0.499 2.87,-0.8 4.319,-0.821 6.158,-0.087 12.319,-0.038 18.478,-0.033 0.313,0 0.626,0.048 0.938,0.074 -1.877,0.845 -2.118,2.477 -2.147,4.091 -0.07,3.919 -0.089,7.841 -0.002,11.759 0.063,2.845 1.761,4.596 4.601,4.904 1.06,0.115 2.143,0.019 3.362,0.019 0,1.891 -0.039,3.762 0.018,5.63 0.025,0.835 -0.297,1.135 -1.083,1.191 -2.54,0.182 -4.64,-0.611 -6.201,-2.678 -0.169,-0.224 -0.367,-0.427 -0.796,-0.92 V 0.484 C 7.887,0.319 3.943,0.16 0,0" /></g><g
           transform="translate(409.2051,50.5811)"
           id="g32"><path
             id="path34"
             style="fill:#ffffff;fill-opacity:1;fill-rule:evenodd;stroke:none"
             d="m 0,0 c -0.212,0.009 -0.257,-0.001 -0.289,0.014 -0.357,0.177 -0.71,0.361 -1.066,0.537 -4.146,2.044 -8.134,1.732 -11.892,-0.92 -6.567,-4.637 -7.496,-15.856 -1.882,-21.78 2.734,-2.884 5.984,-4.341 9.98,-3.904 0.6,0.066 1.434,0.205 1.713,0.615 0.931,1.363 1.659,2.866 2.501,4.382 -4.112,0.032 -6.061,1.545 -7.092,5.409 -0.675,2.528 -0.662,5.081 0.027,7.586 0.269,0.972 0.753,1.973 1.402,2.735 1.86,2.179 5.09,1.64 6.136,-1.021 0.383,-0.974 0.511,-2.1 0.523,-3.159 0.051,-4.958 0.021,-9.917 0.025,-14.876 0,-0.422 0.035,-0.844 0.055,-1.276 h 12.241 c -1.344,0.484 -1.872,1.523 -2.083,2.772 -0.111,0.666 -0.158,1.349 -0.159,2.025 -0.017,11.037 -0.022,22.074 -0.029,33.111 -0.001,0.46 0,0.921 0,1.456 -4.2,-0.172 -8.2,-0.336 -12.199,-0.5 1.442,-0.69 2.03,-1.868 2.063,-3.239 C 0.052,6.664 0,3.357 0,0" /></g><g
           transform="translate(181.8647,64.2764)"
           id="g36"><path
             id="path38"
             style="fill:#ffffff;fill-opacity:1;fill-rule:evenodd;stroke:none"
             d="m 0,0 c -0.023,-0.097 -0.046,-0.192 -0.069,-0.289 1.881,-0.953 2.645,-2.696 3.3,-4.525 2.976,-8.313 6.026,-16.6 8.915,-24.943 2.071,-5.982 6.826,-8.371 12.488,-9.829 4.464,13.18 8.919,26.336 13.383,39.517 H 27.451 c 2.799,-1.96 3.165,-3.075 2.173,-6.234 -1.089,-3.468 -2.184,-6.935 -3.272,-10.405 -1.156,-3.686 -2.307,-7.374 -3.575,-11.426 -0.283,0.766 -0.453,1.193 -0.6,1.626 -2.879,8.473 -5.766,16.944 -8.613,25.428 C 13.293,-0.273 12.95,0.043 12.063,0.023 9.264,-0.04 6.463,0 3.664,0 Z" /></g><g
           transform="translate(294.0205,42.4521)"
           id="g40"><path
             id="path42"
             style="fill:#c41130;fill-opacity:1;fill-rule:evenodd;stroke:none"
             d="m 0,0 c -0.27,0.947 -0.407,2.09 -0.904,3.047 -1.02,1.961 -3.668,2.171 -5.031,0.513 -1.332,-1.622 -1.495,-5.426 -0.279,-7.156 0.74,-1.052 1.754,-1.609 3.072,-1.48 1.307,0.127 2.119,0.917 2.499,2.098 C -0.353,-2.079 -0.235,-1.125 0,0 M 14.511,4.93 C 12.176,4.93 10.058,4.931 7.94,4.927 7.749,4.926 7.558,4.888 7.216,4.851 7.452,4.512 7.619,4.264 7.795,4.023 10.85,-0.167 9.779,-5.305 5.268,-7.889 c -2.929,-1.678 -6.169,-2.377 -9.475,-2.83 -0.869,-0.119 -2.128,0.066 -2.045,-1.243 0.079,-1.243 1.306,-1.22 2.258,-1.253 2.794,-0.098 5.603,-0.015 8.38,-0.283 1.426,-0.137 2.909,-0.666 4.172,-1.367 5.354,-2.974 5.705,-10.222 0.721,-13.792 -2.512,-1.8 -5.421,-2.547 -8.437,-2.808 -4.271,-0.37 -8.568,-0.59 -12.713,0.81 -1.493,0.505 -2.983,1.211 -4.262,2.123 -3.132,2.235 -2.715,6.236 0.746,7.951 2.371,1.175 4.877,1.033 7.637,0.63 -1.496,-0.793 -2.151,-1.904 -1.803,-3.38 0.354,-1.504 1.517,-2.305 2.885,-2.804 2.289,-0.834 4.573,-0.68 6.79,0.245 1.692,0.707 2.488,2.049 2.431,3.894 -0.054,1.746 -0.874,3.137 -2.496,3.586 -1.78,0.493 -3.682,0.556 -5.536,0.752 -0.751,0.079 -1.52,-0.015 -2.278,0.024 -3.277,0.171 -5.499,2.339 -5.788,5.595 -0.088,0.986 0.333,1.631 1.24,1.935 0.904,0.303 1.829,0.542 2.619,0.772 -1.329,1.004 -2.845,1.905 -4.06,3.11 -4.258,4.226 -3.472,10.676 1.614,13.875 2.699,1.698 5.717,2.197 8.841,2.2 8.84,0.009 17.68,0.004 26.52,10e-4 0.389,0 0.78,-0.037 1.289,-0.062 V 8.436 c 10e-4,-5.36 -0.016,-10.72 0.008,-16.08 0.012,-2.612 1.452,-4.051 3.789,-3.881 1.423,0.104 2.438,0.849 2.896,2.161 0.311,0.891 0.498,1.869 0.511,2.811 0.055,3.919 0.059,7.84 0.007,11.759 -0.022,1.631 -0.268,3.24 -2.148,4.126 3.935,0.165 7.87,0.329 11.959,0.501 0.029,-0.536 0.074,-0.995 0.074,-1.454 0.005,-6.919 0.002,-13.839 0.007,-20.759 10e-4,-0.558 0.032,-1.119 0.085,-1.675 0.142,-1.488 0.583,-2.8 2.131,-3.496 H 31.786 v 3.067 c -0.555,-0.407 -0.879,-0.641 -1.199,-0.88 -2.837,-2.108 -5.955,-2.782 -9.405,-1.9 -4.191,1.072 -6.554,3.932 -6.631,8.273 -0.074,4.159 -0.031,8.32 -0.04,12.479 -10e-4,0.431 0,0.862 0,1.442" /></g><g
           transform="translate(218.2285,45.0718)"
           id="g44"><path
             id="path46"
             style="fill:#c41130;fill-opacity:1;fill-rule:evenodd;stroke:none"
             d="m 0,0 c 0.62,1.937 1.203,3.843 1.857,5.725 0.107,0.304 0.5,0.647 0.819,0.72 4.101,0.941 8.225,1.231 12.339,0.089 4.908,-1.365 7.159,-4.314 7.234,-9.409 0.039,-2.68 0.058,-5.359 0.069,-8.039 0.02,-4.03 2.3,-5.912 6.395,-5.16 0.026,0.316 0.081,0.659 0.081,1.003 0.005,5.799 0.028,11.598 -0.011,17.398 -0.012,1.728 -0.14,3.488 -2.153,4.393 3.958,0.161 7.917,0.322 11.974,0.488 0.045,-1.013 0.085,-1.903 0.134,-2.986 0.465,0.34 0.772,0.565 1.078,0.788 2.624,1.91 5.506,2.641 8.724,1.982 4.462,-0.915 7.031,-3.921 7.091,-8.51 0.057,-4.439 0.015,-8.878 0.016,-13.318 0,-0.4 -0.004,-0.8 0.01,-1.2 0.076,-2.096 0.56,-2.964 2.37,-4.125 H 45.895 v 4.024 c 0,4.44 0.009,8.879 -0.004,13.319 -0.008,2.526 -0.95,3.744 -2.946,3.891 -2.16,0.159 -3.757,-1.161 -4.154,-3.452 -0.068,-0.392 -0.112,-0.794 -0.113,-1.191 -0.008,-4.08 -0.024,-8.159 0.004,-12.239 0.01,-1.781 0.372,-3.428 2.221,-4.439 H 39.63 c -5.88,0 -11.759,-0.009 -17.639,0.01 -0.916,0.003 -1.847,0.048 -2.744,0.222 -4.408,0.856 -6.673,3.657 -6.679,8.172 -10e-4,1.154 0,2.308 0,3.632 -1.797,-0.351 -3.478,-0.671 -4.811,-1.82 -2.02,-1.742 -1.466,-4.794 1.092,-5.699 1.13,-0.401 2.414,-0.368 3.776,-0.552 -0.57,-1.161 -1.176,-2.428 -1.825,-3.672 -0.083,-0.158 -0.4,-0.272 -0.61,-0.274 -3.115,-0.031 -6.241,-0.183 -9.233,0.995 -3.351,1.32 -5.334,3.852 -5.219,6.873 0.115,3.017 1.651,5.261 4.385,6.324 2.548,0.99 5.294,1.463 7.938,2.217 1.026,0.293 2.098,0.589 2.994,1.138 1.484,0.912 1.443,2.543 0.002,3.539 C 9.539,1.905 7.795,1.968 6.091,1.616 4.073,1.2 2.1,0.567 0,0" /></g><g
           transform="translate(369.9346,51.7949)"
           id="g48"><path
             id="path50"
             style="fill:#c41130;fill-opacity:1;fill-rule:evenodd;stroke:none"
             d="m 0,0 c 3.943,0.16 7.887,0.319 11.981,0.484 v -3.381 c 0.429,0.493 0.627,0.696 0.796,0.92 1.561,2.067 3.661,2.86 6.201,2.678 0.786,-0.056 1.108,-0.356 1.083,-1.191 -0.057,-1.868 -0.018,-3.739 -0.018,-5.63 -1.219,0 -2.302,0.096 -3.362,-0.019 -2.84,-0.308 -4.538,-2.059 -4.601,-4.904 -0.087,-3.918 -0.068,-7.84 0.002,-11.759 0.029,-1.614 0.27,-3.246 2.147,-4.091 -0.312,-0.026 -0.625,-0.074 -0.938,-0.074 -6.159,-0.005 -12.32,-0.054 -18.478,0.033 -1.449,0.021 -2.958,0.322 -4.319,0.821 -3.016,1.106 -4.51,3.447 -4.657,6.624 -0.068,1.469 -0.012,2.944 -0.012,4.815 -1.684,-0.674 -3.207,-1.13 -4.569,-1.877 -1.1,-0.605 -1.638,-1.743 -1.455,-3.072 0.19,-1.383 0.93,-2.455 2.26,-2.84 1.164,-0.337 2.418,-0.364 3.787,-0.549 -0.566,-1.155 -1.15,-2.398 -1.79,-3.609 -0.099,-0.187 -0.459,-0.33 -0.7,-0.332 -2.914,-0.019 -5.838,-0.174 -8.668,0.809 -3.575,1.243 -5.693,3.703 -5.739,6.749 -0.049,3.321 1.943,5.99 5.637,7.187 2.196,0.71 4.499,1.086 6.737,1.673 0.957,0.251 1.95,0.525 2.793,1.017 1.704,0.998 1.632,2.792 -0.087,3.809 -1.496,0.884 -3.154,0.943 -4.775,0.597 -2.012,-0.431 -3.983,-1.056 -6.04,-1.617 0.614,1.932 1.223,3.9 1.884,5.851 0.084,0.246 0.412,0.52 0.672,0.578 4.799,1.072 9.579,1.354 14.275,-0.504 3.658,-1.447 5.157,-4.375 5.346,-8.084 0.145,-2.874 0.141,-5.756 0.165,-8.635 0.034,-4.199 2.234,-6.035 6.515,-5.276 0.023,0.353 0.067,0.735 0.068,1.117 0.011,5.68 0.017,11.36 0.022,17.04 0.001,0.36 0.006,0.722 -0.033,1.079 C 1.965,-2.081 1.587,-0.727 0,0" /></g><g
           transform="translate(409.2051,50.5811)"
           id="g52"><path
             id="path54"
             style="fill:#c41130;fill-opacity:1;fill-rule:evenodd;stroke:none"
             d="m 0,0 c 0,3.357 0.052,6.664 -0.025,9.967 -0.033,1.371 -0.621,2.549 -2.063,3.239 3.999,0.164 7.999,0.328 12.199,0.5 0,-0.535 -0.001,-0.996 0,-1.456 0.007,-11.037 0.012,-22.074 0.029,-33.111 10e-4,-0.676 0.048,-1.359 0.159,-2.025 0.211,-1.249 0.739,-2.288 2.083,-2.772 H 0.141 c -0.02,0.432 -0.055,0.854 -0.055,1.276 -0.004,4.959 0.026,9.918 -0.025,14.876 -0.012,1.059 -0.14,2.185 -0.523,3.159 -1.046,2.661 -4.276,3.2 -6.136,1.021 -0.649,-0.762 -1.133,-1.763 -1.402,-2.735 -0.689,-2.505 -0.702,-5.058 -0.027,-7.586 1.031,-3.864 2.98,-5.377 7.092,-5.409 -0.842,-1.516 -1.57,-3.019 -2.501,-4.382 -0.279,-0.41 -1.113,-0.549 -1.713,-0.615 -3.996,-0.437 -7.246,1.02 -9.98,3.904 -5.614,5.924 -4.685,17.143 1.882,21.78 3.758,2.652 7.746,2.964 11.892,0.92 0.356,-0.176 0.709,-0.36 1.066,-0.537 C -0.257,-0.001 -0.212,0.009 0,0" /></g><g
           transform="translate(181.8647,64.2764)"
           id="g56"><path
             id="path58"
             style="fill:#c41130;fill-opacity:1;fill-rule:evenodd;stroke:none"
             d="m 0,0 h 3.664 c 2.799,0 5.6,-0.04 8.399,0.023 0.887,0.02 1.23,-0.296 1.501,-1.103 2.847,-8.484 5.734,-16.955 8.613,-25.428 0.147,-0.433 0.317,-0.86 0.6,-1.626 1.268,4.052 2.419,7.74 3.575,11.426 1.088,3.47 2.183,6.937 3.272,10.405 0.992,3.159 0.626,4.274 -2.173,6.234 h 10.566 c -4.464,-13.181 -8.919,-26.337 -13.383,-39.517 -5.662,1.458 -10.417,3.847 -12.488,9.829 -2.889,8.343 -5.939,16.63 -8.915,24.943 -0.655,1.829 -1.419,3.572 -3.3,4.525 C -0.046,-0.192 -0.023,-0.097 0,0" /></g><g
           transform="translate(294.0205,42.4521)"
           id="g60"><path
             id="path62"
             style="fill:#ffffff;fill-opacity:1;fill-rule:evenodd;stroke:none"
             d="m 0,0 c -0.235,-1.125 -0.353,-2.079 -0.643,-2.978 -0.38,-1.181 -1.192,-1.971 -2.499,-2.098 -1.318,-0.129 -2.332,0.428 -3.072,1.48 -1.216,1.73 -1.053,5.534 0.279,7.156 1.363,1.658 4.011,1.448 5.031,-0.513 C -0.407,2.09 -0.27,0.947 0,0" /></g><g
           transform="translate(426.9805,56.6401)"
           id="g64"><path
             id="path66"
             style="fill:#c41130;fill-opacity:1;fill-rule:evenodd;stroke:none"
             d="m 0,0 c -2.102,0 -3.805,1.703 -3.805,3.805 0,2.101 1.703,3.804 3.805,3.804 2.102,0 3.805,-1.703 3.805,-3.804 C 3.805,1.703 2.102,0 0,0 m 0,8.239 c -2.449,0 -4.435,-1.986 -4.435,-4.434 0,-2.45 1.986,-4.435 4.435,-4.435 2.449,0 4.435,1.985 4.435,4.435 0,2.448 -1.986,4.434 -4.435,4.434" /></g><g
           transform="translate(425.7646,60.6758)"
           id="g68"><path
             id="path70"
             style="fill:#c41130;fill-opacity:1;fill-rule:nonzero;stroke:none"
             d="m 0,0 h 1.122 c 0.238,0 0.425,0.025 0.56,0.074 0.134,0.05 0.236,0.128 0.306,0.237 0.071,0.108 0.106,0.226 0.106,0.354 0,0.186 -0.069,0.339 -0.203,0.46 -0.136,0.12 -0.35,0.18 -0.642,0.18 H 0 Z M -0.521,-2.203 V 1.741 H 1.227 C 1.578,1.741 1.846,1.705 2.028,1.634 2.212,1.563 2.357,1.438 2.467,1.259 2.576,1.08 2.631,0.881 2.631,0.665 2.631,0.385 2.541,0.149 2.359,-0.043 2.179,-0.235 1.898,-0.357 1.521,-0.409 1.658,-0.475 1.764,-0.541 1.835,-0.605 1.987,-0.745 2.132,-0.92 2.269,-1.13 L 2.954,-2.203 H 2.298 l -0.523,0.82 C 1.623,-1.146 1.498,-0.965 1.399,-0.839 1.301,-0.714 1.212,-0.626 1.135,-0.576 1.057,-0.525 0.977,-0.491 0.896,-0.471 0.837,-0.458 0.74,-0.452 0.605,-0.452 H 0 v -1.751 z" /></g><g
           transform="translate(69.0498,107.9888)"
           id="g72"><path
             id="path74"
             style="fill:#231f20;fill-opacity:1;fill-rule:evenodd;stroke:none"
             d="m 0,0 c 1.66,-1.038 1.953,-1.023 2.392,0 z m -38.091,-64.848 c -1.719,0.694 -1.726,0.692 -1.902,-0.46 0.664,0.161 1.283,0.31 1.902,0.46 m -5.275,-3.071 c -0.135,-0.123 -0.271,-0.245 -0.407,-0.367 0.314,-0.43 0.037,-1.439 1.48,-1.098 -0.442,0.604 -0.757,1.035 -1.073,1.465 m -1.701,-0.004 c -0.135,-0.12 -0.269,-0.241 -0.404,-0.362 0.281,-0.464 0.029,-1.446 1.462,-1.104 -0.432,0.598 -0.745,1.032 -1.058,1.466 m 91.491,-7.247 c 0.402,1.531 0.402,1.531 -1.16,1.473 0.431,-0.547 0.719,-0.912 1.16,-1.473 M -5.549,0.007 c -0.036,-0.167 -0.072,-0.334 -0.108,-0.5 0.509,-0.099 1.019,-0.272 1.527,-0.266 0.263,0.003 0.523,0.322 0.784,0.498 -0.045,0.09 -0.089,0.178 -0.133,0.268 z m 0.915,-54.32 c -0.674,-0.415 -1.191,-0.733 -1.708,-1.051 0.054,-0.103 0.108,-0.206 0.161,-0.309 h 1.547 z m -26.912,9.718 h 2.114 c -0.739,0.507 -1.236,0.848 -1.855,1.272 -0.108,-0.528 -0.181,-0.888 -0.259,-1.272 m 29.749,18.223 c -0.001,0.103 -0.002,0.207 -0.003,0.31 h -3.07 c 0.002,-0.103 0.004,-0.207 0.007,-0.31 z m 4.68,26.34 C 2.81,-0.133 2.737,-0.234 2.664,-0.336 2.98,-0.492 3.296,-0.772 3.613,-0.773 c 0.461,-0.003 0.922,0.196 1.383,0.309 -0.03,0.144 -0.06,0.288 -0.09,0.432 z m -49.63,-67.9 c -0.137,-0.103 -0.274,-0.205 -0.411,-0.308 0.229,-0.518 -0.054,-1.486 1.367,-1.163 -0.367,0.564 -0.661,1.018 -0.956,1.471 m 42.506,31.463 c -0.73,0.56 -1.209,0.927 -1.788,1.372 -0.119,-0.549 -0.202,-0.925 -0.299,-1.372 z m 40.525,1.694 c -0.139,0.098 -0.28,0.195 -0.42,0.294 -0.215,-0.478 -0.43,-0.956 -0.728,-1.615 1.523,-0.128 1.039,0.79 1.148,1.321 m -50.051,-22.942 c -0.439,0.522 -0.806,0.959 -1.349,1.606 v -2.03 c 0.447,0.141 0.811,0.255 1.349,0.424 m 9.453,21.869 v 1.449 h -1.872 c 0.76,-0.588 1.238,-0.958 1.872,-1.449 m -23.633,5.305 c 0.181,-0.171 0.363,-0.342 0.544,-0.513 0.274,0.269 0.636,0.498 0.783,0.824 0.067,0.149 -0.287,0.489 -0.45,0.743 -0.292,-0.351 -0.584,-0.703 -0.877,-1.054 m 4.4,-2.728 c 1.038,-0.983 1.661,-0.963 2.39,0 z m 7.898,-12.584 c -0.033,0.153 -0.066,0.305 -0.099,0.458 -0.502,0 -1.01,0.047 -1.502,-0.024 -0.181,-0.027 -0.323,-0.33 -0.482,-0.508 0.163,-0.136 0.353,-0.411 0.485,-0.386 0.542,0.104 1.067,0.298 1.598,0.46 m 53.251,22.046 c 1.311,-0.358 1.202,0.32 1.155,0.852 -0.022,0.251 -0.233,0.487 -0.358,0.729 -0.25,-0.495 -0.499,-0.99 -0.797,-1.581 m -66.387,-9.86 c -0.033,0.195 -0.068,0.391 -0.102,0.586 -0.721,-0.09 -1.442,-0.18 -2.162,-0.271 0.03,-0.217 0.061,-0.436 0.091,-0.653 0.725,0.112 1.449,0.225 2.173,0.338 m 64.893,-6.448 v 1.174 h -1.356 c -0.057,-0.407 -0.106,-0.747 -0.166,-1.174 z m -42.472,15.049 c -0.716,0.648 -1.251,1.131 -1.843,1.667 -0.306,-1.102 0.416,-1.769 1.843,-1.667 m -7.089,0.623 c 2.036,-0.011 1.288,1.566 1.676,2.397 -0.505,-0.723 -1.01,-1.445 -1.676,-2.397 M -27.074,-47.24 v -2.369 c 0.526,0.967 0.872,1.605 1.287,2.369 z m 23.056,42.156 c -0.1,-0.566 -0.171,-0.967 -0.284,-1.604 0.736,0.291 1.275,0.504 1.814,0.717 -10e-4,0.125 -0.002,0.249 -0.003,0.374 -0.47,0.158 -0.94,0.316 -1.527,0.513 M -9.17,-32.152 c 0.531,-0.378 0.889,-0.632 1.339,-0.952 0.173,0.798 0.309,1.427 0.512,2.366 -0.739,-0.564 -1.219,-0.931 -1.851,-1.414 m -2.427,1.312 c -0.569,0.423 -0.991,0.737 -1.548,1.151 -0.167,-0.703 -0.289,-1.213 -0.458,-1.917 0.754,0.287 1.291,0.492 2.006,0.766 m 6.032,42.233 c 1.908,-0.964 2.591,-0.956 2.968,0 z m -24.17,-54.621 c 0.087,0.429 0.168,0.832 0.258,1.277 -0.53,0.138 -0.972,0.251 -1.419,0.367 -0.171,-1.024 -0.171,-1.024 1.161,-1.644 m -10.273,-2.165 c -0.038,-0.133 -0.076,-0.266 -0.115,-0.399 0.476,-0.183 0.94,-0.425 1.432,-0.518 0.199,-0.037 0.459,0.256 0.691,0.398 -0.199,0.173 -0.379,0.458 -0.601,0.496 -0.457,0.078 -0.937,0.023 -1.407,0.023 m 11.752,13.214 c 0.079,-0.111 0.157,-0.221 0.235,-0.331 h 1.339 c 0.084,0.097 0.169,0.196 0.253,0.294 -0.269,0.29 -0.589,0.851 -0.797,0.812 -0.378,-0.071 -0.69,-0.497 -1.03,-0.775 m 60.431,-23.259 c 1.671,-0.008 1.179,1.154 1.56,2.022 -1.369,-0.165 -1.133,-1.197 -1.56,-2.022 m -8.654,7.522 c 0.129,0.093 0.259,0.187 0.389,0.279 v 1.389 h -1.582 c 0.531,-0.742 0.862,-1.205 1.193,-1.668 m -44.91,-22.32 h 1.427 c 0.073,0.116 0.148,0.233 0.222,0.349 -0.294,0.241 -0.556,0.617 -0.887,0.695 -0.781,0.182 -0.986,-0.265 -0.762,-1.044 m 85.387,9.927 c 0.42,0.25 0.718,0.428 1.095,0.653 -0.235,0.408 -0.442,0.766 -0.685,1.189 -0.418,-0.193 -0.752,-0.348 -1.14,-0.528 0.254,-0.458 0.46,-0.827 0.73,-1.314 M -37.231,-70.538 c 0.315,1.098 0.091,1.515 -0.677,1.347 -0.277,-0.06 -0.491,-0.41 -0.735,-0.628 0.441,-0.224 0.881,-0.448 1.412,-0.719 m 11.731,0.269 c -0.142,0.446 -0.162,0.934 -0.352,1.013 -0.33,0.136 -0.813,0.121 -1.134,-0.033 -0.173,-0.084 -0.144,-0.588 -0.222,-0.98 z m -10.092,8.519 c -0.764,-0.748 -1.836,-0.733 -1.643,-1.947 0.406,-0.035 0.783,-0.068 1.212,-0.104 0.132,0.63 0.245,1.165 0.431,2.051 m 74.719,35.215 c -0.521,0.729 -0.852,1.192 -1.182,1.656 -0.105,-0.051 -0.209,-0.102 -0.313,-0.153 -0.081,-0.479 -0.162,-0.958 -0.255,-1.503 z m -40.907,9.668 c -1.485,0.173 -1.083,-0.834 -1.232,-1.568 h 1.232 z m 26.246,-31.67 c -0.32,-1.331 0.467,-1.266 1.294,-1.257 0.084,0.447 0.154,0.821 0.235,1.257 z m -55.854,-21.728 v 1.009 c -1.554,0.163 -1.554,0.163 -1.392,-1.009 z m 65.032,1.792 c 0.707,-0.636 1.245,-1.119 1.929,-1.735 v 1.735 z m 2.133,12.562 c -1.318,-0.141 -0.665,-1.256 -1.041,-1.841 1.24,-0.229 1.303,-0.116 1.041,1.841 M -25.152,-7.14 c 0,-0.099 0.001,-0.198 0.002,-0.297 h 3.101 c -0.001,0.099 -0.002,0.198 -0.004,0.297 z m 0.007,-37.502 c 0.056,0.107 0.112,0.215 0.167,0.323 -0.486,0.287 -0.947,0.694 -1.47,0.802 -0.217,0.045 -0.566,-0.554 -0.854,-0.86 0.07,-0.088 0.14,-0.177 0.21,-0.265 z m 58.161,-25.823 h 2.183 c -0.723,0.619 -1.261,1.08 -1.949,1.669 -0.093,-0.666 -0.162,-1.153 -0.234,-1.669 m -43.074,41.193 c -0.078,0.074 -0.155,0.148 -0.233,0.223 -0.647,-0.171 -1.294,-0.342 -1.942,-0.513 l -0.072,-0.289 c 0.493,-0.223 1.007,-0.645 1.472,-0.597 0.296,0.031 0.519,0.76 0.775,1.176 m 45.06,21.435 c -0.038,-0.17 -0.077,-0.339 -0.115,-0.508 0.537,-0.104 1.074,-0.281 1.611,-0.28 0.253,10e-4 0.507,0.343 0.76,0.53 -0.046,0.086 -0.092,0.172 -0.138,0.258 z M 32.38,-53.525 c -1.568,0.108 -1.287,-1.13 -1.771,-1.856 1.697,-0.293 1.267,1.068 1.771,1.856 m 0.798,-4.253 c 1.239,-0.193 1.442,0.146 1.173,1.881 -1.372,-0.064 -0.856,-1.202 -1.173,-1.881 m -76.731,-8.701 c 1.864,-0.777 2.538,-0.625 2.665,0.521 -0.914,-0.179 -1.789,-0.35 -2.665,-0.521 m 80.096,28.127 c -0.355,0.755 -0.598,1.27 -0.84,1.785 -0.336,-0.517 -0.673,-1.035 -1.16,-1.785 z m 8.617,30.467 h -2.589 c 0.725,-1.033 1.599,-1.053 2.589,0 m -9.76,-34.15 c -2.753,-0.21 -2.901,-0.312 -2.701,-1.762 0.844,0.55 1.652,1.077 2.701,1.762 m -7.63,-1.149 c -0.127,-0.583 -0.23,-1.051 -0.34,-1.552 h 2.244 c -0.459,0.397 -0.747,0.656 -1.047,0.902 -0.239,0.196 -0.492,0.375 -0.857,0.65 m -54.523,36.812 c 1.051,0.057 1.249,0.975 0.851,3.681 -0.318,-1.374 -0.572,-2.474 -0.851,-3.681 m 21.931,-5.601 c 1.327,0.606 2.388,1.382 2.202,3.163 -0.79,-1.135 -1.496,-2.149 -2.202,-3.163 M -8.037,-53.8 c -0.106,-0.547 -0.203,-1.049 -0.319,-1.654 1.782,0.622 1.782,0.622 1.669,1.654 z m -22.295,0.014 c -1.743,-0.002 -1.241,-1.124 -1.478,-1.905 1.832,-0.297 1.016,1.094 1.478,1.905 m 63.195,-14.085 c 0.077,0.751 0.129,1.265 0.183,1.791 h -2.201 c 0.761,-0.675 1.297,-1.15 2.018,-1.791 m -61.787,12.151 v 2.036 c -0.438,-0.161 -0.969,-0.206 -1.04,-0.412 -0.171,-0.485 -0.122,-1.046 -0.166,-1.624 z m 67.944,45.078 c -0.305,0.565 -0.58,1.43 -0.795,1.415 -1.102,-0.075 -0.636,-1.043 -0.909,-1.797 0.57,0.128 0.972,0.218 1.704,0.382 m -7.59,-47.123 c 1.327,-0.272 1.491,-0.07 1.53,1.815 -1.559,0.226 -1.054,-1.167 -1.53,-1.815 m -60.564,-5.089 c -0.831,-0.532 -1.408,-0.901 -1.985,-1.27 0.614,-0.208 1.227,-0.416 1.985,-0.672 z m -3.945,21.688 c 0.208,1.011 0.373,1.811 0.537,2.611 -0.065,0.047 -0.13,0.094 -0.195,0.14 -0.54,-0.605 -1.079,-1.21 -1.665,-1.867 0.399,-0.267 0.783,-0.523 1.323,-0.884 m 71.746,10.857 c 0.015,0.103 0.029,0.206 0.043,0.31 h -3.172 c -0.002,-0.104 -0.003,-0.207 -0.006,-0.31 z m -68.298,-4.248 c -1.735,0.118 -1.949,-0.205 -1.821,-2.217 0.615,0.749 1.124,1.369 1.821,2.217 M -6.4,-43.119 c -0.225,-1.664 0.375,-2.103 2.274,-1.714 -0.814,0.613 -1.452,1.094 -2.274,1.714 m -11.97,-4.481 -0.192,0.076 c -0.546,-0.604 -1.092,-1.209 -1.686,-1.866 0.31,-0.354 0.581,-0.665 0.977,-1.119 0.335,1.08 0.618,1.995 0.901,2.909 m 56.668,7.494 c 0.622,1.028 0.397,2.153 0.182,3.283 -0.697,-1.01 -0.411,-2.149 -0.182,-3.283 m -2.413,-11.297 c -1.511,0.361 -1.349,-0.683 -1.49,-1.569 h 1.49 z m -6.296,-6.386 c 1.857,-0.431 1.523,0.973 1.931,1.796 -1.659,0.399 -1.428,-0.973 -1.931,-1.796 m 22.039,9.423 c -1.312,-0.059 -2.625,-0.118 -4.02,-0.18 0.856,-0.994 2.26,-0.892 4.02,0.18 m -66.172,20.362 c 0.376,-0.284 0.727,-0.549 1.116,-0.844 0.692,2.019 0.692,2.019 -0.187,2.457 -0.272,-0.473 -0.546,-0.949 -0.929,-1.613 m -18.489,-32.368 c 0.072,-0.093 0.142,-0.187 0.213,-0.28 h 1.605 c 0.067,0.596 0.131,1.157 0.194,1.719 l -0.242,0.142 c -0.59,-0.527 -1.179,-1.054 -1.77,-1.581 m 21.894,34.394 c 0.198,-0.835 0.891,-1.272 1.737,-1.017 0.326,0.099 0.555,0.519 0.828,0.792 -0.08,0.076 -0.16,0.151 -0.24,0.225 z m 1.362,-4.157 c 1.122,0.593 2.064,1.09 3.006,1.587 -2.472,0.018 -2.814,-0.176 -3.006,-1.587 m 5.542,-2.085 c -1.613,0.495 -1.312,-0.697 -1.513,-1.556 h 1.513 z m -12.278,-26.288 c 0.109,-0.043 0.217,-0.085 0.325,-0.127 0.153,0.27 0.451,0.551 0.434,0.81 -0.062,0.917 0.431,1.95 -0.571,2.722 -0.062,-1.135 -0.125,-2.27 -0.188,-3.405 m -9.54,48.515 c -0.272,-1.306 -0.543,-2.611 -0.823,-3.959 1.064,0.115 1.064,0.115 0.823,3.959 m 15.641,-29.985 c -0.548,0.417 -0.998,0.76 -1.549,1.179 -0.205,-0.928 -0.363,-1.646 -0.573,-2.595 0.81,0.54 1.421,0.948 2.122,1.416 m 72.938,-19.308 c -0.654,-0.409 -1.168,-0.732 -1.661,-1.041 0.751,-1.316 1.504,-0.878 2.343,-0.221 -0.214,0.397 -0.415,0.769 -0.682,1.262 M -3.219,7.373 c 0.858,1.085 1.502,1.899 2.195,2.776 -1.619,0.207 -1.619,0.207 -2.195,-2.776 m -6.56,-60.57 c 1.583,-0.189 1.659,-0.099 1.67,1.785 -1.556,0.365 -1.236,-0.975 -1.67,-1.785 m 7.08,54.287 c 0.116,-0.087 0.23,-0.175 0.345,-0.262 h 1.49 v 2.33 C -1.63,2.294 -2.165,1.692 -2.699,1.09 m -30.199,-43.475 c -0.146,-0.799 -0.275,-1.508 -0.415,-2.276 h 1.193 c 0.346,0.935 0.77,1.842 -0.778,2.276 m 39.162,16.422 c -0.307,-0.87 0.266,-1.074 0.837,-1.058 0.679,0.019 1.556,-0.097 1.7,1.058 z M -5.485,-8.98 c -0.969,-0.574 -2.562,-0.363 -2.696,-2.313 1.057,0.787 2.284,1.036 2.696,2.313 m -2.001,-42.416 c -0.127,-0.628 -0.247,-1.223 -0.39,-1.929 0.576,0.025 0.992,0.044 1.464,0.066 0.063,0.679 0.117,1.253 0.174,1.863 z m 64.71,-19.213 c 0.063,-0.083 0.127,-0.167 0.191,-0.25 1.178,0.894 2.355,1.788 3.719,2.824 -2.286,0.161 -2.768,-1.635 -3.91,-2.574 m -61.791,17.354 v 1.829 h -1.211 c -0.049,-0.645 -0.092,-1.215 -0.138,-1.829 z m 30.975,-12.129 c 0.068,-0.106 0.135,-0.211 0.202,-0.316 0.625,0.175 1.251,0.35 1.876,0.525 -0.365,0.536 -0.73,1.073 -1.237,1.819 -0.372,-0.896 -0.606,-1.462 -0.841,-2.028 m 14.296,55.041 c 1.236,0.328 2.367,0.628 3.498,0.928 l -0.045,0.212 H 40.704 Z M 4.143,11.337 H 0.057 c 0.745,-0.815 3.076,-0.845 4.086,0 m 24.95,-41.182 c 0.61,-1.046 1.823,-1.435 2.441,-0.968 0.154,0.117 0.284,0.411 0.251,0.591 -0.029,0.151 -0.306,0.348 -0.485,0.36 -0.657,0.043 -1.319,0.017 -2.207,0.017 m -25.3,-11.926 c -1.408,0.827 -2.816,1.654 -4.224,2.48 -0.053,-0.092 -0.105,-0.185 -0.157,-0.278 1.488,-0.728 2.297,-2.621 4.381,-2.202 m -22.745,-5.526 h -3.106 c 0.583,-0.674 1.015,-1.174 1.511,-1.748 0.559,0.613 1.033,1.132 1.595,1.748 m 68.069,17.453 c -0.854,0 -1.511,0.026 -2.161,-0.018 -0.171,-0.011 -0.435,-0.22 -0.462,-0.372 -0.032,-0.18 0.093,-0.47 0.246,-0.584 0.627,-0.466 1.836,-0.069 2.377,0.974 M 32.569,-60.392 h 1.339 c 0.063,0.381 0.122,0.689 0.163,1 0.041,0.301 0.064,0.604 0.095,0.903 -1.257,0.17 -1.257,0.17 -1.597,-1.903 m -42.783,57.894 c 0.075,-0.069 0.15,-0.139 0.225,-0.209 0.873,0.494 1.747,0.987 2.702,1.526 -0.563,0.376 -0.955,0.637 -1.43,0.954 -0.511,-0.774 -1.004,-1.523 -1.497,-2.271 m 50.231,-27.347 c 0.586,-1.077 1.314,-1.478 2.267,-1.056 0.201,0.089 0.374,0.382 0.423,0.611 0.024,0.114 -0.252,0.415 -0.404,0.424 -0.761,0.045 -1.524,0.021 -2.286,0.021 m -9.019,-20.853 c 1.71,-0.023 1.391,1.352 1.989,2.129 h -1.556 c -0.14,-0.691 -0.266,-1.306 -0.433,-2.129 m -63.308,-7.446 c 1.51,-0.191 1.745,0.149 1.377,1.878 -1.184,0.054 -1.184,0.054 -1.377,-1.878 m 56.907,17.64 v -2.253 c 0.754,0.035 1.501,0.069 2.586,0.119 -0.975,0.805 -1.664,1.373 -2.586,2.134 m -50.93,-8.956 c 1.234,0.761 2.278,1.405 3.508,2.164 -2.507,0.266 -2.616,0.198 -3.508,-2.164 m -11.639,-17.626 c 1.362,-0.284 1.663,0.121 1.509,2.027 -1.423,-0.163 -1.47,-0.227 -1.509,-2.027 m 48.751,21.815 c -1.3,-0.114 -2.394,-0.211 -3.573,-0.315 1.37,-1.608 1.591,-1.591 3.573,0.315 m -25.757,8.164 c -0.037,0.009 -0.074,0.019 -0.111,0.028 -0.354,-1.355 -0.709,-2.71 -1.097,-4.19 0.454,0.026 0.783,0.045 1.208,0.069 z m 50.767,-23.309 v 1.973 c -1.261,0.084 -1.403,-0.152 -1.23,-1.973 z m -74.029,-5.162 c -1.892,0.04 -2.114,-0.114 -2.084,-1.458 0.563,-0.037 1.133,-0.075 1.748,-0.116 0.126,0.591 0.229,1.073 0.336,1.574 m 71.956,4.595 c -1.521,0.118 -1.596,0.028 -1.659,-1.879 1.644,-0.233 1.7,-0.172 1.659,1.879 M -0.243,-25.99 c 0.286,-1.274 1.143,-1.296 2.014,-1.041 0.333,0.097 0.562,0.551 1.027,1.041 z m -11.11,-32.127 c 1.941,-0.368 2.249,-0.112 2.044,1.734 -0.777,-0.491 -2.009,-0.367 -2.044,-1.734 m -9.367,12.685 c -0.075,-1.41 0.876,-1.18 1.607,-1.164 0.687,0.015 1.234,0.247 0.939,1.164 z M 32.515,-58.48 c -1.429,0.185 -1.55,0.049 -1.837,-1.939 h 1.337 c 0.164,0.636 0.32,1.241 0.5,1.939 m -67.094,26.108 c 0.064,-0.135 0.128,-0.272 0.192,-0.408 0.455,0.24 1.148,0.374 1.315,0.744 0.346,0.77 0.413,1.666 0.594,2.51 -0.085,0.065 -0.171,0.129 -0.258,0.193 -0.06,-0.149 -0.099,-0.312 -0.183,-0.446 -0.548,-0.867 -1.105,-1.729 -1.66,-2.593 m 31.367,13.364 c -0.074,-0.622 -0.14,-1.176 -0.205,-1.727 h 1.616 v 1.727 z m 48.029,-52.648 c 1.299,0.707 2.459,1.339 3.808,2.073 -2.365,0.135 -3.623,-0.294 -3.808,-2.073 m -16.225,34.434 c -1.141,-0.828 -2.104,-1.528 -3.231,-2.347 2.787,0.034 2.918,0.127 3.231,2.347 m 10.074,8.214 v 1.873 c -1.487,0.188 -1.618,0.011 -1.443,-1.873 z m -49.189,-26.645 c 1.71,-0.228 1.71,-0.228 1.932,1.757 -1.467,0.259 -1.467,0.259 -1.932,-1.757 m 47.618,46.39 c -1.48,0.17 -1.661,-0.06 -1.631,-1.965 1.477,0.029 1.49,0.044 1.631,1.965 M 39.839,3.081 V 7.454 C 39.43,6.368 39.192,5.249 38.883,4.149 38.67,3.392 38.961,3.111 39.839,3.081 M -5.187,-7.391 c -2.215,-0.112 -2.215,-0.112 -2.407,-1.786 1.789,0.43 2.372,0.863 2.407,1.786 m 33.658,-52.996 c 1.768,-0.153 1.819,-0.101 2.128,1.949 -1.76,0.54 -1.539,-1.031 -2.128,-1.949 m -64.686,15.258 c -0.587,-0.286 -1.025,-0.498 -1.462,-0.711 0.457,-0.265 0.905,-0.718 1.374,-0.74 0.435,-0.021 0.893,0.417 1.341,0.654 -0.396,0.251 -0.791,0.503 -1.253,0.797 m -9.721,-18.501 c 0.071,-0.958 0.136,-1.844 0.199,-2.698 1.085,-0.085 1.274,0.41 1.079,1.179 -0.165,0.651 0.347,1.792 -1.278,1.519 m 75.792,0.81 c 1.637,-0.34 1.733,-0.252 1.922,1.769 -1.526,0.289 -1.56,0.258 -1.922,-1.769 m -52.327,17.659 c -0.539,-0.264 -1,-0.489 -1.461,-0.715 0.46,-0.253 0.93,-0.721 1.379,-0.704 0.505,0.021 0.992,0.481 1.487,0.749 -0.438,0.209 -0.876,0.418 -1.405,0.67 m 15.082,30.259 c -2.075,-0.556 -2.581,-1.988 -2.756,-3.987 0.991,1.433 1.823,2.638 2.756,3.987 M 34.773,2.75 h 3.328 c 0.025,0.11 0.05,0.219 0.076,0.329 C 37.413,3.433 36.649,3.787 35.832,4.166 35.475,3.688 35.169,3.279 34.773,2.75 m -52.361,-66.483 c -0.077,0 -0.154,-0.001 -0.232,-0.001 -0.392,-1.523 -0.785,-3.045 -1.178,-4.568 0.089,-0.087 0.177,-0.174 0.266,-0.261 0.271,0.228 0.743,0.429 0.778,0.688 0.183,1.373 0.255,2.76 0.366,4.142 m 12.087,51.615 c 1.093,1.526 2.13,2.974 3.168,4.423 -1.317,-1.239 -3.417,-1.897 -3.168,-4.423 m 0.162,-13.861 h -2.942 c -0.089,-1.305 0.853,-1.131 1.539,-1.131 0.654,0 1.552,-0.125 1.403,1.131 M 66.939,-61.71 c -0.642,-0.36 -1.232,-0.69 -1.869,-1.046 0.318,-0.605 0.569,-1.082 0.806,-1.534 1.344,0.473 1.331,1.406 1.063,2.58 m -73.815,31.976 c -0.1,0.128 -0.2,0.256 -0.3,0.384 -0.85,-0.393 -1.723,-0.748 -2.537,-1.207 -0.211,-0.119 -0.296,-0.558 -0.317,-0.859 -0.006,-0.082 0.539,-0.347 0.647,-0.27 0.861,0.616 1.677,1.293 2.507,1.952 m -17.497,-15.749 h -2.781 c -0.046,-1.29 0.863,-1.14 1.553,-1.125 0.623,0.014 1.465,-0.03 1.228,1.125 m -4.159,-0.258 c -0.071,0.115 -0.142,0.23 -0.213,0.345 -0.744,0 -1.493,0.044 -2.229,-0.034 -0.171,-0.018 -0.297,-0.459 -0.443,-0.705 0.663,-0.147 1.326,-0.398 1.987,-0.393 0.301,10e-4 0.599,0.509 0.898,0.787 m 58.294,-15.276 c -1.633,0.235 -1.844,0.051 -2.129,-1.854 1.746,-0.225 1.783,-0.193 2.129,1.854 m -64.373,15.564 c -0.181,-1.165 0.655,-1.154 1.323,-1.158 0.698,-0.005 1.627,-0.138 1.462,1.158 z m 25.005,-13.202 c -0.623,0 -1.11,0.072 -1.556,-0.031 -0.219,-0.051 -0.557,-0.569 -0.511,-0.633 0.395,-0.535 0.866,-1.015 1.545,-1.766 0.223,1.039 0.357,1.666 0.522,2.43 m 43.625,-4.246 h 1.691 v 1.894 h -1.408 c -0.096,-0.64 -0.178,-1.187 -0.283,-1.894 m -8.876,22.702 c 0.922,-0.712 1.605,-1.239 2.428,-1.874 0.188,0.884 0.33,1.555 0.502,2.367 -0.97,-0.163 -1.775,-0.298 -2.93,-0.493 M -7.377,-61.248 H -9.69 c 0.43,-1.417 1.02,-1.879 2.096,-1.679 0.069,0.529 0.138,1.071 0.217,1.679 M 44.775,-74.52 c 0.615,1.403 -0.85,1.859 -1.024,2.906 -1.13,-1.186 -0.785,-2.125 1.024,-2.906 m -6.691,38.22 c 0.118,-0.018 0.235,-0.036 0.353,-0.054 0.664,1.114 0.183,2.43 0.294,3.637 0.036,0.38 -0.146,0.78 -0.228,1.172 -0.139,-0.028 -0.279,-0.056 -0.419,-0.084 z m -68.883,-24.893 c -0.082,-0.664 -0.156,-1.258 -0.237,-1.909 2.149,0.379 2.149,0.379 1.9,1.909 z m 59.291,12.608 c -2.125,0.237 -2.242,0.153 -2.098,-1.47 0.545,-0.072 1.108,-0.147 1.707,-0.226 0.145,0.629 0.258,1.118 0.391,1.696 m 2.792,-14.879 c -0.974,0.068 -1.951,0.36 -2.019,-0.884 -0.045,-0.813 0.645,-1.131 1.519,-1.194 0.158,0.662 0.311,1.296 0.5,2.078 m -28.42,37.505 c -0.185,-1.27 0.733,-1.158 1.423,-1.152 0.708,0.006 1.671,-0.168 1.594,1.152 z m 29.498,-8.082 c 0.788,0.847 2.126,0.954 2.112,2.395 -1.939,0.206 -2.083,0.049 -2.112,-2.395 m -2.383,-8.774 c 0.161,-0.589 0.21,-1.11 0.453,-1.514 0.114,-0.189 0.803,-0.304 0.885,-0.194 0.408,0.546 0.7,1.178 1.178,2.044 -0.993,-0.132 -1.569,-0.209 -2.516,-0.336 M 1.396,10.208 C 1.369,10.132 1.341,10.058 1.314,9.983 2.141,9.563 2.967,9.144 3.842,8.7 4.266,9.35 4.61,9.877 4.965,10.42 3.67,10.343 2.533,10.275 1.396,10.208 M -46.72,-63.394 c -0.776,0.112 -1.421,0.205 -2.405,0.347 0.875,-1.141 1.546,-2.017 2.405,-3.138 z m 2.987,-2.407 c 1.038,0.505 1.968,0.958 2.899,1.411 -0.022,0.084 -0.045,0.169 -0.067,0.253 -0.982,0.11 -1.964,0.219 -3.01,0.336 0.062,-0.7 0.108,-1.214 0.178,-2 m 57.099,22.385 H 9.433 c 0.347,-0.539 0.482,-1.008 0.779,-1.161 0.807,-0.414 2.285,0.135 3.154,1.161 m 22.505,-10.191 c -1.806,0.28 -1.857,0.234 -2.004,-1.625 h 2.004 z m -56.79,47.176 c -0.568,0.77 -0.995,1.348 -1.497,2.027 -0.617,-0.705 -1.132,-1.293 -1.775,-2.027 z m 65.682,-23.21 c -0.031,-0.066 -0.062,-0.132 -0.092,-0.198 -0.198,0 -0.414,0.053 -0.588,-0.011 -0.344,-0.126 -0.663,-0.316 -0.993,-0.48 0.306,-0.233 0.596,-0.493 0.924,-0.689 0.155,-0.092 0.416,-0.138 0.574,-0.073 0.526,0.219 1.027,0.498 1.538,0.755 -0.454,0.232 -0.909,0.463 -1.363,0.696 M 32.754,-46.2 c 0.665,-0.531 1.021,-0.931 1.467,-1.136 0.4,-0.183 0.996,-0.332 1.325,-0.157 0.283,0.151 0.31,0.781 0.481,1.293 z M -29.01,-58.734 h -1.518 c -0.075,-0.65 -0.14,-1.229 -0.215,-1.881 h 1.733 z m 63.406,20.439 c -0.141,0.062 -0.282,0.124 -0.423,0.187 -0.872,-1.063 -0.767,-2.444 -1.124,-3.863 0.909,0.199 1.584,0.346 2.502,0.546 -1.105,0.258 -2.144,0.303 -1.226,1.645 0.259,0.38 0.189,0.984 0.271,1.485 M 34.13,-51.443 c -1.886,0.401 -1.904,0.39 -2.385,-1.461 2.119,-0.375 2.179,-0.338 2.385,1.461 m 0.997,21.6 c -0.85,0 -1.642,0.046 -2.421,-0.031 -0.207,-0.02 -0.376,-0.418 -0.563,-0.641 0.609,-0.187 1.212,-0.495 1.829,-0.524 0.561,-0.026 1.359,0.004 1.155,1.196 M -0.736,7.814 c -0.059,0.011 -0.118,0.021 -0.177,0.031 -0.399,-1.69 -0.798,-3.379 -1.198,-5.068 0.093,-0.049 0.186,-0.098 0.278,-0.146 0.366,0.439 0.991,0.849 1.046,1.325 0.148,1.271 0.051,2.57 0.051,3.858 m -2.855,-29.062 c -0.114,-0.646 -0.207,-1.178 -0.313,-1.777 h 2.068 v 1.777 z m -25.68,-14.002 c -0.912,-1.707 -1.022,-3.613 -1.242,-5.492 1.007,1.682 1.06,3.603 1.242,5.492 m 0.752,-0.198 c -0.038,0.007 -0.077,0.015 -0.115,0.023 -0.308,-1.736 -0.616,-3.471 -0.925,-5.206 0.1,-0.084 0.2,-0.168 0.3,-0.252 0.246,0.241 0.697,0.473 0.707,0.724 0.066,1.568 0.033,3.14 0.033,4.711 m 64.158,6.605 c 0.082,-0.1 0.164,-0.199 0.246,-0.299 0.255,0.178 0.65,0.302 0.74,0.542 0.561,1.48 0.526,3.62 -0.089,4.067 -0.305,-1.467 -0.601,-2.888 -0.897,-4.31 M -15.84,-43.465 h -3.926 c 0.85,-0.972 2.458,-1.55 3.283,-1.14 0.273,0.136 0.369,0.629 0.643,1.14 m 43.879,-24.582 c 0.971,0.235 2.058,-0.626 2.365,0.897 0.124,0.609 0.054,1.016 -0.63,1.14 -1.515,0.274 -1.321,-0.967 -1.735,-2.037 m -63.803,3.212 c -0.182,-0.878 -0.338,-1.629 -0.518,-2.495 0.611,-0.028 1.062,-0.048 1.573,-0.071 0.138,0.833 0.257,1.553 0.384,2.321 -0.516,0.087 -0.899,0.153 -1.439,0.245 m 31.053,6.631 v 1.949 h -1.594 c -0.089,-0.651 -0.173,-1.261 -0.267,-1.949 z m 24.031,14.413 c 0.035,-0.109 0.071,-0.22 0.107,-0.33 1.265,0 2.531,-0.025 3.794,0.019 0.282,0.011 0.555,0.268 0.832,0.412 -0.3,0.142 -0.596,0.397 -0.9,0.406 -0.868,0.026 -1.743,-0.01 -2.607,-0.1 -0.419,-0.044 -0.818,-0.265 -1.226,-0.407 m -21.111,20.123 c -2.251,0.364 -2.521,0.189 -2.25,-1.419 h 2.25 z m -2.584,-18.303 v 4.168 c -0.068,0.008 -0.135,0.015 -0.202,0.022 -0.453,-1.37 -0.905,-2.74 -1.384,-4.19 z m 37.566,-23.517 c 0.062,0.437 0.109,0.75 0.149,1.064 0.037,0.299 0.067,0.598 0.099,0.893 -1.82,0.27 -1.862,0.229 -2.072,-1.957 z M 0.078,-43.456 h -2.46 v -1.564 c 1.981,-0.123 2.481,0.187 2.46,1.564 m 35.59,-19.93 c -0.662,-0.036 -1.189,-0.065 -1.768,-0.097 -0.072,-0.758 -0.129,-1.367 -0.189,-2.003 h 1.957 z m -51.189,16.726 c -0.704,-1.927 -0.808,-7.309 0,-7.796 z m 8.486,-11.55 c 0.079,0.658 0.153,1.266 0.225,1.869 -1.885,0.298 -2.022,0.167 -2.047,-1.869 z m 35.998,9.672 c -0.118,-0.598 -0.234,-1.189 -0.361,-1.837 0.715,-0.1 1.286,-0.18 1.94,-0.271 0.143,0.762 0.262,1.397 0.396,2.108 z M -0.661,12.179 v 4.685 c -0.032,0.012 -0.064,0.025 -0.095,0.037 -0.415,-1.541 -0.83,-3.082 -1.272,-4.722 z m 28.76,-78.266 c -2.176,0.205 -2.277,0.131 -2.593,-1.837 2.115,-0.291 2.168,-0.255 2.593,1.837 m -3.633,19.889 v -1.595 c 1.824,-0.285 2.499,0.203 2.201,1.595 z m -36.985,4.271 h 4.641 c -0.855,0.657 -1.501,1.154 -2.153,1.655 -0.819,-0.545 -1.557,-1.036 -2.488,-1.655 m 39.763,-1.131 c -0.634,-0.043 -1.157,-0.018 -1.648,-0.131 -0.39,-0.09 -0.741,-0.35 -1.11,-0.534 0.312,-0.473 0.331,-1.092 1.213,-1.152 1.377,-0.096 1.457,0.708 1.545,1.817 m 8.369,-24.908 v 1.87 h -2.054 c -0.086,-0.656 -0.161,-1.227 -0.245,-1.87 z m -11.551,27.495 c -1.12,-0.799 -2.116,-1.508 -3.112,-2.218 l 0.103,-0.264 c 0.988,0.063 1.975,0.125 3.009,0.19 z m -1.5,-5.749 h -3.886 c 0.577,-0.941 2.169,-1.613 3.103,-1.237 0.297,0.12 0.429,0.651 0.783,1.237 m -34.999,19.166 c -0.184,-0.731 -0.351,-1.396 -0.519,-2.06 1.09,0.466 2.629,-0.148 3.194,1.448 -0.988,0.227 -1.788,0.41 -2.675,0.612 m 47.54,8.266 c -0.066,0.043 -0.132,0.087 -0.197,0.13 -0.509,-0.694 -1.02,-1.385 -1.525,-2.082 -0.963,-1.328 -0.889,-1.512 0.843,-1.955 0.293,1.304 0.586,2.606 0.879,3.907 m -63.679,-3.176 c 0.409,0.942 2.048,1.408 1.385,2.511 0.233,0.724 0.477,1.225 0.529,1.745 0.029,0.29 -0.262,0.611 -0.409,0.918 -0.196,-0.252 -0.502,-0.477 -0.568,-0.759 -0.346,-1.464 -0.631,-2.942 -0.937,-4.415 m -4.825,-41.79 c 2.118,0.437 2.276,0.649 1.954,2.537 -1.781,0.156 -1.991,-0.106 -1.954,-2.537 m 84.779,17.531 c 0.248,-0.521 0.327,-1.065 0.612,-1.215 0.846,-0.443 2.607,0.253 3.216,1.215 z m -58.704,-14.41 c 0.09,0.664 0.168,1.245 0.245,1.82 -2.028,0.409 -2.258,0.228 -2.34,-1.82 z m 0.72,1.911 c -0.076,-0.622 -0.15,-1.232 -0.231,-1.9 h 2.143 v 1.9 z m -20.131,24.227 c -0.101,-0.012 -0.202,-0.025 -0.304,-0.038 v -6.224 c 0.102,10e-4 0.203,0.003 0.304,0.004 z m 13.76,-28.48 c 2.072,-0.351 2.529,-0.247 2.556,0.724 0.01,0.359 -0.373,0.971 -0.685,1.054 -1.286,0.339 -1.514,0.074 -1.871,-1.778 m 8.221,-0.069 v 1.829 h -2.183 c -0.048,-0.628 -0.091,-1.197 -0.139,-1.829 z m 34.655,-5.499 c -2.12,0.272 -2.211,0.197 -2.439,-1.932 2.124,-0.291 2.205,-0.23 2.439,1.932 m -61.405,0.89 h 2.343 v 1.906 c -0.684,0.092 -1.333,0.178 -2.06,0.276 -0.099,-0.768 -0.184,-1.419 -0.283,-2.182 m -4.034,3.468 c 0.661,0.278 1.393,0.362 1.512,0.677 0.343,0.912 0.441,1.916 0.644,2.929 -1.769,-0.405 -1.989,-1.727 -2.156,-3.606 m 12.721,21.324 c -0.36,-0.658 -0.636,-1.161 -0.943,-1.723 h 4.254 c 0.025,0.108 0.05,0.217 0.075,0.325 -1.118,0.462 -2.236,0.923 -3.386,1.398 m -0.241,0.466 c -0.921,0.32 -1.87,1.403 -2.558,0.232 -0.689,-1.175 0.741,-1.566 1.362,-2.358 0.436,0.776 0.803,1.428 1.196,2.126 m -11.047,3.438 c 1.925,1.395 2.165,1.862 2.214,4.066 -2.439,-0.454 -1.527,-2.699 -2.214,-4.066 m 17.249,6.491 c 2.318,0.037 3.02,0.609 2.973,2.421 -2.097,-0.271 -2.346,-0.474 -2.973,-2.421 m 9.81,25.407 c 2.253,0.182 2.253,0.182 2.52,2.038 -0.62,0.153 -1.251,0.308 -1.933,0.477 C -6.669,-5.281 -6.848,-5.888 -7.01,-6.5 -7.049,-6.647 -7.033,-6.809 -7.048,-7.059 m 39.429,-63.52 c 0.106,0.74 0.202,1.404 0.299,2.079 -2.348,0.158 -2.348,0.158 -2.403,-2.028 0.309,-0.016 0.622,-0.041 0.935,-0.049 0.353,-0.008 0.706,-0.002 1.169,-0.002 M 5.393,-43.103 c -0.136,-0.153 -0.272,-0.306 -0.408,-0.459 0.194,-0.412 0.281,-1.036 0.601,-1.198 1.091,-0.552 2.227,-0.462 3.347,0.405 -1.181,0.417 -2.36,0.834 -3.54,1.252 m -7.324,15.433 c -0.596,-0.346 -0.84,-4.315 -0.419,-6.817 0.67,0.432 0.952,5.013 0.419,6.817 m -8.148,11.242 c -1.171,-0.675 -2.081,-1.198 -3.123,-1.798 0.721,-0.658 1.342,-1.224 2.118,-1.932 0.344,1.279 0.636,2.361 1.005,3.73 m -21.889,-51.204 c 0.078,0.842 0.142,1.528 0.211,2.268 -0.769,0.087 -1.378,0.156 -2.058,0.234 -0.144,-0.82 -0.266,-1.505 -0.405,-2.299 0.758,-0.069 1.413,-0.128 2.252,-0.203 m 70.874,56.029 c -0.161,0.181 -0.323,0.361 -0.484,0.541 -0.463,-0.35 -1.176,-0.61 -1.339,-1.067 -0.419,-1.175 -0.595,-2.437 -0.896,-3.793 1.738,1.718 2.082,2.453 1.797,3.388 0.351,0.355 0.636,0.643 0.922,0.931 M -4.791,-65.689 v 2.077 h -2.387 c -0.146,-1.565 0.728,-2.321 2.387,-2.077 m 29.178,-4.799 c 2.37,-0.262 2.573,-0.117 2.821,1.945 -2.143,0.312 -2.27,0.227 -2.821,-1.945 m -59.033,29.34 c -0.271,-1.209 -0.518,-2.309 -0.797,-3.55 0.745,0.121 1.465,-0.43 1.763,0.633 0.59,2.106 0.617,2.098 -0.966,2.917 m 30.188,-4.497 c -0.158,0.028 -0.315,0.056 -0.474,0.083 -0.475,-1.692 -0.525,-3.46 -0.539,-5.352 0.431,0.138 0.959,0.385 0.974,0.659 0.081,1.533 0.039,3.073 0.039,4.61 m -23.831,34.554 c -0.065,0.032 -0.13,0.065 -0.196,0.098 -1.055,-1.149 -2.109,-2.297 -3.353,-3.651 0.975,0.102 1.649,0.129 2.301,0.265 0.24,0.049 0.552,0.318 0.617,0.548 0.257,0.9 0.428,1.825 0.631,2.74 m 20.701,-22.978 c -0.335,-1.522 -0.656,-2.984 -1.04,-4.735 0.764,0.5 1.283,0.84 1.529,1.001 0.159,0.726 0.234,1.172 0.356,1.605 0.236,0.838 0.506,1.67 -0.845,2.129 m -3.1,-31.741 c 0.768,0 1.434,0.029 2.096,-0.007 0.794,-0.043 0.964,0.616 0.741,0.991 -0.318,0.536 -0.902,1.042 -1.485,1.261 -0.862,0.323 -1.023,-0.417 -1.122,-1.082 -0.051,-0.343 -0.133,-0.682 -0.23,-1.163 m -0.621,31.675 c -0.076,0.054 -0.152,0.109 -0.228,0.164 -0.915,-0.713 -1.829,-1.425 -2.835,-2.209 0.798,-0.586 1.45,-1.065 2.204,-1.618 0.317,1.354 0.588,2.508 0.859,3.663 m -12.385,1.768 c 0.016,-0.057 0.032,-0.114 0.049,-0.171 h 5.66 c 0.064,0.09 0.127,0.18 0.191,0.27 -0.441,0.343 -0.933,1.025 -1.313,0.968 -1.548,-0.233 -3.061,-0.692 -4.587,-1.067 m 16.899,28.356 c 0.241,0.963 0.454,1.813 0.668,2.664 -0.082,0.064 -0.164,0.128 -0.246,0.192 -1.157,-0.666 -2.314,-1.332 -3.683,-2.12 1.21,-0.273 2.138,-0.482 3.261,-0.736 m -21.698,-10.016 c 0.114,-0.109 0.228,-0.217 0.342,-0.325 0.3,0.255 0.79,0.461 0.869,0.772 0.394,1.546 0.679,3.121 1.046,4.892 -1.977,-1.469 -1.653,-3.584 -2.257,-5.339 m 57.347,-24.918 c 2.034,0.181 2.305,0.579 2.419,3.503 -1.526,-0.639 -2.499,-1.662 -2.419,-3.503 M -51.62,-59.367 c -0.942,-0.767 -1.765,-1.439 -2.77,-2.258 1.551,-0.185 2.791,-0.333 4.197,-0.501 -0.509,0.983 -0.925,1.789 -1.427,2.759 m 75.544,9.368 c -0.184,0.009 -0.368,0.018 -0.551,0.027 -0.141,-3.188 -0.28,-6.376 -0.42,-9.564 0.179,-0.006 0.357,-0.011 0.536,-0.017 0.145,3.184 0.29,6.369 0.435,9.554 m -43.007,35.132 c -0.664,0.548 -1.151,1.282 -1.595,1.256 -1.448,-0.086 -2.882,-0.443 -4.316,-0.72 -0.085,-0.016 -0.128,-0.249 -0.264,-0.536 z m 8.494,-30.757 c -0.462,0.027 -0.775,0.057 -1.089,0.061 -0.594,0.009 -1.188,0.003 -1.745,0.003 -0.608,-1.517 -0.433,-1.697 2.272,-2.4 0.174,0.727 0.349,1.453 0.562,2.336 m 2.607,46.368 c 0.788,0 1.272,-0.071 1.72,0.024 0.318,0.066 0.764,0.298 0.849,0.557 0.382,1.159 0.655,2.354 1.033,3.784 C -4.748,4.717 -4.948,4.529 -5.119,4.317 -6.011,3.211 -6.897,2.099 -7.982,0.744 m 43.879,-34.843 c 0.123,0.006 0.245,0.012 0.367,0.017 0.033,0.719 0.065,1.436 0.107,2.349 -2.68,-1.435 -1.808,-3.979 -2.426,-5.947 1.214,1.083 0.781,2.784 1.47,4.133 0.202,-0.232 0.342,-0.391 0.482,-0.552 m 3.85,-8.22 c -0.443,-0.931 -2.331,-0.648 -1.607,-2.3 h 4.181 c -0.926,0.827 -1.666,1.489 -2.574,2.3 m 27.291,-21.777 c -1.408,-1.071 -2.621,-1.994 -3.834,-2.917 l 0.095,-0.233 c 1.235,0.146 2.469,0.292 3.739,0.442 z M 39.683,-0.864 c -0.052,0.018 -0.104,0.037 -0.157,0.055 -0.448,-2.06 -0.897,-4.12 -1.375,-6.318 0.631,0.032 1.044,0.053 1.532,0.079 z M -2.432,-52.883 c 1.458,0.728 2.746,1.37 4.033,2.012 -0.019,0.075 -0.039,0.15 -0.058,0.225 -1.307,0.117 -2.614,0.234 -3.975,0.356 z m 38.294,2.086 c 0.114,0.853 -0.883,2.281 -1.737,2.265 -1.408,-0.028 -0.979,-1.425 -1.667,-2.265 z M 32,-44.751 h 4.058 v 2.587 c -1.347,-0.858 -2.57,-1.638 -4.058,-2.587 m -42.693,-18.902 c -2.606,0.363 -2.786,0.242 -3.213,-2.093 h 2.735 c 0.163,0.713 0.312,1.368 0.478,2.093 m 41.108,24.392 c -1.98,-0.184 -2.368,-0.715 -2.306,-3.157 1.969,-0.121 2.164,0.147 2.306,3.157 m -67.542,-12.817 c 1.103,1.489 2.658,2.697 2.691,5.049 -0.636,-0.221 -1.506,-0.285 -1.611,-0.602 -0.478,-1.444 -0.74,-2.958 -1.08,-4.447 m 39.84,20.767 c -0.978,0.881 -1.844,1.662 -2.81,2.532 v -4.388 c 1.017,0.672 1.86,1.229 2.81,1.856 M 2.501,6.983 C 1.726,7.888 1.045,8.683 0.271,9.587 V 4.595 c 0.834,0.893 1.481,1.586 2.23,2.388 m 40.717,-41.365 c -1.116,0.869 -2.084,1.622 -3.139,2.443 v -3.77 c 1.071,0.453 2.007,0.848 3.139,1.327 m -54.516,-9.019 c 0.299,-0.594 0.468,-1.313 0.708,-1.338 1.074,-0.108 2.176,-0.079 3.248,0.057 0.19,0.024 0.283,0.798 0.44,1.281 z m -4.546,-0.003 c 0.25,-0.561 0.386,-1.243 0.593,-1.265 1.102,-0.118 2.228,-0.131 3.33,-0.024 0.195,0.019 0.319,0.778 0.511,1.289 z m 17.27,1.439 c 0.041,0.097 0.083,0.195 0.124,0.292 -1.37,0.432 -1.946,2.582 -3.957,1.708 v -2 z m -31.735,5.605 c -1.587,-1.091 -1.576,-1.15 -2.197,-4.099 -0.188,-0.895 0.029,-1.354 1.006,-1.576 0.393,1.87 0.782,3.723 1.191,5.675 m 30.614,-7.022 c 0.283,-0.589 0.454,-1.336 0.684,-1.355 1.113,-0.092 2.248,-0.038 3.358,0.1 0.176,0.022 0.266,0.738 0.462,1.331 -1.419,0 -2.534,0.002 -3.648,-0.002 -0.157,-10e-4 -0.312,-0.025 -0.856,-0.074 m -2.064,41.993 c -1.491,0.133 -1.848,-0.494 -1.999,-3.32 0.63,-0.13 1.271,-0.262 1.999,-0.412 z m -33.337,-39.725 c -0.072,0.033 -0.145,0.066 -0.217,0.098 -1.149,-1.209 -2.299,-2.418 -3.506,-3.689 0.783,0 1.568,-0.048 2.34,0.028 0.25,0.025 0.603,0.337 0.676,0.587 0.286,0.977 0.479,1.982 0.707,2.976 M -4.329,-4.59 c 0.259,1.142 0.483,2.13 0.706,3.117 -2.057,0.438 -2.223,0.269 -2.641,-2.639 0.588,-0.145 1.185,-0.293 1.935,-0.478 m -20.163,4.149 c -0.051,-0.073 -0.102,-0.146 -0.153,-0.219 0.749,-0.993 1.497,-1.986 2.294,-3.047 0.724,0.793 1.347,1.475 2.1,2.3 -1.57,0.357 -2.905,0.662 -4.241,0.966 m 12.727,-24.135 c 1.088,0.489 2.24,-0.591 2.869,0.748 0.412,0.876 -0.243,1.684 -1.992,2.633 -0.268,-1.034 -0.532,-2.053 -0.877,-3.381 M 37.74,-46.147 c 0.342,-0.688 0.51,-1.417 0.751,-1.442 1.036,-0.109 2.098,-0.055 3.138,0.059 0.167,0.018 0.344,0.635 0.36,0.983 0.005,0.122 -0.452,0.371 -0.706,0.381 -1.032,0.044 -2.068,0.019 -3.543,0.019 m -45.442,0.513 h -2.432 c -0.187,-0.833 -0.375,-1.666 -0.579,-2.575 0.712,-0.204 1.305,-0.374 1.961,-0.562 0.366,1.092 0.691,2.065 1.05,3.137 m 54.5,-0.516 c 0.297,-0.641 0.451,-1.375 0.681,-1.399 1.072,-0.116 2.168,-0.071 3.248,0.016 0.153,0.012 0.364,0.574 0.353,0.873 -0.006,0.178 -0.39,0.477 -0.615,0.487 -1.108,0.051 -2.219,0.023 -3.667,0.023 m -0.09,-0.079 h -4.475 c 0.309,-0.597 0.485,-1.32 0.729,-1.344 1.074,-0.103 2.173,-0.061 3.245,0.075 0.195,0.025 0.302,0.738 0.501,1.269 M 33.08,-38.59 c -2.222,-0.272 -2.394,-0.521 -2.601,-3.556 1.779,-0.128 1.825,-0.099 2.166,1.468 0.142,0.655 0.273,1.312 0.435,2.088 m -0.937,6.966 h -1.674 c -0.327,-1.405 -0.65,-2.791 -0.986,-4.23 2.139,0.707 2.569,2.316 2.66,4.23 m -5.06,-14.591 c 0.272,-0.569 0.429,-1.301 0.669,-1.329 1.061,-0.126 2.153,-0.116 3.214,0.011 0.213,0.026 0.338,0.779 0.552,1.318 z m 28.306,-21.769 c 3.209,-0.576 5.057,1.062 6.657,3.623 -2.311,-1.258 -4.419,-2.405 -6.657,-3.623 m -62.91,1.633 c -0.089,-0.966 -0.17,-1.857 -0.256,-2.796 0.857,-0.068 1.568,-0.131 2.28,-0.177 0.19,-0.013 0.383,0.023 0.562,0.036 0.257,1.603 -0.989,3.066 -2.586,2.937 m -6.964,29.307 v -4.01 c 0.506,-0.284 0.891,-0.499 1.268,-0.711 1.189,3.018 1.067,3.532 -1.268,4.721 m -1.16,-0.387 c -0.074,0.04 -0.149,0.081 -0.224,0.122 -1.119,-0.863 -2.239,-1.727 -3.421,-2.639 0.466,-0.432 0.797,-0.862 1.231,-1.111 0.542,-0.312 1.245,-0.588 1.534,0.313 0.348,1.087 0.591,2.208 0.88,3.315 M 23.25,-60.075 c -0.121,-0.028 -0.243,-0.055 -0.365,-0.083 -0.184,-3.257 -0.374,-6.514 -0.535,-9.773 -0.01,-0.202 0.219,-0.417 0.337,-0.626 0.153,0.269 0.429,0.532 0.442,0.806 0.13,2.869 0.226,5.739 0.308,8.61 0.01,0.353 -0.121,0.71 -0.187,1.066 M 36.072,4.529 c 0.803,-0.346 1.469,-0.633 2.241,-0.967 0.437,1.873 0.842,3.604 1.246,5.335 L 39.328,8.985 C 38.28,7.552 37.233,6.118 36.072,4.529 m 0.792,-28.664 0.388,0.01 c 0.255,1.654 0.509,3.308 0.763,4.962 l 0.319,-0.053 c -0.067,-0.837 -0.135,-1.674 -0.213,-2.636 0.76,0.557 0.928,7.038 0.366,7.998 -0.037,-0.513 -0.023,-1.036 -0.12,-1.538 -0.501,-2.581 -1.039,-5.155 -1.54,-7.736 -0.062,-0.321 0.021,-0.67 0.037,-1.007 M -11.43,-66.358 c -3.129,0.156 -2.781,0.576 -3.408,-2.259 3.589,-0.523 2.733,-0.541 3.408,2.259 m -18.584,59.9 c 0.887,0 1.491,-0.08 2.057,0.03 0.331,0.063 0.79,0.377 0.87,0.667 0.397,1.447 0.687,2.922 1.015,4.388 -0.314,0.005 -0.384,-0.183 -0.496,-0.339 -1.087,-1.505 -2.181,-3.006 -3.446,-4.746 m 20.809,-8.725 c 2.206,0.836 3.426,2.289 3.334,4.658 -2.533,-1.073 -2.846,-1.501 -3.334,-4.658 m 58.319,8.217 c -2.467,2.129 -4.808,4.149 -7.149,6.169 1.324,-1.886 2.855,-3.566 4.254,-5.35 0.76,-0.97 1.602,-1.141 2.895,-0.819 m -93.951,-55.62 c -0.212,2.692 -0.417,5.29 -0.622,7.889 -0.13,0.028 -0.26,0.055 -0.39,0.084 -0.165,-0.424 -0.483,-0.852 -0.47,-1.271 0.061,-1.996 0.238,-3.988 0.318,-5.984 0.032,-0.791 0.363,-0.956 1.164,-0.718 m 36.332,-6.56 c 0.182,1.02 0.34,1.909 0.502,2.815 h -2.847 c -0.162,-0.859 -0.313,-1.66 -0.487,-2.585 0.96,-0.078 1.812,-0.147 2.832,-0.23 m 42.676,35.713 c -2.55,-0.854 -2.579,-2.939 -2.878,-4.934 1.389,-0.008 2.156,0.491 2.263,1.906 0.074,0.98 0.385,1.942 0.615,3.028 m -56.838,29.391 c -0.847,1.13 -1.619,2.16 -2.475,3.303 v -5.977 c 0.954,1.029 1.675,1.809 2.475,2.674 m 59.334,0.653 c -1.144,-1.048 -2.541,-2.326 -4.071,-3.727 0.953,0 1.748,-0.069 2.52,0.034 0.308,0.041 0.721,0.417 0.815,0.724 0.344,1.123 0.573,2.281 0.736,2.969 m -51.418,-32.505 c 1.273,0.983 2.371,1.779 3.408,2.648 0.664,0.556 0.691,2.038 0.28,1.918 -1,-0.293 -2.173,-0.653 -2.793,-1.393 -0.594,-0.708 -0.579,-1.928 -0.895,-3.173 m 53.906,35.491 c -2.559,-1.786 -2.04,-4.419 -2.752,-6.663 0.538,0.023 1.263,0.106 1.33,0.363 0.523,1.976 0.919,3.985 1.422,6.3 m -57.901,-6.279 c -0.015,-0.059 -0.03,-0.119 -0.046,-0.178 1.523,-0.155 3.045,-0.319 4.57,-0.448 0.15,-0.013 0.369,0.16 0.471,0.306 0.577,0.836 1.128,1.69 1.805,2.715 -2.417,-0.851 -4.609,-1.623 -6.8,-2.395 m 2.258,-62.036 c 0.152,0.073 0.304,0.147 0.456,0.22 v 9.598 c -0.232,-0.307 -0.548,-0.533 -0.567,-0.781 -0.212,-2.75 -0.396,-5.503 -0.525,-8.257 -0.011,-0.25 0.414,-0.52 0.636,-0.78 m 48.543,45.733 c -0.068,0.053 -0.136,0.107 -0.203,0.16 -1.298,-1.774 -2.596,-3.547 -3.984,-5.444 h 2.933 c 0.428,1.805 0.841,3.544 1.254,5.284 m -59.672,-4.274 c 0.11,-0.005 0.219,-0.009 0.329,-0.013 -0.047,-0.555 -0.095,-1.109 -0.174,-2.034 0.453,0.382 0.843,0.556 0.847,0.737 0.042,2.211 0.027,4.422 0.027,6.633 -0.096,0.006 -0.191,0.011 -0.287,0.016 -0.721,-3.513 -1.443,-7.025 -2.165,-10.538 0.146,-0.031 0.293,-0.062 0.439,-0.092 0.328,1.763 0.656,3.527 0.984,5.291 m -5.093,-5.593 c 0.671,0.319 1.409,0.445 1.483,0.74 0.568,2.245 1.006,4.523 1.529,6.999 -2.152,-2.173 -2.419,-4.797 -3.012,-7.739 m 27.741,-4.72 c -1.95,-0.178 -2.951,-1.5 -4.438,-2.275 1.063,-0.777 1.949,-1.424 2.942,-2.151 0.5,1.481 0.954,2.824 1.496,4.426 m 69.246,-25.224 c -1.498,-1.654 -2.849,-3.145 -4.316,-4.765 2.541,-0.175 3.69,1.668 5.361,2.722 -0.332,0.648 -0.599,1.171 -1.045,2.043 M 32.57,-22.713 c -0.429,-1.829 -0.86,-3.662 -1.299,-5.535 0.636,-0.087 1.129,-0.155 1.681,-0.231 0.283,1.291 0.484,2.632 0.887,3.909 0.382,1.207 -0.073,1.685 -1.269,1.857 M -33.85,-35.64 c -1.645,-0.681 -3.053,-1.265 -4.649,-1.926 1.299,-0.858 2.409,-1.591 3.654,-2.414 0.337,1.469 0.635,2.768 0.995,4.34 m 79.292,6.652 c 0.043,0.12 0.085,0.241 0.128,0.363 -1.812,0.842 -3.624,1.685 -5.54,2.576 v -2.939 z M 35.16,-29.01 c 0.332,1.636 0.646,3.183 0.968,4.77 -0.561,0.257 -1.045,0.479 -1.62,0.742 -0.421,-1.905 -0.811,-3.671 -1.218,-5.512 z M 14.557,-41.081 c -0.018,-0.069 -0.037,-0.14 -0.055,-0.21 h 3.509 l 0.082,-0.287 c -0.637,-0.358 -1.273,-0.716 -2.08,-1.17 2.925,-0.757 5.013,0.184 6.863,2.145 -2.845,-0.163 -5.582,-0.32 -8.319,-0.478 M -6.85,-15.273 c -0.063,0.034 -0.127,0.068 -0.19,0.102 -1.222,-1.769 -2.443,-3.537 -3.682,-5.331 0.74,-0.674 1.378,-1.255 2.159,-1.967 0.602,2.525 1.157,4.861 1.713,7.196 m -21.089,-1.712 c -0.091,0.111 -0.181,0.221 -0.272,0.332 -0.334,-0.203 -0.901,-0.349 -0.969,-0.619 -0.716,-2.876 -1.354,-5.772 -2.069,-8.904 2.671,2.715 2.348,6.172 3.31,9.191 m 23.755,-10.676 c -2.015,-0.086 -2.171,-0.213 -2.253,-1.767 0.636,0.436 1.246,0.854 1.855,1.273 l 0.172,-0.246 c -0.224,-0.2 -0.419,-0.455 -0.676,-0.59 -1.452,-0.757 -1.96,-2.037 -2.212,-3.567 -0.148,-0.896 0.119,-1.303 0.958,-1.57 0.317,1.426 0.616,2.773 0.916,4.119 0.099,-0.022 0.199,-0.045 0.299,-0.067 -0.054,-0.49 -0.108,-0.98 -0.166,-1.512 h 1.107 z m -1.948,-23.191 c 0.208,1.802 0.402,3.482 0.636,5.52 -0.791,-0.285 -1.634,-0.337 -1.786,-0.689 -0.668,-1.537 -1.136,-3.161 -1.674,-4.748 0.909,-0.322 1.22,0.018 1.349,0.753 0.147,0.838 0.381,1.661 0.577,2.491 0.113,-0.03 0.228,-0.059 0.342,-0.089 -0.209,-1.059 -0.418,-2.119 -0.638,-3.238 z m -22.696,3.905 c -0.552,-0.306 -1.254,-0.462 -1.338,-0.781 -0.477,-1.798 -0.805,-3.637 -1.185,-5.461 0.131,-0.056 0.262,-0.111 0.392,-0.167 1.316,0.468 0.371,2.146 1.313,3.118 -0.084,-1.167 -0.15,-2.091 -0.216,-3.015 0.129,-0.067 0.258,-0.134 0.387,-0.202 0.216,0.273 0.609,0.541 0.618,0.821 0.057,1.75 0.029,3.503 0.029,5.687 m 65.479,35.141 c -0.096,0.119 -0.193,0.239 -0.289,0.359 -0.455,-0.31 -1.206,-0.538 -1.317,-0.942 -0.674,-2.441 -1.201,-4.922 -1.8,-7.485 2.697,2.136 2.664,5.259 3.406,8.068 m -53.353,-41.401 c 0.178,2.161 0.352,4.269 0.531,6.438 -0.885,-0.129 -1.52,-0.15 -1.877,-1.104 -0.781,-2.087 -1.143,-3.966 1.346,-5.334 m 41.745,-12.644 c -0.113,0.028 -0.227,0.056 -0.341,0.084 0.179,0.827 0.281,1.681 0.554,2.475 0.38,1.105 -0.067,1.687 -1.207,2.209 v -8.744 c 0.914,2.182 1.76,4.111 2.507,6.077 0.117,0.306 -0.215,0.782 -0.339,1.18 -0.112,-0.027 -0.225,-0.054 -0.337,-0.08 -0.279,-1.067 -0.558,-2.134 -0.837,-3.201 m -13.829,15.683 c 0.033,0.092 0.066,0.184 0.099,0.276 -0.83,0.713 -1.649,1.439 -2.499,2.127 -0.142,0.115 -0.468,0.167 -0.617,0.083 -1.387,-0.781 -2.754,-1.598 -4.265,-2.486 z m 1.246,9.524 c -1.041,1.814 -2.316,2.817 -4.277,2.026 -0.177,-0.071 -0.394,-0.057 -0.593,-0.057 -1.955,-0.004 -3.91,-0.002 -5.865,-0.002 -0.013,-0.12 -0.026,-0.24 -0.038,-0.361 3.591,-0.535 7.182,-1.071 10.773,-1.606 m -14.159,30.058 c -0.895,-0.522 -3.619,-11.287 -3.616,-14.557 0.316,0.207 0.625,0.48 0.686,0.8 0.656,3.445 1.272,6.897 1.906,10.346 0.071,0.384 0.19,0.759 0.286,1.138 0.101,-0.026 0.201,-0.052 0.301,-0.077 -0.175,-1.109 -0.35,-2.219 -0.525,-3.328 0.113,-0.073 0.226,-0.147 0.339,-0.221 0.208,0.242 0.587,0.48 0.595,0.728 0.053,1.699 0.028,3.401 0.028,5.171 m 42.441,-20.971 c -0.036,-0.085 -0.073,-0.17 -0.109,-0.255 0.873,-0.679 1.74,-1.367 2.627,-2.028 0.172,-0.128 0.484,-0.267 0.631,-0.196 1.536,0.75 3.051,1.541 4.572,2.321 -0.039,0.052 -0.079,0.105 -0.119,0.158 z m -82.628,-3.436 c -0.012,-0.093 -0.025,-0.187 -0.037,-0.281 0.825,-0.553 1.634,-1.135 2.487,-1.642 0.263,-0.155 0.696,-0.229 0.97,-0.126 1.455,0.55 2.883,1.172 4.325,1.758 0.254,0.104 0.53,0.153 0.795,0.227 -0.133,0.192 -0.266,0.384 -0.399,0.576 -2.713,-0.17 -5.427,-0.341 -8.141,-0.512 m 27.887,8.854 c -0.918,0.57 -1.714,1.063 -2.667,1.654 0.573,0.028 0.958,0.047 1.342,0.066 0.013,0.067 0.027,0.134 0.04,0.201 -2.02,0.588 -4.041,1.176 -6.061,1.763 l -0.138,-0.278 c 2.158,-1.648 4.317,-3.296 6.576,-5.02 0.344,0.611 0.628,1.115 0.908,1.614 m 27.36,-15.145 c -0.001,0.082 -0.001,0.164 -0.002,0.246 -2.198,0.236 -4.408,0.394 -6.591,0.73 -2.191,0.336 -4.355,0.849 -6.532,1.284 1.497,-1.015 3.011,-1.983 4.616,-2.765 0.58,-0.281 1.821,-0.385 1.996,-0.101 0.562,0.915 1.307,0.566 1.975,0.59 1.511,0.052 3.025,0.016 4.538,0.016 M 56.978,-71.56 c -0.018,-0.153 -0.036,-0.305 -0.054,-0.458 3.358,-0.795 6.715,-1.589 10.133,-2.399 v 1.975 c -3.401,0.298 -6.74,0.59 -10.079,0.882 M -5.061,0.534 c 1.178,0.557 2.122,0.898 2.401,1.987 0.553,2.153 1.056,4.319 1.6,6.562 C -3.863,6.976 -4.307,3.886 -5.061,0.534 M -25.165,-13.86 c 1.496,0.255 2.827,0.481 4.369,0.743 -1.512,1.687 -2.856,3.188 -4.369,4.876 z m 12.498,-43.156 c 0.106,-0.071 0.213,-0.143 0.32,-0.215 0.327,0.249 0.835,0.433 0.953,0.758 0.868,2.384 1.657,4.797 2.493,7.264 -0.706,0.205 -1.265,0.368 -1.92,0.558 -0.633,-2.865 -1.239,-5.615 -1.846,-8.365 m 50.755,42.323 c -1.196,-1.273 -2.409,-2.479 -2.613,-4.305 -0.102,-0.905 -0.363,-1.792 -0.558,-2.686 -0.335,-1.545 -0.337,-1.544 1.345,-1.933 0.609,2.977 1.218,5.95 1.826,8.924 m -51.504,-43.552 c -0.105,0.09 -0.209,0.18 -0.313,0.269 -0.491,-0.384 -1.388,-0.751 -1.405,-1.156 -0.124,-2.847 -0.066,-5.703 -0.066,-8.703 0.953,2.805 1.887,5.503 2.761,8.221 0.072,0.226 -0.259,0.581 -0.532,1.141 -0.492,-2.105 -0.901,-3.854 -1.31,-5.604 -0.119,0.028 -0.239,0.055 -0.358,0.082 0.408,1.917 0.815,3.834 1.223,5.75 m -13.804,36.757 c -2.821,-3.131 -2.375,-7.283 -3.645,-10.947 0.828,-0.257 1.33,-0.304 1.516,0.645 0.676,3.441 1.414,6.87 2.129,10.302 m 2.391,2.019 c 0.008,0.008 -0.179,-0.194 -0.385,-0.416 0.681,-0.519 1.28,-0.975 1.942,-1.479 1.017,1.535 1.976,2.98 2.986,4.504 h -4.963 c 0.142,-0.879 0.265,-1.641 0.42,-2.609 m 46.49,-28.977 c -1.212,0.464 -2.153,0.764 -3.039,1.181 -0.897,0.423 -1.74,0.963 -2.446,1.361 -0.818,0.603 -1.487,1.096 -2.218,1.634 1.645,0.509 3.385,-0.415 4.789,0.722 -2.417,0.076 -5.004,0.729 -6.801,-2.031 2.763,-0.987 5.521,-1.988 8.295,-2.942 0.331,-0.113 0.751,0.031 1.42,0.075 m -40.25,14.084 h -6.26 c -0.032,-0.106 -0.063,-0.212 -0.095,-0.318 1.334,-1.244 2.668,-2.487 4.069,-3.795 0.838,1.509 1.587,2.857 2.286,4.113 m -28.641,2.034 -0.338,-0.041 c 0.382,-7.346 0.764,-14.692 1.146,-22.039 l 0.444,-0.071 c 0.14,0.424 0.426,0.858 0.397,1.271 -0.474,6.646 -0.987,13.291 -1.497,19.935 -0.025,0.317 -0.1,0.63 -0.152,0.945 m 29.301,18.649 c 0.046,-0.209 0.092,-0.418 0.137,-0.627 0.548,-0.073 1.165,-0.347 1.632,-0.187 2.184,0.75 4.322,1.631 6.485,2.442 0.816,0.305 1.156,0.854 1.099,1.706 -2.493,-0.729 -4.946,-1.402 -7.364,-2.18 -0.713,-0.23 -1.329,-0.761 -1.989,-1.154 M -38.352,-55.46 c -0.069,0.031 -0.138,0.062 -0.208,0.093 -1.672,-2.463 -3.345,-4.925 -5.121,-7.539 1.295,-0.161 2.348,-0.292 3.535,-0.439 0.607,2.668 1.201,5.277 1.794,7.885 m 41.444,24.392 c 1.71,1.139 3.306,2.201 5.03,3.349 h -8.308 c -0.039,-0.09 -0.077,-0.18 -0.116,-0.27 1.105,-1.003 2.21,-2.005 3.394,-3.079 m 77.132,-22.444 c -0.05,0.057 -0.099,0.116 -0.148,0.173 -3.067,-1.616 -6.135,-3.231 -9.202,-4.847 -1.845,-0.971 -1.965,-1.252 -1.436,-3.528 3.618,2.751 7.202,5.476 10.786,8.202 M -9.87,-32.395 c -0.351,-0.678 -0.76,-1.317 -1.021,-2.013 -0.249,-0.665 -0.245,-1.433 -0.53,-2.077 -0.551,-1.245 -0.073,-1.95 0.964,-2.626 0.842,-0.549 1.222,-0.367 1.427,0.518 0.262,1.125 0.399,2.29 0.774,3.374 0.48,1.386 0.009,2.191 -1.614,2.824 m -3.657,24.903 c 2.006,0.094 3.667,0.153 5.323,0.271 0.238,0.017 0.577,0.284 0.657,0.511 0.247,0.702 0.391,1.44 0.598,2.254 -1.222,0.29 -2.333,0.584 -3.46,0.796 -0.238,0.045 -0.637,-0.142 -0.785,-0.348 -0.739,-1.03 -1.418,-2.102 -2.333,-3.484 m 61.13,-42.237 c 0.031,0.14 0.062,0.28 0.094,0.42 -0.451,0.273 -0.896,0.771 -1.354,0.783 -2.742,0.074 -5.487,0.037 -8.229,0.037 v -2.487 c 3.256,0.428 6.372,0.838 9.489,1.247 m -73.079,9.061 c 0.456,-0.102 0.794,-0.19 1.137,-0.25 0.614,-0.108 1.499,-0.498 1.792,-0.235 0.612,0.549 0.922,1.441 1.325,2.208 0.038,0.071 -0.114,0.282 -0.221,0.383 -1.286,1.213 -2.581,2.418 -4.033,3.775 z m 8.537,5.85 c 0.068,0.101 0.137,0.202 0.206,0.303 0.499,-0.32 0.998,-0.64 1.608,-1.031 0.273,1.111 0.511,2.075 0.785,3.19 -0.675,-0.212 -1.138,-0.334 -1.583,-0.501 -0.576,-0.216 -1.387,-0.305 -1.661,-0.73 -1.074,-1.664 -1.978,-3.44 -2.964,-5.21 0.377,-0.312 0.669,-0.554 0.98,-0.811 1.447,1.119 2.827,2.185 4.29,3.316 -0.625,0.555 -1.143,1.014 -1.661,1.474 m -30.058,-20.88 c -1.59,-1.264 -2.917,-2.318 -4.214,-3.349 1.412,-3.273 1.751,-3.527 4.214,-3.325 z m 14.379,8.376 c -0.139,0.087 -0.278,0.174 -0.417,0.26 -0.098,-0.211 -0.15,-0.464 -0.299,-0.627 -1.155,-1.259 -1.273,-2.884 -1.602,-4.436 -0.698,-3.298 -1.399,-6.595 -2.112,-9.959 1.144,0.347 1.656,0.983 1.859,2.063 0.695,3.686 1.49,7.354 2.245,11.029 0.114,0.556 0.217,1.114 0.326,1.67 m 112.963,-6.932 c -0.041,0.063 -0.081,0.126 -0.122,0.189 -3.574,-2.717 -7.089,-5.516 -10.75,-8.109 -1.479,-1.047 -1.704,-2.269 -1.526,-4.04 4.222,4.073 8.31,8.017 12.398,11.96 m -96.846,39.026 c 0.893,-0.812 1.731,-1.595 2.599,-2.344 0.147,-0.127 0.441,-0.189 0.632,-0.142 2.491,0.617 4.051,2.672 4.074,5.268 -2.385,-0.908 -4.788,-1.824 -7.305,-2.782 M 0.147,12.178 H 5.442 C 3.655,14.566 1.987,16.795 0.147,19.255 Z M 40.534,9.764 V 2.696 h 5.402 c -1.821,2.383 -3.525,4.612 -5.402,7.068 m -75.459,-70.499 c 1.273,0.517 1.926,1.204 2.066,2.448 0.147,1.304 0.531,2.58 0.801,3.871 0.494,2.364 0.98,4.729 1.47,7.094 l -0.302,0.32 c -0.451,-0.274 -1.223,-0.474 -1.304,-0.831 -0.96,-4.24 -1.817,-8.502 -2.731,-12.902 m -4.813,-2.802 c 1.193,0.373 2.096,0.583 2.33,1.806 0.39,2.038 0.857,4.062 1.283,6.093 0.345,1.641 0.677,3.284 1.014,4.926 -1.015,-1.107 -2.054,-2.232 -2.446,-3.55 -0.874,-2.935 -1.426,-5.966 -2.181,-9.275 m 23.228,51.558 c 0.057,-0.087 0.114,-0.174 0.171,-0.261 2.184,0.684 4.353,1.426 6.559,2.032 1.314,0.36 1.923,1.107 1.889,2.377 -1.827,0 -3.652,0.01 -5.477,-0.014 -0.201,-0.002 -0.477,-0.14 -0.589,-0.304 -0.869,-1.265 -1.706,-2.55 -2.553,-3.83 m 67.502,-16.182 c -3.308,4.262 -6.585,8.483 -9.863,12.705 -0.016,-0.413 0.127,-0.723 0.294,-1.021 1.811,-3.238 3.743,-6.417 5.393,-9.735 0.907,-1.824 2.003,-2.642 4.176,-1.949 m -4.54,21.12 c -2.014,2.344 -3.863,4.496 -5.856,6.816 V -7.041 Z M 6.827,-1.328 H 0.233 c 0,-1.244 -0.093,-2.364 0.039,-3.457 0.067,-0.551 0.475,-1.115 0.868,-1.547 0.141,-0.154 0.829,-0.071 1.035,0.136 1.54,1.544 3.021,3.146 4.652,4.868 m -34.008,-66.48 c 2.584,-0.509 2.584,-0.509 3.289,1.84 0.172,0.572 0.344,1.145 0.512,1.718 0.282,0.967 0.562,1.934 0.885,3.048 -1.496,-0.446 -2.763,-0.796 -4.006,-1.215 -0.27,-0.092 -0.642,-0.426 -0.65,-0.661 -0.058,-1.584 -0.03,-3.172 -0.03,-4.73 m 0.128,12.693 c 2.153,1.963 4.163,3.795 6.233,5.682 -0.582,0.685 -1.06,1.248 -1.519,1.787 -4.766,-2.216 -5.016,-2.587 -4.826,-7.038 10e-4,-0.038 0.018,-0.074 0.112,-0.431 m 35.983,7.874 c 1,-0.867 1.916,-1.684 2.862,-2.465 0.194,-0.16 0.514,-0.283 0.754,-0.252 2.236,0.286 4.468,0.609 6.701,0.922 -2.531,1.223 -5.038,2.238 -7.558,3.218 -0.209,0.082 -0.548,0 -0.758,-0.123 -0.647,-0.378 -1.261,-0.813 -2.001,-1.3 m -22.796,28.989 c -1.048,0.967 -1.909,1.671 -2.658,2.48 -0.609,0.656 -1.166,0.531 -1.778,0.122 -1.99,-1.331 -2.831,-3.528 -4.203,-5.325 0.085,-0.139 0.17,-0.279 0.255,-0.419 2.72,1.019 5.439,2.039 8.384,3.142 m 0.67,-39.096 c 0.475,2.156 0.93,4.245 1.395,6.333 0.598,2.685 0.602,2.685 -2.239,3.554 -0.34,-1.677 -0.753,-3.33 -0.993,-5.008 -0.263,-1.853 -0.255,-3.691 1.837,-4.879 m -5.877,5.891 c -0.926,-3.082 -1.794,-5.973 -2.702,-8.998 0.406,0.11 0.596,0.155 0.783,0.212 4.032,1.251 4.04,1.251 4.131,5.447 0.008,0.364 -0.097,0.799 -0.308,1.086 -0.538,0.728 -1.164,1.39 -1.904,2.253 m 44.709,-10.01 c 0.794,3.587 1.572,7.104 2.37,10.71 -0.692,0.11 -1.263,0.2 -1.912,0.303 -0.409,-1.757 -0.8,-3.432 -1.191,-5.107 -0.116,0.025 -0.232,0.051 -0.348,0.077 0.346,1.683 0.692,3.366 1.06,5.154 -0.459,0.06 -0.816,0.107 -1.429,0.188 0,-3.022 0.068,-5.887 -0.034,-8.746 -0.042,-1.176 0.206,-2.007 1.484,-2.579 m 1.008,-1.268 c 0.136,0.021 0.271,0.042 0.406,0.063 1.591,3.795 3.182,7.59 4.773,11.385 -1.787,-0.22 -0.846,-2.075 -1.994,-2.959 0.216,1.183 0.39,2.14 0.58,3.18 -0.696,0.079 -1.276,0.145 -1.84,0.209 -0.097,-0.18 -0.179,-0.275 -0.203,-0.384 -0.756,-3.348 -1.534,-6.691 -2.22,-10.053 -0.086,-0.429 0.32,-0.958 0.498,-1.441 m 34.637,1.123 c -0.546,0.905 -1.068,0.979 -1.899,0.446 -2.217,-1.421 -4.504,-2.735 -6.761,-4.094 -2.034,-1.224 -4.066,-2.452 -6.1,-3.678 0.032,-0.104 0.063,-0.208 0.095,-0.312 1.225,0.193 2.579,0.118 3.651,0.63 2.912,1.393 5.704,3.035 8.548,4.58 -0.075,0.376 -0.139,0.7 -0.202,1.02 0.918,0.485 1.763,0.931 2.668,1.408 m -76.287,33.38 c -3.259,2.488 -6.324,4.828 -9.389,7.168 1.572,-2.886 3.312,-5.565 5.054,-8.244 0.908,-1.397 1.319,-1.605 2.765,-0.828 0.628,0.337 0.99,1.171 1.57,1.904 M 2.843,6.572 C 1.041,4.98 -0.636,3.481 0.388,0.815 H 7.687 C 6.002,2.818 4.449,4.664 2.843,6.572 m -14.307,-9.979 c -2.817,0.639 -5.337,1.221 -7.866,1.767 -0.218,0.048 -0.56,-0.075 -0.722,-0.24 -0.694,-0.703 -1.341,-1.451 -2.032,-2.213 0.514,-0.696 0.934,-1.328 1.429,-1.896 0.171,-0.196 0.551,-0.36 0.797,-0.319 2.852,0.485 5.519,1.513 8.394,2.901 m 5.471,-21.406 c 0.99,4.494 1.923,8.731 2.856,12.969 -0.108,0.082 -0.216,0.163 -0.324,0.245 -0.901,-0.891 -2.237,-1.629 -2.614,-2.703 -0.894,-2.547 -1.346,-5.25 -1.938,-7.899 -0.064,-0.288 0.028,-0.722 0.219,-0.935 0.496,-0.556 1.087,-1.027 1.801,-1.677 M 58,-71.194 c 3.07,-0.274 6.045,-0.539 9.02,-0.805 v 4.554 c -3.692,0.42 -6.547,-1.033 -9.02,-3.749 m -69.313,50.625 c -0.537,0.494 -1.082,0.905 -1.511,1.415 -0.575,0.682 -1.1,0.603 -1.851,0.256 -1.626,-0.752 -3.307,-1.387 -4.98,-2.033 -0.741,-0.286 -1.516,-0.482 -2.549,-0.804 2.781,-0.813 5.26,-1.558 7.756,-2.242 0.281,-0.077 0.788,0.093 0.967,0.322 0.754,0.972 1.424,2.009 2.168,3.086 m 78.918,-50.39 0.245,-0.086 c 4.603,5.718 9.206,11.437 13.809,17.155 -4.616,-4.157 -9.069,-8.456 -13.51,-12.769 -0.179,-0.174 -0.311,-0.471 -0.331,-0.722 -0.096,-1.19 -0.146,-2.385 -0.213,-3.578 m -91.697,62.661 c 1.467,-1.338 3.036,-2.799 4.652,-4.208 0.211,-0.185 0.685,-0.209 0.989,-0.129 2.469,0.653 2.588,3.217 4.221,4.74 -2.078,0.318 -3.81,0.586 -5.542,0.842 -0.191,0.028 -0.405,0.024 -0.586,-0.033 -1.216,-0.384 -2.427,-0.785 -3.734,-1.212 m 6.937,-51.137 c -1.607,-0.53 -2.967,-0.957 -4.305,-1.44 -0.256,-0.092 -0.546,-0.372 -0.626,-0.625 -0.679,-2.161 -1.313,-4.336 -1.993,-6.615 1.571,-0.109 3.03,-0.21 4.582,-0.318 0.768,2.952 1.518,5.834 2.342,8.998 m 14.725,9.848 c 4.157,-1.605 7.367,0.101 10.404,2.439 -0.903,1.285 -2.086,1.749 -3.621,1.613 C 3.006,-45.654 1.64,-45.56 0.282,-45.56 H -2.43 Z m 2.959,11.554 c 3.144,-0.517 6.168,-0.55 9.401,0.206 -1.311,1.183 -2.43,2.195 -3.55,3.206 -1.114,1.005 -2.228,2.009 -3.306,2.981 -3.472,-2.129 -3.472,-2.129 -3.062,-4.808 0.477,-0.057 0.962,-0.115 1.707,-0.203 -0.466,-0.542 -0.779,-0.905 -1.19,-1.382 m -26.125,5.676 c 2.344,0.565 4.444,1.072 6.669,1.609 -2.255,3.465 -4.394,6.752 -6.669,10.248 z m 69.702,-2.159 c 4.01,-3.116 7.895,-6.136 11.781,-9.155 0.059,0.053 0.118,0.107 0.178,0.16 -2.21,3.943 -4.42,7.885 -6.635,11.837 -1.805,-0.964 -3.49,-1.863 -5.324,-2.842 M 39.89,-14.64 c 0,-3.578 -0.022,-6.855 0.032,-10.13 0.006,-0.36 0.37,-0.872 0.706,-1.045 1.526,-0.785 3.086,-1.513 4.669,-2.178 0.623,-0.262 1.339,-0.305 2.363,-0.523 -2.676,4.779 -5.161,9.218 -7.77,13.876 M 22.248,-58.733 c 0.257,3.148 0.494,6.058 0.735,9.002 -0.964,0.217 -1.811,0.646 -2.587,0.541 -2.502,-0.336 -4.979,-0.868 -7.648,-1.358 3.183,-2.743 6.25,-5.385 9.5,-8.185 m -59.029,11.181 c -1.519,-1.207 -3.084,-2.436 -4.632,-3.687 -1.114,-0.901 -2.671,-1.632 -3.173,-2.806 -0.504,-1.178 0.038,-2.812 0.155,-4.243 0.109,-1.321 0.263,-2.639 0.433,-4.314 3.134,4.947 7.285,8.955 7.217,15.05 m 16.16,-2.266 c -1.392,-1.288 -2.641,-2.745 -4.171,-3.788 -2.02,-1.378 -2.753,-3.082 -2.417,-5.434 0.14,-0.975 0.023,-1.987 0.023,-3.105 1.445,0.437 2.615,0.843 3.812,1.133 0.791,0.192 1.19,0.582 1.411,1.378 0.671,2.42 1.371,4.835 2.178,7.211 0.379,1.116 0.239,1.919 -0.836,2.605 M 37.546,0.459 C 36.584,0.768 35.69,1.053 34.797,1.341 34.197,1.534 33.602,1.88 32.998,1.896 31.286,1.94 29.565,1.745 27.857,1.829 19.861,2.222 12.3,4.374 5.027,7.634 4.69,7.784 4.341,7.907 3.998,8.042 4.205,7.617 4.502,7.373 4.836,7.2 7.247,5.959 9.607,4.601 12.09,3.524 c 7.749,-3.361 15.82,-4.923 24.29,-4.018 0.72,0.077 1.275,0.193 1.166,0.953 m -2.384,-9.893 c -0.994,0.356 -2.015,0.491 -2.718,1.036 -0.732,0.567 -1.323,0.65 -2.161,0.465 C 23.296,-9.481 16.259,-9.531 9.204,-8.504 6.973,-8.18 4.764,-7.702 2.217,-7.233 2.8,-7.504 3.079,-7.65 3.37,-7.767 c 9.545,-3.823 19.442,-4.954 29.626,-3.853 1.991,0.215 1.987,0.253 2.166,2.186 m 4.834,-32.138 c 0.024,-0.119 0,-0.326 0.09,-0.409 1.58,-1.466 2.957,-3.303 5.564,-2.788 0.769,0.152 1.593,0.019 2.392,0.027 0.238,0.002 0.609,-0.051 0.691,0.073 0.713,1.074 1.784,0.569 2.699,0.622 1.28,0.073 2.567,0.018 3.851,0.018 -3.71,3.152 -7.426,6.049 -11.156,8.926 -0.222,0.171 -0.614,0.33 -0.84,0.249 -0.976,-0.346 -1.927,-0.769 -2.869,-1.203 -0.174,-0.08 -0.371,-0.339 -0.376,-0.521 -0.034,-1.175 -0.018,-2.353 -0.018,-3.473 0.643,-0.133 1.042,-0.215 1.441,-0.297 0.03,-0.107 0.059,-0.214 0.089,-0.32 -0.476,-0.276 -0.952,-0.552 -1.558,-0.904 m 8.942,-8.326 c 3.723,-3.31 7.358,-6.552 11.02,-9.764 0.192,-0.169 0.672,-0.213 0.908,-0.095 1.1,0.549 2.161,1.174 3.287,1.8 -1.831,3.274 -3.662,6.548 -5.491,9.821 -1.236,2.21 -1.228,2.198 -3.29,0.908 -0.641,-0.4 -1.315,-0.771 -2.016,-1.049 -1.405,-0.56 -2.839,-1.047 -4.418,-1.621 m 46.125,4.264 c -0.305,-0.042 -0.427,-0.029 -0.518,-0.076 -3.181,-1.67 -6.364,-3.338 -9.533,-5.032 -0.339,-0.181 -0.637,-0.482 -0.881,-0.786 -5.344,-6.622 -10.669,-13.26 -16.026,-19.872 -0.644,-0.796 -0.644,-1.588 -0.449,-2.667 9.185,9.529 18.234,18.917 27.407,28.433 M 30,-31.671 c -1.231,0.549 -2.308,1.028 -3.457,1.54 -4.509,-3.666 -9.617,-6.453 -15.508,-7.988 1.366,-1.466 2.542,-2.77 4.711,-2.46 1.732,0.248 3.507,0.181 5.26,0.296 0.876,0.057 1.746,0.209 2.873,0.35 -1.044,0.902 -1.848,1.598 -2.651,2.292 0.089,0.107 0.18,0.213 0.27,0.32 0.982,-0.769 1.965,-1.537 2.963,-2.318 1.363,0.973 2.67,1.89 3.952,2.84 0.236,0.174 0.466,0.459 0.537,0.735 0.381,1.465 0.71,2.944 1.05,4.393 M 11.006,-24.44 C 7.38,-18.991 3.921,-13.791 0.462,-8.591 0.328,-8.586 0.195,-8.581 0.061,-8.576 -0.12,-9.117 -0.451,-9.658 -0.455,-10.2 c -0.019,-2.515 0.068,-5.031 0.089,-7.547 0.019,-2.424 0.004,-4.849 0.004,-7.411 1.752,0 3.299,-0.002 4.845,0.004 0.197,0 0.522,-0.018 0.569,0.079 0.478,0.983 1.361,0.593 2.089,0.622 1.188,0.048 2.379,0.013 3.865,0.013 m 31.101,-47.886 h -82.109 c 0.377,-0.649 0.655,-1.126 0.932,-1.603 0.248,0.333 0.496,0.666 0.818,1.099 h 1.217 c 0.075,-0.401 0.137,-0.736 0.2,-1.076 h 3.808 c 0.111,0.39 0.213,0.75 0.308,1.084 h 1.381 c 0.086,-0.39 0.159,-0.725 0.234,-1.061 h 3.847 c 0.084,0.401 0.155,0.738 0.225,1.072 h 1.391 c 0.102,-0.399 0.193,-0.757 0.279,-1.092 h 3.822 c 0.096,0.391 0.185,0.75 0.265,1.079 h 1.425 c 0.053,-0.385 0.098,-0.72 0.143,-1.056 h 3.892 c 0.079,0.394 0.145,0.728 0.207,1.045 h 1.475 c 0.072,-0.402 0.131,-0.734 0.184,-1.033 h 3.865 c 0.098,0.409 0.178,0.74 0.253,1.054 h 1.415 c 0.069,-0.379 0.13,-0.715 0.193,-1.064 h 3.859 c 0.088,0.392 0.162,0.725 0.235,1.051 h 1.35 c 0.101,-0.398 0.186,-0.733 0.267,-1.053 h 3.839 c 0.105,0.401 0.193,0.734 0.277,1.057 h 1.365 c 0.078,-0.39 0.146,-0.724 0.214,-1.063 h 3.859 c 0.083,0.397 0.152,0.734 0.219,1.052 h 1.445 c 0.089,-0.404 0.164,-0.736 0.232,-1.04 h 3.85 c 0.085,0.41 0.155,0.746 0.221,1.065 h 1.414 c 0.098,-0.398 0.188,-0.757 0.269,-1.084 h 3.851 c 0.054,0.375 0.102,0.709 0.153,1.068 h 1.517 c 0.051,-0.386 0.096,-0.722 0.14,-1.054 h 3.895 c 0.079,0.393 0.148,0.728 0.217,1.068 h 1.396 c 0.083,-0.378 0.157,-0.717 0.235,-1.078 h 3.841 c 0.077,0.391 0.144,0.729 0.214,1.084 h 1.389 c 0.112,-0.39 0.216,-0.749 0.314,-1.091 h 3.773 c 0.091,0.388 0.17,0.727 0.249,1.06 h 1.418 c 0.1,-0.408 0.18,-0.74 0.258,-1.066 h 4.913 c -0.125,0.551 -0.237,1.048 -0.358,1.576 m -88.837,39.618 c 0.636,-7.047 1.241,-13.747 1.87,-20.714 2.683,2.137 5.171,4.119 7.506,5.979 -1.837,0.834 -3.602,1.635 -5.365,2.437 0.026,0.099 0.053,0.198 0.079,0.298 0.424,0 0.848,-0.022 1.27,0.005 0.586,0.039 1.377,-0.105 1.718,0.215 1.387,1.301 2.635,2.75 3.968,4.181 -3.499,2.408 -7.134,4.908 -11.046,7.599 M 4.02,-8.823 c 9.317,-4.33 18.634,-8.661 28.246,-13.129 0.817,3.403 1.596,6.65 2.417,10.074 C 24.089,-13.217 13.941,-12.245 4.02,-8.823 M 2.936,-8.805 C 2.887,-8.887 2.838,-8.97 2.789,-9.053 c 8.116,-6.427 16.232,-12.854 24.432,-19.349 1.531,2.088 3.007,4.1 4.546,6.198 -9.703,4.51 -19.267,8.954 -28.831,13.399 m -53.333,-21.418 c -5.331,-8.788 -4.908,-20.715 -0.904,-28.329 1.132,0.899 2.225,1.833 3.39,2.667 0.672,0.481 0.851,1.024 0.817,1.819 -0.284,6.581 -0.624,13.162 -0.731,19.746 -0.033,2.041 -0.697,3.311 -2.572,4.097 M 4.289,8.517 C 4.565,8.368 4.799,8.223 5.048,8.108 10.039,5.81 15.212,3.997 20.639,3.167 24.331,2.603 28.096,2.467 31.835,2.286 33.261,2.217 34.696,2.572 35.237,4.408 23.839,9.336 12.425,14.271 1.012,19.206 1.825,17.751 2.7,16.458 3.699,15.27 4.664,14.123 5.19,12.573 6.697,11.909 6.515,11.77 6.279,11.666 6.16,11.485 5.528,10.519 4.925,9.533 4.289,8.517 m 21.741,-36.89 c 0.032,0.092 0.065,0.185 0.097,0.276 -8.362,6.624 -16.726,13.247 -25.088,19.87 0.028,-0.437 0.196,-0.737 0.386,-1.023 2.876,-4.326 5.804,-8.62 8.608,-12.991 0.941,-1.466 1.832,-2.685 3.812,-2.219 0.051,0.011 0.122,-0.067 0.132,-0.073 -3.474,-2.232 -6.967,-4.476 -10.584,-6.8 2.353,-2.123 4.565,-4.134 6.806,-6.114 0.196,-0.173 0.605,-0.245 0.869,-0.179 5.506,1.387 10.379,4.012 14.799,7.523 -0.282,0.415 -0.441,0.842 -0.748,1.053 -0.347,0.238 -0.827,0.281 -1.249,0.41 0.02,0.089 0.04,0.178 0.06,0.267 z M 2.563,-6.647 c 0.149,-0.081 0.214,-0.136 0.289,-0.155 8.922,-2.244 17.903,-2.623 26.944,-0.809 0.79,0.158 1.707,0.353 2.267,0.86 1.657,1.498 3.174,3.15 4.716,4.771 0.228,0.239 0.292,0.636 0.489,1.093 -0.902,-0.056 -1.576,-0.155 -2.247,-0.131 -3.502,0.123 -7.041,0.009 -10.498,0.477 C 17.267,0.443 10.612,3.228 4.344,6.966 4.042,7.146 3.653,7.179 3.306,7.281 3.449,6.918 3.513,6.491 3.748,6.202 5.033,4.621 6.341,3.058 7.685,1.527 8.046,1.116 8.559,0.838 8.915,0.565 6.896,-1.728 4.751,-4.163 2.563,-6.647 m 39.399,6.446 c 0.191,-0.17 0.394,-0.356 0.603,-0.536 16.956,-14.616 33.919,-29.223 50.851,-43.867 1.047,-0.906 1.634,-0.332 2.45,0.261 C 78.445,-27.267 61.1,-10.265 43.754,6.737 L 43.539,6.529 C 44.777,5.206 45.505,3.445 47.312,2.233 45.533,1.424 43.787,0.629 41.962,-0.201 m -3.92,-70.417 c 1.217,0.059 2.392,-0.107 3.412,0.216 1.883,0.595 3.777,1.299 5.486,2.275 4.36,2.487 8.621,5.148 13.091,7.842 -0.406,0.336 -0.716,0.578 -1.01,0.839 -3.018,2.679 -6.094,5.297 -9.02,8.072 -1.201,1.14 -2.321,1.621 -3.901,1.034 -0.624,-0.231 -1.331,-0.25 -2.005,-0.331 -2.006,-0.242 -4.012,-0.466 -6.053,-0.702 z m 45.682,20.224 c -12.071,14.039 -24.075,28.001 -35.879,41.731 -2.23,-0.678 -4.249,-1.274 -6.251,-1.92 -0.361,-0.116 -0.881,-0.404 -0.922,-0.674 -0.053,-0.355 0.298,-0.769 0.466,-1.162 0.029,-0.067 0.011,-0.154 0.022,-0.388 -0.17,-0.112 -0.428,-0.282 -0.703,-0.465 0.274,-0.279 0.462,-0.484 0.665,-0.675 12.824,-12.038 25.65,-24.076 38.476,-36.114 1.775,-1.667 1.775,-1.667 4.126,-0.333 m -35.772,42.29 c 0.428,-0.502 0.813,-0.958 1.201,-1.409 11.076,-12.884 22.152,-25.767 33.228,-38.651 1.777,-2.067 1.776,-2.073 4.263,-0.853 2.347,1.151 4.691,2.311 7.126,3.511 -0.374,0.345 -0.629,0.594 -0.898,0.825 -14.17,12.217 -28.348,24.424 -42.497,36.665 -0.878,0.761 -1.542,0.824 -2.423,-0.088 m 1.796,-23.231 c 2.061,-3.68 4.113,-7.154 5.961,-10.732 0.78,-1.509 1.668,-2.315 3.396,-1.974 0.238,0.047 0.508,-0.066 0.764,-0.105 0.02,-0.079 0.04,-0.158 0.061,-0.237 -0.551,-0.269 -1.101,-0.537 -1.758,-0.858 0.032,-0.396 -0.077,-0.941 0.128,-1.314 2.07,-3.778 4.192,-7.528 6.34,-11.359 5.326,2.084 10.582,4.141 16.008,6.264 -13.094,12.291 -26.044,24.445 -38.993,36.6 2.658,-3.791 5.53,-7.379 8.268,-11.067 1.107,-1.491 2.186,-2.709 4.248,-2.264 0.025,0.006 0.074,-0.106 0.093,-0.133 -1.468,-0.917 -2.937,-1.835 -4.516,-2.821 M 21.539,-70.699 c 0.24,3.792 0.487,7.334 0.653,10.88 0.017,0.37 -0.372,0.845 -0.696,1.131 -2.188,1.931 -4.53,3.704 -6.584,5.764 -1.859,1.866 -3.828,2.432 -6.464,2.323 -3.545,-0.147 -6.991,-0.19 -10.016,-2.343 -0.033,-0.023 -0.07,-0.041 -0.108,-0.053 -0.634,-0.182 -0.83,-0.586 -0.815,-1.251 0.045,-1.958 0.016,-3.917 0.016,-5.877 v -9.297 c 0.498,-0.212 0.925,-0.34 1.292,-0.566 0.369,-0.227 0.65,-0.597 1.021,-0.819 0.317,-0.19 0.71,-0.375 1.063,-0.364 6.824,0.211 13.678,-0.534 20.638,0.472 M -7.084,11.98 c -0.14,-0.076 -0.312,-0.122 -0.414,-0.232 -3.877,-4.202 -7.749,-8.409 -11.617,-12.618 -0.047,-0.051 -0.043,-0.147 -0.087,-0.318 1.824,-0.415 3.643,-0.832 5.464,-1.24 2.755,-0.617 2.772,-0.624 4.219,1.825 0.186,0.314 0.094,0.792 0.141,1.304 1.935,0.205 5.812,5.797 6.255,9.614 -1.733,-0.373 -2.793,0.816 -3.995,1.698 1.271,0.03 2.544,0.029 3.812,0.112 0.321,0.021 0.831,0.25 0.902,0.489 0.604,2.039 1.128,4.103 1.676,6.16 -1.357,-1.142 -2.524,-2.375 -3.656,-3.641 -0.922,-1.031 -1.802,-2.1 -2.7,-3.153 m 59.803,-81.592 c 0.906,0.184 1.812,0.368 2.82,0.573 v -2.079 c 1.561,0.439 2.037,1.814 2.96,2.721 -1.033,-10e-4 -2.026,-0.031 -2.976,-0.247 -0.963,-0.219 -1.885,-0.622 -2.824,-0.945 -2.015,-1.034 -4.03,-2.068 -6.345,-3.255 2.815,-0.356 4.343,0.487 6.365,3.232 m 15.296,12.562 c 0.568,-0.1 1.246,-0.45 1.683,-0.257 2.175,0.961 4.285,2.065 6.419,3.119 -0.04,0.086 -0.08,0.174 -0.12,0.261 -2.649,-1.054 -5.297,-2.108 -7.943,-3.165 -1.032,-0.388 -2.063,-0.776 -3.184,-1.197 0.253,-0.445 0.44,-0.776 0.622,-1.097 2.353,0.851 2.493,0.983 2.523,2.336 M 17.347,-77.301 h 3.769 c 0.076,0.345 0.149,0.675 0.235,1.065 h 1.466 c 0.065,-0.372 0.122,-0.703 0.185,-1.061 h 3.833 c 0.083,0.344 0.164,0.676 0.237,0.978 0.706,0.467 1.47,0.043 1.679,-0.952 h 3.822 c 0.084,0.347 0.165,0.68 0.25,1.029 0.827,0.112 1.649,0.337 1.505,-1.017 h 3.941 c 0.059,0.319 0.121,0.651 0.19,1.026 h 1.429 c 0.076,-0.311 0.156,-0.64 0.258,-1.059 3.248,-0.084 6.554,-0.471 9.312,2.281 -4.353,-0.93 -8.603,-0.511 -12.83,-0.517 -26.836,-0.039 -53.672,-0.01 -80.508,-0.052 -1.305,-0.002 -2.098,0.228 -2.382,1.609 -0.212,1.03 -0.761,1.822 -1.976,1.953 -0.25,0.027 -0.454,0.474 -0.923,1 h 8.689 c 0.023,0.124 0.045,0.248 0.068,0.373 -0.356,0.09 -0.71,0.254 -1.066,0.26 -1.719,0.027 -3.44,0.044 -5.159,-0.003 -0.702,-0.019 -1.095,0.184 -1.32,0.877 -0.287,0.886 -0.713,1.677 -1.732,1.996 -0.282,0.089 -0.45,0.536 -0.814,1.002 h 3.414 c -0.857,1.172 -1.592,2.25 -2.417,3.254 -0.207,0.253 -0.692,0.334 -1.065,0.385 -3.723,0.512 -7.448,0.998 -11.172,1.498 -0.413,0.055 -0.82,0.151 -1.23,0.229 0.005,0.137 0.009,0.275 0.014,0.412 0.376,0 0.756,0.037 1.127,-0.006 1.707,-0.197 3.418,-0.379 5.115,-0.643 1.086,-0.169 2.056,-0.127 2.837,0.763 0.156,0.178 0.372,0.302 0.56,0.452 1.493,1.196 1.478,1.19 0.815,2.959 -3.304,8.82 -3.185,17.509 1.023,26.034 0.261,0.527 0.573,1.028 0.922,1.649 2.315,-1.546 4.514,-3.058 6.769,-4.484 0.528,-0.334 1.248,-0.544 1.869,-0.52 2.512,0.094 5.019,0.302 7.644,0.733 -0.644,0.345 -1.289,0.691 -1.744,0.934 0.429,0.385 0.955,0.773 1.381,1.252 3.151,3.543 3.458,8.131 4.529,12.437 0.182,0.734 0.327,1.477 0.446,2.019 -1.381,0.627 -2.686,1.219 -3.771,1.712 2.245,2.245 4.79,4.14 5.919,7.079 -1.474,0.611 -2.658,1.101 -3.813,1.579 0.499,0.397 0.953,0.632 1.229,1 1.554,2.073 3.066,4.177 4.482,6.119 1.226,-0.3 2.443,-0.469 3.559,-0.899 1.581,-0.608 2.554,-0.136 3.668,1.101 5.646,6.27 11.406,12.437 17.118,18.648 0.365,0.397 0.656,0.862 0.962,1.271 0.684,-0.36 1.405,-0.801 2.173,-1.134 10.923,-4.736 21.856,-9.449 32.773,-14.2 0.753,-0.328 1.161,-0.31 1.655,0.418 1.251,1.842 2.603,3.616 4.156,5.749 3.834,-3.99 7.611,-8.102 11.582,-12.017 14.295,-14.094 28.664,-28.112 42.973,-42.191 0.916,-0.901 1.667,-1.575 2.883,-0.602 0.074,0.06 0.22,0.035 0.334,0.037 0.031,10e-4 0.063,-0.045 0.003,0.002 C 92.745,-48.1 88.134,-53.614 83.1,-58.7 78.037,-63.814 73.094,-69.049 68.104,-74.237 c -0.323,-0.336 -0.596,-0.721 -0.833,-1.01 -0.304,0.173 -0.636,0.468 -1.018,0.561 -3.025,0.746 -6.068,1.419 -9.087,2.188 -1.119,0.286 -1.727,-0.274 -2.286,-1.045 -1.161,-1.604 -2.237,-3.277 -3.483,-4.811 -1.044,-1.287 -2.09,-2.515 -2.366,-4.224 -0.038,-0.237 -0.41,-0.484 -0.681,-0.599 -0.238,-0.1 -0.551,-0.023 -0.831,-0.023 h -90.707 -1.24 c -0.508,2.382 1.173,4.744 -0.49,7.013 h 5.449 c -0.219,-0.347 -0.416,-0.658 -0.677,-1.073 h 3.975 c -0.047,0.072 -0.095,0.143 -0.142,0.214 0.432,0.292 0.84,0.739 1.308,0.814 0.269,0.043 0.636,-0.515 0.809,-1.042 h 3.777 c 0.077,0.283 0.164,0.607 0.275,1.017 h 1.434 c 0.062,-0.321 0.126,-0.653 0.199,-1.028 h 3.83 c 0.074,0.297 0.155,0.623 0.256,1.032 h 1.451 c 0.063,-0.309 0.13,-0.64 0.209,-1.026 h 3.899 c 0.048,0.346 0.095,0.677 0.145,1.04 0.859,0.083 1.76,0.417 1.614,-1.032 h 3.941 c 0.061,0.318 0.124,0.649 0.178,0.935 0.676,0.503 1.486,0.047 1.67,-0.937 h 3.782 c -0.046,0.075 -0.092,0.151 -0.139,0.226 0.391,0.292 0.765,0.779 1.179,0.815 0.337,0.029 0.721,-0.48 1.084,-0.751 -0.053,-0.1 -0.106,-0.2 -0.159,-0.301 h 3.784 c 0.075,0.293 0.159,0.622 0.263,1.033 h 1.41 c 0.08,-0.338 0.159,-0.671 0.247,-1.041 h 3.832 c -0.054,1.161 0.628,1.285 1.618,1.041 0.076,-0.29 0.161,-0.619 0.264,-1.016 h 3.856 c 0.059,0.332 0.117,0.664 0.183,1.037 h 1.429 c 0.071,-0.328 0.141,-0.658 0.225,-1.048 h 3.798 c -0.05,0.105 -0.1,0.21 -0.15,0.314 0.423,0.264 0.83,0.685 1.277,0.735 0.288,0.033 0.637,-0.482 0.958,-0.751 -0.026,-0.107 -0.051,-0.215 -0.076,-0.321" /></g></g></g></g></svg>