<?xml version="1.0" encoding="utf-8"?>
<!-- Generator: Adobe Illustrator 21.0.2, SVG Export Plug-In . SVG Version: 6.00 Build 0)  -->
<svg version="1.1" id="Layer_1" xmlns="http://www.w3.org/2000/svg" xmlns:xlink="http://www.w3.org/1999/xlink" x="0px" y="0px"
	 viewBox="0 0 792 612" style="enable-background:new 0 0 792 612;" xml:space="preserve">
<style type="text/css">
	.st0{display:none;}
	.st1{fill:none;stroke:#000000;}
</style>
<rect x="151.7" y="38.2" class="st0" width="546.7" height="590"/>
<g>
	<path d="M459.1,129.5l-59.3,161.8l-59.3-161.8H459.1 M461.3,128H338.4l61.4,167.7L461.3,128L461.3,128z"/>
</g>
<g>
	<path d="M381.5,129.5l35.2,0l-17.6,48.4L381.5,129.5 M379.4,128l19.7,54.3l19.8-54.3L379.4,128L379.4,128z"/>
</g>
<g>
	<path d="M416.7,129.5l-59.3,161.8l-59.3-161.8H416.7 M418.9,128H296l61.4,167.7L418.9,128L418.9,128z"/>
</g>
<g>
	<path d="M399.1,132.3l8.3,22.6l-49.9,136.4l-8.3-22.6L399.1,132.3 M399.1,128l-51.5,140.7l9.9,27L408.9,155L399.1,128L399.1,128z"
		/>
</g>
<g>
	<path d="M399.1,132.3L449,268.7l-8.3,22.6L390.8,155L399.1,132.3 M399.1,128l-9.9,27l51.5,140.7l9.9-27L399.1,128L399.1,128z"/>
</g>
<g>
	<path d="M500,129.5l-59.3,161.8l-59.3-161.8H500 M502.2,128H379.4l61.4,167.7L502.2,128L502.2,128z"/>
</g>
<g>
	<path d="M399.8,299.8l-61.3-171.6l61.1,159.3l61.5-159.3L399.8,299.8z M398.9,137.9l29.5,71.6l-29.5-86.6l-29.1,86.6L398.9,137.9z"
		/>
</g>
<g>
	<path d="M252.3,470.4c-1,4.2-3.3,7-7.9,7c-5,0-8.6-3.7-8.6-11.5c0-7.3,3.2-11.5,8.6-11.5c4.2,0,6.6,2.4,7.6,6.5l-2.3,0.7
		c-0.8-3.2-2.2-5.1-5.6-5.1c-3.2,0-5.8,3-5.8,9.4c0,6.5,2.5,9.4,6.3,9.4c3.4,0,4.8-2.6,5.5-5.3L252.3,470.4z"/>
	<path d="M256.9,477.1v-22.4h2.5V475H270v2.1H256.9z"/>
	<path d="M287.5,454.7v2.1h-10.9v7.5h7.8v2.1h-7.8v8.6h11.6v2.1h-14v-22.4H287.5z"/>
	<path d="M309.9,477.1v-20.5h-0.1l-6.3,20.5h-1.9l-6.3-20.5h-0.1v20.5H293v-22.4h3.8l5.7,18.1h0.1l5.6-18.1h3.9v22.4H309.9z"/>
	<path d="M329.4,460.4c-0.6-2.2-2.3-3.9-5.2-3.9c-2.6,0-4.2,1.2-4.2,3.5c-0.1,4.9,12.6,3.7,12.6,10.9c0,3.3-1.8,6.6-7.5,6.6
		c-4.9,0-6.8-3.2-8-5.8l2.3-0.8c0.9,2.4,2.6,4.5,5.9,4.5c3.3,0,4.9-1.7,4.9-4c0-5.7-12.6-4-12.6-11.1c0-3.2,2.7-5.8,6.7-5.8
		c3.5,0,6.2,1.8,7.4,5.5L329.4,460.4z"/>
	<path d="M344.8,454.4c5.5,0,8.7,4,8.7,11.5c0,7.5-3.3,11.5-8.7,11.5c-5.5,0-8.7-4-8.7-11.5C336,458.4,339.3,454.4,344.8,454.4z
		 M344.8,475.3c3.9,0,6.3-3,6.3-9.4c0-6.4-2.3-9.4-6.3-9.4c-3.9,0-6.3,3-6.3,9.4C338.5,472.3,340.8,475.3,344.8,475.3z"/>
	<path d="M358.5,477.1v-22.4h3.6l9.8,17.2h0.1v-17.2h2.2v22.4h-2l-11.3-20h-0.1v20H358.5z"/>
	<path d="M392.8,454.7v15.8c0,2.6,1.9,4.8,5.4,4.8c3.5,0,5.4-2.2,5.4-4.8v-15.8h2.5v15.6c0,4.5-3.2,7.1-7.8,7.1
		c-4.6,0-7.8-2.6-7.8-7.1v-15.6H392.8z"/>
	<path d="M412.7,477.1v-22.4h3.6L426,472h0.1v-17.2h2.2v22.4h-2l-11.3-20h-0.1v20H412.7z"/>
	<path d="M438.1,454.7v22.4h-2.5v-22.4H438.1z"/>
	<path d="M442.6,454.7h2.5l5.5,18.4h0.1l5.5-18.4h2.5l-6.9,22.4h-2.3L442.6,454.7z"/>
	<path d="M476.1,454.7v2.1h-10.9v7.5h7.8v2.1h-7.8v8.6h11.6v2.1h-14v-22.4H476.1z"/>
	<path d="M481.3,477.1v-22.4h7.2c4.8,0,7.5,2.2,7.5,5.9c0,3.2-1.8,5-4.5,5.8l4.7,10.7h-2.7l-4.5-10.2h-5.2v10.2H481.3z M483.8,464.8
		h4.5c3.4,0,5.2-1.3,5.2-4.1c0-3-2-3.9-5.2-3.9h-4.5V464.8z"/>
	<path d="M512.8,460.4c-0.6-2.2-2.3-3.9-5.2-3.9c-2.6,0-4.2,1.2-4.2,3.5c-0.1,4.9,12.6,3.7,12.6,10.9c0,3.3-1.8,6.6-7.5,6.6
		c-4.9,0-6.8-3.2-8-5.8l2.3-0.8c0.9,2.4,2.6,4.5,5.9,4.5c3.3,0,4.9-1.7,4.9-4c0-5.7-12.6-4-12.6-11.1c0-3.2,2.7-5.8,6.7-5.8
		c3.5,0,6.2,1.8,7.4,5.5L512.8,460.4z"/>
	<path d="M524.2,454.7v22.4h-2.5v-22.4H524.2z"/>
	<path d="M538,456.8v20.3h-2.5v-20.3h-6.7v-2.1h15.9v2.1H538z"/>
	<path d="M552.8,467.7l-6.9-13h2.7L554,465l5.4-10.3h2.7l-6.9,13v9.4h-2.5V467.7z"/>
</g>
<line class="st1" x1="260.5" y1="439.5" x2="538.1" y2="439.5"/>
<g>
	<path d="M267.9,381.4v-39h7.5v39H267.9z"/>
	<path d="M282.9,381.4v-39h8.2l10.4,23.1h0.1v-23.1h6.8v39h-7.1l-11.4-25.2h-0.1v25.2H282.9z"/>
	<path d="M315.9,381.4v-39h8.2l10.4,23.1h0.1v-23.1h6.8v39h-7.1l-11.4-25.2h-0.1v25.2H315.9z"/>
	<path d="M347.8,355c0-9.6,5.1-13.1,12.3-13.1c7.2,0,12.3,3.5,12.3,13.1v13.9c0,9.6-5.1,13.1-12.3,13.1c-7.2,0-12.3-3.5-12.3-13.1
		V355z M355.2,369.9c0,4.3,1.9,5.5,4.9,5.5s4.9-1.2,4.9-5.5V354c0-4.3-1.9-5.5-4.9-5.5s-4.9,1.2-4.9,5.5V369.9z"/>
	<path d="M375.9,342.4h7.3l6.9,27.9h0.1l6.8-27.9h7.3l-9.9,39h-8.5L375.9,342.4z"/>
	<path d="M403.8,381.4l9.7-39h9.6l9.4,39h-7.1l-1.9-8.2h-10.3l-2.1,8.2H403.8z M414.5,366.6h7.4l-3.6-15.8h-0.1L414.5,366.6z"/>
	<path d="M456.1,342.4v6.6h-8.7v32.4H440V349h-8.7v-6.6H456.1z"/>
	<path d="M461,381.4v-39h7.5v39H461z"/>
	<path d="M474.9,355c0-9.6,5.1-13.1,12.3-13.1c7.2,0,12.3,3.5,12.3,13.1v13.9c0,9.6-5.1,13.1-12.3,13.1c-7.2,0-12.3-3.5-12.3-13.1
		V355z M482.3,369.9c0,4.3,1.9,5.5,4.9,5.5c3,0,4.9-1.2,4.9-5.5V354c0-4.3-1.9-5.5-4.9-5.5c-3,0-4.9,1.2-4.9,5.5V369.9z"/>
	<path d="M506,381.4v-39h8.2l10.4,23.1h0.1v-23.1h6.8v39h-7.1l-11.4-25.2h-0.1v25.2H506z"/>
	<path d="M322.8,413.9c0,4.3,1.9,5.5,4.9,5.5c3,0,4.9-1.2,4.9-5.5v-2.6h7.5v1.6c0,9.6-5.1,13.1-12.3,13.1s-12.3-3.5-12.3-13.1V399
		c0-9.6,5.1-13.1,12.3-13.1S340,389.3,340,399v0.1h-7.5V398c0-4.3-1.9-5.5-4.9-5.5c-3,0-4.9,1.2-4.9,5.5V413.9z"/>
	<path d="M346,425.4v-39h20.4v6.6h-13v9h9.9v6.6h-9.9v10.3H367v6.6H346z"/>
	<path d="M373.4,425.4v-39h8.2l10.4,23.1h0.1v-23.1h6.8v39h-7.1l-11.4-25.2h-0.1v25.2H373.4z"/>
	<path d="M428.6,386.4v6.6h-8.7v32.4h-7.5V393h-8.7v-6.6H428.6z"/>
	<path d="M433,425.4v-39h20.4v6.6h-13v9h9.9v6.6h-9.9v10.3h13.5v6.6H433z"/>
	<path d="M477.5,425.4l-6.5-15.9h-3.6v15.9H460v-39h10.8c9,0,13.2,4.3,13.2,11.7c0,4.9-1.7,8.4-5.9,9.9l7.3,17.4H477.5z
		 M467.4,403.4h3.8c3.3,0,5.3-1.6,5.3-5.4c0-3.8-2-5.4-5.3-5.4h-3.8V403.4z"/>
</g>
<g>
	<path d="M295.7,314.4h2l3.5,15h0.1l3.6-15h1.8l3.7,15h0.1l3.4-15h2l-4.4,18.8h-1.8l-3.8-15.2h-0.1l-3.6,15.2h-1.8L295.7,314.4z"/>
	<path d="M321.5,333.2l5.8-18.8h3.1l5.8,18.8H334l-1.8-5.9h-6.7l-1.8,5.9H321.5z M326,325.6h5.7l-2.7-9.7h-0.3L326,325.6z"/>
	<path d="M347.9,316.2v17h-2.1v-17h-5.6v-1.8h13.3v1.8H347.9z"/>
	<path d="M367.5,316.2v17h-2.1v-17h-5.6v-1.8h13.3v1.8H367.5z"/>
	<path d="M405.8,314.4v1.8h-9v6.3h6.7v1.8h-6.7v8.9h-2.1v-18.8H405.8z"/>
	<path d="M410.4,333.2l5.8-18.8h3.1l5.8,18.8h-2.2l-1.8-5.9h-6.7l-1.8,5.9H410.4z M414.9,325.6h5.7l-2.7-9.7h-0.3L414.9,325.6z"/>
	<path d="M447.8,333.2V316h-0.1l-5.3,17.2h-1.6l-5.3-17.2h-0.1v17.2h-1.9v-18.8h3.2l4.8,15.2h0.1l4.7-15.2h3.3v18.8H447.8z"/>
	<path d="M463.1,314.4v18.8H461v-18.8H463.1z"/>
	<path d="M474.4,333.2v-18.8h2.1v17h8.9v1.8H474.4z"/>
	<path d="M495,325.3l-5.8-10.9h2.3l4.5,8.6l4.5-8.6h2.3l-5.8,10.9v7.9H495V325.3z"/>
</g>
</svg>
