<svg xmlns="http://www.w3.org/2000/svg" xmlns:xlink="http://www.w3.org/1999/xlink" version="1.1" id="Layer_1" x="0px" y="0px" width="266.582px" height="332.152px" viewBox="0 0 266.582 332.152" enable-background="new 0 0 266.582 332.152" xml:space="preserve">
              <rect x="0.004" y="0" width="266.575" height="53.314"></rect>
              <rect x="106.634" y="0" transform="matrix(-0.3845 -0.9231 0.9231 -0.3845 61.4965 307.5782)" width="53.314" height="266.574"></rect>
              <rect x="0.004" y="213.259" width="266.575" height="53.314"></rect>
              <polygon points="0.004,287.494 0.004,293.293 18.105,293.293 18.105,293.421 0.004,313.816 0.004,319.87 26.9,319.87 26.9,314.07   8.8,314.07 8.8,313.942 26.9,293.547 26.9,287.494 "></polygon>
              <g>
                <defs>
                  <rect id="SVGID_1_" width="266.582" height="332.152"></rect>
                </defs>
                <clipPath id="SVGID_2_">
                  <use xlink:href="#SVGID_1_" overflow="visible"></use>
                </clipPath>
                <path clip-path="url(#SVGID_2_)" d="M44.835,311.584h-0.127l-8.095-24.09h-7.775l11.854,32.631   c-1.015,4.282-2.827,4.675-5.852,4.675h-2.152c0,0-0.021-0.002-0.033-0.002v5.846h4.09c6.184,0,7.832-1.371,10.441-7.514   l13.518-35.636h-7.52L44.835,311.584z"></path>
                <path clip-path="url(#SVGID_2_)" d="M99.713,286.729c-4.907,0-8.03,2.166-10.389,5.863c-1.656-3.824-5.098-5.863-9.559-5.863   c-3.824,0-6.692,1.528-8.986,4.652h-0.128v-3.887h-6.947v32.376h7.265v-17.334c0-6.247,2.486-9.944,6.82-9.944   c3.76,0,5.8,2.676,5.8,7.266v20.012h7.266v-17.463c0-6.182,2.548-9.815,6.819-9.815c3.633,0,5.863,2.295,5.863,8.031v19.247h7.266   v-19.95C110.803,291.189,106.597,286.729,99.713,286.729"></path>
                <path clip-path="url(#SVGID_2_)" d="M254.788,286.729c-4.27,0-7.647,2.039-9.687,4.972h-0.127v-4.207h-6.884v32.376h7.266v-17.972   c0-6.183,3.25-9.306,7.392-9.306c4.08,0,6.565,2.295,6.565,8.094v19.184h7.266v-19.822   C266.579,291.189,262.118,286.729,254.788,286.729"></path>
                <path clip-path="url(#SVGID_2_)" d="M168.077,287.394v6.436c-0.892-0.192-1.72-0.255-2.549-0.255c-5.8,0-8.987,3.697-8.987,10.452   v15.87h-7.265V287.52h6.756v4.781h0.127c2.167-3.506,5.226-5.226,9.241-5.226C166.229,287.075,167.249,287.202,168.077,287.394"></path>
                <path clip-path="url(#SVGID_2_)" d="M183.113,286.602c-8.282,0-13.57,6.435-13.57,16.437c0,10.065,5.224,16.435,13.442,16.435   c4.013,0,7.008-1.656,9.365-5.095h0.127v3.184c0,6.753-2.675,9.238-7.517,9.238c-3.377,0-5.606-1.21-6.434-3.376l-6.498,2.739   c1.847,3.759,6.243,5.988,12.804,5.988c9.11,0,14.717-4.65,14.717-14.334v-30.323h-6.881v4.522h-0.127   C190.12,288.323,187.126,286.602,183.113,286.602 M184.769,292.655c4.905,0,7.963,4.077,7.963,10.384   c0,6.37-3.058,10.447-7.963,10.447c-4.65,0-7.645-4.077-7.645-10.447C177.124,296.668,180.119,292.655,184.769,292.655"></path>
                <path clip-path="url(#SVGID_2_)" d="M137.515,311.076c-1.062,3-3.587,4.125-7.399,4.125c-4.733,0-8.709-3.125-8.835-9.125h24.423   c0-4-0.253-6.082-0.883-8.101c-1.768-6.69-7.511-11.213-14.831-11.213c-9.719,0-15.84,6.983-15.84,16.449   c0,10.35,6.184,17.285,15.966,17.285c7.801,0,13.146-3.42,14.846-9.42H137.515z M129.99,292.748c4.607,0,8.015,3.328,8.52,8.328   h-17.103C122.038,296.076,125.383,292.748,129.99,292.748"></path>
                <path clip-path="url(#SVGID_2_)" d="M226.533,311.076c-1.062,3-3.587,4.125-7.399,4.125c-4.733,0-8.709-3.125-8.835-9.125h24.423   c0-4-0.253-6.082-0.883-8.101c-1.768-6.69-7.511-11.213-14.831-11.213c-9.719,0-15.84,6.983-15.84,16.449   c0,10.35,6.184,17.285,15.966,17.285c7.801,0,13.146-3.42,14.846-9.42H226.533z M219.008,292.748c4.607,0,8.015,3.328,8.52,8.328   h-17.103C211.056,296.076,214.401,292.748,219.008,292.748"></path>
              </g>
            </svg>