<?xml version="1.0" encoding="utf-8"?>
<!-- Generator: Adobe Illustrator 24.0.1, SVG Export Plug-In . SVG Version: 6.00 Build 0)  -->
<svg version="1.1" id="Layer_1" xmlns="http://www.w3.org/2000/svg" xmlns:xlink="http://www.w3.org/1999/xlink" x="0px" y="0px"
	 viewBox="0 0 1162.6 1179.2" style="enable-background:new 0 0 1162.6 1179.2;" xml:space="preserve">
<style type="text/css">
	.st0{fill:#50C6DF;}
	.st1{opacity:0.5;fill:url(#SVGID_1_);enable-background:new    ;}
	.st2{opacity:0.5;fill:#2E3192;enable-background:new    ;}
	.st3{opacity:0.3;}
	.st4{fill:#2E3192;}
	.st5{fill:#FEF8C0;}
	.st6{fill:#FFE381;}
	.st7{fill:#F78D36;}
</style>
<g id="Layer_2_1_">
	<g id="background">
		<rect class="st0" width="1162.6" height="1179.2"/>
	</g>
</g>
<g id="Layer_2_2_">
	<g id="Layer_1-2">
		<g id="background_details">
			
				<linearGradient id="SVGID_1_" gradientUnits="userSpaceOnUse" x1="22.6703" y1="-3048.0305" x2="1410.8905" y2="-3048.0305" gradientTransform="matrix(0.85 0 0 0.85 -29.44 3458.2002)">
				<stop  offset="0" style="stop-color:#50C6DF"/>
				<stop  offset="1.000000e-02" style="stop-color:#50C4DE"/>
				<stop  offset="0.25" style="stop-color:#4490C3"/>
				<stop  offset="0.48" style="stop-color:#3A67AE"/>
				<stop  offset="0.69" style="stop-color:#34499F"/>
				<stop  offset="0.87" style="stop-color:#2F3795"/>
				<stop  offset="1" style="stop-color:#2E3192"/>
			</linearGradient>
			<path class="st1" d="M1164.8,801.9c-85.2-9.9-229.8,8.5-271.9-3.8c-46.6-13.7-128-70.5-174.7-83.8c-18.9-5.4-45.7-7.7-74.5-9.2
				c7.3-7.3,11.2-13.8,9.2-16.2c-2.6-3.2-14.9,2.2-27.4,12.1c-1.3,1-2.5,2-3.6,3c-8.6-0.4-17.4-0.8-26-1.2c4.5-5.2,8.4-10.9,11.5-17
				c7.4-14,10.3-27,6.6-28.9c-3.7-1.9-12.8,7.9-20.1,22c-4.8,9.2-7.8,17.9-8.2,23.4c-6.3-0.3-12.5-0.7-18.5-1.2
				c2.6-6,4.5-12.3,5.6-18.8c3-15.5,2-28.8-2.1-29.5c-4.2-0.8-9.9,11.2-12.9,26.8c-1.4,6.8-1.9,13.7-1.6,20.6
				c-9.4-0.8-18.4-1.8-26.7-3.1c-0.7-5.3-1.9-10.6-3.6-15.7c-4.8-15.1-11.9-26.3-16-25.1c-4,1.2-3.4,14.5,1.4,29.6
				c0.9,2.9,2,5.7,3,8.3c-4.3-1-8.5-2.1-12.6-3.5c-49.2-16.6-127.7-91.6-177.1-107.4c-77.8-24.9-321.7,53.3-334.8-18.8l1.9,605.7
				c0,0,468-21.8,575-49.9c55.1-14.5,170.8-101.4,226.5-89.1c149.2,32.8,306.6,4.4,314.7,0c16-8.7,36.9-28.3,56.9-52.3L1164.8,801.9
				z"/>
		</g>
	</g>
</g>
<g id="Layer_2_3_">
	<g id="Layer_1-2_1_">
		<g id="background_details_1_">
			<path class="st2" d="M866.4,829.4c-46.6-13.6-220-57.6-266.6-70.8c-52.3-14.9-59.1-21.4-110.5-38.9
				C440,703,347.7,630.4,298.3,614.6C234.5,594.2,59.2,643-9.3,621.6v586.8c78.8-5.4,453.9-31.8,549.5-56.9
				c55.1-14.5,153.6-77.7,209.5-89.1c78.9-16.1,261.2,38.4,331.8,0c23.2-12.6,56.4-47.6,82.4-86.3V837.5
				C1085.8,818.9,913.1,843.1,866.4,829.4z"/>
		</g>
	</g>
</g>
<g id="Layer_2_4_">
	<g id="Layer_1-2_2_">
		<g id="About_Page">
			<g id="grass_shadow">
				<g id="clump_3">
					<g class="st3">
						
							<ellipse transform="matrix(0.805 -0.5933 0.5933 0.805 -393.2327 224.4356)" class="st4" cx="144.8" cy="710.4" rx="6.1" ry="23.3"/>
					</g>
					<g class="st3">
						
							<ellipse transform="matrix(0.2608 -0.9654 0.9654 0.2608 -609.5194 731.8596)" class="st4" cx="173.2" cy="764" rx="7.5" ry="28.6"/>
					</g>
					
						<ellipse transform="matrix(0.2419 -0.9703 0.9703 0.2419 -639.402 801.7601)" class="st4" cx="193.4" cy="810.1" rx="4.9" ry="18.9"/>
					<g class="st3">
						
							<ellipse transform="matrix(0.886 -0.4636 0.4636 0.886 -300.5127 153.3024)" class="st4" cx="161.6" cy="687.9" rx="7.5" ry="28.6"/>
					</g>
					
						<ellipse transform="matrix(0.4198 -0.9076 0.9076 0.4198 -610.9922 632.8058)" class="st4" cx="189.4" cy="794.3" rx="7.5" ry="28.6"/>
					<g class="st3">
						
							<ellipse transform="matrix(0.6816 -0.7317 0.7317 0.6816 -420.647 430.3347)" class="st4" cx="284.2" cy="698.5" rx="28.6" ry="7.5"/>
					</g>
					
						<ellipse transform="matrix(0.8263 -0.5632 0.5632 0.8263 -405.2773 285.3542)" class="st4" cx="260" cy="799.7" rx="28.6" ry="7.5"/>
				</g>
				<g id="clump_2">
					
						<ellipse transform="matrix(0.1663 -0.9861 0.9861 0.1663 -479.6544 787.3989)" class="st4" cx="225.8" cy="677.3" rx="28.3" ry="7.1"/>
					
						<ellipse transform="matrix(0.4187 -0.9081 0.9081 0.4187 -481.1194 612.821)" class="st4" cx="238.1" cy="682.2" rx="21.9" ry="5.5"/>
					
						<ellipse transform="matrix(0.6547 -0.7559 0.7559 0.6547 -421.2244 426.9199)" class="st4" cx="256.7" cy="674.5" rx="28.3" ry="7.1"/>
					
						<ellipse transform="matrix(0.6144 -0.789 0.789 0.6144 -451.0302 483.269)" class="st4" cx="268.9" cy="703.1" rx="28.3" ry="7.1"/>
					
						<ellipse transform="matrix(0.7085 -0.7057 0.7057 0.7085 -426.6332 407.2215)" class="st4" cx="279.6" cy="720" rx="21.9" ry="5.5"/>
					
						<ellipse transform="matrix(0.8768 -0.4808 0.4808 0.8768 -308.9459 232.7292)" class="st4" cx="299.7" cy="719.3" rx="28.3" ry="7.1"/>
				</g>
				<g id="clump_1">
					
						<ellipse transform="matrix(0.4005 -0.9163 0.9163 0.4005 -600.1192 550.8007)" class="st4" cx="120.9" cy="734" rx="7.1" ry="28.3"/>
					
						<ellipse transform="matrix(0.6263 -0.7796 0.7796 0.6263 -515.6309 370.4679)" class="st4" cx="128.6" cy="723.1" rx="5.5" ry="21.9"/>
					
						<ellipse transform="matrix(0.8211 -0.5707 0.5707 0.8211 -381.3471 194.5596)" class="st4" cx="119.7" cy="705.7" rx="7.1" ry="28.3"/>
					
						<ellipse transform="matrix(0.7874 -0.6165 0.6165 0.7874 -397.2569 244.7719)" class="st4" cx="156.2" cy="698.3" rx="7.1" ry="28.3"/>
					
						<ellipse transform="matrix(0.8585 -0.5128 0.5128 0.8585 -330.1412 187.8413)" class="st4" cx="175.3" cy="692.2" rx="5.5" ry="21.9"/>
					
						<ellipse transform="matrix(0.9672 -0.2539 0.2539 0.9672 -164.8375 67.6297)" class="st4" cx="179.6" cy="672.3" rx="7.1" ry="28.3"/>
				</g>
				<path class="st2" d="M312,790.7c1.8,23.9-20.6,46-39.2,56.2c-61.4,33.7-162.9-17-163.6-56.2c-0.6-28.9,53.5-59.5,101.4-59.8
					C254,730.6,309.3,755.2,312,790.7z"/>
			</g>
			<g id="pyramid_goblin">
				<path class="st5" d="M274.8,739c0,0,5.9-31.8,5.4-41.6c-0.3-5.9-9-18.8-20.3-18.8S155.2,700.8,142,709.4
					c-13.2,8.7-12.4,21.6-8.7,26.4c7.7,9.8,28.4,21.8,44.2,25.8C214.8,771,274.9,739,274.8,739"/>
				<path class="st5" d="M284.5,796.9c-9.4,0-10.8-10.9-20.3-7.2c-13.1,5.1-5.2,15.5-11.3,26.8c-3.3,6.1-20.2,15.8-32.4,9.4
					c-19.7-10.3-42.6-49.7-50.5-92.3c-7.9-42.5,20-58.8,20-58.8s8.4-6.6,2.4-28.5c-1-3.3-1.6-6.6-2.1-10l4.4,2.3l0.6-5.6
					c1.9,3.4,4.1,6.6,6.6,9.7c12.4,16,3.6,24.8,3.6,24.8c32.8-5,58.6,40.1,71.6,62.6c0.7,1.3,1.4,2.4,2,3.5l0,0
					c0.8,1.4,1.6,2.7,2.3,3.8l1,0.3c14.3,4.2,13.5,6.9,27.1,38.1C312.9,783.8,293.9,796.9,284.5,796.9z"/>
				<path class="st6" d="M242.4,681.3c0,0,26.4,5,34.3,48C269,715.7,257.4,694.9,242.4,681.3"/>
				<path class="st6" d="M172.7,745.7c-1-4-1.9-8-2.7-12c-2.7-14.6-1.2-26.1,1.9-34.9c0,0-11.3,7-10.3,24.5
					c0.8,13.6,11.4,24.5,11.4,24.5"/>
				<path class="st6" d="M282.4,737.8c-0.2,0.4-0.7,0.7-1.1,0.6c-23.2-3.9-50-0.4-69.5,12.5c-0.5,0.3-1.2,0.1-1.4-0.4
					c-0.2-0.4-0.1-0.9,0.2-1.3c17.9-14.8,53-27.1,68.7-15.4l0,0c0.9,1.4,1.6,2.7,2.3,3.8L282.4,737.8z"/>
				
					<ellipse transform="matrix(0.9526 -0.3042 0.3042 0.9526 -235.8032 109.4832)" class="st6" cx="233.5" cy="811.5" rx="17.8" ry="10.8"/>
				<path class="st6" d="M281.5,737.5c3.9,1,7.7,2.6,11.1,4.8c8.3,5.4,10.8,19.3,17,33.6c3.4,7.9-15.6,21-25,21s-10.8-10.9-20.3-7.2
					c-2.5,0.8-4.7,2.4-6.3,4.5c-1.3,2-2,4.2-2,6.6c-0.2,0-3.8-20.7,6.2-40.7C266.7,751.2,273.3,743.4,281.5,737.5z"/>
				<path class="st4" d="M227.2,705.7c1.2,1,2.5,1.7,4,2.1c2.2,0.7,4.6-0.4,5.5-2.5c0.7-1.4,1-2.9,1-4.4c1.5,1.3,2.2,3.2,2,5.2
					c-0.1,1.1-0.5,2.1-1.1,3c-0.6,0.9-1.5,1.7-2.5,2.1c-2,0.9-4.4,0.7-6.2-0.6C228.2,709.5,227.2,707.6,227.2,705.7z"/>
				<path class="st4" d="M201.1,713.1c1.2,1,2.5,1.7,4,2.1c2.2,0.7,4.6-0.4,5.5-2.5c0.6-1.4,1-2.9,1-4.4c1.5,1.3,2.2,3.2,2,5.2
					c-0.1,1.1-0.5,2.1-1.1,2.9c-1.9,2.8-5.8,3.6-8.6,1.6c0,0-0.1-0.1-0.1-0.1C202.1,716.9,201.1,715,201.1,713.1z"/>
				<polygon class="st5" points="150.7,613.6 179.7,612.4 197.9,588.1 168.1,589.3 				"/>
				<polyline class="st6" points="193,635.5 179.7,612.4 150.7,613.6 				"/>
				<polyline class="st7" points="197.9,588.1 179.7,612.4 193,635.5 				"/>
			</g>
			<g id="log">
				<g id="log-2">
					<path class="st4" d="M510.8,818.8c-34.7,6.3-71.5-1.4-105.6,6.3c-16.1,3.6-31,18.7-46.5,21.4c-8.1,1.4-17.2-4.9-25.4-4
						c-8.6,0.9-19.6,8.8-27.4,12.8c-17.4-7-26.7-33-30.3-49.8c-4-18.3-1.7-44.2,10.3-60.3c27.7-1.8,50.1-13.4,78-14.3
						c22.1-0.7,20.2-5.5,38.3-10.8c12.3-3.6,24.8-0.3,37.2-3.6c17.8-4.8,22.4-19.3,44-11.5c13.4,4.9,15.3,14,21.2,24.9
						C519.6,759.1,514.8,786.9,510.8,818.8z"/>
					<path class="st7" d="M305.8,855.3c-35.9-11.8-49.3-84.2-20.1-110C315.1,770.9,342.4,828.1,305.8,855.3z"/>
					<path class="st6" d="M307.3,796c-1.2,12.6,2.8,24.4-5.6,35.1c-12.5-9.1-26.2-29.5-22-46.5C285.6,760.4,303.8,776.7,307.3,796z"
						/>
				</g>
				<g id="whorls">
					<path class="st0" d="M312.2,752.1c7.7,1,15.2,2.2,22.6,3.3c3.7,0.6,7.4,1.1,11.1,1.6c3.7,0.5,7.4,1,11.1,1.5
						c3.7,0.5,7.4,1.2,11.1,1.6c3.7,0.4,7.5,0.5,11.3,0.2c7.5-0.6,14.6-3.2,20.8-7.4c0.8-0.5,1.5-1.1,2.2-1.7l2.2-1.8
						c0.8-0.6,1.5-1.3,2.4-1.8l2.5-1.7c3.3-2.2,6.8-4.1,10.5-5.7c3.6-1.6,7.3-3.1,11.1-4.3c3.7-1.2,7.6-2.2,11.4-3
						c3.8-0.7,7.7-1.3,11.6-1.6c3.9-0.3,7.8-0.5,11.7-0.5c3.9,0,7.8,0.2,11.7,0.6c3.9,0.4,7.7,1,11.5,1.9l-0.1,0.8
						c-15.2,2-30.2,4.2-44.6,7.5c-3.6,0.8-7.2,1.7-10.8,2.6c-3.6,0.9-7.1,2-10.5,3.2c-3.5,1.2-6.8,2.7-10.2,4.2
						c-1.6,0.8-3.3,1.6-4.9,2.5l-1.2,0.6l-1.4,0.7c-0.9,0.4-1.8,1-2.7,1.3l-2.8,1.2l-2.8,1c-0.9,0.3-1.9,0.6-2.8,0.8l-1.4,0.4
						c-0.5,0.1-0.9,0.2-1.4,0.4c-3.8,1-7.6,1.7-11.4,2.4s-7.7,1.3-11.6,1.8c-3.9,0.5-7.8,0.8-11.8,0.8c-3.9,0-7.8-0.4-11.7-1.1
						c-7.7-1.3-15.2-3.4-22.4-6.4c-3.6-1.4-7.1-3.2-10.5-5.2L312.2,752.1z"/>
					<path class="st0" d="M490.7,720.8c-6.6,1.4-13.1,2.4-19.5,3.4c-3.2,0.4-6.5,0.9-9.7,1.3c-3.2,0.4-6.4,0.9-9.7,1.3
						c-3.2,0.4-6.5,0.6-9.7,0.9s-6.5,0.5-9.8,1c-6.5,1-12.7,3.1-18.3,6.4c-5.8,3.5-11.8,6.9-18.1,9.2c-3.2,1.1-6.4,2.1-9.6,3.1
						s-6.5,1.8-9.8,2.4c-6.6,1.2-13.2,2-19.9,2.2c-6.7,0.3-13.4,0-20.1-1l-0.1-0.8c6.5-2,12.9-3.6,19.3-5.1
						c6.4-1.5,12.8-2.9,19.1-4.1c6.4-1.2,12.8-2.2,19.1-3.7c3.1-0.7,6.3-1.3,9.5-2.1c3.2-0.7,6.3-1.6,9.3-2.8
						c6.2-2.7,12.5-4.8,18.8-7.1s12.7-4.6,19.3-5.7c3.3-0.6,6.6-0.9,10-1.1c3.3-0.3,6.7-0.3,10-0.3s6.7,0.2,10,0.5
						c3.4,0.3,6.7,0.8,10,1.5L490.7,720.8z"/>
					<path class="st0" d="M327.9,782.7c3.9-1,7.9-1.8,11.8-2.6l5.9-1.2l5.9-1c2-0.3,3.9-0.9,5.9-1.3c1.9-0.4,3.9-0.6,5.9-0.5
						c2,0.1,4,0.3,6,0.8c2.1,0.4,4.2,1.1,6.2,2.1l0.1,0.8c-1.8,1.2-3.7,2.2-5.8,3c-1.9,0.7-3.9,1.3-5.9,1.7
						c-1.9,0.4-3.9,0.5-5.9,0.4c-2-0.1-4-0.3-6-0.3l-6-0.1l-6-0.2c-4-0.2-8-0.4-12-0.7L327.9,782.7z"/>
					<path class="st0" d="M426.4,763.5c0.2-1.3,0.9-2.5,1.9-3.3c0.9-0.8,1.9-1.6,3-2.3c1-0.7,2.1-1.3,3.2-1.8s2.2-1.1,3.3-1.6
						c4.5-2.1,9.3-3.7,14.1-4.7c2.5-0.5,4.9-0.8,7.5-1.1c2.6-0.2,5.2-0.2,7.8,0c1.4,0.1,2.8,0.4,4.1,0.8c1.7,0.5,3.2,1.4,4.4,2.7
						c0.7,0.8,1.2,1.8,1.5,2.8c0.2,0.9,0.3,1.9,0.3,2.8c-0.1,1.6-0.5,3.1-1.1,4.6c-0.5,1.3-1.2,2.6-1.9,3.8
						c-0.7,1.2-1.5,2.3-2.4,3.4c-1.7,2.2-3.7,4.1-5.8,5.8c-1.1,0.8-2.3,1.6-3.5,2.3c-1.2,0.7-2.5,1.3-3.9,1.8
						c-1.3,0.5-2.7,0.9-4.1,1.1c-1.4,0.2-2.8,0.4-4.2,0.4c-2.8,0-5.6-0.5-8.2-1.4c-2.5-0.9-4.9-2.2-7.1-3.8c-2.1-1.5-4-3.3-5.8-5.3
						c-0.8-1-1.6-2-2.2-3.2C426.7,766.2,426.3,764.9,426.4,763.5z M427.3,763.6c0,0.5,0.1,1.1,0.3,1.6c0.2,0.5,0.5,1,0.9,1.5
						c0.7,0.9,1.6,1.7,2.5,2.3c1.9,1.3,4.1,2.2,6.3,2.8c4.2,1,8.6,1.3,12.9,0.8c2-0.2,4-0.7,5.9-1.3c1.9-0.7,3.8-1.6,5.5-2.7
						c1.8-1.1,3.5-2.4,5-3.9c1.5-1.4,2.7-3.1,3.7-4.9c0.4-0.8,0.7-1.6,0.8-2.4c0-0.3,0-0.6,0-0.8c0-0.1,0-0.3-0.1-0.4
						c-0.5-0.5-1-0.9-1.7-1.1c-0.9-0.4-1.9-0.7-2.9-0.9c-2.2-0.4-4.5-0.6-6.8-0.6c-2.3,0-4.7,0.1-7,0.3c-4.8,0.4-9.5,1.1-14.2,2.2
						c-2.3,0.6-4.6,1.4-6.7,2.5c-1.1,0.5-2,1.2-2.9,2.1C427.9,761.4,427.4,762.5,427.3,763.6L427.3,763.6z"/>
				</g>
				<g id="mushrooms">
					<path class="st7" d="M449.2,812c1.4,6.1,17.6,5.6,34.6,1.8c17-3.9,21.3-8,19.9-14.2s-8.9-16-25.9-12.1
						C460.8,791.4,447.8,805.9,449.2,812z"/>
					<path class="st7" d="M484.3,777.5c2.8,5.8,17,8.8,28.6,3.4c11.6-5.4,19.5-19.1,16.8-24.9c-2.8-5.8-14.5,0-26,5.5
						C492.1,766.9,481.5,771.7,484.3,777.5z"/>
					<path class="st7" d="M426.6,797.1c1.2,4,8.8,6,16.4,3.8s11.8-7.9,10.5-12c-1.2-4.1-7.8-6.3-15.4-4S425.4,793.1,426.6,797.1z"/>
					<path class="st7" d="M406.9,808.9c0.4,2.4,4.5,4.2,9,3.5s7.3-3.5,6.9-5.9s-3.9-4.2-8.4-3.5S406.6,806.5,406.9,808.9z"/>
					<path class="st7" d="M392.6,802.5c0.3,1.8,2.4,3.3,5.8,2.8c3.4-0.5,4.9-2.5,4.6-4.4c-0.3-1.9-2-1.3-5.4-0.8
						S392.3,800.7,392.6,802.5z"/>
				</g>
				<path class="st7" d="M299.8,797.9c0.3,1.2,0.6,2.4,1,3.7c0.4,1.3,0.6,2.6,0.8,4c0.2,1.9-0.3,3.8-1.4,5.3
					c-0.3,0.3-0.6,0.7-0.9,0.9c-0.7,0.6-1.6,1-2.5,1.2c-0.9,0.2-1.8,0.1-2.6-0.2c-0.7-0.3-1.4-0.7-2-1.2c-1-0.9-1.9-2-2.6-3.1
					c-1.4-2.1-2.7-4.4-3.8-6.8c-0.5-1.2-1-2.5-1.2-3.8c-0.3-1.4-0.3-2.8-0.2-4.2c0.1-1.5,0.5-3,1.2-4.4c0.2-0.4,0.4-0.7,0.7-1.1
					c0.3-0.4,0.6-0.7,0.9-1c0.7-0.7,1.6-1.2,2.6-1.4c1-0.2,2-0.2,2.9,0c0.4,0.1,0.9,0.3,1.3,0.5c1.7,0.9,3.1,2.3,3.8,4.1
					c0.5,1.2,1,2.5,1.3,3.8L299.8,797.9z M299.3,798c-0.3-1.2-0.9-2.3-1.6-3.3c-0.7-1-1.6-1.8-2.5-2.5c-0.8-0.6-1.7-1.2-2.6-1.6
					c-0.6-0.3-1.2-0.4-1.8-0.2c-0.6,0.2-1,0.7-1.3,1.2c-0.5,0.8-0.9,1.7-1.1,2.7c-0.4,2.2-0.5,4.5-0.4,6.8c0.1,1.2,0.4,2.4,0.8,3.5
					c0.4,1.1,1,2.2,1.8,3.1c0.7,0.9,1.7,1.5,2.8,1.9c0.8,0.3,1.7,0.3,2.4-0.1c0.6-0.4,1.1-0.9,1.5-1.5c0.6-0.9,1-1.8,1.4-2.8
					c0.5-1.1,0.8-2.3,0.9-3.5C299.7,800.4,299.6,799.2,299.3,798L299.3,798z"/>
			</g>
		</g>
	</g>
</g>
</svg>
