<?xml version="1.0" encoding="utf-8"?>
<!-- Generator: Adobe Illustrator 24.0.1, SVG Export Plug-In . SVG Version: 6.00 Build 0)  -->
<svg version="1.1" id="Layer_1" xmlns="http://www.w3.org/2000/svg" xmlns:xlink="http://www.w3.org/1999/xlink" x="0px" y="0px"
	 viewBox="0 0 209.1 209.4" style="enable-background:new 0 0 209.1 209.4;" xml:space="preserve">
<style type="text/css">
	.st0{fill:#2E3192;}
	.st1{enable-background:new    ;}
	.st2{fill:#FFE381;}
	
		.st3{opacity:0.5;fill:none;stroke:#2E3192;stroke-width:12.37;stroke-linecap:round;stroke-miterlimit:8.46;enable-background:new    ;}
	
		.st4{opacity:0.75;fill:none;stroke:#2E3192;stroke-width:12.37;stroke-linecap:round;stroke-miterlimit:8.46;enable-background:new    ;}
	.st5{opacity:0.25;fill:#2E3192;enable-background:new    ;}
</style>
<title>Asset 1</title>
<g>
	<circle class="st0" cx="115.7" cy="93.4" r="93.4"/>
	<g>
		<g class="st1">
			<path class="st2" d="M65.9,77.5V84h21v10.3h-21v15.5H52.8V67.3h35.3v10.2H65.9z"/>
		</g>
		<g class="st1">
			<path class="st2" d="M99.3,109.8H85.7l16.7-42.5h16.7l15.6,42.5H121l-3.1-9h-15.2L99.3,109.8z M111.3,81.7l-0.9-3.6l-0.9,3.7
				l-3.8,10h9L111.3,81.7z"/>
		</g>
		<g class="st1">
			<path class="st2" d="M171,109.4c0.7,0.4,1.6,0.9,2.1,1.1l-7.2,8.3c-0.6-0.2-3.4-1.9-6-3.9c-2.2-1.8-4.5-3.9-5.2-4.7
				c-1.2-0.1-2.4-0.2-3.6-0.3c-10-1.5-16.4-7.2-16.4-21.5c0-13.6,7-21.8,22.8-21.8c16.6,0,22.8,7.3,22.8,21.6
				c0,12.5-5.6,18.3-11.5,19.9C169.3,108.4,170.3,109.1,171,109.4z M167.1,88.5c0-7.7-2-11.9-9.6-11.9c-7.3,0-9.5,3.7-9.5,11.9
				c0,6.8,1.2,12.1,9.5,12.1C164.3,100.6,167.1,97.3,167.1,88.5z"/>
		</g>
	</g>
	<path class="st3" d="M126,203.1c3.2-0.3,6.4-0.6,9.6-1.2"/>
	<path class="st4" d="M22.4,34.3c-31.9,52.5-15.3,121,37.3,152.9c15.3,9.3,32.6,14.8,50.5,16"/>
	<circle class="st5" cx="151.7" cy="196.1" r="6.2"/>
</g>
</svg>
