<?xml version="1.0" encoding="utf-8"?>
<!-- Generator: Adobe Illustrator 24.0.1, SVG Export Plug-In . SVG Version: 6.00 Build 0)  -->
<svg version="1.1" id="Layer_1" xmlns="http://www.w3.org/2000/svg" xmlns:xlink="http://www.w3.org/1999/xlink" x="0px" y="0px"
	 viewBox="0 0 1366 471" style="enable-background:new 0 0 1366 471;" xml:space="preserve">
<style type="text/css">
	.st0{opacity:0.3;fill:url(#background_30_1_);enable-background:new    ;}
</style>
<title>backlandscape</title>
<g id="background_details">
	
		<linearGradient id="background_30_1_" gradientUnits="userSpaceOnUse" x1="611.0746" y1="200.1953" x2="611.0746" y2="686.9415" gradientTransform="matrix(0.84 0.104 0.104 -0.84 119.4829 494.7292)">
		<stop  offset="0" style="stop-color:#2E3192"/>
		<stop  offset="5.000000e-02" style="stop-color:#3550A2"/>
		<stop  offset="0.1" style="stop-color:#3C6FB2"/>
		<stop  offset="0.17" style="stop-color:#428BC0"/>
		<stop  offset="0.24" style="stop-color:#47A1CC"/>
		<stop  offset="0.33" style="stop-color:#4BB2D4"/>
		<stop  offset="0.44" style="stop-color:#4EBDDB"/>
		<stop  offset="0.58" style="stop-color:#50C4DE"/>
		<stop  offset="1" style="stop-color:#50C6DF"/>
	</linearGradient>
	<path id="background_30" class="st0" d="M1366,116.9c-26.1-3.6-65.3,15-65.3,15c2.6-6.2,6.6-15.4,3.1-19.2
		c-2.5-2.7-12.2,3.8-19.1,7.8c17.4-13.2,28-26.4,25-32.3c-3.1-6.2-24.2,4.5-41.9,20.1c3.3-4.2,6.7-8.7,10-13.6
		c16-23.7,23.4-33.8,19.2-39.5c-2.9-3.9-22.8,9.6-39.5,32.7c1.9-13.4,0.3-23.9-4.9-26c-4.7-1.9-10.1,42-19.4,37
		c-159.3-85.5-303-87.9-405.7-36.6c-16.1-22.9-62.9-25-95.7-25.6c-18.3-0.3-32.1,16-41.8,28.9c0.8-14.6-3.3-27.5-11.2-34.4
		c1.1-2.2,2.4-4.2,3.8-6.1c2.4-3.1,5.3-5.6,8.5-7.6c2,6.8,8.6,10.5,14.7,8.3c6.1-2.2,9.4-9.6,7.4-16.4c-2-6.8-8.6-10.5-14.7-8.3
		c-4.3,1.6-7.4,5.8-7.9,10.7c-0.1,0.7-0.1,1.4-0.1,2.2c-8.2,1-15.8,5.4-21.1,12.4c-14.7-3.2-31.4,10.7-39.3,33l0,0
		c-1.9-2.5-8.8-11.2-16.8-10.4c-6.9,0.7-12.1,8.2-15.7,15.8c-4.7,0.3-13.9,1.6-15.9,7.4c-1.4,4.3,1.9,9,9.5,20.4
		c16.3,24.3,16.5,53.4,15.4,54.8c-6.2-17.2-18-39.4-22.4-30.7c-3.7,7.4-2.5,31.6,4.3,41.3c-11.9-7.1-27.3-10.3-8.4,14.1
		c-7.9-3.9-58.8-20.7-71.9-15.3c-6.9,2.8-13.1,7.5-17.9,13.8c-9.4-0.9-18.9-0.5-28.3,1.3c-11.4,2.2-22.5,6.4-32.8,12.4
		c-24.7,0.6-48.2,11.9-65.6,31.5c-20.2-5.9-41.8-1.8-59.1,11.4c-20.7-6.7-28.3-131.5-49.1-138.2c-4.9-15.5-16.2-27.2-29.8-30.3
		c-17-3.9-32.7,6.6-41.1,17.5c-17.9-6.7-44.8-3.2-62.8,20.2c-14-46.2-81.4-62.2-108.3-64.4L0,309.2l1328,161.3 M654.4,51.7
		c-1.9,4.1-4.9,6.6-6.5,5.6c-1.7-1-1.5-5.1,0.4-9.1c1.9-4.1,4.9-6.6,6.5-5.6C656.4,43.6,656.3,47.6,654.4,51.7z M672.2,58.3
		c-1.9,4.1-4.8,6.6-6.5,5.6s-1.5-5.1,0.4-9.2s4.8-6.6,6.5-5.6C674.2,50.1,674.1,54.2,672.2,58.3L672.2,58.3z"/>
</g>
</svg>
