<?xml version="1.0" encoding="utf-8"?>
<!-- Generator: Adobe Illustrator 24.0.1, SVG Export Plug-In . SVG Version: 6.00 Build 0)  -->
<svg version="1.1" id="Layer_1" xmlns="http://www.w3.org/2000/svg" xmlns:xlink="http://www.w3.org/1999/xlink" x="0px" y="0px"
	 viewBox="0 0 1366 432" style="enable-background:new 0 0 1366 432;" xml:space="preserve">
<style type="text/css">
	.st0{fill:url(#SVGID_1_);}
</style>
<title>forelandscape</title>
<g id="background_details">
	
		<linearGradient id="SVGID_1_" gradientUnits="userSpaceOnUse" x1="614.5675" y1="-111.0893" x2="614.5675" y2="399.3267" gradientTransform="matrix(0.8464 0 0 -0.8464 162.8495 337.9775)">
		<stop  offset="0" style="stop-color:#2E3192"/>
		<stop  offset="0.15" style="stop-color:#32419B"/>
		<stop  offset="0.46" style="stop-color:#3C6DB1"/>
		<stop  offset="0.88" style="stop-color:#4BB1D4"/>
		<stop  offset="1" style="stop-color:#50C6DF"/>
	</linearGradient>
	<path class="st0" d="M1365.1,88.7c0,0-49.8-74.4-215.4-47.3c-7.7,1.3-49.2,11.2-85.3,21.8c-23.9-7-32.4-2.4-32.4-2.4
		c6.5-24.8,0-34.7-4.7-35.2c-5.1-0.6-11.1,4.9-15.8,14.6c-2.3-23-9-40.6-15.6-40.2c-7.1,0.4-11.5,21.5-9.7,47
		c0.3,4.8,0.8,9.4,1.5,13.7c-11-16.8-22.4-27.4-27.7-24.8c-5,2.4-2.9,16.1,4.5,33h0c-6.8-4-12.2-5.4-14.6-3.4
		c-1.4,1.2-1.7,3.4-1.1,6.3c-30.9-4.3-92.6-9.8-150.4,34.8c-26.3,20.3-38,22-48.5,28c-1.6-0.6-3.3-1.1-4.9-1.5
		c-11.9-2.8-24.1,0.7-29.3,4.2c-16.6-3-32.2,28.4-146.3,28.4c-80.6,0-100.5-63.4-136-71c3.8-3.4,4.9-8.8,4.3-9.2
		c-2.2-1.6-7.4-0.1-14.2,3.7c8.5-14.7,11.7-26.4,7.1-28.2c-4.8-1.9-16.6,7.7-28.4,22.4c1-3.7,1.9-7.6,2.6-11.6
		c3.8-21.7,1.5-39.3-5.2-39.3c-6.2,0-14.1,15.2-18.2,34.8c-3.6-8-8.9-12.8-13.7-11.6c-3.1,0.8-1,7.7,0.2,14.5
		c-7.5-16.9-38-46.5-62.8-46.5c-34.6,0-16.1,47.7-76.9,72.7c-40.5,16.7-60.4,0.5-60.4,0.5c-4.3-8.2-9.7-13.1-14.2-12.1
		c-5,1.1-7.6,9-7.2,19.6c-13-19.7-27.4-32.7-33.1-29.6c-6.2,3.3-0.1,24,13.6,46.2c2.6,4.1,5.2,8,7.8,11.6
		c-17.8-10.5-33.1-15.2-36.6-10.8c-3.3,4.2,5.1,15.6,19.7,27.7l0,0c-8-0.8-13.5,0.2-14.7,3c-0.9,2,0.4,4.6,3.3,7.6
		c-19.5,17.5-60.3,70.6-83.1,82.8c-8.9,4.7-15.5-2.3-18.7-2.2v122.5L0,432l1366-10.1l-3.6-79"/>
</g>
</svg>
