<?xml version="1.0" encoding="utf-8"?>
<!-- Generator: Adobe Illustrator 24.0.1, SVG Export Plug-In . SVG Version: 6.00 Build 0)  -->
<svg version="1.1" id="Layer_1" xmlns="http://www.w3.org/2000/svg" xmlns:xlink="http://www.w3.org/1999/xlink" x="0px" y="0px"
	 viewBox="0 0 405 300" style="enable-background:new 0 0 405 300;" xml:space="preserve">
<style type="text/css">
	.st0{fill:none;}
	.st1{fill:#2E3192;}
	.st2{opacity:0.3;}
	.st3{opacity:0.5;fill:#2E3192;enable-background:new    ;}
</style>
<title>01</title>
<g id="SVGgroupcirc">
	<polygon class="st0" points="325.6,117.5 330.7,62.6 384,67.8 378.9,122.7 	"/>
	<ellipse class="st1" cx="354.8" cy="92.7" rx="26.8" ry="27.6"/>
	<polygon class="st0" points="194.5,138.3 197.1,109.8 224.8,112.5 222.2,141 	"/>
	<ellipse class="st1" cx="209.7" cy="125.4" rx="13.9" ry="14.3"/>
	<polygon class="st0" points="148.5,199.6 153.4,146.1 205.4,151.2 200.5,204.7 	"/>
	<polygon class="st0" points="91.4,235.5 94.5,201.4 127.6,204.6 124.5,238.7 	"/>
	<ellipse class="st1" cx="109.5" cy="220.1" rx="16.6" ry="17.1"/>
	<polygon class="st0" points="258.9,118.8 262.7,78.1 302.1,82 298.4,122.6 	"/>
	<polygon class="st0" points="229.5,154.4 232,126.9 258.7,129.6 256.2,157 	"/>
	<ellipse class="st1" cx="244.1" cy="142" rx="13.4" ry="13.8"/>
	<polygon class="st0" points="122.9,181.9 125.1,158.6 147.7,160.8 145.6,184.1 	"/>
	<ellipse class="st1" cx="135.4" cy="171.3" rx="11.4" ry="11.7"/>
	<polygon class="st0" points="316.3,136.1 318.4,112.8 341.1,115 338.9,138.4 	"/>
	<ellipse class="st1" cx="328.7" cy="125.6" rx="11.4" ry="11.7"/>
	<g class="st2">
		<polygon class="st0" points="258.6,55.7 263.6,1.1 316.6,6.3 311.6,60.9 		"/>
		<polygon class="st0" points="195.8,135.9 202.5,63.6 272.6,70.5 265.9,142.8 		"/>
		<ellipse class="st1" cx="234.2" cy="103.2" rx="35.2" ry="36.3"/>
		<polygon class="st0" points="127.2,173.3 131,132.7 170.4,136.5 166.7,177.1 		"/>
		<ellipse class="st1" cx="148.9" cy="154.9" rx="19.8" ry="20.4"/>
	</g>
	<g class="st2">
		<polygon class="st0" points="277.5,108.1 283.1,47.3 342.1,53.1 336.5,113.8 		"/>
		<ellipse class="st1" cx="309.8" cy="80.6" rx="29.6" ry="30.5"/>
	</g>
	<polygon class="st0" points="61.9,249.9 64.2,225 88.4,227.4 86.1,252.3 	"/>
	<ellipse class="st1" cx="75.2" cy="238.7" rx="12.1" ry="12.5"/>
	<polygon class="st0" points="149.3,144.8 151.6,119.5 176.2,121.9 173.9,147.2 	"/>
	<polygon class="st0" points="207.3,128.9 210.6,93 245.5,96.4 242.2,132.3 	"/>
	<ellipse class="st1" cx="226.4" cy="112.6" rx="17.5" ry="18"/>
	<g class="st2">
		<polygon class="st0" points="345,104 350,50 402.5,55.1 397.5,109.2 		"/>
		<ellipse class="st1" cx="373.8" cy="79.6" rx="26.4" ry="27.1"/>
		<polygon class="st0" points="278.7,161.2 281.9,127.1 314.9,130.4 311.8,164.4 		"/>
		<ellipse class="st1" cx="296.9" cy="145.8" rx="16.6" ry="17.1"/>
		<polygon class="st0" points="183.4,204.4 187.6,158.8 231.9,163.1 227.7,208.7 		"/>
		<ellipse class="st1" cx="207.7" cy="183.8" rx="22.2" ry="22.9"/>
		<polygon class="st0" points="100.2,195.5 103.3,162 135.9,165.2 132.8,198.7 		"/>
		<ellipse class="st1" cx="118.1" cy="180.4" rx="16.4" ry="16.9"/>
		<polygon class="st0" points="117.6,234.9 121.7,189.9 165.4,194.2 161.3,239.2 		"/>
		<ellipse class="st1" cx="141.5" cy="214.6" rx="21.9" ry="22.6"/>
		<polygon class="st0" points="326.2,163.2 330.4,118.2 374.1,122.5 369.9,167.5 		"/>
	</g>
	<ellipse class="st3" cx="274" cy="215.9" rx="77.9" ry="80.2"/>
	<ellipse class="st3" cx="50.9" cy="189.7" rx="48.4" ry="49.9"/>
</g>
</svg>
